<mxfile host="app.diagrams.net" modified="2023-02-23T10:41:43.241Z" agent="5.0 (Macintosh; Intel Mac OS X 10_15_7) AppleWebKit/537.36 (KHTML, like Gecko) Chrome/110.0.0.0 Safari/537.36" etag="hveNbpCwTv-n2bJjRrr-" version="20.8.23" type="github">
  <diagram name="第 1 页" id="mL-bnXOwJE-U9mNaeaYk">
    <mxGraphModel dx="2091" dy="1554" grid="1" gridSize="10" guides="1" tooltips="1" connect="1" arrows="1" fold="1" page="1" pageScale="1" pageWidth="827" pageHeight="1169" math="0" shadow="0">
      <root>
        <mxCell id="0" />
        <mxCell id="1" parent="0" />
        <mxCell id="PVqFNuO40D3JptiVjfTZ-1" value="" style="shape=image;verticalLabelPosition=bottom;labelBackgroundColor=default;verticalAlign=top;aspect=fixed;imageAspect=0;image=data:image/png,iVBORw0KGgoAAAANSUhEUgAABUEAAAC1CAYAAABxoz4IAAAACXBIWXMAAAsTAAALEwEAmpwYAAAgAElEQVR4nOz9eVjU973//99nhh1ENgEBEfc1ilHjvmKM0UQTE7NqTpYrbX7NcpKraT5tP03Tpjk9Pfmc06bpadqktemx3yY1MYnGHOOKEYlGcUFwAURAREDZhm0Yhll+f3B4h5HBkEXxkMfturjCvNfX+82A7zzm+Xq9TB6Px4OIiIiIiIiIiIhIH2Xu7QaIiIiIiIiIiIiIXEkKQUVERERERERERKRPUwgqIiIiIiIiIiIifZpCUBEREREREREREenTFIKKiIiIiIiIiIhIn6YQVERERERERERERPo0haAiIiIiIiIiIiLSpykEFRERERERERERkT5NIaiIiIiIiIiIiIj0aQpBRUREREREREREpE9TCCoiIiIiIiIiIiJ9mkJQERERERERERER6dMUgoqIiIiIiIiIiEifphBURERERERERERE+jS/3m7At4ndbqe2thabzYbb7e7t5oiIiIiIiIiIiFwVZrOZkJAQoqKiCAoKuurnN3k8Hs9VP+u3kN1up6ysjJiYGMLDwzGbVYQrIiIiIiIiIiLfDm63m4aGBqqrq0lKSrrqQahC0KukvLyckJAQIiIierspIiIiIiIiIiIivcJqtWKz2UhISLiq51U54lVis9kIDw/v7WaIiIiIiIiIiIj0mvDwcGw221U/r0LQq8TtdqsLvIiIiIiIiIiIfKuZzeZemStHqZyIiIiIiIiIiIj0aQpBRUREREREREREpE9TCCoiIiIiIiIiIiJ9mkJQERERERERERER6dOuyRC0vr6ejRs34nK5eryP0+mksbERgAsXLpCZmXmlmiciIiIiIiIiIiL/i/j1dgMu1dzczOOPP050dDRTpkzxWufn50d8fDwADoeD999/n/z8fE6dOkVBQQF33XUXP/zhD/n444+pqqpi9uzZX6stra2tBAYGfq1jiIiIiIiIiIiISO+6oiGou6gExy9+RdCbf+zR9gUFBfzqV7/CarUC8MMf/tBYV1NTQ79+/XjnnXeA9kD04sWLxMXFcfjwYdLT04mIiABg69atJCYmsnbtWmN/i8XCgw8+2KN25Ofn8+KLL3L8+HGio6N58MEHeeCBB3q0r4iIiIiIiIiIiFxbrkgI6tqTCbExmCIiICQET1Mz7qzDmIYPwzwoscv2hw8f5o033qCiooI77riDJUuWEBcXZ6w/f/48zzzzDC+99JKxzOPxcO+991JRUcGOHTtoa2ujubmZ9PR0goKCuOeee4xtKysrefPNN3sUgtbU1PCd73yHn/3sZ8yYMYMzZ87wgx/8gOjoaJYtW/b1boyIiIiIiIiIiIhcdVdmTNDQUFwbNtL60P8Pd+Z+Wr/7FO7Sc5iCfHctt1gsrFp1Jx988AGpqak8+eSTbNmyBYCMjAweffRRXnjhBUaOHGnsU1ZWxsMPP8wzzzxDcXExDz/8MO+88w6vvfYaL730EmPHjuXFF19k6tSptLS0MGvWLAB+//vf88Ybb3idf/369UbA2tjUyI9//GMWLFhAUFAQ48aNY9asWRw6dKhLu0tKSjh27Ng3cstERERERERERETkyjB5PB7PFTmy2439yWfxVF4g4OnvYZkzq8e7Nja2B5GVlZVERkbywgsvkJjYtYIU4K9//SsbN27kgw8+wGQyUVVVxYABA2hqamL+/PkcOnSI/Px8/P39GTp0KJmZmbz00kts3brVOMbq1au56667WL58eZfju1wubr/9dh555BFWrFjhte7pp5+msLCQjz766AuvqaCgwCvEFRERERERERER+TbqjZzsis0O37b2vzDHDSDojd/hePHfcJeV92i/wsJCXnnlFXJycrj33nt5/fXXuw1AAbZs2UJZWRm//e1vAfD39+cPf/jD5+1oa+Odd95h6NChAEybNo3GxkYKCgoAuHjxIidOnGD+/Pk+j//GG2/g5+fHLbfc0mXd008/zS9/+cseXZeIiIiIiIiIiIj0jiszMZLHg6eqBv/vP4UpNJSA5/4ZT3EJJCV02dTpdJKTk8P+/fvZs2cPJ0+eBCAiIoI333yTN99802v7l19+mTFjxgBw8OBBpk6dislkwuFwsHbtWqKjozl79qyxvb+/PydOnDASZn9/f5YuXcrevXsZOXIkn376KfPnzyc8PLxL23bv3s3f/vY33n77bSwWS5f1KSkpX+MmiYiIiIiIiIiIyNVwZSpBTSYCfvwsptBQACw3pmGZM9Pnpo2NjfzkJz+htraW73znUQICAvj44495++23ee2117y+wsPDaW1tBaC1tZXXXnuN22+/HYCnnnqKqKgotm7dyrRp07zOsWjRIjIyMozXN910Ezt37gQgPT2dpUuXdmlXQUEBP/rRj/j3f/93Bg8e/PXviYiIiIiIiIiIiPSKK9YdvqciIyPZsmULzz//PHPmzMVkMjFo0CCfX0FBQcZ+27ZtY/78+QQHBwMQFBTEvHnz2L9/PzNmzPA6x5w5c9ixY4fxetKkSVy8eJGioiKOHDnC7Nmzvbavqanh8ccf5//8n//DzJm+w1sRERERERERERH53+HKdIe/CiZPnkz//v2pr683lqWnp7NgwQLi4+Npamoylo8cOZKamhrKy8tJSEjAYrGwdOlS/uVf/oV58+YZQSq0V5g+/fTTTJgwgTlz5lBdXQ20z2AfGRnp1YZt27ZRUVHBgw8+eGUvVkRERERERERERL6yay4EdTqdrF+/3ue6yspK4/uOyZI6h6Bjxoxh1KhRxnE6mEwmHnroIZqbm41lN910E2+++abXJEoAe/bs4ejRo0B7yNlh+PDhbNy40WvbgwcPUlRUpBBURERERERERETkGnbNhaAAtbW1Ppd3DjZ9GTduHADvvvsuu3btMmaEB7j//vu9th0/fjzHjx/vcozFixf7XO7L888/j9vt7tG2IiIiIiIiIiIi0juuqRDUz8+PX//616SlpflcP2XKlC4zskdGRvL00097LZswYQJxcXFMmDDhSjXVYDb3+rCqIiIiIiIiIiIichkmj8fj6e1GfBsUFBQwcuTI3m6GiIiIiIiIiIhIr+qNnExljCIiIiIiIiIiItKnKQQVERERERERERGRPk0hqIiIiIiIiIiIiPRpCkFFRERERERERESkT1MIepWYzWbcbndvN0NERERERERERKTXuN1uzOarH0kqBL1KQkJCaGho6O1miIiIiIiIiIiI9JqGhgZCQkKu+nkVgl4lUVFRVFdXY7VaVREqIiIiIiIiIiLfKm63G6vVSnV1NVFRUVf9/CaPx+O56mf9lrLb7dTW1mKz2RSEioiIiIiIiIjIt4bZbCYkJISoqCiCgoKu+vkVgoqIiIiIiIiIiEifpu7wIiIiIiIiIiIi0qcpBBUREREREREREZE+TSGoiIiIiIiIiIiI9GkKQUVERERERERERKRPUwgqIiIiIiIiIiIifZpC0F5kt9s5deoUbre7x/u4XC5aW1sBaGpqouRsyZc6Z1lZGeXl5V9qn6+rqamJsrKyy25z4cIFKisrvZYVFhbicrkAqKmpobq62mu90+ns9ngXL16ksbERm81GbW2tz21sNhstLS0A1NfX9+heNjY2cv78eQDy8vK8lp85c+YL9++OzWajsLDwK+8vl3f27Fmqqqq+1D42m834vri42Ov1leB2u3v8++yrLaWlpTQ2NvZo/9LSUi5evPhlmuelra2NM2fO0NbW9pWPcTmdf7dEREREREREvgl+vd2AbyuHw8GWLVsICgoiISHBa53FYiEsLAxoDz1PnDhBTU0NNTU11NXVMXr0aObMmcPp06dpbm4mZXCKz3O43W7sdrvXsra2Nvbt28ftt9/eZfugoCDMZjPnzp3j+PHjPbqOgQMHkpqaitPpZM+ePV7rEhMTGT16NJ988gnQHoZ2nCclxbvN58+fx+12Ex8fbyzLysoiMTGR4OBgzp07B0BMTIyxfteuXURHRzNlypQu7Tp16hQJCQnEx8ezc+dO7rjjDiwWi9c227ZtY8KECQwbNoyamhoKCwu7vZcAW7ZswWazYbfb6d+/PxcvXuT06dOkpKTQ0tJCUVGREZAGBAQwffr0y9+8TsrLyykuLmb48OHGspaWli4/v9DQUAICAnp83CvF7XZTVlZGYmJil/t6rTl9+jTp6eksWbKE+vp6r3UhISH4+/sDUFlZydmzZ6murqa6uhqXy8XKlSvp168f6enp3HvvvT6PX1JSwqlTp3rcnjFjxnR5/wMcO3aM+vr6y74HO+zdu5d+/foxY8YMTCYTLpeL9PR0brvtti/c1263s2vXLpYuXdrjNndmtVrZtm0bQUFBHDlyhCVLltCvX78vdYyysjKSkpK6XZ+RkcGQIUMwm70/pzObzVgsFpqammhrayMyMvIrXYOIiIiIiIh8+ygE7QXV1dXs3bvXCLh27dplrLPZbAQGBrJq1Sqg/X/6m5ubCQ0NpbKykjVr1hAUFATAmTNnCAsL4/Dhw8b+ZrOZSZMmAe1hxYYNGwgJCenShvfff7/LsiVLlhATE0NUVBTXXXed17qWlhYyMzO58cYbvZZ3HNtsNjNs2DBOnjxJv379GDRoEGFhYWRnZ9PW1sawYcNwOBzk5+czaNAgnyFQh3379lFeXk5TUxObN2/GbDYblW+FhYXMmDGDxMRE0tLS+OSTT9izZw9z587FZDJ1OVa/fv0YPXo0VVVVXgFrUVERFy5coKGhgWPHjlFTU4PVauXYsWNe+w8bNswIpOfOncv+/fsZPXo0ycnJ5Obmct111+F2u/nggw+YMmUKAwYMYOfOnSxevLjb6/Olurqa6Ohor2WnTp3ixIkThIaGAu3VqvPmzWPo0KFf6thXQkeIv2bNGqN91xqn08nJkyfJyspiwIABXr8n0H7PFy9ebLwXHQ4Hfn5+tLa2MnnyZMaNG4fJZKKkpASTydQl6ExMTCQ+Pp6YmJguvy8A+fn52Gw24/exQ0RERJdtq6uryc/P54477jCWHTt2jPDwcIYMGdJl+0WLFrFv3z527drFokWLKC0txeFw+PzwIiUlxStwPHjwIA6Hg48//tjHXQOPx0NsbCzLli3zWu52uykqKiIrK4tZs2aRnJxMSUkJmzdvZvr06aSkpHQJLX3Jy8ujoqLisiEowPr167ssu+GGGxg9ejQWi4UPP/yQlStXGn8PRURERERERC5HIehVdP78eQ4fPkxzczNjxoxh+PDhRsAG7SHX9u3bWbBggbHM4/EwYcIEGhsbKS4uxuVy4XA4KCoqwmKxMH78eGPbpqYmjh075hW69OvXz6uCzW6343a7vYJRt9vtFV6EhoZ2Cbaam5sxm83dBhdms5mUlBSysrK44YYbiImJ4dChQxw7doyJEyca12e32wkJCSEvL4/Ro0djtVo5cuQINTU1eDweHA4H06ZNw+Px8M4773DzzTcTHBxMTk4OHo+HiRMnGm318/Nj0aJFXLhwgQsXLpCfnw+0B7bnz5+nvr7e6PpfV1dHREQEQUFBHD9+nGPHjrF48WL8/Np/BVpbW6mvr+9SWdZ5/Z49ewgICODixYtcvHiRpKQk/vu//5vk5GRmzpzJiRMnqKur47rrriM2Ntb3m+ASJSUlFBUVUVxcTGJiIunp6Vy4cIF58+YBMH78eOPnmZ6e3qNjfts5HA6ys7M5efIkycnJLFiwoEtwfPDgQSIjI73C+NjYWKKjo6mtrcXPz8/4QOKzzz5j2rRp9O/f39j2yJEjRpgZFhbm9XsM7cMxFBUVcc8993xhlWRzczPp6eksWrTIqEoFGDp0KJs3byYyMrJLcGqxWJgzZw719fU0NTWxb98+Fi5cSL9+/SgoKKCtrY1x48YBeJ0/NzeXsrIy1qxZ4/PDEYCKigoOHjxovLZareTl5VFYWEhiYiK33XYbpaWl7N+/n8mTJ3Prrbdy8OBBPv30U4YPH87o0aO7rdBsa2vjwIEDXmFvd1avXt1tqBocHMyoUaM4fPgws2bN+sJjiYiIiIiIiCgEvYrMZjNjx45l2LBhXLhwgS1btjBx4kRGjRpFSUkJn376KYsWLfLq8t3Q0MCWLVtwOp20trayadMmRo8ezcmTJ7n11lsJDg5mw4YN3HfffeTm5voMKV0uF3V1dcTExFBSUkJdXR0zZsww1r/11lusXLnSKxTxeDycOnWKsWPH9vj6mpqacDgcRvvHjRuHzWbDYrEQFxdHTk4OCxcuxOPxsGfPHkaPHk1ERAQLFy7kyJEjuN1upkyZgsvlorGxkblz5+JwOHA6ncaQAc3NzfTv398ITAGioqLw9/c3Kj0zMjKwWCxGBVxUVFSX+7FixQqv4MrpdGK1WklOTvZ5bRaLhUmTJpGVlUVaWhoHDhxgwIABAEyePJmSkhLa2to4d+4cDkcr1dXVXj/H7qSkpBAXF0dJSQmLFy/GbDbz/vvv069fvy5jpF6qtbWVAwcOcPbsWfz8/Bg+fDhTpkzBZDJRVFREYWEhI0eNZP++/TidToYOHcr06dOxWCzU1tayY8cO7r77buN4JSUl5Ofnc9NNN31huzs0NDSQnp5OdXU1CQkJTJs2zQjsMjIyGDBgAGPGjDG2//DDD5k8eTKJiYm4XC727dtHcXExJpOJ4cOHc8MNN9DS0sLmzZtZsWKF8Z50uVy89957LFy4kJiYGMrKyujfv7/PgNHf35+AgADuuOMOQkJC2LdvH3l5ecybNw8/Pz8yMjIwmSAtbZHXfllZWZw7d47m5mbKy8s5cuQIY8eOZeDAgYwbN45Dhw4REhLC6NGj2blzJ4mJiT7vic1mY9u2bbhcLkJDQ6mtraV///4+hw2orKwkPT2dCRMm0NraSmFhIXa73RgKwc/Pj927d3sNX7F3716jMnrBggVs2bKF1NRUYyiFiooKWltbiYuL8zpXYWEhR44cISkpyRiiorPU1FQSEhJwuVxeVdUHDhwgMjLS62/EqFGjyMnJ4fz58wwZMoS0tDRsNhsnTpzg6NGjLFy40Oe9KSkpITIysktovH37dq8xW91uN2+//XaX9nUEu9Bepf3BBx8Y72kRERERERGRy1EIehUNHDjQ+D4+Pp4VK1awc+dOjh07RlBQELfccotXtRm0d5297777OHr0KHl5eUZV56hRowgNDaW1tdUIRAYOHOgVzHg8HsxmM21tbWzdupXVq1cTGxtLTk6OEYJardYulaHQHkJ89tlnXiGox+PxmgjFZDIZlZIAJ06coLGxkTfeeAOAW265BZPJRP/+/YmLi8NisRAbG3vZiaDsdjs2m4333nuP8PBw3G43zc3N9OvXD5fLhb+/P6tWraKpqYkNGzbg8XiIiIhg5cqVQHsQW1lZSUpKCg0NDWzfvp1Vq1YZIUnHBEyXBozNzc00NTWxbdu2Lm1KTU0lLi6OhIQEUlJSyMnJITg4mN27d+PxeMjLy6O+vp6bb76Zfv36UVhYSEZGBsuXL/e6P905f/488fHxmM1mPB4PDQ0NX1g96PF42LlzJy6Xi0WLFtHS0sJnn30GwNSpU2lra6O8vBy73c7cuXNpc7ax79N9mEwmZs6cicvl6jI+psPhMMZt7ak9e/Zw/fXXM3XqVHJzc9m6dSt33nknfn5+NDc3Ex4e7rV9Y2Mjbc7299DBgweprq5m+fLltLa2snv3boKDg0lNTcXf35+zZ88aAWrHtURHR+PxeNi2bRvDhg1j/vz5XdpkMplITU01Xs+ZM4eSkhI2bNhAYGAg48aNY/z48V2GT5gzZw5Op5N169Yxc+ZMRowYgcPhMLbr6C7v8XiYM2eOz27YDoeD7du3M27cOKOaMjs7G4fDYYTcnRUVFWE2mykoKCAwMJCAgACCgoIICQkhJiaGQYMGcezYMU6fPs2IESMASE5Opq2tjczMTNxuN/Pnz/fZxf5SCQkJLFu2jEOHDhEXF+cVkh49etT4O3JpZXhHKJ6dnU1dXZ3XMWtqaigpKQFgxIgRTJ069bJtOHfunM8PB5qbm5kxY0aXDyw65ObmdpmEqX///rhcri5DXYiIiIiIiIj4ohC0l9TU1JCbm0tVVRVTp071qnDypbCwkObmZvbt28fMmTOxWCwcPHjQ6Grucrk4fvy4VyjkcDgIDAwkKCiIwMBArFYrkZGRNDY2YrfbCQoKorKyssvETN2x2+2sXbvWeB0YGMhDDz0EtFclnjhxgpiYGFauXEl6+ufjnH7yySdkZGTQ2trK3//+dwCvbr8dzp49y8mTJ1myZAmRkZHceeedNDU1sX37dlauXInVamXHjh1Aexffhx56iIaGBnbu3Gkc48iRI0ycOJHKykri4uJwOBxkZWUZkxSFhoZedjxSX0JDQ3G73eTk5ACfj4M6dOhQzp8/z/nz50lMTKSoqMjYZ+jQoT0aHxHag6HBgwcDGFWDX6S6upqKigpWr15thHGhoaFG939o/3ktXLjQqLoLDAhk8+bNTJs2rUft6onrrruOkSNHAjBgwAD+/ve/U1ZW1qN7XF1dTVJSkhHgrVy5EpfLBcDw4cMpLi42QtCSkhKGDx9uBJI33XRTj+6T0+nk9OnT5OTkEBUVxfz58y8bMJeUlOByuTh48CADBgwgIiKCU6dOeQV3Z8+e9Vl5aLVa2bp1K8nJyaSmphoh6Pz580lPT2fXrl2kpaV5vS9mzpzJzJkz8Xg85OfnM3r0aKA9HA0JCSE+Pp7AwECOHz9uhKAd75UDBw4A7cF+bm6u133tGDajw5w5cwgJCTHeuzExMV5V4wUFBcb3brfbZ3gfGxvbJdSG9gDz4MGDX/g3DNqrZLurkA4LC+s2zPUVOJtMJkJDQ2lpafnC84qIiIiIiIgoBL1KXC4XFy5coLS0lHPnzlFTUwO0B4nHjh3rMiHPokWLjHEly8rKjCpSl8vF4cOHCQkJ8arks1gsxqzWHSFDS0uLMbZnUlISZWVlREREMGDAAKqqqhg0aBDl5eU9DkGDg4P5p3/6J5/rysvLiYyMxOVy/U/I83mV3ezZsxkyZAjvvvsut912G263m02bNgFQVVXF0aNHOXv2LPHx8SxZsqRLxVdPnTt3jvPnzzN79myj0nPatGmsX7+eUaNGGd1wR40aBbRXU36RjtDN4/H4DN16EsR9kfPnzzNkaPvkNwUFBQwbNuwL96mpqSEqKsorHLq0ui88PNyr23FsbCwej6dLBejX0bkCr6PSt6ampkch6MiRI/nkk0+oq6sjOTmZIUOGEBwcDLSHoFlZWbS1teHv709xcbFXN/3LTarT1NREWVkZpaWllJWVGWGgy+Vi8+bNXtvGxcWRlpZmvC4qKiIlJYUBAwawbds2li1bRlZWFrfeequxjdlsJj8/3+sai4uLSU9PZ8SIEcyYMcPrvWU2m0lLS2PXrl2kp6eTlpbWpQrVZrNx6NAhIwStrKwkIiKC+Ph4Bg4c6FVFfqmQkBCv92FjYyMul+uy782OiusOHeEztH944utDCl9/J2w2G5s3b2bevHk9GgfXbrcTGBjoc53b7e72d7K75YGBgcYEcyIiIiIiIiKXoxD0Kuno7puYmMikSZPYvXu3MQP8pXbt2mWEEi6Xi6ysLObOnUtFRQUzZsygoKCA06dPG2MAdkhJSaGkpMQIQe12uxEqJSYmcvLkScaPH09cXJxRhVdWVsb111//ta9v8ODBBAcHk5mZ6bXc4/Hg7++Pv78/JpMJf39/r+7wbW1txMXFERoaSmBgIKGhoVitVpqamsjMzMThcNDQ0EBmZiatra3dnt9ms7F79+4uXY5DQ0NJTU1l//79LF261FielZXVZbbwS40dO5a5c+cC7WHokCFDuHjxIjk5xy6734gRI41qvZ5IS0tjx44dNKQ2cPr06W7fF505nc4vrDS9tJrPbDYbwyP42rcnofAXncPPz4LT6ezRvqNGjSImJobTp0+TnZ1NZmYmixcvJjk5mbCwMAYMGMC5c+cICwszxpXtidzcXCorKxkyZAgWi4WQkBCvcUk7dJ5MC9pnLY+NjaW2tpaIiAgmT55MZWUlHo/Ha6KfpKQkdu/ejdPpxM/Pj+zsbA4dOsScOXO6DdhNJhMLFizgww8/5LPPPvMakxfag0tfVZY9MWjQIAYNGmS8drvdtLa2MmHChG732bdvX5ef3ZAhQ2hsbKS09CxRUdFe6zr+Dl2quLgYj8djfAAzZcqUyw4BYTabux0OY+PGjd3uBxjV3J11DPkhIiIiIiIi8kUUgl4lISEh3H///UB7oLB79+5uu3527mp7+vRpUlJSjMosPz8/UlJSyMzM7DL5yODBg/nkk0+YMmUK0B4MdoSgAwcOZNeuXbjdboYPH05bWxsXLlwgODi4R+MJfhGz2exztunm5mZ27txphG/r1q3D4/EY7UpISCAhIcGYGKnzPYiJicFut1NRUUFMTAw2m43a2lqf5y8vL2fMmDE+xwacOHHi/0xY5CAgIMBYPnny5G4D4FOnTvk8l8ViITjY96zaHXxV0V3OwIEDWblyJZs2bSIgIMCrjd2JiYkhKysLl8tlvF867k9HlaTVajWCOoD6+npcLhdRUVE0Nzfjdrux2WzGz+2rdCuuqanxqjisqall8OAUAPz9/WhsbDTWeTyeLueIjo4mOjqa6dOns3fvXrKzs43JqUaMGEFxcTHh4eFGV/Ce6BwwHjhwgMDAQJ/v8ebmZq/XOTk53H777ezduxdor0bNzMzsUtXq5+dHfHy80e0/JiaG22+/neho7+DwUhaLhSVLlvgM88vKyoyJtnyx2WzU19f7rAitra3tdizN7ixcuLBLUO90OnnvvfeIjIzsEhq7XC5OnDjB5MmTvZZ33u7IkSOkpqZeNgQNDg72ef1paWmXDYHtdrvPIQjsdjuBQb4rS0VEREREREQ6UwnNNa5jZurOioqKGDRoUJcZlgcMGEBLSwsNDQ1Aezfr6Jj2YMbf35+0tDQ8Hg/R0dHEx8dTWFjYpUd5L/EAACAASURBVJr06/J4PDidTqMSrrGxkXvuuYdHHnmE/v3788ADD7BmzZovPE5wcDCjR49m+PDhxvdDhw7tsl3HjPTDhg0zwt9LWSwWVqxY0SVcNJvNWCwWn1/dVZdZLBaGDh162a9Lu/tWVlZSVlZ22eutqKjA6XQSGhrKli1bjC7cTqcTh8OBw+HA7f68y3JMTIwx83lbWxs2m41du3ZRWFhobGMymdi7dy8OhwObzUZmZibJycn4+/sTHh6OxWLhxIkTuFwuGhoaOHXq1GXb6MuhQ4eMcDU7OxubzWZMzhUdHUNpaSl1dXV4PB6OHj3q1e1648aNZGVlGd2gW1tbvcbrHDp0KMXFxRw/frzL+/TMmTPdBuJf1YIFC7wCbLfbTWFhodfkYB2GDBlCcXEx0F4Z+kUBaAdfHzo4HA5OnTpljK3qS11dnTEmbWf5+fns2rXLxx5fnp+fH3fffTeLFy/m/PnznDlzxmu9xWIhNTW1269Lw8+O6vfOwy+EhYVhtVq9tistLTXG9c3Ozqa0tBSAjIwMow1Hjx7tUonqdDppamoiLNT776CIiIiIiIiIL6oE7SUej8drMpPOOleodVTZdR73bsCAAUaX90u73U6YMIG2tjbsdnt7l/fEJGMG+LCwMK9AorCwkLlz5xphUlRUFE6n09i+o5srtFcJut1u43VnERERRgBSV1fH+vXrgfZZrC8Ntny1GdorzTqPk+hyubBardhsNqNNnasKob07886dO4mPj2fr1q3MmzfPqGocPHjwF86wbrVaOXv2rM91HWO2Xmrv3r2EhYV1CaA7dEzE88ADDxjLDh06RHx8fLfjWObn5/PZZ5+xfPly+vfvz549e8jOzsbPz49jx45x/Phx49hDh7aPF+rn58fSpUtJT0/nv/7rv3C73SQnJ3t1GY6OjiYyMpK//e1vuFwuEhISjOphs9nM/PnzyczMJDs726i27O5+dGfy5Mls3rwZm81G//79ufHGG42fwfjx4zl37hzvvPMOfn5+TJo0yeu+zZw5k927d5OTk4PZbCY2NpYFCxYY64ODg4mLi6O+vt6r0tHj8ZCens6yZct61MaKiopuJzLq7NJKTI/Hw5QpU4zlnd+3ycnJXWZK/ypsNpsx0/2lQWrnvwMXLlzwqpR0Op20trZSXFzc4/vQ2eWGloD24L7zEADQfv2XC54v7ebe0tJCUVERw4YNM/6ODRo0yCvMdLlcfPrpp8aEbhaLhbKyMpKTk0lISODMmTMMGzaM66+/nvXr1zNs2DBjWISamhqCgoJ6HECLiIiIiIjIt5tC0F7iq2twh+7GzOvQEQLk5uZSUlLiFY6kpqYC7d1rk5KS8PPz47PPPvOaBKVDeHg42dnZxuuVK1fS0NBgdAeOiooyvof2sLPz6w5z584lOjoak8lEXFwcK1asANrH3by0ivV8+XlyjuUYEza1traSnp5OeXm5VwDW1NTE7t27gfYq1t27d3tVEbrdbtLT01m4cCFJSUmUnC1h06ZNRjVl50C1ozp13rx5XuNK1tbWdql261BfX99tuNIRMvvSuY0drFZrt1WqtbW17N+/n+XLlxuh04IFC3C5XBQWFnqNM3n48GGviZD69evHihUrcDqdmEwmn0Ffamoq1113HW63u0s3/REjRjBixAjsdrtx3ClTpmC3242JpXyxWCwMGjSIxx57DIBhw4Z5HaODv78/y5cvN8YgtVgsXsMPxMbGcvfdd+NwOIwK3Et5PB7Gjx/vtayxsRGz2dzjMULb2tp8/q59URBosVgYP348DQ0NHDt2jIKCAiNEDgkJ6TKu55d16tQpDhw4YFRSdpaUlMT27dspLS3F6XTidDq5+eabjfUmk4mxY8cydepUn/ftcqKjo9m7dy+nT5/2ud7pdFJdXc2dd97ptbytra3LmL+Xru8sIiKChx9+2Ot3MTExkfT0dBoaGggPD6egoIDo6Gijm39cXBx5eXlA+wcZGRkZtLW1ERgYyKxZs8jIyDDGzC0pKWHo0KFdJpkSERERERER8cXk+SqzocjX4vF4jAopX8rKyoiOjjbGzYT2gKGiosIYLxGgurqapqYm4uLivLbt0NzcbISNvaGtrQ2TyWRUiTY1NREQEEB9fT2RkZHG8qqqKgIDA40w1+FwUFFR0WXMwra2NsrLy43lVqu1S9dit9uN3W7H5XLh8Xi8qvf69etndHOvrq7GZDJ1G3RarVbsdnuXMUbz8/ONrui+uFwuzpw5w8SJE4H2QGndunU8+OCD3Xax7zwu5zclPz+fEydOsHLlyi+9b3V1tc+wu0NAQMBXqj78Mi5cuEBBQQFFRUXcd999XgHuuXPnyM3N9Zroqjs1NTVYLBafY4LabDbq6uqM7vudzx0WFmb87rhcLkpLSwkODvY55qwvHo+HkydPMnbs2G5DOqvVir+/f7e/o06nE7vd3u14u92prq7G5XJdNiS2Wq3GkAu+hIeHe4XaHaF8RyDvS35+PsOHD//CUDY7Oxu73c706dNxuVy0trYa1+dyuSgrKzN+x8vLy4mNjTX+VtTU1BAdHY3T6eTdd99lxYoV3/jvjoiIiIiIiPRNCkFFriC73c7Zs2cvGx5dCbW1tdTU1HypCYWuJWfPnjXaf+mwBtXV1TgcDhISEnqpdfJ1uFwu8vLyulSJfxkdw2MMGjToG2yZiIiIiIiI9GUKQUVERERERERERKRP0+zwIiIiIiIiIiIi0qcpBBUREREREREREZE+TSGoiIiIiIiIiIiI9GkKQUVERERERERERKRPUwgqIiIiIiIiIiIifZpCUBEREREREREREenTFIKKiIiIiIiIiIhIn6YQVERERERERERERPo0haAiIiIiIiIiIiLSpykEFRERERERERERkT7Nr7cb8G1it9upra3FZrPhdrt7uzkiIiK9zmw2ExISQlRUFEFBQb3dHBHpY/T8LSIicu3o7Wd/k8fj8Vz1s34L2e12ysrKiImJITw8HLNZRbgiIiJut5uGhgaqq6tJSkpSECoi3xg9f4uIiFxbevvZXyHoVVJeXk5ISAgRERG93RQREZFrjtVqxWazkZCQ0NtNEZE+Qs/fIiIi16beevbXx6FXic1mIzw8vLebISIick0KDw/HZrP1djNEpA/R87eIiMi1qbee/RWCXiVut1tdcERERLphNps1Xp+IfKP0/C0iInJt6q1nfz0ViIiIiIiIiIiISJ+mEFRERERERERERET6NIWgIiIiIiIiIiIi0qcpBBUREREREREREZE+rU+FoAcPHrwiA6vW19eTkZHxjR9XREREROSbUlJSQnZ2dpflxcXFZGZm9vg4p06dIicn55tsmqG2tpbPPvvMeF1QUMDZs2evyLmuRS0tLTQ0NBivrVYrubm5vdgiERGRbw+/3m7AN+XQoUP8+te/5u2332bXrl288sorXbaZPHkyP/vZz4zXr7zyCtu3b++y3YsvvsikSZMoLS1lyJAhXLhwgT/+8Y/MnTv3Sl6CiIiIiMhXlp2dTWFhIampqcaylpYWnnnmGex2O7/61a+81gFUVlbS0tLitWzHjh3YbDb69evntTwwMJCEhATjuHfccUeP2vXEE0+wdOlSAEpLS/n73//O9OnTAdi5cycDBgxg8ODBPPTQQ5SWlhr7TZgwgd/85jc9vPpvXltbG/7+/t2ud7lcmM1mTCZTt9s4nU4yMzMpKSmhqKiIqqoqbr75ZpYvXw603//t27dz3XXXfePtFxEREW/XfAhqm5FGyKc7wHz5otW//OUvPPnkk5hMJmbPnk1qaio33XQTO3fuBGDbtm2cO3fOa5+6ujq+//3vM2fOHGPZCy+8gMPhoLa2lieffJKPPvrom78oEREREZEe6unzsC+/+93vWLBgAfPmzeOnP/0p69evJzg42Fj//vvve1Ui5uXl0dbWBsBHH33kFc4NGzaMZ599FgCPx0NNTQ3p6enG+pKSEs6ePcu8efOMZa+99ho2mw1orwL9yU9+QlVVFXfddRcAFy9exGKxMGbMGKqrq1n7l7XEx8Vz6tQpXn311S99vd+EnJwcdu3aRV5eHmFhYSxevJjFixcbYWdzczPvvfcehw8fJigoiOnTp7N8+XIsFkuXY5nNZi5evEhERARut5tXXnmFwMBAbDYbdXV1xnYlZ0u4UHmBadOmXbXrFBER+ba5JkNQ1/GT0NSEZdJETDHR4Hbjym7vkmO5PrXL9lu2bCE4OJhZs2bx3nvvMXDgQMaMGUNAQAAREREAFBYWGp84d+bv709AQIDx2tfDi4iIiHyurKyMqKgoQkJCfK632WzU1taSlJR0lVsm0nd8mefhmpoafve731FYWEhzczNNTU38+Mc/5o9//CM1NTW89NJL+Pv789hjj/Hoo4/y8ssvGxWd3/ve93C5XBw6dIj333+fZ599lvr6epqbm0lOTmbHjh3cddddTJ482edzcmhoKH/9619paGgwQtDCwkIA1qxZ4/WcHRkZyQsvvMDatWt5+eWXAfjzn/9MfHw8Y8eObd/I8z//8Xi+0fvZUzk5Oaxdu5Y1a9bw3e9+l6qqKtavX4/JZGLx4sU4nU7+8z//k6ioKF544QVsNht/+9vfaGxs5IEHHuhyPJfLxfTp06mrq+PQoUNcuHCB8PBwjh8/TlFRETfccAMAA+MHsu6/1hEdHc3w4cOv9mWLiIh8K1yTIaipXyiuPZk4Xn4FT0kpLatWY5k7G79lS7pse+7cOV566SXuuecefvGLX7B//342bNhASUkJDQ0NVFdXExMTw4EDB/D396eqqop77rnH2P9HP/oRQUFBxmur1Wp01/kiJSUl1NfXM3HixK9/0ZfIysri+PHjPPTQQ+3nOlvCn//0Z374wx8SFhYGwMsvv8yqVasYMmQImZmZ7Nixg7q6OgYPHsz9999PfHw8AP/v//0/0tLS2LNnDyUlJfz2t7/l/fffJywsjKamJvbt28fgwYO58cYbGT169Dd+LSIi0rdYLBZKS0u7/TejtLSU/v37X+VWifQtX+Z5ODo6mp/97Gc8//zztLS08Pzzz/Pkk08SGxtLbm4u8+fPN7ZdunQpa9as4dVXXyUmJoa1a9eSmZnJ4sWL+cEPfkBMTAwffvghZrOZm266icmTJ/PWW2/x85//nBkzZvDoo48SFxfndf4HH3wQgN27d/PJJ5/w1FNP+b4mkwl/f3+ysrKMrvSNjY18//vfx/w/Va6rV6/GbDbjdDoZNWpUl2NcyedvgI8//phVq1YxZcoUAAYPHsxzzz3ndf7y8nKeeeYZAgICiIqK4uGHH+YnP/kJq1at8qqy7bi+jRs30tzcTH19PRs3buT666/n8OHDLFy40NguMDCQ1atXs27dOn76058a90NERES+OddkCGoePBjz49+BsFCcm/4by+wZBDzzhM9tAwICWLlyJfHx8WzcuJGf//znhISEUFFRAbRPlnTTTTfxwAMPUFZWxieffGKEoM899xxPP/00H3zwAVar1Qgcw8LCsFqtX9jOV155hcLCwivSZT4pKYl169bxT//0T5jNZk6dPMXFixcpKCjg+uuvx2q1UlxcTGJiIvn5+fzjH//gwQcfJGZADLvTd/Pqq6/yy1/+EoDq6mreffddr/GH6uvr+fTTT7nxxht54skn2PfpPl5//XX+4z/+Qw9dIiJyWQMHDqSxsZHS0lKSk5O91pWWlmI2mxk4cGAvtU6kb/gyz8PQPvbkrl27gPYxPW+77TZuvPFGbDabV1VlcHAwt9xyCwMHDiQ4OJjk5GRee+013nzzTX73u995HfOFF14wvv/Nb35DdnZ2l3FCS0pK2Lhxo/F9aWmpMTb/+PHjfLZ15syZxrlee+01r3UbNmwgPj6eEydO8O///u9d9r2Sz9/QPkbnwIEDeffddzlx4gTx8fHMmzePMWPGAO3d9+Pi4rwqXGNjY7FYLFy8eJHBgwd7HS8qKoqnnnqKrVu30traylNPPUV1dTUffPABY8aMMapmAYYOHUpUVBSnT5/2GQCLiIjI13PNpl2uw0dxbvqI4LffxJ2di2vXJz63i4uL49lnnyU4OJjp06cb43tWVFQwZ84cDhw4gMVi4c477yQuLo6pU6cC4Ha7MZvNBAUF0dLSQmRkJEFBQQQFBfU4BHz66aeNoPGbFh8fT0BAAOXl5UD7LJ0LFy4kLy8PgKKiIoYPH05AQACDBg3iX//1X5kyZQopg1O4/fbbqaqq8gpy09IWMnfuXIYNG2YsS05OZsmSJaQMTmHVqlW0trZSXFx8Ra5HRET6lpSUlC7/1litVqqqqkhJSem9hon0IT19Hob2D/4HDx7MLbfcwl/+8hfGjx/P/v37CQ0N5YknnsBsNhMWFsZbb71FfX09UVFRBAcHG5WXWVlZLFy40OfX8ePHcbvd3HXXXcYwGC6XC39/f4KDgxkxYgQjRozgxhtv5JFHHjFeDxgQ67OtBQUFvPzyy7z88svs3bv3S92TK/n8bbPZaGpqYtOmTbS2tnLbbbcRExPDq6++yunTp4H2EDQyMtJrP5PJRGRkJNXV1T6P6/F42LdvH5WVlWRkZHDkyBFmzZqFn593PUpxcTHLli1TACoiInKFXLMhqKegkIB/eQECAwn4l5/iPlPU7bbnzp1j3bp1PPfccxw/ftzopnLrrbfi7+9PZWUlAHv27GHSpElAe6XK7NmzmT17Nq+//jqvvvoqs2fPZvr06bz//vs9amNKSgoTJkz4+hfrg8lkYty4cRQVFdHW1kZFRQU33XQTJ0+eBODMmTPG2EkhISG0trby6aefsmnTJj788EMAWltbjeMNHJjQ5Rydx2rz9/dn4MCBVFVVXZHrERGRviUgIIBhw4Z5fXhWXFzMsGHDvCqkROSr+zLPw2+99Ra33norAQEB/OQnPyE2Npbnn38ep9NJfHy88QyZmZlpDK3UmclkMgoCLv3yVSBQX19PXFwccXFxhIaG0tDQ4PXV2trabZf1/v37M2nSJCZNmuRVNe5wOMjIyGD79u3s37/f575X8vm7g91uZ/Xq1aSmpnLnnXcye/Zso8o2JCQEu93uc59Lu8J3yMrKYvTo0SQkJJCXl0d0dDRLlnQd1uDdd9/tUW80ERER+Wquye7wAH73rjK+Nw9Kwvydh31u19rayne/+10A7r77bkaOHMljjz1GcXEx999/PyNGjOC1117jrrvu4vz588bDWEpKCocPHwbgnnvu4Ze//CVDhw7lt7/97TUzOdKYMWPIy8sjLi6OUaNGERkZiZ+fH3V1dZw+fZp7770XaB/A/U9/+hPjxo0jOTmZhISedUG89IG2Y8ZLERGRnoiIiCAmJsaokIqJiTEmJBSRr6+nz8P79u1jyJAhRpVmR0g4fvx48vPzmTBhArm5uUyaNImcnByf4/nW19fz8ccf+zy+rwrH2tpaBgwYAMB7771HYmKi8QF7W1sbf/jDH1i5cqXXPna7naqqKvr162d8mH/o0CHq6upoaGigoqKCEydOYDKZqK2tvey9uRJCQkIwmUxdJiYaM2YM//jHP4D2ru8ZGRle6x0OB01NTcTExHQ5ZlNTEx9//DGPPvoohYWF3Hfffaxdu5bJkycD7UUJt912G7m5uTQ1NXH99ddfoasTERGRazYE7anAwEAef/xxRo0axZAhQ7BYLNTV1RnjZQLU1dXx/PPP88QTT3QJOK1WKxUVFQwZMgRof2i7VsbEHDVqFB9++CFRUVHGg+L48ePJzc3l4sWLxjhsu3fvJi0tjdtuuw1ofyhdv/6dXmu3iIh8ewwaNIhTp04Z34vI1dfU1MQdd9xBdna21/KO0HPs2LGsXbuWmTNnMnToUCMs7SwhIYHnn3/e5/HPnTvXZVldXZ0RggIsWbKE1NT2Wevtdjtvvvlml30KCgr4j//4DwAeeeQRr3Xh4eEkJSXx85//HKDbMUGvtBEjRnhNmgpQW1tDbGx71/64uDiqqqqoqakhOjoagPz8fPz9/Y3XneXk5DB//nyjQj4sLIwnnvh8bNewsDAaGhr4z//8Tx577DEVJYiIiFxB/+tDUIBly5bhdrvJy8sjLy8Pu91OWloa0F4pGhwcTFFRkc/xdf76179yyy23GA8cdrud0NBQQkNDefTRRy973m3btlFRUWHMiPlNi4qKwmw2s3//fmNWyrFjx7Ju3TpGjBhhBLqhoaGcP38eh8OBx+Nh06ZNV6Q9IiIivnR8kCgivSMtLQ2LxdIlBE1NTWX9+vXcfvvtPPDAA2RmZrJo0aIu+5vNZkpLS5k1a1a357g0nDtx4oTX7/5f/vIXIxR1Op0+jzFhwgS2bt3K2rVrufPOO6msrKSmpoaZM2eyc+cOI0S9nCv9/L106VJef/11JkycQMrgFCoqKvj4463cfPPNQPvEcFOmTOG9995jzZo1tLa2smnTJpYvX+6zN1lqaioBAQFe3dw7b1dQUMCf//xnVq1apbFARURErrD/9SHomTNnWLduHRkZGSQlJTF9+nS2bt3K3/72N0rOlvDcD54jPDyc//t//y8PPfQQL7/8sjE50r59+9i8eTMffPCBcbyCggKWLVtGSEgIK1asAKC5udnnp7IHDx6kqKjoij2EAYwbN45Tp04RFRUFwPDhw6mvr2fx4sXGNrfccgt/+MMf+Od//meCgoK499572bdv3xVrk4iISGeXVk2JyNXV3VBO1113HWPGjCEwMJCpU6fym9/8hhdffLHLdklJSXz22Wdf6pzbt283ZoF/7LHHqKur81rfERq6XC6v5R988AHHjh3j4Ycfps7a3ltrw4YN/PWv/8V9991nbNd5bPvOrvTz97hx41i+/Fb+7Vf/RlBQEA6Hg7S0NK/w+O677+ZPf/oTzz33HB6Ph9TUVG688Uafx/NVdQtQVVXFzp07OXToEGvWrOlRACwiIiJfj8nj8Xh6uxFfR0FBAcXFxUybNo2IiAh+/etfk5iYyNy5c1m5ciXf+c53eOCBB4xPx59++ml+//vfY7FYePzxx/n973/P6NGjeemll8jLyyMgIIA//elPWCwWNmzYQG5uLgcPHmTevHn88Ic/7HL+jlnme9LOkSNHXolbYLDZbAQGBl4zY5qKiIh8GVfj30qRvmzjxo0UFhby7LPP8sADD5Cbm9vttm+//TajRo1i9uzZX+ocGRkZ1NXV8b3vfY933ul++KXXX3+dixcvsmnTJl599VVmzpxJZWUlq1ev5h//+IcxfubatWs5duwYpaWlvPfeezQ1NfGLX/yCkydPMn36dH760592OfbVeP52OBzU1LR3g+/u2bq+vp6AgIBuJ0TqrLq6mtdee40f//jHvPLKK1RUVDBjxgyWLFnic6IqERGRvq43nv3/14egl6qvrycsLAyLxUJJSQkpKSle6ysrK4mNjcVkMnHx4kXi4uIAqKiowGQyER8fb2x7/vx5ysvLCQkJYfTo0V8rXNT/2ImIiFye/q0U+XoqKipoampixIgRV/xc1dXVPicC6pCfn09NTQ0xMTGMGDHC6FVVWVnp9bzdUSlaXl5ujCt8+PBh/P39GTt2LH5+X73j2rX0N6W1tZWioiLGjBlDWVkZAwcOVOGCiIh8qykE7cOupYcwERGRa5H+rRSRb5L+poiIiFy7euPf6WtjGnQRERERERERERGRK0QhqIiIiIiIiIiIiPRpCkFFRERERERERESkT1MIKiIiIiIiIiIiIn2aQtCrxGw243a7e7sZIiIi1yS3243ZrMcSEfnm6PlbRETk2tRbz/76v42rJCQkhIaGht5uhoiIyDWpoaGBkJCQ3m6GiPQhev4WERG5NvXWs79C0KskKiqK6upqrFarPpEWERH5H263G6vVSnV1NVFRUb3dHBHpQ/T8LSIicm3p7Wd/k8fj8Vz1s35L2e12amtrsdlsehATERGhvbtqSEgIUVFRBAUF9XZzRKSP0fO3iIjItaO3n/0VgoqIiIiIiIiIiEifpu7wIiIiIiIiIiIi0qcpBBUREREREREREZE+TSGoiIiIiIiIiIiI9GkKQUVERERERERERKRPUwgqIiIiIiIiIiIifZpC0KvM4XB4va6vr6epqclrWWFhIW63+2ufy9YGbo/vdVllcNb6+WtXN9t1eOsYNLZ+ufN7gLWHPz92fnX37bzUyYvg7HQLzlohu6LrdnvPwqHzXZevPQzWli/f3p1nwOn6cvuJiIiIiIiIiMi1za+3G/BtUl9fz0cffcTNN99MVFQUADU1NZw4cYJbb70VgLNnz5Kbm8vw4cO99rVarWzduvWyx7/zzjvx8/v8R/qnQ5BfA79eAg4nPLgJ/r+VEOIP/zgBcwfD4Ij2cPF3B2DtbZ8fq7wB9p9r/77ODv/6GfhbwGz6fJuJ8TA82rsN67LhYjM8OwsqGuAPR+GRydDsgGd3wL1j4b6J3vv8Yg/0D4TnZn9+/D8egvGx8J0p7a9/nwWpsZA68PP9nG74YTqsHgetzvZl4YHQ3AY/+xSGRkFAp5j/hqT2a9hwAlo6Ba8D+8GiYbCtAH7+Kfyj0zVFBkF40GVvu4iIiIiIiIiIXONUCXoV9e/fn8WLF7Njxw6qq9vLIocOHUpQUBDnz7eXMx49epTp06d32dfpdGI2m1m2bJnPr4aGhi77PDUDJsbB/e+3VznePgr+ba/3Ni1O+PFueH6e9/KTVfCXY+0BKMCPpkN9a/vrOjv8/9u787gq67z/4y84LAKCKMqiCAguYJqapqWWmCmpk8tk2d0yNqZZ47RNv5ru6i7NxpqmvGtsZmybtJkWs3IqNTE1hTIjDfeFREFFD5ssAgc453B+f1xy4LCJCy7c7+fjcR5w7df5Xlz+8fbz/X4/3Qebj9T/jit+gWERxu+7c+DqUON3Py9YOgW+zYRFP7keM2+kEZI+uhqsp6ownx8Jq9ONKtHcMth4GH59hetxLyVDqB98fRBe6AyYbgAAHnVJREFU+A4S02HLcXg9BeK7wtupxndLTDc+5aeC0hd/MH5/fQvklMH7O4yq0XnfQwdveHC18bnxQ1j9S/3vKCIiIiIiIiIilxdVgl5gnTp14uabb8bb25uMzAwyDmXg4eHBrl27SE5Opl27duzfv5/9+/czfPhwl8pOk8mEv78/AGvXfkP37j2IiooCwM3Nrd61jhXDrKthTHejmnFSHKxKg7wyIwQsqYD0fHhgIIQF1L/XCjsUN9IFvrKBLuM5pfDDcRibBwfyIfEQ+LjDv7bV7DOsK2QUwkc74L+uNNZ5mGDeKNhuNio116bDxgy4oiPcvdy41qhI+NNGiO8Go6KNrvntvOGjW6DcCv+9Dp68zqhq3ZkDL98IVcDja+AP10Kgj+u9zhwEX/4Cd/SF5MNw62fQuwNEtIOnR8AXe2FFGtzSp5EHKSIiIiIiIiIilw2FoBfIkSNH2LNnDwDdunWjZ8+eREVGERUZBYDZbGbz5s2MHTu2WedznGYMT4sN7v0KfnslTO1rrJu7EVYfggUpxvIWs/EzvwJessGUOpWW/YLhD0Mbuf6m+uvc3GDJr05d3wpJR+HNBPCu81cW0Q5Mp2qQ7VVGFShAj1Pd0G+MMT4A/7sJ2rWB6Ve5nqPUCqsPGp9qty6D42XG7xOX1qy/c7nx890JENq2/n0HeMOcEUZX+wWbjPMUVsB/bgNT/WxZREREREREREQuMwpBL5CAgABiYmI4fPgwBQUFANjtdsxmI4k8ceIElZWVzm7xvr6+tG/fvtHz2Ww2lyrRunw84IPJMPUzo6LzN/2N9S/Hw7hervs+v6Hhc3yRDj+81/C2E+XwzLWu6zr5wg3Rxu/L98LgEBjbs9FbBGBXDtz5BVirYEwk/HUcfL2/ZvvP2RDhD6tqrRvXC4J84H8T6p/v39uNn3f1q78tqFY16Kr9kF8O69KN5f5hRoXs8RI4WAShvkY164DOTd+/iIiIiIiIiIhc+hSCXiDt2rWjXbt2WCwWysqMckWbzcaWLVsAY9b4kpIS53J4eDgDBw5s9HzFxcXOrvGNCfKFj2+pqbQE2Go2KjZrO1gAvTvVP35iDLzaQNAI8GoDlaC1LdkOqbkQ+4/62/6WYHRpB2NypV2zjBnel2w3KlxXp9fsm3QUxkS4rhvby+g23zMIXvke8mvNAr89x/hprTWzPMBT1xnHVPsxC0qssC0HbA6jy/5fUuDevrB5Ouw0w2Nr4cpg+O/hENJABamIiIiIiIiIiFweFIJeRN7e3kycOBGo6Q5fvdwUh8NBSUkJubm5eHp64uvr2+i+HX3h4AkIb2csp5+o35XeXNbwsRuOwPT/NLxtfwE8MKDhbbuzYUc+dPSBT35d0wW93AbjP244cK3m7mZUg4IxLujhYpg7Etr7GtWtdf0nDR66GjqcqvKsDnxHdavZ55G18Oi14O9ds27uDUaV6WPXwt3/gaRMWJQA0UFQYDHa670J8OFOyC5RCCoiIiIiIiIicjlTCHqZ8Pb2Jjw8HDDGF23fvj27d++mbdu2+Pr6EhMT0+DkSIcK4NFvIOkeY/m23s3rDj8kHN6/uWY5o9AIBj1qXSK0kULUf++EBwdAsB/MT4I3J4CHO7y7FYZ1gbCmC1gBY0zT55Ph6WGw+gCsOmCM6dmuTf19r4+suZcfTs1YXz2mKIBfA9+vts5t4S9j4Iq3IdyvZn1+BSy4Aa4MPf39ioiIiIiIiIjIpUsh6EVy8uRJvv32W/Lz8wGoqqrCZrPx3ns1g3AOGzaMnj2NQTX9/f0ZMmQIALt27eLKK69k9+7dzn1vuOGGBq+zOBVm9K+Z4Oedba5dy8HoEl67OvNoEXy8C2YNgulfwrJbYfk+2JYNT19v7JOWD3M31FRtVtuUaUy+lDwNfDxhcxY8uAqGhcNn++GLqadvm4MnYNYqGNEVRkaDG8Zs8FM+hX9Pargq0wG8vgne2QVe7saM8zMHwj9SIK/ctQq0MeF+8OO9NcvPrT/9MSIiIiIiIiIiculTCHoR5OTkkJ2dzejRo6mqMgavzM3N5eeffyYhoWYQTm/v+sldSkoKJ0+eJDo62iUEBWOipeXLlzNlyhQACi2w/AB895uafa7vCtd2dT1n5TbX5aW7oaTSmLl9l5HR8uRw+K/P4dtD4OluTDKUa4Gv9sPNpypLs4rhvtXGhEltvYx1z8fDjR/Cf9Jh4Y0Q6EODjp00Jluy2eG3X8LsQXBbn5rtD18LbTzgsW/g35Nr1s+5Htzd4cGVENgGHrrKqFb1dIfZq2BwZ/hySv2u9F+dmhjpmzqBsIiIiIiIiIiItD4KQS+wsrIyioqKmDBhAj4+NYngyZMncXd3x8/Pr8HjCgsL+emnnygpKWHixIm4u7tjMpk4efIkoaGhzn1q+2Q3/LoHBNTqQt4zCIbUCUGX76v5vdIOS3bBkl8Zy1UO4+Nhgn9OAF8veHotDIuAl0bBlM+MULWtF8xaAZO6w+1XQlE5vL8N/r4NbowwKkFf+gE+2g0PDDRmkXc/VZ264RDM3wR9guDJdfDRr6FzQP02mHU13HFlzfLJCkjLgye+hYcHwbT+sHCzse13Q6BvKDy+DjILYcZVrt3ad+XAhO6wL69mXXkVbDtes5zTyFipIiIiIiIiIiJyeVEIeoH5+voyceLE087sXs1ms5GYmMiJEyfo27cvI0eOxMPDeGyRkZEkJSWxfft2wAhSBwwwZiuqcsDinfCvJuZZencr7MiBZWlwZ19jXV4pjI+GAZ2Nc3RoA79eakxyBFBmgx158Iehp8b8HGF0Rd+XC9GBxoRD32XCvatgYAj8c3xN5emEOPh4JzyXBPO/h5V3GNWm/28dfDQZegTBiv1GsFrlgFBfIyg1uRvL9ioot8OfR0GfYJi0FK4Og5VTGx5n9LpISJoGy/fArK/hHzdB/zD4cBL06niqfe2QddL4vbgC/vZTzfG78mFs92Y9JhERERERERERuYS5ORx15wqXi8FisZCbm0tERES9bWazmeDgYNzd3ettKy8vx2q1AuDl5eXShb7Q4tr9fFc2dPSrma09Ld/owh7ZDqI7NHxflXZjUqTqvxKTG0QFGpWhddmrjMCyuNzo3h7byCzwdgfsz4XewcZyZiFEBrruY6uCExYjpLQ7XGe07xxgTLRksdXv5r7dbPzsV2cyo+p7a4zVDj8eheGRNev25Rpd7BubAEpERERERERERC4PCkFFRERERERERESkVWuiNk5ERERERERERETk8qcQVERERERERERERFo1haAiIiIiIiIiIiLSqikEFRERERERERERkVZNIaiIiIiIiIiIiIi0agpBRUREREREREREpFVTCCoiIiIiIiIiIiKtmkJQERERERERERERadUUgoqIiIiIiIiIiEirphBUREREREREREREWjWFoCIiIiIiIiIiItKqKQQVERERERERERGRVk0hqIiIiIiIiIiIiLRqCkFFRERERERERESkVVMIKiIiIiIiIiIiIq2aQlARERERERERERFp1RSCioiIiIiIiIiISKumEFRERERERERERERaNYWgIiIiIiIiIiIi0qopBBUREREREREREZFWzeNi38D5kpmZSUVFBT179gTAarWSlJTEqFGjAFi7di0jRozA09PztOfKzs4mPT2doUOHcuTIEcLDw3Fzczuv92uxWCguLsZisWC1WgHw9PTEx8eHgIAAfHx8zuq86enp+Pn5ERoa6rJ+7969hIWFERgY2OixNpuN9PR0evXq5bJ+69atxMXF4evre1b31Bwt1R7SuB1mWL4XNh6BA0XGuu7tYERXmBwHV4Y2fbycf3oPRERERERERFpGqwlBt27dSk5ODlFRUWzfvp2ysjLmz59PQEAAAPPnz8fT0xNfX1/i4uJo27Zto+c6fPgwS5YsYejQofztb39jwIABTJ069bzda3Z2NmVlZQQGBtK+fXtnMGu1WiktLcVsNuPr60tISMgZnddut/Puu+8SFxdH165dAfDy8iIuLo6FCxcyatQogoKCnPsPHDgQf39/l3MsW7aMiRMn0rdvXwCOHDnCp59+yty5c8/lKzeppdrjbGRmZpKfn8+AAQM4efIk2dnZ9OjR47xfx2q1NiuQbylzN0DiIZjRD97uB1GnsvHMQtiQAfd/DQnd4Ln4i3aLF9TFfh5wYd4Du92Ou7t7s/9Tx2w2U1VVRefOnc/6miIiIiIiIiKXglYTglarqKhgzZo1VFZWUlpaypo1awAoLS1l/fr1eHl5ERYW1mQI6unp6azCeuqpp5gzZw633HILHh7n3lxZWVl4eHgQFRVVL4jw8vLCy8uLwMBAcnJyyMrKokuXLs0+98qVKwkODqZTp058+umn/OpXv8JkMrF8+XJiY2Px9/fns88+Y/To0fj5+eFwOJzHZmRkYLVaiY+PJzk5mTZt2gCwYsUKBg4cSGZmJp6enkRFRZ1zG9TWku3x3nvvERMTw/XXX9+s/VetWkViYiJ9+/alX79+HDx4kGXLlvGnP/3pjL5TY06cOMHq1avZs2cPOTk5REREcMUVVzBu3Di8vb0BI4R95513mDdv3nm5ZkNmfAGd/SF5GpjqDIgR3cH4TOtvBKUzvoB3Jjb/3JmZmbzwwgsEBwcDxjOMjo5m1KhRl1yQ1pznAfDMM89w3333ERER0WL30pLvAcCmTZv46aefSEtLw9PTk969ezN8+HB69+7t3KeiooJDhw7Rs2dP3N2NP4ykpCQqKyu56667zv1LioiIiIiIiFxEl30IarVaWbBgAWlpaVgsFoqKipg5cyZ79uzBbrczcuRIAMrKyhg5ciR9+/YlKCiIsrIy/vznPzd4zpMnT7Jnzx6ee+45APz9/Zk3bx6PPfaYs7L0bGRnZ+Ph4XHaSi43NzdCQkLIzs4mOzu7WZVfFouFyspKJk2ehLeXNwEBAQQGBtKlSxeKioq4+eab8fLywtfXF5PJxKBBg1wq3xYtWkRCQgI+Pj5cddVVrFu3DoBrr70WgKNHj5KYmMhLL7101t+/rpZsD4DCwkLKysqafT+bNm3izjvvZPDgwc0+prkOHz7M66+/Tr9+/bjnnnsIDg52tunLL7/MQw89RLt27bDZbGRnZ5/361ebu8EIQJ+/oen9TO7GPs+uN45pbkWozWYDYMaMGQCUlJTwyy+/8OKLL/LUU08RFhZ21vd+PjX3eQDk5OQ4/1OkJbTke1BVVcXHH39MamoqU6ZM4a677qKyspI9e/bw97//nSlTphAfHw8YofCrr77KG2+84RICi4iIiIiIiLQGl30I6unpyR//+Eeee+452rdvzyOPPMLq1atZvXo1Y8aMobCwEIBhw4axbNkyAOLj4/H19W20i3dxcTEJCQmn7QKekZFBUVER/fr1O+19WiwWysrKzqiSMjg4mIyMDCwWy2nHAvTx8WHKlCkUFhaycOFCpk6dSlRUFPPnzwdgy5Ytzn0LCgpwd3dnyJAhLufw9PTEy8sLAJPJBOBcrg63zpeWbo+6UlNTSUlJYcCAAXz55Zd4eXkRHx/P9ddfT2FhIa+88gq5ubksW7aMr7/+2hmAVzt27Bhvvvmmy9/Etm3b+OGHH3jggQdITk7mp59+4uGHH8ZkMmGxWHj11VeZOnUqPXr0YNWqVfTr14/f/OY3zuN79+5Nr169ePnll9m0aRNjx449o+90pnaYjS7wydNq1u3Lhb+mQGKGsZwQBQ8NhthOxvJz8XDdEpgc2/wxQt3c3OjWrZtzuW/fvqSlpZGSksLEiRP5y1/+wqhRo9i4cSMZGRm8/vrrOBwOvv76a7Zs2UJJSQl9+vThlltuwc/PD4DPP/+ctm3bUlBQwObNmwkLC2PGjBns3r2br776Cjc3N0aPHs2NN97ovG5qairr1q3j+PHj9OnTh8mTJzvHxL0Unge0/Htw7NgxNmzYwIsvvugyFEZYWBgdO3Zk0aJFXHfddezfv5/3338fgLlz5zJgwABuvfVW5/4rV65kw4YN+Pj4MH78eJd/O5pq54aetYiIiIiIiMjF0Cpmh7darXzzzTd8/PHHZGVlAUZ11c6dO10+ubm5LsdVVlZSUVFR7xMQEIC7uzslJSVNXve1117j6aefbtY9FhcXExgYeEYTLLm5uREYGEhxcXGz9jebzfzyyy888MAD2Gw2vLy8mDNnTr3PoEGDGjw+PT2d/fv3s3//fnJzc8nNzXUup6enN/u+m+NCtEdtFouFPXv2sGfPHmbMnMHw4cP58MMPycrKwt/fn1mzZuHn58f48eOZPn16veOtVmu9Cs2Kigry8/MBo2K2oKCAjRs3AkZoFBQU5BxPNCMjw6XrcTWTyURsbCyHDx8+4+90ppbvNcYAre4Cvy8Xxn8Cyw9Amc34LD9grNt36lUxuRvHLN97btcuLy93Vh7n5eWxbNkyBg4cyEMPPQQYoWRycjITJkxg5syZFBUVsWjRIux2OwBFRUWsWbOGkJAQHnnkETw9PVmwYAF79+5l9uzZjBs3jk8++QSz2QwYf8vvvvsuQ4cO5fe//z02m40333zTeb5L4XlAy78HR44cISQkxCUArRYbG4vdbsdsNhMVFcVtt90GwL333ssNN9SUCqempmK1Wpn9+9n079+ff/7zn+Tk5ACnb+eGnrWIiIiIiIjIxXDZV4ICJCcnExsbS5cuXZg3bx4TJkygV69e3HzzzS77VVeFVps0aVKDYUdKSgpRUVGYzWa6d+/e6HUfeeSRZgdyFouF9u3bN2vf2vz8/CgqKmrWvrm5uWzdupWrr76affv28cILL7hsHzp0qEu4UdfkyZOd3f1XrlwJwPjx4wEjrNm79xyTsFouRHvUZbfbufvuuzGZTERFRpGamsqOHTvo0qULXbt2xWQyERwc7JxU6kx4eHgwbdo0Fi5cSHh4ON999x1z5swBjKEY8vPzG+0KHhoa6lKp21I2HoF3ahUt/zXFCD7rKrMZ2/5uPHpGRMHMFWd3zYqKCn788UeOHTtGXFycc/2oUTc4x2p1OBysXr2a3/3ud859wsPDeeKJJzh8+LCzqjQmJsbZdfumm25iwYIFPPXUU/j6+hIZGcmaNWs4evQooaGhJCYmMm7cOIYOHQrAb3/7Wx5//HEyMzMJDQ29JJ4HtPx70NT4od7e3nTo0MG5T3V7hIeHu3SHDwoKYtKkSQBERkSSlJRERkYGwcHBTbZzdHQ04PqsRURERERERC6Wyz4EtdvtLF26lISEBAoKCggJCWHXrl2kpKTUq9w7ePAgCQkJzuVVq1YBsHz5cg4cOMDjjz/u3BYREcGBAweaDEHPpAvr2c4+XXuSpjNR3U2/OnzYsmXLaUOTxYsXO+/x+PHjAM6Q+HyPiXih2wOMcKu6mz9AZGSks6LtfOjevTtDhgxhwYIF3HHHHc4uwd7e3nh6ejY6PmlpaSn+/v7n7T4ac6AIIgNrlqu7wDek9raoQOPY5nI4HDz55JOAMb6u3W7n9ttvd+kiHxZWM0lSXl4e5eXlztAMjOEdwsPDOXLkiPO40NBQl+3VY9xWa9u2LZWVlYBRvZifn09FRYVze0lJCUePHiUyMvKSeB7Q8u9B27ZtyczMbHCbw+GgtLS0yUniAJcQ1c3NjcjISGeVfFPtXP08az9rERERERERkYvlsg9B169fz9VXX+0MEu677z6qqqqcXZoXL15MRESEswKyueFGdHQ0P//8MzfddFPL3PgFcPz4cXbt2gUY3WKrJ3ppyMyZM11Clc2bNwNwzTXXONedTVhzKame8bramXRBbojD4ai3Lji4E3a73SVYMplMdOnShWPHjjm7x9eWlZV1VtWnl7K7774bMMaUjYyMdI4t25DKykrc3NxcAurqY6tDzboaavu66wIDA13GzBw/fjydO3f+P/U8unTpQmJiYoPbCgoKKC8vp3PnpkPKus+l7nvTWDuLiIiIiIiIXEou+xA0IiKCAQMGkJSUBMD27dtZvHixc/vevXsJCwtzjtUI8PDDD9OzZ88mzzt06FCX8T6LioqaDBFPp7pyq6kwqCFnWykGRrhUWlrq/L0hFoulwUqxhkImq9XKvn37iIyMPOOJieq6GO1xLry9vbHb7S5/B3WHQsjLy2PFipXceeedfPDBB8TGxjorFbt160ZycjLDhg3Dw8ODjRs38u233zJr1ixSU1Od4zG2pO7tIKMQYjoYywlRxhigDUmIqvk9s9A4trnc3Ny44oormr1/aGgo7u7uHD9+3Bk+VlVVcfTo0bOenCg2Npb+/ftz3XXXNbj9Unge0PLvQdeuXSkrK+Pnn3/mqquuctm2YcMG2rdv76xYrlZVVdXs+zhdO4uIiIiIiIhcKi77iZF69epFx44dncvR0dFMnz6d6dOn06dPH4KCgjCbzYwZM8a5vqGxAC0WC1u2bOGtt97i008/pXfv3pSXl7Njxw4AZs+ezdGjR12OSUxMdAlcm+Lj4+MMJM9EaWnpWQeOsbG9GDNmDGPGjKFPnz4N7lNUVMTKlSvrfdLS0khLS2tw29mOyVnbxWiPc9GpUyc8PT1JSkrCarWSl5fnDN7BCI3ff/99Ro8eTXx8PD169GDZsmXO7ZMmTcJisfCvf/0Ls9nM8OHDMZvNPPvss8TExLhU3IIxfm3tz9m0VV0jusLGjJrlhwaDbwP/DeLrYWyrtiHDOLalmEwmBg8ezNKlSykqKqKiooIvvvgCb2/vMxpyorYhQ4bw5ZdfkpWVhcPh4NChQ/zhD39wBv5n+jxKSkrqPZPzoaXfg8DAQG6//XYWL17Mtm3bqKiooKSkhPXr17NmzRpmzpzp3LdDhw54enqye/fuBv8TpCGna2cRERERERGRS8VlXwlaV1BQEB06dGDdurV89dVXLFy4EIvFwpNPPsmzzz7L4MFGumOxWHj77bfJzMxk7969tGnTBqvV6qxscnNz49577+Wtt95izpw5FBYWEh4e7nKtlJQUDh48yD333HPa+woICMBsNp/RTNAOh4PCwkKXsRCby8/Pj7Vr17JhQ00F7IgRI5znrRYaGspjjz1W7/i6EyOdbxe6Pc6VyWTinnvu4YMPPmDVqlV06tSJa665hm3btgGwadMm8vLynDNg33bbbfzP//wPQ4YMcVaEPvjggyxdupTnn38ewDmD9qBBg1y66jscDpfxaQF69+7No48+ek7fYXIc3P81TOtvzPoe2wlW3mZMglQ9BmhClBGAxnYylu1V8M52WHR2BZnNdvfdd7NkyRKeeeYZ7HY7kZGRPPzww7Rp0+aszjd8+HAKCwt57bXXKCkpoU2bNkyZMoXIyEiAM3oeAG+88Ua9a7z99ttndW+1XYj3YOTIkVgsFj755BMKCgqoqqqia9euzJgxw2U4AG9vb8aOHctHH33Etm3bmDFjxmnPfbp2FhEREREREblUuDmaW/Jzifv888/JycnhmmuuYe7cuXTr1o0nnnjCGRQcOnSIV155heLiYl566SU6d+7MihUriImJITo6usGwxWq1Mnv2bHbu3Mn999/PtGnT6u1TVVVVLzBpTPVETSEhIS2y/86dO/n++++5//77G9yekZlB6s+prFu3jkcffZSYmJhGz9XSISi0fHu0hOZOJtMUm81GXl4eISEhbN26lQ8++IA5c+ac03ALzTV3gxFsPn9D8/Z/dr0RmD4X35J3VcNut2Oz2VxmJz9XJSUl+Pn5NRoyXsznARf2PThx4gTe3t74+fk1uo/D4aCqqqreWKCnc7p2FhEREREREbmYWk0IevToUcrLy+nYsSMVFRWNBgTbt2+nb9++zQ4urVYraWlpZzTGYVOysrLw8PAgODi40bDA4XCQk5ODzWZzmZn5dE6cOEF2djZxcXENbi8uLiYtLY2OnToSFRnV5LkyMjIAzro7cnO1ZHtcLgoLC/Hx8TmvwV9TZnwBnf2NYNPUyGtgrzIC02Mn4Z2JF+S2LhkX+nmA3gMRERERERGRltZqQtDLSXZ2NmVlZQQGBuLn5+ec4MRqtVJaWkphYSG+vr4XteLxQlJ7XHhzN0DiIZjRD+KjIPLU3DgZhca4oe9sh4RuF64CVPQeiIiIiIiIiLQkhaAXicViobi4GIvFgtVqBYyZon18fAgICLgok/9cTGqPC2+HGZbvhY1H4MCpua66tzMmQZocB1de+KFX/8/TeyAiIiIiIiLSMhSCioiIiIiIiIiISKvWvIExRURERERERERERC5TCkFFRERERERERESkVVMIKiIiIiIiIiIiIq2aQlARERERERERERFp1RSCioiIiIiIiIiISKumEFRERERERERERERaNYWgIiIiIiIiIiIi0qopBBUREREREREREZFWTSGoiIiIiIiIiIiItGoKQUVERERERERERKRVUwgqIiIiIiIiIiIirZpCUBEREREREREREWnV/j/59mjrTonP8QAAAABJRU5ErkJggg==;" vertex="1" parent="1">
          <mxGeometry x="130" y="40" width="1345" height="181" as="geometry" />
        </mxCell>
        <mxCell id="PVqFNuO40D3JptiVjfTZ-3" value="" style="shape=image;verticalLabelPosition=bottom;labelBackgroundColor=default;verticalAlign=top;aspect=fixed;imageAspect=0;image=data:image/png,iVBORw0KGgoAAAANSUhEUgAABV8AAAF0CAYAAAA0B0n2AAAACXBIWXMAAAsTAAALEwEAmpwYAAAgAElEQVR4nOzdeXxU5d3///fMZJlM9pCQhbDJFtYAERCQrWrBUsVi1bpQt7u1Fm+7WftzwaK/orW12GpbLYp1ud1q3bVCBQTZRHZZQgKBJGTPJJkkk0lCJjPfP8aMDDNhzZAQXs/HIw8z17nOda45M4knb675HIPb7XYLAAAAAAAAANChjJ09AQAAAAAAAADojghfAQAAAAAAACAICF8BAAAAAAAAIAgIXwEAAAAAAAAgCEI6ewLoeE1NTaqurpbD4ZDL5ers6QAAgPOM0WiUxWJRQkKCzGZzZ08HZxnXogAAoDN1tWtRg9vtdnf2JNBxmpqaVFRUpMTERMXExMhoZHEzAAA4u1wul+rq6mS1WpWent4lLnpxdnAtCgAAOltXuxYlfO1mSkpKZLFYFBcX19lTAQAA5zmbzSaHw6G0tLTOngrOEq5FAQBAV9FVrkX5p+huxuFwKCYmprOnAQAAoJiYGDkcjs6eBs4irkUBAEBX0VWuRQlfuxmXy8XHuwAAQJdgNBqp+Xme4VoUAAB0FV3lWpQrIwAAAAAAAAAIAsJXAAAAAAAAAAgCwlcAAAAAAAAACALCVwAAAAAAAAAIgnM+fK2vr9fatWtPeb/S0lJt3bpVkvT+++/7tK9cufK052O1WrVnz552t7vdbu3evVutra2nfQwAAAAAAAAAXV9IZ0/gTFVUVOjZZ5/VlClTJEm/+tWvlJub69fvoYce0rhx4yRJd999tyorK2Wz2dSvXz9t27ZNy5Yt0/Tp01VTU6Nly5Zp06ZNkqSYmBjdddddkqQ1a9bIbrd7x5w2bZqioqJ8jrN79259/PHH+uMf/+hts9lsWrFihfbu3avt27erT58++vWvf63CwkItWLDA2+973/ue91idxel0KiTknH9bAAAA4BzTtjjBZDJ18kwAAAA6TpdN2RwTL5Fl/aeS8dQW55aWlmrx4sVKS0vztj388MNyuVzexw888IAWL16sq6++WhMnTtQbb7yhH/zgB2pxtuiH836ou+66SxkZGfrNb36jxYsXe/d78sknNWnSJEVFRentt9/W0KFD/cLXQPbv369//etfuv/++3X//fd7w828vDyNHz9eDz/8sP773/9q165dp/RcO9KWLVv06aefqqCgQMOGDdPs2bM1YMCATpsPAAAAzg92u10vvfSSsrOzJUlZWVm66aabFBoa6tfXarXqqaeektls1v3333+2pwoAAHDKulT42rp7r2S3yzQmU4bEHpLLpdYdX0mSTGNH+/QtKSnRkiVLVFdXp4KCAi1cuFBz586VJEVGRioyMlI5OTmyWq3Kzs5Wenq6JM/F3e9+9ztFRkZq9+7d2r17tyZMmKD58+drypQpuvfee/XGG28oLy9P8+bN09ChQ32O+8Mf/lApKSnasGGDKioq9PLLL/vNq7CwUAsXLtSVV16psWPHSpLCwsJks9m0bt06RUZGaty4cdq1a5eGDx+usLAwhYaGqq6uLijn9UR27typl156Sf/zP/+jQYMGadOmTfrLX/6i++67T6mpqZ0yJwAAcHYVFRUpISFBFosl4HaHw6Hq6mrvNRXQUZ566imNGDFCt956qxobG/V///d/evXVV3XLLbf49GtpadELL7ygPn36HLfMFwAAOPd052vRLlXz1RAdKdfWHWq8/la58wvVeM1Nal2zToYAq0vT0tK0cOFCzZ8/X3379tXChQs1atQonz41NTUqKCjQokWL1KtXL0lSSEiIbrvtNlVVVenOO++Uy+XyBqy33367XC6XHA6H1q5dq927dwcsYdCmZ8+eWrhwoc/XDTfcoJEjR2rhwoXe4FWSmpqaVFpaqtLSUlmtVr333ntasWKFZs+eLUkaOXKkNm7cqBkzZnhLHrTJz8/Xzp07T++knoRVq1bpiiuuUGZmpiwWi2bMmKHRo0dr/fr1QTsmAADoWkwmkwoLC9vdXlhYyMfB0eGam5s1fvx4zZ49WxaLRT169NDEiRO1b98+v76vvvqq0tPTveXGAABA99Gdr0W71MpXY9++Ms7/sRQVKef7H8t08USF/eLka6A6HA5J0o4dO1RcXCyTyaRBgwapublZZWVlSklJkdls1pgxYzRjxgy9/vrrSkhI0IMPPqjW1la9//77Kioq0tNPP62UlBStWLFCjzzyiJ577jlFRERI8tSONZvNOnjwoCQpJydHzc3NfsHvsfr27avrr7/e+/jgwYN67rnnFB8fL8kTJq9cuVJ2u12RkZE++/75z3/WgQMH9NFHH530uTgVZWVluuyyy3za0tLSlJeXF5TjAQCAric1NVX19fUqLCxUnz59fLYVFhbKaDTyiRh0uPDwcF166aU+bdnZ2Ro8eLBPW9tihEWLFunw4cNnc4oAAOAs6M7Xol0qfJWk1q3b5Xz/I0W8/qKafvS/al25WqZLph93H6vVqh//+Me68sorJUnvvPOOtm/frsmTJ0uSDhw4oFtvvVXXXHONWltb9dprr0mSevToIUmaOXOmNm3apM2bN2vChAlatWqVd+yZM2cqLCzM+3jOnDmKj49Xfn6+99hPP/20XnvtNRmPU5/2q6++0oMPPijJE2yOHDlSzzzzjF+/2267ze8C9Oc//3nQShK0tLSourpasbGxPu3x8fEqLy8PyjEBAEDX1K9fP+3atUsxMTGKi4uT5LlxaGVlpUaOHNnJs8P5YO/evdq8ebMeeughn/Y333xTc+bMafejiAAA4NzXXa9Fu1z46s49oLBFv5XCwxW26CG1fvLfgOFrWVmZ3nrrLS1btkxNTU265ZZbNGnSJL322mt65JFH9Mtf/lIPP/yw4uPjNW/ePE2YMEGSZDAY/BJ0SQHbAsnKylJKSopiYmIkSZMnT9Zzzz2nlStX+q0ePVpycrJ3e2RkpAYPHqyLLrpINptN119/vdxut+677z4lJSX57duvX7+TmtvpCAkJUWhoqI4cOeLT3tzczMUtAADnmbCwMA0YMECHDh3SmDFjJEmHDh3SgAEDfP4xGgiGiooKLVmyRDfffLN69uzpbd++fbvq6+spNwAAQDfXXa9Fu1z4GnL9Nd7vjb3TZfzxbQH71dTUqKWlRfPnz9err76qSZMm+WyfPn26Vq1apaysLEnfhKtGo1HTpk1Tdna2382yjnXFFVf4jRvIXXfdpYULF2rGjBnt9klOTta0adN82q699lpdffXV+sUvfqEdO3YoJSVFmZmZJzxeRzIYDOrZs6dqamp82quqqpScnHxW5wIAADpfXFycEhMTtX//fklSYmKid+UBECyNjY3661//qmnTpmncuHE+29555x2NGDFCOTk5kqTDhw/L6XRqz5496tu3r6IC3B8CAACcm7rjtWiXC19P1tChQzV06NB265Jed911uvnmm5Wbm6s5c+b4bQ8NDfWWHWiP2Wz2a2tublZzc7Pcbre37cILL9RttwUOiR0Oh4qLi1VeXq5///vf2r9/v/bv368777xT48aN07e//W0tXbpUq1at0mOPPXbc+QRLWlqasrOzdeGFF3rbsrOzfW4YBgAAzh+9e/dWdna293sgmFpbW7VkyRL17dtXV111VcDt27dv1/bt2yV5ymY1Nzfr5Zdf1m233aYhQ4ac7SkDAIAg6m7Xouds+Hoi8fHxmjt3rp544gmtXr3ab3ug4v7HOvbGV5K8dWVbW1t92ufOnRtwjF27dumJJ55QSEiI9uzZo/79++vSSy/11qr46U9/qpkzZ2rcuHEaPnx4wDGWL1+u0tJS3XLLLced7+maPXu2Fi1apIsuukgDBw7UunXrVFVVpalTpwbleAAAoOvr379/Z08B54m3335bxcXFuvfee1VbW+ttj42NlcFg0KOPPurTf9++ffrHP/6hxx9//GxPFQAAnCXd6Vr0nA9fjw1B22zevFmvvPKKpk6dqnvuuUePPfaYz13RFi1apNTUVKWkpATcv6mpSR9++KFWrFjh0758+XKlpKTozjvvlNHkf4Mth8Ph83jChAl68skn9cYbb+i3v/2tt93tdmv58uV68skn9a1vfUuFhYV6+OGHdffddys+Pt5njC+//FIHDx4MWvjaq1cvXXvttXr22WfldDoVHR2t2267jZqvAACcxwJ9AgjoaDabTZ9++qkk6b777vPZ9sQTT/jdFBYAAJwfutO16Dkdvr7wwgtavXq13xLkdevWaenSpVq8eLEyMzP18ccf68Ybb9TSpUt9knO73e7zr+tHa25u9mtbtGiREhISJEnPPPOMt72kpER/+tOfFBoaqnXr1un2228/7rztdrvuuOMOGY1GPf7448rMzJTT6dQrr7yiuXPn6umnn9aIESO8/RcsWCCXy3XiE3IGpk+frqlTp6qqqirgTb8AAACAjhYXF6fnnnvulPbJyMjQk08+GaQZAQAAdCyD++jipeeYLVu2qKGhQVlZWd5C+2vWrFFGRobCwsJ8VpAWFxcrLS1NBoNBkvSf//xHgwcPbrfua3Nzs1atWqUbbrjhhPNwOp3atWuXJE+pgsGDB/tst9lsKikp0bBhw7xtO3bsUGZmpnc+bQoKCpSSkqLw8PCTOAP+cnNz/Y4PAADQWbg2Ob/wegMAgK6kK1ybnNPhK/x1hTcVAABAG65Nzi+83gAAoCvpCtcm/kVLAQAAAAAAAABnjPAVAAAAAAAAAIKA8BUAAAAAAAAAgoDwFQAAAAAAAACCgPC1mzEajXK5XJ09DQAAALlcLhmNXG6eT7gWBQAAXUVXuRbt/BmgQ1ksFtXV1XX2NAAAAFRXVyeLxdLZ08BZxLUoAADoKrrKtSjhazeTkJAgq9Uqm83GqgMAANApXC6XbDabrFarEhISOns6OIu4FgUAAJ2tq12LGtxut7uzJ4GO1dTUpOrqajkcDi56AQDAWWc0GmWxWJSQkCCz2dzZ08FZxrUoAADoTF3tWpTwFQAAAAAAAACCgLIDAAAAAAAAABAEhK8AAAAAAAAAEASErwAAAAAAAAAQBISvAAAAAAAAABAEhK8AAAAAAAAAEASErwAAAAAAAAAQBISvAAAAAAAAABAEhK8AAAAAAAAAEASErwAAAAAAAAAQBISvAAAAAAAAABAEhK8AAAAAAAAAEASErwAAAAAAAAAQBISvAAAAAAAAABAEhK8AAAAAAAAAEASErwAAAAAAAAAQBISvAAAAAAAAABAEhK8AAAAAAAAAEASErwAAAAAAAAAQBISvAAAAAAAAABAEhK8AAAAAAAAAEASErwAAAAAAAAAQBISvAAAAAAAAABAEhK8AAAAAAAAAEASErwAAAAAAAAAQBISvAAAAAAAAABAEhK8AAAAAAAAAEASErwAAAAAAAAAQBISvAAAAAAAAABAEhK8AAAAAAAAAEASErwAAAAAAAAAQBISvAAAAAAAAABAEIZ09AXS8pqYmVVdXy+FwyOVydfZ0AAAAAAAAgLPCaDTKYrEoISFBZrO5s6cjg9vtdnf2JNBxmpqaVFRUpMTERMXExMhoZHEzAAAAAAAAzg8ul0t1dXWyWq1KT0/v9ACW8LWbKSkpkcViUVxcXGdPBQAAAAAAAOgUNptNDodDaWlpnToPlkV2Mw6HQzExMZ09DQAAAAAAAKDTxMTEyOFwdPY0CF+7G5fLRakBAAAAAAAAnNeMRmOXuBcSKR0AAAAAAAAABAHhKwAAAAAAAAAEAeErAAAAAAAAAAQB4SsAAAAAAAAABEG3CF9rampks9kkSUVFRVq/fv0J9yktLdXWrVslSe+//75P+8qVKzt8jnV1dR0+JgAAAAAAAICuK6SzJ9ARfvWrX+mGG27QpZdeqv379+uTTz7R5MmT2+1/9913q7KyUjabTf369dO2bdu0bNkyTZ8+XTU1NVq2bJk2bdokSYqJidFdd90lSVq+fLl27NhxUnMaPXq0Zs6cKckTCP/oRz/SU089pUGDBukPf/iDVq9eHXC/5ORk/fOf/zyFZw8AAAAAAACgKzrnw9dVq1Zp8+bNmjp1ql577TXl5OQoPz9fr732mk+/Sy65RMnJyZKkBx54QIsXL9bVV1+tiRMn6o033tAPfvADtThb9MN5P9Rdd92ljIwM/eY3v9HixYu9Y2zZskXR0dG68MILjzunLVu2aMuWLd7wNT09XYsXL9a9996rxx9/XFVVVVqwYIGysrKUn5+v+vp6jRw5Ug6HQ9ddd10HnyEAAAAAAAAAneGcDl///e9/64UXXtBf/vIXmc1mSVJtba0OHz6sfv36+fRt22632/W73/1OkZGR2r17t3bv3q0JEyZo/vz5mjJliu6991698cYbysvL07x58zR06FCfcTIyMjRp0iQ1NTXJ6XT6bAsJCZHZbJbdbtfmzZt9tg0dOlTPP/+8YmJiJEmhoaF67rnnlJOTo+rqak2cOFFXXHFFR54eAAAAAAAAAJ3onA5fjxw5on/+85/eFa2S1NzcrEOHDmnSpEkB9wkJCdFtt92mv//97/rd736nv/3tb96A9fbbb9fnn38uh8OhtWvXqr6+Xrm5uRo8eLDfOAsWLNCePXtksVgkSQ6HQ4MGDdJf/vIXn36bNm3SW2+9JUmaNWumLr30Mu+2+fPn6+OPP9aBAwc0f/58ORyOgHPOz89XbW2tMjMzT+HsAAAAAAAAAOhM52z4umfPHm3btk3btm3zaS8vL1dJSYnuuecev31uvfVWDR8+XGPGjNGMGTP0+uuvKyEhQQ8++KBaW1v1/vvvq6ioSE8//bRSUlK0YsUKPfLII3ruuecUERHhN96jjz6q0aNHS5J27dql559/3q9Penq6Zs2aqTVrPld+foG3vaioSP/5z39UUFCg2tpa1dbWatq0aQGf65///GcdOHBAH3300SmdIwAAAAAAAACd55wNX3v06KEZM2ac8j6tra3eerA9evSQJM2cOVObNm3S5s2bNWHCBK1atcq7z8yZMxUWFnba8+zVq5d69eql8vIKNTY2etvj4uI0a9Ysn75JSUkBx/j5z3+uurq6054DAAAAAAAAgLPvnA1fU1JSNHv2bLndbrlcruP2NRgMMhqNkiSXy6U+ffr49QnUFkxRUVHatWuXCgo8q2HNZrPuvvvugH2PrV8LAAAAAAAAoOs7Z8PXNs8995yeeuqp4/a58cYbdd9990mSjEajpk2bpuzsbL388svH3e+KK65ot3asJL344ove1apWq/Wk5+x2u2U0GrVu3TrdeOONio6O1oIFC9oNXwEAAAAAAACce8758FWSfvazn+nmm28OuO2DDz7Q/v37/dpDQ0O9ZQfaYzab2912++23q6qqyqctPj7+hHOtrKxUZWWl99hjxoxRfHy8QkK6xUsBAAAAAAAA4GvdIvEzmUzt1mU1mUwB28PDw3XppZced9zIyMh2t2VkZJz8BL/22WefKTc3V4WFhUpOTpbkuWlXeHi47HZ7u/stX75cpaWluuWWW075mAAAAAAAAAA6R7cIXw8dOqQNGzYE3BZo1askLVq0SKmpqUpJSQm4vampSR9++KFWrFjh0753797jroht63OsvLw8RURE6Nprr9X+/ftlNpv14IMPyuFwSPKURjhy5EjA8b788ksdPHiQ8BUAAAAAAAA4h3SL8DU3N9d7Q61jHTp0SEOHDg24zW63q7a2NuC25ubmgO15eXlyu93Hnc/Bgwf9Qt2rr75agwYN0t///nfNmzdPktS/f3/v9hdeeEEbN270aWuzYMGCE95UDAAAAAAAAEDXcs6Hr9OnT9eMGTM0aNCggNsLCgpUX1/v137llVdq8ODB7dZ9bW5u1oABA3za7rjjDpnNZkVFRR13Tna7XU1NTT5tw4cPlyTddtttAUskjB07VhkZGRo1alTAMdsLlwEAAAAAAAB0TQb3iZZx4pySm5urwYMHd/Y0AAAAAAAAgE7VFXIyllMCAAAAAAAAQBAQvgIAAAAAAABAEBC+AgAAAAAAAEAQEL4CAAAAAAAAQBAQvnYzRqNRLpers6cBAAAAAAAAdBqXyyWjsfOjz86fATqUxWJRXV1dZ08DAAAAAAAA6DR1dXWyWCydPQ3C1+4mISFBVqtVNpuNFbAAAAAAAAA4r7hcLtlsNlmtViUkJHT2dGRwu93uzp4EOlZTU5Oqq6vlcDgIYAEAAAAAAHDeMBqNslgsSkhIkNls7uzpEL4CAAAAAAAAQDBQdgAAAAAAAAAAgoDwFQAAAAAAAACCgPAVAAAAAAAAAIKA8BUAAAAAAAAAgoDwFQAAAAAAAACCgPC1m2ptbT3udpvNptLS0rM0m64nOzv7lPofOXLE57HL5VJJSYlPW2VlpWpqas54bkfLq5Zcbs/3H+yTbI0n3ueDfZKzVdpX6flq8/4+yero0OmprqljxwMAAAAAAOhOQjp7Auh4tbW1+vDDD3XTTTe126egoED19fVKTU31tpWVlSkmJkYWi+VsTNOP1WpVWFiYYmJiJEl2u12NjY1KSkrSxo0b5XQ6TziG0WjU5MmTfdqam5u1f/9+DRs2TEajUW63W2vWrFFGRoYMBsNJze2LL76QyWTSpEmTvPts2LBBkydP9p7DtWvXavz48YqPj/fZd+3atSouLm537KFDhyozM9OvfUOhtGCNtGKe5/HTW6SMJCkuIvA4n+RKr+2RtpRLb+yVyu2e9rRo6bFvSb9YKV01UIr8+qd+7jBpTKpU3yz9acNJnQZJ0q8mSdHhnu//sF4yGaTfzpAKa6Ub321/v4culmYOOvnjAAAAAAAAnOsIX7u50tJS5eTkaNq0aT5BY3Nzs8LDw336rl27VqNHj9agQYETMrvdLofDoZ49ex637XStWrVK4yeM94avO3fulMFgUFJSkpKSktTa2qqysjJVV1dr2LBh3v3KyspUU1OjoUOHBgxT3W636uvr9e6772rChAnq1avXKc/t4osv1vr167V69WrNmDFDRqNRM2bM0Pr163XllVequLhYISEhSk9P99u3oaFBo0ePDnjcPXv2qLHRfzlrc6v0+w1SapT04nZPW1WT9M5eKTnqm34pkdLlgz3fXz5YKmuQEszSzyZI2V+vep3YW/rHVmlInPTDTGnZfqnVLfWN9Wx3tEgf5UlPXnbi8/CLT6U7x30Tvi6cIT2yWrp/hXT7WCktSnp1rmfb+9nSdwZLoSbpifWe4wAAAAAAAJxPCF+7uZ49e+qLL77QqlWrdMkll3jbm5ubvSHnySooKFBOTo7mzp173LbT0dTUpJqaGqUkp3jbSkpKNG7cOEnSwIEDve1Op1NDhgzx2d/lcvm1SZ5wMzIqUhMmTFBzc7Pq6+tPa35Go1FTpkzx7r969WpJUnR0tN58801FRETIYonQ6tWrlZ6e7jNfSYqIiFB0dLRsNptWrFih73//+5Iks9mspibfz+6X26UffSRdmCLN6P9Ne7jJE5imx37TFnNUfv7pAentbGl4kidsTYmUQozSu/ukfnHSlN6e8HZflbTku74raCNDpCl9PaGsw7fCgiTJEuZZ4Rp5zG+MEKP0yLekkjqpoUUyGqRtJdL6w9KSndL+amlksqcfAAAAAADA+YbwtZszmUyaOXOm3n77be3YsUOjR4+W5Kn52rt3b7/+ra2tWrHiUx0+XKS4uDhNmTJFiYmJ2rp1q3bt2qWWlha9/vrrGjdunGpra/3aBg4cqPfff1+ZozN1YP8BFRYWKikpSWPHjvWu/GxqalJpaan69/8mWSwrK1NCQoLMZrO3T3V1tVJSUvzmeCp69eqlzz//XJu+2KRp06YpJSVFTqdTRqPxpEsOfPbZZ96ar5deeqkkafr06d7tH330kcaMGXNSK2rdbrfcbvdx+7S0StdkSPNG+7ZHhUpZvaTBPQLvF2eWfpol5duk6f2lJdukS/pLTpc0e4hnBe1nh6VQg/RxrjR3uBRxzG+AA1XS7H9J/Y/K5fPrpHevlkYk+/b9/z6Vaps93/9ttqc+rSRd1Nvz9dY+6e6LpKiwb1bhAgAAAAAAnE8IX88DFotFl19+uT799FONGDFCJpNJFRUVAUsFbNmyRePGjdOIESO1fft2LVu2TDfddJOGDBmilpYWFRQU6JJLLlFUVJRSUlL82iSprq5O69au04gRIzRq1Cjl5eXpv//9r77//e8rOjpaOTk52rhxo2666SbvPqWlpUpLS/POo6y8TPHx8TKbzSorK5PD4blTVEVFhex2uw4ePOjtW1FRofr6em+bxWLxhrZxcXG68sorlZOTo7q6OqWkpMhutysyMvKkz1///v3ldDq1Zs0ab3Bqs9nU0NAgybOKuLLym3QxOTlZISGBf7ScTme729q8vFMqqpM2Fvm2F9ZLj3wuxYT6tqfHSPdPlcale8LTnRXS+zmeVaiL1kvXZkh/XCddmSH9/9/yrKx9+kup+SvptrH+x5+Q8k3pAEm6pZ06rpcNkI44pZ8sl46Ok1/cLuVUSdYm6befeULhcNNxnzIAAAAAAEC3RPh6nkhMTNR1110no9Eoq9Uqs9kc8MZaAwcO9H58f/z48XrrrbfU0NCgqKgoRUdHKzQ0VImJid7+gdokqU+fPt5Vtj179lRlZaVyc3OVlZWlIUOGKCYmxhu8Sp4SA2PGjPE+Li35JowtLS1VWVmZJM/NxFwul3Jycrx97Xa7mpqavG3JyclKSUlRQ0ODNyBtuwlWRUWF98ZeFRUVPnNuKw1wrH79+kny1MRtU1hYqEOHDknyhM25ubkqKCiQJJ8g+lj19fUnLPcwIV0a2uzfftmAwP3bSg9sLZZ2lEk9v35Ze1qkIQnSH76UfjNBqrB/Uz92YLw08gzL9F5ygee/pk+Pmf/Xq3Ov+LoWbahR+iz/zI4FAAAAAABwLiJ8PY8YjZ7Cm3v27Gn34/xtIaUk9ejh+Xx7Y2PjKa0UlaTU1FS/x1VVVZI8dU6PLjlw5MgRWa1WnzmVlpZ6w9ujQ9nPP/9csbGxyszM9Lbl5OSopKREM5XstZwAACAASURBVGbM8DlmXl6e9u7d6zc3h8Mho9GoVatW+bQPGDDAW2P2REaNGqVRo0ZJOrWyA3V1dTKZTMrPz/eGusdqCzVbj1+dQJKnDmubWLPUN86/zz9mBd736JqvHSnU5Fl522bO4OAcBwAAAAAAoKsjfD0PVFVVfX1DKIusVqv27duniIgIORwOv9WvbQFtm5Oti3qsYz9aHxISIqfTGbBvWVmZYmNjvXNpaWlRZWVlwIDYarWqT58+JzWHowPSNq2trXr11Vf1rW99S+np6Sc1zplKSUnxhtcHDx5Uamqq9uzZo379+ikuPk7OFv/z4nRJvZ8+8dg7/0fq+XUuPrCH5+uP6z1lC9pjDpEev6z97TnV0gMrvnm8p/rE85Akl9tT6qDSIdmapFtGSysPSgdqTm5/AAAAAACA7obwtRtqq0tqt9u1efNmFRQU6PLLL5fFYtGGDRs0atQoRUREaMOGDd4bSJ0sl8t1Um1Wq9VndWtVlVUJCQkBxywtLfVZNXpsGNumtbVV1dXVSk5OPnaIk7Zjxw6FhoZqzZo1mnzxZPXr2++U9nc6nTp48KDWr1/vbWtpaVF5ebk3uLZYLLruuuu829tW8FZUVKilpUV9+vRRdbUn0TzR8Qvuan/buBcCt8eFS03+FSW8jld/NT1GeuIS37bLBgReUXu0+ibpcK2U8nUQ3CtamthbKrRJza3H3xcAAAAAAKC7InzthiorK9XY2Kh3331XI0eO1MUXXyyj0ajVq1erpaVF48ePlyS99dZbKioqOukVoLGxsbLZbKqrq/PWLQ3UJnlKG/Tu3Vs9e/ZUQUGBDh48pCuvvFKSJ5jdvXu3pkyZIpPJpJKSEo0cOdK777E332qze/du9ezZUxERp/55ebfbrY0bNyo/P1/f/e535XK5tHLlSh3MO6iLL75YYWFh3r4tLS3Ky8tTv379ZDabfcb57LPPlJGRoWuvvdbbtmLFCg0fPtxbaiHQamGbzaZPP/1UEyZMCLh927Ztio2N1YABvoVdw44TlBoDtDU5pQt7Sa3+ebiXQVJ9sxQd7r8tMkya3t+//URu/UAaleQJbyVpVYFkW+5Z9fr9jFMfDwAAAAAAoDsgfO2GIiMjNX78eA0fPlwhISFyOBxavny5WltbNXPmTJlMnkRv8uTJ+vzzz3Xttdf6lQkIJC0tTenp6Xrrrbc0ceJEDRs2LGCbJF144YVat26dqqurFRERoSlTpnjLCFRVVenQoUOaMGGCQkNDVVlZ6VMjtqSkRMOHD/c5dllZmbZt26Y5c+ac0rlwu90qKCzQzh07ZTAYNHfuXG+g+r3vfU9bt27VO++8o29/+9velblVVVVau3atBg4c6B3nyJEjcjqdSkxM9FnRK0kmk0kREREB6+K2trbqwIED+uKLL3TRRRdp4MCBKisrk91uV2trq/e1qKysDLgyeE1++8+tKcCK0r0V0t3LpWuOE3h+ViDNGyldfdQptjs9JQJOxH5MhYTiOk9t2ttHSx/vlyamSyN6Sn+Z+U2ftBjp2c0nHhsAAAAAAKC7IXzthtLS0nxWji5fvlw9evTQ5MmTvWGfJPXu3VtJSUmqqalRUlKSrrnmGr+x7rjjDu/3RqNRs2bNksvl8n7EPlCbJMXExOj73/++mpqa/FaPDhkyRIMHD5bBYFBxcbEiIyO9waXT6VRFRYVPOYTKykp98sknmj59erulCwIpKyvTihUrFB0drREjRqh///4+czQajRo3bpySkpL04YcfaubMmUpJSVFtba1SU1N9AmmXy6WsrCyNHTv2pI9/4MABrV+/XikpKbr88svVs2dPSVJSUpKOHDmiN998U2FhYXI6nWppafG7YZjkCTTb0xS4hK6cbk/N1Xb3CxDaOpzSpqLjPZtv+h0tOUp672rpgnjpd+ulpy+XQkxS5tfleneXS//YLL2wS/r39048PgAAAAAAQHdicLcVCEW31dzcrPDwAJ8xl2dl6OneVKs9r7zyiqZNm3ZSN8basmWL7Ha7pk+fLsmz6vWzzz7TjTfe6DPHhoYGRUVFBRzD4XDoyJEjiovzLUzqdDpVX1+v+Pj4E86jtrZW0dHRMhqN2rRpk8LDw721Wk+kqKhICQkJfjVq7Xa7XC6XTzmGo5+T3W6X5ClTEBkZ6fM6uNzSB/ukq4a2f9xPcqUZF3huoNWmtF7aUCjNOE7pgK0lnvIAQz1ZsJwuzwrWE9V1laQCm9QrRgoJUPOgrF5KifZtszVKW0o8NWDbjgcAAAAAAHC+IHxFh8vOzlavXr0Cho7Hys/PV2RkpJKSkiR56sHa7Xb169cvyLNs36FDh5SYmKjo6OgTdwYAAAAAAADaQfgKAAAAAAAAAEEQ6IbpAAAAAAAAAIAzRPgKAAAAAAAAAEFA+AoAAAAAAAAAQUD4CgAAAAAAAABBQPgKAAAAAAAAAEFA+AoAAAAAAAAAQUD4CgAAAAAAAABBQPgKAAAAAAAAAEFA+AoAAAAAAAAAQUD4CgAAAAAAAABBQPgKAAAAAAAAAEFA+AoAAAAAAAAAQUD4CgAAAAAAAABBQPgKAAAAAAAAAEFA+AoAAAAAAAAAQRDS2RPA2eF0OmW1WlVbWyu73a4jLUfkdrklSQaDoUOPZTAYFBYWpsjISMXGxioxMVEhIbzVAAAAAAAAcH4xuN1ud2dPAsFVePiwiouKdDIvdUcHsW1j9urVS7179+7wsQEAAAAAAICuivC1G3M4HDpw4IDsdrskKSEhQQk9EhQTHaPw8HBJUnNzs+rq61RdVa3q6mrvvsEIYaOiojRgwABZLJYOHxsAAAAAAADoaghfuymHw6Hs7Gw1NzfLYrGof//+io2NPe4+tbW1OnTokBwOh6TgBLDh4eHKyMgggAUAAAAAAEC3d07fcKupqUkul0vFxcXasWOHJHlXeZaVlXnbAsnNzVVeXt4ZHb+urk6ffPLJSfWtr6/X2rVrz+h4J8vtduvAgQNqbm5WfHy8MjMzTxi8SlJsbKwyMzMVHx/vHaejNTc3n/F5BwAAAAAAAM4FXeIuSDU1Nfr9739/wn7R0dF68MEHvY+XLFmiYcOGKSQkRBs3blRcXJz++Mc/6m9/+5vWrVun/fv3a/To0QHH+vzzz2U2mzVgwAB98sknevrppwP2i4yM1FtvvRVwW1VVlZ555hldfvnlJ5x7RUWFnn32WU2ZMkWS9Ktf/Uq5ubl+/R566CGNGzfuhOMdz+HDh2W322WxWJSRkXFKK1gNBoMyMjK0c+dOORwOud3uDl8Ba7fbdfjwYWrAAgAAAAAAoFvrEuFrRESE5syZ431ss9n06KOP6g9/+INPv7CwMJ/H8+bN0z//+U+NHTtWkrRq1Sr98pe/lCTt27dPLpdLGzdu9PbPysryG0PyfET/kksu0U9+8hOf9paWFs2aNevMnlw7SktLtXjxYqWlpXnbHn74YblcrjMat6WlRUVFRXK5XOrXr99pBacGg0H9+vXT7t27ZTQagxLAFhcXKzU1VSEhXeItCAAAAAAAAHS4LpF8mc1mTZo0yfv48OHDiouL82k7VnNzs5YuXSq73a7HHntMYWFhmjZtmt59913dfvvt2rNnj2bPnq3y8nItXbpUc+bM0ejRo1VeXq5nnnlG2dnZMplMcjgc6tGjh7788ks5nU5JktPp9IaNbTemOl0lJSVasmSJ6urqVFBQoIULF2ru3LmSPKtqIyMjlZOTI6vVquzsbKWnp5/2sdxutyqtlXK73YqPj1dcXNxpjxUXF6f4+HjZbLag1H51u92yWq1KSUnp8LEBAAAAAACArqBLhK/HqqmpUVJS0nH7hIeH62c/+5l+/etf66qrrtInn3yiqqoq3XnnnWpsbNTu3bv129/+VhkZGXrqqad0zTXXKCIiQhEREVq4cKGef/55mc1m3XTTTXr77bd18cUX63//938lSQ888IBmzZqlKVOm6P777z/uPCoqKvTQQw/5tT/wwAMKDw9XWlqaFi5cqLy8PJWXl2vhwoUBn29BQYEWLVqkXr16+W3Pz89XbW2tMjMzjzsXSaq11crldqlHYuIJ+55Ij8REVddUy2QwBWX1a21tLeErAAAAAAAAuq1OD18bGhp01113+bTV1taqrKxMt956a8B9nn32WTkcDt19992aM2eOEhMTZbPZdMUVV+hf//qXYmJilJaWpnXr1ik5OVkNDQ3t3nDK7XarsbFR5eXl3ht0VVVVKS8vT9HR0ZKk/v37t7u/2WzWmDFj/NqP93F6h8MhSdqxY4eKi4tlMpk0aNAgNTc3q6yszC+Q/POf/6wDBw7oo48+anfMNna7XS6XW7ExMSfseyKxMTFyudwyGjo+eJU8rz0AAAAAAADQXXV6+Go2m/3C19dff10TJkxQcnKyVq9e7V2R2iYkJEQRERG6+eabdemll2r16tWaMmWKRowYoREjRuiOO+7Qk08+qUWLFmn06NHq27dvwGOvW7dOe/fuVXJysr766itVV1dLknJzc1VTU6Mvv/xSkvTTn/603fA1JiZG3/ve907quVqtVv34xz/WlVdeKUl65513tH37dk2ePFmSdODAAd1666265pprfPb7+c9/rrq6uuOO7Xa75Xa7daTliFxul8xm80nN6XjMZrNcbpfcMsqgjg9fjxw50uFjAgAAAAAAAF1Fp4evJpNJWVlZPm2PPfaYfvKTn6iiokI7d+702y5JLpdL4eHh+vzzz3X//fdr4cKFWrt2rcxms5544glFR0fLYrFo3bp1mjJline/4uJivfjii/rkk080bNgw3XHHHVq6dKnmz5+vmTNnSvItO3CmysrK9NZbb2nZsmVqamrSLbfcokmTJum1117TI488ol/+8pd6+OGHFR8fr3nz5mnChAl+Y/Tr1++kj+d2e4LYjuIJdSUZFJTSAwAAAAAAAEB31enh67GKi4vlcDg0cOBAVVRUtNuvpaVFK1eu1N69e9W/f39t2LBB9fX1Kioq0ptvvilJ+s53vqPf//73WrJkiXe/5uZmpaWl6fLLL1ffvn3Vt29fWa1W9e7d2/ux/sLCQm3atEm1tbVKS0vT2LFjT/v51NTUqKWlRfPnz9err77qdxOx6dOna9WqVd6AuU+fPqd9LLek0NAQHTnSrMamRlkiLKc9liQ1NjV60lx1XJh7tLCwsKCMCwAAAAAAAHQFXSp8dblcevzxxzVr1qx2+7S2tspkMslisWjBggW67rrr9Kc//UkpKSm67777NH/+fG/f4cOHq6mpSYMGDfK2XXDBBbrgggv0/PPPe9vy8/PVu3dv3XTTTbrhhhu8N7ZavXq1QkNDzyh8HTp0qIYOHaq8vLyA26+77jrdfPPNys3N1Zw5c077OG0slkg1NDTIVlt7xuGrrbb2jOdzPJGRkUEdHwAAAAAAAOhMxs6ewNFeeukllZWV6Uc/+lG7febPn6/CwkJJnhWqDodDS5cu1ZIlS9TQ0KCpU6d6+/71r3/V0KFDfVa+His3N1eSFB0drYiICN1zzz3er+uvv76Dnln74uPjNXfuXL366quaPn16wD7Lly/Xiy++eMKxDJKnNq3BoPKy8jOeW3lZuWQwfD1yx2uvji4AAAAAAADQHXSJ8NVms+mhhx7SSy+9pCeffFIRERGSJKPRqMrKSrW2tkqSnE6n9u7dq4SEBElS//799eijj2r9+vV67bXX1NDQoJ07d0qSnn/+eQ0YMEAvv/yyNmzYoJUrV/oc0+l0SpJWrFihK664QpJnVe3Bgwe9X8XFxd7+LS0tKikp8fkqLy+X0+n0a2/7OvqGUm3P4VibN2/WK6+8oqlTp+qee+5RaWmpX58vv/xSa9asOalzmZSY6Dlv1krvDcROR3V1tSqtlTIYDGor89qR9V4NBoMSExM7bDwAAAAAAACgq+n0sgN1dXW66qqrdMkll+i9995TXFycd9uwYcN08OBBXXfddYqNjVVhYaEmTJigqKgo5Rfk695f36vU1FQ98sgjysrK0qZNm7R06VKNGTNGhYWFevjhh2UwGPTkk0/qjjvuUExMjMaMGaNFixZp2bJl3nqwixYtkiQ1Njbqqaee8h6/urpavXr1kiQdPnxY9957r9/8LRaL7r777oDPbdGiRRoyZIheeOEFrV69Wr179/bZvm7dOi1dulSLFy9WZmamPv74Y914441aunSp+vfv7+23YMECuVyu457HtmA0LCxM6b3SlZ9/SNk5+zTpoomnHJq63W5l5+yT0WCQ0WCUIQgrX3v16qWQkE5/+wEAAAAAAABBY3C73cG5m9IpKC4u9oacxzpy5IhKSkrkdrsVFRWlpKQkSZ6VpEVFRerbt6/fPjU1NYqJiZHJZPK2VVVVKTIyUmazWTt27FB0dLQGDBig8vJyJScnS5KWLVvmU2/WarWqoKDAezOs07VlyxY1NDQoKytLUVFRkqQ1a9YoIyNDYWFhio+P9zkXaWlpp7XK1O12y+VyqdXl0o4d21VTa1NCfA9dOHbsSY/ndru1Zds2VddUKTQkVKEhITIZPeexo1a+RkVFaeTIkR0yFgAAAAAAANBVdYnwFR3D7XZ7v+rq67V7z27ZGxoUGRmpYRlDldijx3H3t1ZVae++bDU0NCg0JEShIaEKMZm+Lj3QMcFreHi4MjIyZLGc2c3AAAAAAAAAgK6O8LWbcbvdcn29Ara+vl45uTmy1dbK6XSqZ1KSUlPTlJiQ4K2r29jYKGt1tUpLS1RRWamQkBCFmkwK+Tp4NRo9ZYE7InyNiorSgAEDCF4BAAAAAABwXiB87Ybayg+43C45nU7lFxTo8OHDcrY61drqaW972Q1f13U1mYwymUwyGU0KMYV8/X3HBK8Gg0G9evXyq3kLAAAAAAAAdGeEr91Q20vqCWDdam11qqm5WRUVFbLZbLLb7TrS0iK32/11+Pr119fhq8loPKMVrwaDQWFhYYqMjFRsbKwSExO5uRYAAAAAAADOO4Sv3ZQ3gHW7JbdbrS6XXK5WuVwuud2SW1+vfJVBBoNkNBpl/Dp41ddhrNRxN9kCAAAAAAAAzjeEr93c0Tfh8j6WW22vusHQFsB+E7Z25A22AAAAAAAAgPMVnwXv5gzHrGD1hrBt24/pd+z3AAAAAAAAAE4P4et5IFCYemwLgSsAAAAAAADQsQhfzzOErAAAAAAAAMDZYezsCQAAAAAAAABAd0T4CgAAAAAAAABBQPgKAAAAAAAAAEFA+AoAAAAAAAAAQUD4CgAAAAAAAABBQPgKAAAAAAAAAEFA+IpO53a75XA4VF5erpKSEr/tLpdL+/fv9z7Ozs5Wc3Pz2Zyin5qaGpWXl3sft7S0SJLKyspUW1srt9vt02az2dodq7CwUI2NjR0+x6qqKtXV1fm0OZ1Ov36VlZXe52K321VQUNDumPX19ac1l7q6Ou+xS0pKZLVaT7hPaWmpamtr1dTUpPz8fG97SUmJKioqTmsegZSVlamsrKzDxpM857GpqcmvPT8/P2C71Wo97hxqamr8XsszVV1dHXAuNTU1xz2/NptNDQ0Nfu1VVVUqLi5ud7+ioiLZ7Xa/drvdrqKionb3a2ho8Ntut9tVWFjY7j5HO3DggPd963A4lJOTc9z++fn5fs/vyJEj2r59+0kd72w50XkLltbWVp/HZWVlfm0d5VR/jk5HMH7+pbPzvjtX/r8T6Ngn8/+AjjreqTjT3zcd5auvvmp3W2tra8BroNLS0hOO21m/NwAAAM53IZ09AZwfdu7cKavVqtbWVjmdTjmdTrW2tqqxsVGNjY2KjIxUbGysYmNjlZycLJPJ5N13z549ys3NVc+ePSVJxcVFcjgcGjhwoM8xoqOjZTQaVVdXp/Xr15/03JKTkzV27FgdPnxYX3zxRcA+AwYMUGZmppqbm2WxWFRUVKT6+nolJydLkj766CNddtllysvLU3JyskpLS9XQ0KCsrCx99dVXuuCCCxQXFxdw7B07duiiiy5SRESE1q5d2+4feenp6Zo2bZqcTqfy8vK87SaTye9cSNK+ffsUExOjkSNHSvKE2O+9955Gjx7t07+kpEROp1PJycmy2Wzat2+f+vbt6zdebW2tPvjgA1111VVqbW1tN0zo37+/97WSpKamJr399tu69tprFRISooMHDyouLk6JiYkB97fZbFq7dq3q6uoUFhamkJAQ1dbWqkePHsrKytKmTZtkMpm85zM5OVlDhgwJOFagUOjo95bkCQWNRqNSUlK8bdu2bdOePXsCjnm00NBQ/eAHP/Br37dvn6qrq/Xtb3/b29bY2KjPPvtMN954Y8D+sbGxSklJkdvt9oYw4eHhKi8v1759+xQeHq7evXsrKSlJkZGR3n2Li4u1evXqducYGxur7373u37tX375pYYPH67evXv7tBcVFamhocHnNTzaF198oYEDB2rgwIGy2+3e81RVVaXGxkalp6dL8rwu/fr18+63e/duZWRkKCoqSkeOHNGBAwc0bNgwWa1W7d2717vfsQ4dOqS6ujqf7bm5uWpqalKfPn0C7rNlyxalpKQoPT1d+/btk9lsVnR0tPLy8nT48OF23y+S5+dx/PjxPuc4LCxMhw4dUmpqqs/7RPK8x45+nxkMBu3YsUMHDx5s9xjf/e53VV1d7fOPCidjypQp3u+tVquys7OVnp4ut9t93OMNGDBAkucfrk429Bo9erSio6P92t9//31NnTrV+/P76aef6qqrrgrY90yPd6o/R8c62z//Z/N9J50b/98JZO3atT6vaSBncrySkpKTev2Sk5M1atQon7ZT/X1zutcbzc3NWrVqlbd9zJgxCgkJ8QaoGzdulMFg8G4/+vkdPnxYmzdv1uzZs2WxWLzt27dvV3V1tYYPHy5J2rp1q/r166cePXp4+3TW7w0AAIDzHeErOlxVVZVPOCZ5/oCLi4tTSEiITCaTTCaTGhoalJSUJIvFIoPBoKamJpWWlvr8cVxbW6stW7YoNTVVmzZtkuRZuVFaWqaqqiqf406dOlVms1kREREB//CzWq3auXOnZsyYIaPxm0XfZrNZkpSamqpZs2YpPz9fhw4d0owZM+RwOGSxWBQaGqrKykpt3bpVs2fP9hs7KyvLZ9VuSUmJpk6dKsmzsjQlJcX7x21oaKhSU1MDnrumpiZddNFFfoFYSUmJ9u3bJ8mzGmr9+vUaPny4XC6X9u3bF/CP0mMZjUZ95zvf0fLly9XY2OgNvux2u5xOp8rLy1VTU6OmpiaVl5crOjra+4ddQ0ODVqxYoSlTpig6Olr19fWKiIgIeJyQEN9fK1u2bFFoaKgOHDjgPR8NDQ1+wUhmZqYkKS4uTpmZmcrJydHgwYNlNptVXFyswYMHy2q1qqqqSrNmzZLD4VB2drZ3v2M5nU698sor3sdut1u9evXSzJkzT3iuRo0apaFDh/q0rVu3Tqmpqd4/SCX5/HF8tLFjx+qDDz7Q/v37NWjQIEmeP4yHDh2qsLAwv/7FxcU6ePCgdu/erREjRig/P1+1tbXKysqS0+mUw+FQa2urdu3apWHDhvnMocXZori4OF122WV+41ZXV2vNmjUnfL42m00fffSRZ7yWFrndbu/rNX78eA0ePFiS52evurpaF1xwgSTPa52QkCDJE4q53W7v46NDgaO53W7ZbDbl5eVp2LBhx52X0+lUcXGxhgwZIqfTKaPRKKPRqPz8fI0ZM8Yv9Gz7ua6rqwsYOuXn56umpkbvvfeety05OVkTJ04MePz/x96dhzV15u0Dv7MRIEDYBAER3BCLqLgBWsW1rUsda51qtZ1us7advjPT/rrMzNt3Zt7OvNN12ul0OlPbaW2nVduqdS1uuBRBRRAVZV8EAoSwJJAEAknO7w+aM4SERYRW7f25Lq/LnJwtyTknnDvP833+/e9/i59xR0cHUlNToVAoAABBQUG44447kJ+fj+zsbFgsFigUCgQGBuK2224TgzbHZ9s9OPXy8oJKpeo14O7u9OnTmDJlSq/nG9D1nnYPz4xGI5qbm8XriON4UavVkEqlaGtrw7lz5zBnzhxxmZ7THK/zWlzr9q72POru2zj/v8njDrgxvndqa2tx5MgR8bHjx6UDBw64nV+hUGDdunWD3h7Qddx1D7o1Gg10Oh2mTZvmNF/Pa9RgrjeD/XtDLpcjISEBZrMZX331FXx9fdHR0eF0Hjj+f+LECadtREdHA5Ku8H358uXIycnBjBkzsGjRIuzYsQNhYWEIDAzE5cuXXY7j7q7X6wYRERHRzYjhKw25nJwc+Pj4ON1YBgYG4uTJk0hISEBERASsViuOHj2KBQsWQKVSwW634+DBgwgLC8OYMWMAdHWbPHz4MKxWKwIDA8WbUYlEgs7OTgQEBIjrDwkJEW9qFAqFSyu69vZ2HD9+HElJSb22lpPL5ZDL5bh48SJWrlwJX19fXLx4EUFBQX22WGpqakJVVRVaWlqg1WrR0NCA4OBgnDt3DlOmTIHVaoVCoUBraytOnTqFlJQUAF0troqKitDc3IyzZ8+KAVdhYaF4Q22z2cSgunsorVQqkZiYCKvVioKCAmg0GpeWqPX19fDw8IBOp0NSUhK8vb3h7e2NVatWQa/XQxAE6HQ6GI1G2Gw26HQ66PV6WCwW6HQ6SKVSeHt748qVK0hPT0diYiJGjx6NiooKREdHu7QY6slms+HEiRNoaWkRAwGg6+bT29vb6fPr+X6ePXsWfn5+KC0thVwuR0REBHbt2oWoqCgkJSXh/PnzAIDExESo1epeP8+NGzeKIU3FlQpoqjUoLi5GVVWVOF9jYyMkEgn0ej1SUlIgk8nEY6E7mUwGhULRZwhWWVkphpYeHh4oLS39+jXIUF2tQXh4ONLS0iCXy8X3pL6+HjKZDBs2bIBEIoFEIsEtt9yCL774Amq1GlVVVbDb7WILy5KSEqcACOgK1t2FUb0FvYWFhdDpdMjNzUVjYyOmTZuG++67DwBw77cqegAAIABJREFU8eJFmEwmJCUluSx76tQpzJ49G2azWWzl5yhRYDAYYLFYxJZbjtaz9fX14jStVouqqioEBgaira0NaWlpMBqNMBgMYiuwgIAAMZTYunUrJk6cCI1Gg6ysLMTHx8Pf3x9tbW2oqqoSP0eDwQCVSoVFixb1+tloNBq0tLTgrrvuEluwA/9pCXnlyhWUlpZCr9fj3LlzEAQBFosFjzzyCKqrqxEUFASz2Swuc/ToUQDA5MmTMXnyZHz++eeYP3++GKiePXsWgiCgsbERVqsVubm5AICxY8fCz88PgYGBCAwMdNs6s3uQfO7cOURHR4uhXnl5OcrLy53et+joaCxcuFBcvuJKBS5fuuw0DQDCw8MBdJUPuXDhgtN1rbW1FXl5eW6vdefPn4dKpeoz/BIEAUVFRaipqRG3O9jtDeY86unbOP/dGa7j7kb53hk5ciTuvfdeAIDFYsGuXbuwevVqjBgxot/3brDfcyqVyqkFsdlsRkdHR6/f/Y55BnO9GezfGzKZDKGhodizZw/mzZsHuVzuUmqgubkZQNe5dfbsWcycOVN8LjoqGkGBQVCpVPDw8EBhYSGmT5+OxYsXo6mpSfxOcBxv38Z1g4iIiIj+g+HrTchkMuHkyZPQaDRQKpWYMGECZs2aJT6v0WiQk5MDnU6HyMhITJw4EWfPnsWaNWvEeXJyclBcXAybzYaxY8di9uzZkEqlMBqN2LNnDxYuXIjMzEwYjUbExsZiypQpUCqV2L9/P2pra8XWIitWrICfnx8kEgmSkpJw6NAhrF+/HnK5HDNnzsSVK1cQEhKCzMxMeHh4ON1c2O12LFmyBAcOHEBMTIwYvlZVVcFqtYo3jYD7kMlBEAQcOXIEra2t8PHxQVtbG2w2G3x8fJzmM5vNSE1NRWRkJDQaDS5dugSDwYD8/Pw+W6gFBgZi2rRpOHToEKKiosQbnylTpqCiogI2mw0TJ05ES0sLfH19xQBj1KhRGDVqFHbv3o2ZM2ciJCQE5eXliIuLE7v9b968GevXr4dSqezzM4+IiEBERITTtJMnTzp1x3SUfAC6WrLI5XJMnjxZnDZ58mRUV3eVdJg8ebK4HolEglWrVsHX1xenT5+GxWKBzWYTbwzdmTFjBgDAx8cH8+fPd7qBr6yshL+/f683pVKpFPPmzUNWVhbmz5+PQ4cOYfr06fD29sb06dNx+fJlcdvl5eXw8/Nz28rSYrFg586dWLlyJXx8fNDc1Ay1Wo0JEyaIreiArpBMKpVi+vTpvb/BAzR69GiX1/XFF19g9uzZWLLEtWUq0NVtVqFQ4OzZswC6WhtVV1cjJiYG4eHhCA8PR3Z2NlQqFUwmk9uWdZWVldi0aZPb9fv5+Tk9dhwrqampYtmBw4cPi7V+7XY7BEEQu+3K5XI88MADXeGVRgMfHx9kZ2fjlltuQWxsLNRqNQICAuDp6Sm2UMzPz0dTUxOArptzQRAAdLX2y87Ohk6nw4IFCxASEoKKigpcvnzZbXCqVCoxd+5cAEBGRgZsNhu++uorLFiwwOl4Lykp6bMmo2O5RYsWQaVSYf/+/Vi0aJFTABQVFYWoqCh88cUXSEhIQHh4OFavXo2KKxVI/yod69evh4eHB/bt24dFixa5BBQ9FRYW4oc//CEEQYAgCJBKpcjKykJjY6NTWPPpp5/CbDaL1ze73Y7Y2Fjceuutbtc7ZswYjBkzBhUVFcjPz+8zcB4qZrPZqfVecXExampqxGO9vLwchYWFGDVqlPh5XYvBnEc9fRvnf0/DedzdKN87QFfQKAgCjh07BrPZjBMnTrhd37Jly/rssj7Q7fXU1tY2oNB8KK43A/17A+j6McvPzw9RUVGQSqVISkqC3W4H0PUj2OzZs8X/O/42ysvLE2trx8XFwdfXF5MmTcLevXuRkJCA0NBQhIaGoqCgwGmfv43rBhERERH9B8PXm9ChQ4egUqmwYsUKtLa24sSJE1Cr1YiJiYHBYMCBAwcwadIkJCUlQavVIj09HR0dHeLyubm5KCgowNy5cyGTyZCZmQlBEJCcnAy73S6WAkhMTERbWxtOnToFT09PxMfHY86cOfjqq6+gUqkwZcoUp9YnISEhSElJEW/i6+vrxQA1KioKISEhTt04Ha0tAOf6Z2azGUajEZmZmeLzo0ePdtuFWRAEZGZmQiqVivVZKysrkZ2dje9973tO+1dXVwepVCoOZjFy5EhMnDgRZrMZGRkZYqDYk1arRVpaGhYuXIjS0lJMnToVnZ2dKC8vF4O1uro6tLe391sLrbOzE83NzWKYbLfbUVdXJz52vIa2tjbs379fvFEDum4IIyIier3JLCsrQ3p6Oux2O+Li4sSWjRaLxe2NoYMjBKmurkZxcTHuuecelJeXOx0zJpMJdXV1Ti0yi4uL0dTUhMOHDzutr6GhAbW1tW4HZ1q0aBH8/f1hs9ng7++PCxcuIDAwEPv374eXlxdyc3Ph6emJe+65BxKJBBcvXsTJkyfddrlXKpVISkpCamoqVq9ejcrKSsydOxdmsxltbW1OdfC6q6urQ3l5uct0nU6H9vZ2MVR0kMvlTj9u9NTW1ia2ynZn9uzZKC8vR25uLsaPHw+FQoGcnBwEBgbCy8sLly9fRlNTEyQSCQRBcOq+7hAREYElS5a4TNfr9f2WHRAEASkpKS4tME0mEzw9PcXgXOmhxMSJE8UBfRx1Bdva2nDs2DEsWLAAR48exYQJE8TzAOhqJaZWq8VBjebOnYsTJ04MqMt9TzabDZGRkeJ50P019FYCAugKfxYvXix2u54zZw7S0tKwdu1alxqg3UkkEqQdScOiRYsgl8vh6+uLuXPn4ujRo1i7du2A9rmiogIlJSVuj1GHdevWiedgUVHRVQ8oZzKZnK5l7hgMBrFUi6OMRfd6j2azGVarVZwmlUqdavZ219rais7OTrEOaXV1NZYuXer0w8BQbg/o/zzq6Xo4/4fzuLtRvnccMjMzodVqew3oU1NTXa5Bg9lebW2tS+321tZWSKVSt985AQEBWLBggdt1Xe315mr+3rBarcjLy4MgCCgsLMScOXPg4eGBrKwsAF2fwZYtWwDA5e8oT09PFBUViQMYOurlX7lyRTyHCgoKMC3BucxCT9/0dYOIiIjou4zh601o8eLF8Pb2hkwmQ0hICDQaDerq6hATE4OSkhIEBweLJQFGjBgBk8mE/Px8cfmcnBwsW7ZMvGFcsGABdu3ahcTERHGemTNnijfezc3NqKioELvoOequdh9QSavVwmazQSqVil2Qq6ur4e3tjfb2dkilUnFAB39/f5eWjAkJCWJoW1NTA41G49JSqb293enmvKOjA0eOHEF7ezvuvPNO7Nu3DwDEAGnPnj1YtWqVuK2xY8eKtSzr6+tx+fJlLFiwAIGBgQgNDXWpMesgl8uxdOlSBAcHo66uDsHBwfD390dnZycuXbqE5ORkVFRUQKFQuLRCdDh//jxGjBiBtrY2lJWViaMRd3Z24vz58+Jrd9T6c7Ratdls4mBLOp0O9fX1TvXYunO0+CosLERzczNOnz6NwsJCdHZ2QiqVIjs7W2wd++GHH4ohJ9B1A3nw4EHEx8fDw8PDpYuhRqNBW1ub07YDAgLc3qD2dWMmlUrR2tqK0tJSp2NArVYjPz8f/v7+kEqluHz5sjh/X11Jo6OjUVNTgwMHDsBsNiM4OBiVlZXIzMzsMwDp3srPwfFaej7neNze3g6dTueynNlsRmNjo8tI5kqlUryRnjRpEoqLixETEwO1Wo21a9eivLwcFosFK1asQE5ODry9vREbG+t232Qymdtgqr+6mEVFRSgoKMDSpUtdavUdOHAAiYmJ4nnuGPRn586dmD9/PqRSKU6cOIGwsDAsX75cbEENdB1rjh9P2tvbnT7zoKCgXo/RniwWi/gjS21tLeLi4jBlyhTs27cPcXFx4np7hiGjR492aSHcvd5lZGQkIiMjYTKZ3J6Tubm5aGhoQFNTExITE532PzIyEiNHjhRran6bWlpasHv3bqhUKixevLjPeZv1zWKXbcdI6d27cDsGQnRMk8vlvZ6r06dPd7q+O2pBD8X2BnseufNNnv/AN3vc3SjfO0BX8FpTU4Nbb70VxcXFYhmF7tyV3xjM9vz9/cUWow7Hjh1DQkICamo0UCo9xe95wPkaOdjrDXD1f2/I5XL86Ec/AtDVytbLywvjx48Xv1vfeecdsRRMdyEhIQgJCXE5R2bMmIGvvvoKUVFR0Gq1aGtrQ9Ro14EzgW/vukFERET0Xcbw9Sbk7e2NmpoaNDQ0oK2tDZcvXxb/GG5oaHAZdCMsLEwMX1taWtDR0YHy8nKxW53dbofVakVLS4t4M+YYVAcAgoODXeqw9XThwgW0traKjx0t+bKyssSw1mHWrFlOwduoUaNw7tw5p/U5wsLupkyZInaza25uRmpqKjw9PbFs2TKX+n2TJ0+GRCIRb4gc229vbwcAmNvMMBgM4uO+QiwvLy+xruWlS5fg7+8PvV4PHx8frFy5EjKZDOfOnYOfnx9iY2PF5TQaDS5evAitVovY2FjExsbiwoULWLNmjdgKbvPmzbj99tudun86BuUYPXq0U+A1bdo0bN26FfHx8QMabXjq1KmYNGkSdu7cieXLl8PT0xO1tbUoKipCSkqKeHN55coVpKWlITw8vM/WhT05uj86upz3pft6ZTKZ2zqu7mqQAui3a2xSUhJ27NghhoGjR49GUVERcnJy3LZYGzlypNtQzWQyISIiotfadkaj0eWYtFgs6OzsRHp6ukuN2xEjRiAkJARarVasvXrixAkEBwcjPDwcnZ2d8PLywu7du2E0GiGVSlFUVIRJkyY5HUcAxK7tPXVvMeag0+lw8eJFaDRdtTOTk5Px0Ucfice6g81mw+7du6FQKPDQQw8B6AprQkJC4OPjA61Wi5kzZyItLQ1msxlTpkwRP8fu71HPkEShUMBsNuPLL78E0BWqtba2io/HjBkjvj6JRCKeC93D4cTEROzfvx+hoaHw8vISu/U7jB8/HkajEUajEYmJiVAoFGIrMYcpU6Y4rfPKlSvIy8uDVqvFLbfcgokTJ6KxsRGdnZ1iSQaH6OjoAQ8sY7fbr+q86U9VVRWKiopQWVkJDw8PTJ06tc8fIByio6IRHRUNoKv1YHFxMZYtWyY+39rail27djlNuxaD3d5gz6PefFPnP/DNHnc3yvfO5cuXUV5ejtWrV0On00Gn0+HMmTNu39+eBrM9Ly8vp+72ZrMZnZ2dmDRpElpaWlye726w15vB/L1ht9tx7NgxLFq0CHV1dRg7diwOHz4s/jhtt9udBoxbunRpnz/2hIWFwc/PD0VFReIAYd2vOzfKdYOIiIjoZsXw9SZjt9uxZ88etLe3Y/To0fD29oZSqRRb+CgUCrHbsEP3x47/e3p6Ov3hnpCQALlcLoY5Tq1/BpArdO9yW15ejurqajQ3NyM2NhYFBQVYtmyZS5hhs9nQ0dHhEt5kZGRg3LhxLl0BHftUXV2NAwcOIDY2FklJSb22boqLi4PBYMCXX34p1rv98MMPnYKszZs3AwDuvPNOt62hgK6woKysDJWVlQgJCUFZWRkMBgNCQ0PFfQ8I8Ed1tcapa7jFYkF0dDTMZjMmTpwIT09PcYRlR5hts9lQXFwMhUKB0NBQt/U+Hby8vDB58mRkZWUNqJ6bp6cnmpubERAQINYgNBgMUCgULje1q1atQnV1tdjy5Wrs2rVL7HLemyVLlog1Cb29vTFmzBgUFhaiqqr3Op4AkJiY1G/Q3N7eDpPJBKPRiJkzZ0KlUmHu3Ln49NNPh3SQkODgYKxevdppWmZmJkaMGIHq6mrccccdblun+vr6IjY2FgaDAePHj4darUZ2dja8vDwRERGBZcuWITc3F97e3oiJiXEb+lVWVuKf//yn2/3qGVaZTCao1WoEBgZi8uTJ8Pf3x7333guLxeIUtuzdu9ephXtdXR3OnDkDlUoFrVaLqVOnorq6GiNGjEBLSwtOnToFiUTiFKzEx8e77R4cFBQkXl90Oh3sdrv4+XffXw8PD7GWY/cfb4KDgxEXF4fjx4/jjjvugN1udzo/bTYbPv74Y6hUKvE64uXlJbbS8vT0RGdnJyZOnCieoxaLBePGjUN7ezvGjRsHpVKJkpISMTxrbm4Wu4ADXT8K9ey6brFYUFBQ4BR2tba29nuMXr58WfyBp6FBB0/P3rtwm0wmjBw5EqGhoaiqqhLrdF6NhoaGXgequ1YdHR0uP1ZdzfYGex715ps6/4Fv9ri7Ub53oqOjERkZKf6gOmrUKLetLXfu3Dmg9/hqv+cc58hAfgAZzPVmsH9vSKVSdHZ2QqPRoLGxEWq12ulzeuedd3D//ff3u8/dJSUlYffu3ZBIJC5laK736wYRERHRzY7h602mvr4eOp0ODzzwgHgD3NzcLHbpGzFiBPLy8jB79myxdYZjVGkAYrfusWPHur3hamlpGdB+9NbasaGhAdnZ2Vi9ejX2798PX19fxMfH4+DBg1i2bJlTgFJfX49Dhw45rbOtrQ0ymQxlZWWQSCRON/kjRozAsmXL4O/vjwULFriMCO9OcnIytFqt+PjHP/4xgK7SBtnZ2bjzzjvF53oLEENCQjBz5kw0NDRg2bJl6OzsxK5du8SalwAQGjoSra1GpxszR9fHoqIiAP8JaQwGA7KzsxEVFYWJEyfCYDCIZRu6fybdB9BymDp1qtt6he5YrVZkZGQ47ac7jps0R5fUwVi5cqVLi2sHxyj3PXWNLO46kFZ3A7mhTk9Px9y5c9Ha2or09HTcfvvt8PLywl133dVrd9yhYDabUVhYiLVr10KlUiEjI8NtWODt7Y2oqCicP38e4eHhUKvVX7eEq8e4ceORlpYGg8EAmUyG6upqqFQqceRyh9GjR4tdg7tramrCkSNHnKZFR0cjOjraqduq1WrFjh07sGbNGrEGoEQicRr13dfXF0uXLkVYWJgYfl24cAEymQxKpRJ1dXXw9/d3Oid7+3yCgoLE4FKhUECv1zsNgjQQCQkJOH/+vNgyv2fo4eHhgfvuuw86nQ6ZmZniDwj5+flYunQpCgoKnOp3OupPFxQUiNPmz58v/v/kyZPw9/cXa906OEZCNxqNOHToEMaPH+8Uvup0un6DDovFIl4zfX39XH5Y6s6x7oqKij7X2RedTuc0qN5Q2rZtG9avX+/0I8G1bG+g51Fvvunz/5s67m6U752eJYTq6urcXvP1er3b5a/le66trQ1nzpxxej976vnDTW96u95cy98bcXFxyMjIQEhICGw2G/bu3eu0X90fh4eHux0UrqGhQSwB4vjRXK1Wu1x7r/frBhEREdHNjuHrTcbT0xM2mw2NjY0ICwtDTU0NKioqEBkZCQCYNGkSioqKsHPnTrE2WPcbD5lMhrFjxyI9PR2LFi2Cl5cX8vPzkZ2djQ0bNgxoH/z9/cVWkt1b0pWUlODMmTO47bbbnLrljRkzBg0NDdi1axcWLlwo3uiFhYXhBz/4AYCu1kvHjx9HdHQ0ysrKEBMTg9LSUowaNcploC0fH58+B5DqTiKRDLhuo4+Pj0t3b4e6ujp0dnYiOzsbTU1NmDBhghhiWSwWMaSquFIhduHrqby8XLyJCg4OdhqUxDEIh0Nrayvee+89AM7dI93VY+2ptbUVFosFlZWVGDFihNjicDjJZLJeWwT1lp/6+Pg41eYbiNLSUgQEBIhlMTIzM+Hn54fx48eLdQNtNhtkMtmwBq8GgwF79+5FfHw8fHx8MHPmTOzbtw/p6elITk7uc7Adq9WKcePGQafTiV1JL1++DE/PrlqF7paVSCRuA4SBhApA13Vj2rRpOHbsGFasWOF2HpVKhTFjxkAQBNTV1cFgMGDKlCkAuoICRxgSHR3dZ0u5q2Gz2cQfPUwmk1O5E6lUioSEBHG+nl19vymFhYViPcvo6GhxP+655x7o9XpoNBokJyeLP3T03E8fHx/MmDHDJaQaLo4f6EaNGjXodWi1WhQVFSE8ItxpuiOY6n5NupbtXe15dL2c/9+UG+l7x8HX1xdjx7le17uHkkOxPUEQkJaWhsjIyF5//LDZbNi6dSs2btwoPr7a6821/L0REREBk8mECRMmwMvLS6zFDwDbt293euyuvE51dTWysrKwceNG2Gw27N+/H5GRkTAajTh27BgWLlw4ZCVPhuK6QURERPRdxvD1JuPv74/p06dj7969kEgkCA8PR0xMDNra2gB0DYawYsUKXLlyBY2NjZg8eTKUSiUOHjworsMxavmWLVtgs9mgVquxdOnSPgOj7iZMmIDq6mp88MEHWLduHeRyOU6cOAGLxYI777zTbRfcWbNmISgoCF988QWmTJki1itraWlBQUEBKioqMHv2bDF8VSgUWLJkCU6ePIldu3YhNjYWY8eOHXAdxr7YbDaYTCaYzWacPXsWOp0OarUac+bMEW+yeg4OMn78eAiCgK+++gpyuRwKhQItLS3w9vZGWloa5s6dC39/f+zbtw9qP7VT12rHukpLS8UahBaLxal1VFtbm9OoxL6+vti4cSOsVis+/fRTt6+jo6PDZVpeXh5KS0vh4eEBb29vp0HUgK6BrQbTFbe/uq5ardbt/gCAyeQ6+ArQ1Q3VXUsfB71eD6lUKnZhddxsO8LDS5cuobm5WaxF5xh5vKfOzs5+68YCXT8A9Hcja7FYkJ+fj9zcXMyYMUPswiqTyXDHHXfg+PHj2LFjB+bOnSvWoHSw2WzIzc0Va6IKgoDjx49jzpw5iIyMhFKpdOrm7mgRZu20wm63uy0J0dHRAUEQxOe6v86ex3B8fDwsFgusVqtTiRGHxsZGnD9/HpWVlVCr1eIPEW1tbTh69CgUCgWmT5+O/fv3Y/z48ZgxY8aArxm96ejoEOt/Njc3iz8i9dTQ0NBrHcer5TiWBUFweg/sdjvsdrvT+yaTyTBt2jRMm+Y6qrher8exY8eQnJwsdkN3tPDvrnvr+p4cYWZvz/XG2ul+GaPRiKNHjyI5OXnA10qDwQCj0QidTofKyko0NzejuLgYo0ePRnBQMDw8PFBVVSUO6Ng9eB/M9oDBnUfXw/l/La72uANunO+d7lQqldsg+FzOOZdpg91eY2Mjjh8/DolE4tQjQCKRONWWbW5udqlr+01eb06fPg1PT09cunQJnZ2dGDdunNj7aPz48S5lTbpraWlBY2Mj7rzzTjQ1NeH48eMICgpCSkqKGMQePHgQ8+fPdyr98k1dN4iIiIjIGcPXm9Ds2bMxY8YMWK1Wl5tKg8GAuro6xMTEiDeSp06dcmrh4RhF2W63u9yY+vn54ac//anTOrsPyAB0BcB33XWX2MJIq9VixIgRmDFjRp8t8caOHYvAwECUl5dDIpGgqakJX375JaZOnYo1a9a4tBiTSqWYN28eWltbcfHiRVy5cgW33XbbVb9fDiUlJcjIyADQNaBYZGQkVCoVRo0aJd60Hjt2DFZrJ65cqRRbCJWVlSEzMxORkZFYu3YtfH19UVhYiJycHHR0dIjdvAHg1ltvxZ49e3DPPffAbDYjOzsb9fX18PDwgNFoREREBOrq6tDU1ITTp0+L+6bX68XWSUqlUgwR5HK5U4vkiooKsW5fRUUFJk2aJD5nMBiQk5ODtWvXwsvLC7m5udi6dSs8PDygVCqdgoXs7GzY7XasWbOmzwDt7NmzYrfrvlrEaDQap5v67noOSNNdz0Gguuvo6HCq/dja2gqpVCp22Y6OjsaECRPcBiZNTU3Iy8uDIAgoKChw22Uf6GpZdv78ebE2X18jetfV1eHLL79EVFQUVq5c6TQaPNDVWmvp0qUoKirC0aNH4ePjg1WrVkEikcBms0EikWD06NHw8fHBiRMncO+99yIvLw8HDhxAe3s7vL29IZfLYbPZcPvtt6OsrAxnz54V179ly5Ze923Lli2QSqX4wQ9+gMbGRuTk5KCqqgrz5s1zmm/GjBk4evQorFYrtFqtU+tAm82GyMhIzJkzR3zf09PTUVxcjNjYWCQmJkIqlSIsLAwZGRnYtm0b1qxZ41Kfs+JKBQ4eOIie3nnnHfH/9957rzjwmiNMu3LlilOIYLFYcPjwYXR0dMBoNIpdizMzM8Uu1Zs3bxZrOLv7PwAUFxdjw4YNaGxsxLlz56DVaqFWq1FUVIT09HSX/exe0/b73/++SwvKiooKnDp1CgqFArfddpvY0m3evHnIysrCF198gdWrV/dZt/TixYvQ6XQwGo3o7Ox0+sGqra0N6enpqKurc+nq7CjTUlNT49JK31FaIjY21um60J/z589DIukqbREcHIylS5c6lZaYOnUqsrOzcebMGaeR5ge7vcGeR9/2+f9NH3cNDQ03xPdOfy5dugS9Xo+Ghganc2Kw26upqUFqaiqmT5+O+Ph4p++v8PBwfPnll2IrW71ejxkzZojPD+Z6M1harRbl5eX43ve+B4VCgbKyMmRkZMBoNIqlED755BMxjJdIJNiwYYP4N9To0aORkpKCsrIynDlzBrNnz8akSZPEcjErVqzA6dOnsW3bNqxduxYymewbvW4QERERkTOJMJChyOmm0d7ejs8++wxqtRphYWFobGxEbW0tFi9ePKCRb4eSo0ZkXyGEIAguN8+VlZUIDAwccFc/h/LycoSEhDi15OnO0Uqwr1ZQ9fX14iAqjlYpZrMZUqnU7eswmUwu22tpaYGfnx+sVqv4Hvj4+MBoNMLHxwdmsxlNTU1OYaZOp4NCoei3O3dbWxuam5sBdLUa6tnKWK/Xu6zDarWivb3dpcWVVCp1Wr6pqQk2m00cnAvo+gxNJhM8PDwQFhbmtut3ZWUlgoODe+1WXVtbC5VK5RJiZWdnu5SU6K6lpQVmsxljxowB0DWwysWLF7F8+fJel3Ho6OhAZWXXYF5qtdrpNfWczxEa93es2u12l5Zifc1rMBhcBsMLLK0uAAAgAElEQVRyaG9vd9qWo/WqozbotXTrdxx3arXabSt0jUYDq9WKgICAfrtmOwIjd++LTqdzOVZ8fX0H9P4MVGNjIyQSCQICAq65VWJHRwfq6+vF83GwHGU9eoaGDrW1tb3WP3bQ6/UwGAyQSCQICQlxeX+rq6uhUCgwYsQIpx+0dDqd2CXa3fYd1x53bDYbGhoa+qw3e7UGs73Bnkff9vk/WIM97m6k753u+9Xa2urU9b6+vh6tra0IDAzs9Xp4Nduz2Wxoa2vr9b1sb28XewI5BiQdqKu53vT39wbgfnA6B5vN5tKjxN33q9FohFwu7/XYbGxsFP9WuVGuG0REREQ3I4av30EdHR0oLS2FXq+Hr68vRo0aNWQ1Gom+LQ0NDejo6HDpzk9ENz+e/0REREREdL1i+EpEREREREREREQ0DAY2FDYRERERERERERERXRWGr0RERERERERERETDgOErERERERERERER0TBg+EpEREREREREREQ0DBi+EhEREREREREREQ0Dhq9EREREREREREREw4DhKxEREREREREREdEwYPhKRERERERERERENAwYvhIRERERERERERENA4avRERERERERERERMOA4SsRERERERERERHRMGD4SkRERERERERERDQMGL4SERERERERERERDQOGr0RERERERERERETDgOErERERERERERER0TCQf9s7QN8Mq9WKhoYGGAwGGI1GdHR2QLALAACJRDKk25JIJPDw8IBKpYJarUZwcDDkch5qRERERERERET03SIRBEH4tneChldlVRU01dUYyEc91EGsY50RERGIjIwc8nUTERERERERERFdrxi+3sTMZjNKSkpgNBoBAIGBgQgMCoSfrx+USiUAwGKxoKW1BU2NTWhqahKXHY4Q1sfHB+PGjYO3t/eQr5uIiIiIiIiIiOh6w/D1JmU2m5Gfnw+LxQJvb2+MGTMGarW6z2UMBgPKy8thNpsBDE8Aq1QqERsbywCWiIiIiIiIiIhuejf8gFt1dXXIyspymV5dXY3c3NwBraOlpQUNDQ0DmrexsRHZ2dni44yMDLS3tw9oP3Nycga0jWslCAJKSkpgsVgQEBCAqVOn9hu8AoBarcbUqVMREBAgrmeoWSwWlJaWDvl6iYiIiIiIiIiIrjc3/ChIpaWlSE1NxaxZs5ymSyQS/OY3v8GePXsglfadMZ85cwZ///vf8d5774nBY2/Ky8uxdetWzJgxAwDw0ksvYdOmTfD09MSVK1eQnp6OtLQ03HvvvViyZIm4XGFhIVJTUzF9+nQAwPbt21FSUuKy/kmTJmHVqlUDeu29qaqqgtFohLe3N2JjY6+qBatEIkFsbCzOnz8Ps9kMQRCGvAWs0WhEVVUVa8ASEREREREREdFN7YYPX7vLyMjAH//4RwCAzWaDTqfDihUrxPD11VdfRWxsrMtyS5YsgdlsxqOPPopNmzbBx8fnqrb7zjvvIDc3F0qlErfeeiv+3//7f5g4cWKfy4wbNw5qtZ/L9NDQkVe17Z46OztRXV0Nu92O6OjoQQWnEokE0dHRyMvLg1QqHZYAVqPRICwsDHL5TXUIEhERERERERERiW7Ymq9VVVV47733oNFoUFNTg1mzZmHDhg2IiYmBRqPBk08+ibfffhu+vr4wGAwICgpyu5433ngDd911F0aPHo3PP/8chw8fxttvv+0SNjY2NuLNN9+ETqdDaWkpkpKS8PDDD+OJJ57As88+i5kzZ4pBos1mw8qVK7F9+3YolUr87//+LzQaDTQaDWbPno37778f48aNG/L3RBAE1NbVorysHP7+/oiLi7um9V26dAl6vR4SiWRY6r+OGTMGI0deW9hMRERERERERER0vbphw1eH119/HdXV1XjllVcAAM3NzXj00Ufxu9/9DhMnTsT7778PhUKB++67z2m5HTt2YNWqVfjhD3+Ip59+GrfccguAri7xPj4++Mtf/oIpU6Zg8eLFTsudPXsWW7duFbf31FNPobS0FFFRUeI8NTU1UKlUeP/99532s6amBi+99BKOHj2Kzz77rNfXdP/99yM5OVl8XFFRAYPBgKlTp/b5XgiCgIKCAjQ0NmDChBiMDA3tc/7+1Gm1KC4ugkwqAzD0A3AFBgb220KYiIiIiIiIiIjoRnXD9/k+ePAgNBoNzp07h4SEBDz++OMQBAGfffYZ9Ho9jEYj3nrrLbS1tcHLywsAoNVq8eqrr+Kuu+5yWZ+j5MC0adPwxRdfuISv3QmCgBdeeAEXLlyA1WoVp3t7eyM+Pt5pvn379qG+vh733nsvYmJixDDYYrHgV7/6Fd566y1x/rFjxzpt5/XXX0dJSQn27t3b7/thNBphtwtQ+7mWNLhaaj8/2O0CpJKhLzsAACaTacjXSUREREREREREdL24ocPXwsJChIaGIiYmBi+//DL+8Y9/4Oc//znsdjuMRiNefPFFbN68GRqNBk888QS2b98OmUyG8+fPIz4+vs9Acf78+XjxxRfR1NSEwMBAp+fq6urw/PPPY/bs2ZBKpaiurnZZXq/XY8GCBQC6WsuOGjUKEyZMwJ/+9Ce8+eabGD9+PJqbmxEVFQWZTIY5c+YgLS0NixYtclnXL37xC7S0tPT5XgiCAEEQ0NHZAbtgh6en5wDewb55enrCLtghQAoJhj587ejoGPJ1EhERERERERERXS+k3/YOXIuPPvoId999N3x9fbFu3Tp8/PHHSEpKQlRUFF5//XU89thjGDVqFF588UX88pe/hEzW1X0+Kyur33qoMpkMa9asQWpqKoCu1rJvv/02/vSnP6GqqgpxcXFYvHgx9u7di9bWVgQEBIj/NBoNjh49CqArFH333Xdx9913Q61W49FHH8X27dvx+eefIy0tzWmbb775ptsgNzo6GlOmTBnQeyIIXdscKl2h7n/+T0RERERERERERANzw7Z8LSoqgkKhQEBAAABg5cqVqKurw4cffojdu3fjt7/9LebMmYOPP/4Y/v7+SElJEZc9ffo0nnzyyV7XXVxcDJPJhCVLluDZZ5/Fhg0b0NraCr1ejxUrViA/Px/r1q0D0BVILl68GNOmTROXV6vVOHnyJAAgPT0dMTEx8PX1BQAsXLgQiYmJWLVqlVg31mHevHk4deoU1q5dO6j3RACgUMjR0WFBW3sbvL28B7Ueh7b2tq40F8MTunp4eAzLeomIiIiIiIiIiK4HN2z4Wl9fj+9///tobm4G0NVS9W9/+xtUKhU++OAD+Pj4IDU1FW+//Tb27dsnLqfT6aDRaDBr1qxe111UVITi4mL84he/gNVqRVFREWJiYvDcc8/h7NmzyM/PF+eVSCR45plnxHqyANDS0oJ58+YBAEJDQ7Fu3TqUlpaKz1+8eBEmkwnx8fHo7OwUpyclJeGzzz4bdPgKAN7eKphMJugNhmsOX/UGwzUt3x+VSjWs6yciIiIiIiIiIvo23bDha3JyMmQymdjCFAB+97vfQalUwmaz4Z133sH27dsRHh6OkydPYvny5QCAS5cuYf78+fD27j2YbGpqQnBwMADgxz/+cb+DTT377LNOZQyOHz+OvLw8AEBMTAwAOIWve/bswbp16yCTyZzC14SEBDz99NPo7OyEQqEQpx84cAC1tbV48MEH+9wPCbpa3eoadNDWaRE+MqzP+fujrdMCEsnXax56arV6WNZLRERERERERER0Pbhhw1dH/dbulEolsrKy8NZbb8HX1xfbtm2D1WrFAw88AJVKhZSUFMyfPx8TJ04Ul/H09ERmZiaio6MBAO3t7Thx4oQYdN5xxx1O2+geljoYDAaxBS4AGI3GXvfbZrMhOzsbH3zwAQDAarWKz3l5eSEuLg55eXlISEgQp585cwZlZWX9hq8AMCI4GGXlZdA16NwOFjZQTU1N0DXooFAo4Mie+wuhr4ZEIhEDbiIiIiIiIiIiopvRDRu+9mS32/GjH/0IZrMZjzzyMBYtWgyptGs8sbfeegsPP/wwtmzZgtDQUISF/adF6Pr16/Hqq6/iX//6F4CuUHfx4sWYMWOG0/rNZjP+9Kc/ITc3F8uWLROnC4KAffv2ISMjQ5xWU1ODcePGud1PmUyGnTt3wtPTE3/7299w6tQpTJo0SXz+97//PUJCQpyW+e///m/Y7fY+X78jGPXw8MCoiFGoqChHfmEB5iQlX3VoKggC8gsLIJVIIJVIIRmGlq8RERGQy2+aw4+IiIiIiIiIiMiFRLjBh7DXarWoqalBQkIC6urqMHLkSLfzNTY2Iigo6Jq2lZ2dDQ8PD9xyyy1iy9vMzExMnDjRqYWpRqOBTqdzGoSrrq4OdXV1TtPKy8thMpkwYcIEKJXKa9o3oCs0tdvtsNntyM09h2aDHoEBQZg5ffqAA1hBEHA2JwdNzY1QyBVQyOWQSbte61C1fPXx8UF8fPyQrIuIiIiIiIiIiOh6dcOHr/QfgiCI/1paW5F3KQ9GkwkqlQq3xE5CcD/hc0NjIy4X5MNkMkEhl0MhV0Auk0EikQxZ8KpUKhEbG9tnzV0iIiIiIiIiIqKbAcPXm4wgCLB/3QK2tbUVhUWF0BsMsFqtCBkxAmFh4QgODISXlxcAoK2tDQ1NTaitrUG9Tge5XA6FTAb518Gro3TDUISvPj4+GDduHINXIiIiIiIiIiL6TmD4ehNylB+wC3ZYrVZUXLmCqqoqWG1W2Gxd0x0fu+Truq4ymRQymQwyqQxymfzr/w9N8CqRSBAREYHIyMhrfm1EREREREREREQ3CoavNyHHR9oVwAqw2axot1hQX18PvV4Po9GIjs5OCILwdfj69b+vw1eZVHpNLV4lEgk8PDygUqmgVqsRHBzMwbWIiIiIiIiIiOg7h+HrTUoMYAUBEATY7HbY7TbY7XYIAiDg65avkEAiAaRSKaRfB6/4OowFhm6QLSIiIiIiIiIiou8ahq83ue6DcImPIcDxqUskjgD2P2HrUA6wRURERERERERE9F3FvuA3OUmPFqxiCOt4vsd8Pf9PREREREREREREg8Pw9TvAXZjacwoDVyIiIiIiIiIioqHF8PU7hiErERERERERERHRN0P6be8AERERERERERER0c2I4SsRERERERERERHRMGD4SkRERERERERERDQMGL4SERERERERERERDQOGr0RERERERERERETDgOErERERERERERER0TBg+EpEREREREREREQ0DBi+EhEREREREREREQ0Dhq9EREREREREREREw4DhKxEREREREREREdEwYPhKRERERERERERENAwYvhIRERERERERERENA4avRERERERERERERMOA4SsRERERERERERHRMGD4SkRERERERERERDQMGL4SERERERERERERDQOGr0RERERERERERETDgOErERERERERERER0TBg+EpEREREREREREQ0DBi+EhEREREREREREQ0Dhq9EREREREREREREw4DhKxEREREREREREdEwYPhKRERERERERERENAwYvhIRERERERERERENA4avRERERERERERERMOA4SsRERERERERERHRMGD4SkRERERERERERDQMGL4SERERERERERERDQOGr0RERERERERERETDgOErERERERERERER0TBg+EpEREREREREREQ0DBi+EhEREREREREREQ0Dhq9EREREREREREREw4DhKxEREREREREREdEwYPhKRERERERERERENAwYvhIRERERERERERENA4avRERERERERERERMNA/m3vAH0zrFYrGhoaYDAYYDQa0dHZAcEuAAAkEsmQbksikcDDwwMqlQpqtRrBwcGQy3moERERERERERHRd4tEEATh294JGl6VVVXQVFdjIB/1UAexjnVGREQgMjJyyNdNRERERERERER0vWL4ehMzm80oKSmB0WgEAAQGBiIwKBB+vn5QKpUAAIvFgpbWFjQ1NqGpqUlcdjhCWB8fH4wbNw7e3t5Dvm4iIiIiIiIiIqLrDcPXm5TZbEZ+fj4sFgu8vb0xZswYqNXqPpcxGAwoLy+H2WwGMDwBrFKpRGxsLANYIiIiIiIiIiK66Q3rgFuCIOCjjz6CzWYDAJSUlLidr62tzWVaYWGhuBwAVFVV4eLFi26Xb25uhl6vBwBUV1fj5MmT/e5bbW0tsrOzAQC7du1ymn7kyJF+l79WBQUFKCgoGJZ1C4KAkpISWCwWBAQEYOrUqf0GrwCgVqsxdepUBAQEiOsZahaLBaWlpUO+XiIiIiIiIiIiouvNkI+CtG3bNuh0Ojz++OPQarX44IMPcP/998NsNuP555/HmjVrsHbtWqdlXn75Zfj5+eGJJ56AVNqVB7///vuIjY3Fgw8+CAB49913ER8fj/j4eJdtPvnkk9iwYQOWLFmC4uJifPnll5g7d26v+/jEE09Ap9NBr9cjOjoaOTk5SE1NxYIFC9Dc3IzU1FScPn0aAODn54fHH38cAPDKK68gKytrQO/DrFmz8NRTTwEAtFotGhsbnZ7fsWMHAGDNmjVO04OCghAaGjqgbfSmqqoKRqMR3t7eiI2NvaoWrBKJBLGxsTh//jzMZjMEQRjyFrBGoxFVVVWsAUtERERERERERDe1IQ9fDx48iJ/+9KcAgPz8fCQkJAAAvL298e677+LXv/41Wltb8dBDD4nL/PrXv8ZLL72E3/zmN/jDH/4AhUKB5557Dj//+c+xbt06mM1mZGRk4LnnnnPZXlpaGrKysjB//nx88sknKCwsREVFBT755BOn+RYvXiyGmr/5zW/w2muv4e6770ZycjK2bt2K9evXo9PaiR/c/wM8/vjjiI2NxTPPPIPXXntNXEd1dTUee+wx8TWlpqYiIiLCJRA+d+6cGK4CQHZ2Ng4fPuw0T1lZGQA41VkFgCVLlmD58uUDeKfd6+zsRHV1Nex2O6KjowcVnEokEkRHRyMvLw9SqXRYAliNRoOwsDDI5UN+CBIREREREREREV0XhjT50ul0OHv2LIqLi1FeXo60tDQolUp8+umn4jyzZ89GVVUVtm/fjrvvvrtrJ+Ry/PrXv8alS5egUChw/PhxnDx5ErGxsfjZz36Gjo4OpKSk4LXXXsOtt96K+fPnAwA+//xz/Otf/8Ibb7wBT09PAF11S6uqqhAdHe20b47njUYjXnjhBahUKuTl5SEvLw+JiYl47LHHMG/ePDz99NPYunUrSktLcf/992PSpElO61GpVPD19UVqair+9a9/4Xvf+x4KCwtRU1MDg8GAl156CSqVymmZ5cuXIzw8HA0NDeK0gwcPAgBuu+02cVpwcDCmTZs26PdfEAToGnQQBAEBAQHw9/cf9Lr8/f0REBAAvV4/LLVfBUFAQ0MDRo4cOeTrJiIiIiIiIiIiuh4MafgqlUrxt7/9DQDQ3t6OzMxMvPrqK1AqPZ3mi4yMhEwmAwDYbDZxgKexY8cCAFJSUpCSkgIAePvtt+Hn54eNGze6bK+jowPvv/++Uzd9i8WC8vJyzJkzx+0+yuVyPPzww/j73/+OF154AW+99ZYYsD7yyCM4ceIEzGYzvvrqK7S2tqKoqAgxMTFO6/i///s/mM1mLFiwAO3t7UhKSsKhQ4fw6quv9vremEwmGAwG8XF7ezsAOE3z8vJyu2xFRQUMBgOmTp3a6/odDHoD7IIdQcHB/c7bn6DgYDQ1N0EmkQ1L61eDwcDwlYiIiIiIiIiIblpDGr4GBQVh3rx5AIB9+/Zh+vTpWLJkaZ/LFBQU4Cc/+QmsVitSUlLw5z//GUeO/KeL/oULFzBq1CgcPnxInLZkyVJcunQJOTk5yMnJcVqfVqtFTU2NWG+1u4ceeghxcXFISEjAwoULsWXLFgQGBuK3v/0tbDYbdu3aherqarz55psYOXIkDh8+jD/84Q/YtGmTUzD6wAMPICwsDAUFBXj66afx7rvv4rHHHnPb0lQQBGi1WowbNw7jxo0Tp1dUVACAS23auro6hIaGOgWdr7/+OkpKSrB3794+30ugq2Wv3S5A7efX77z9Ufv5wW4XIJUMffAKdAXSREREREREREREN6thK7i5ZcsWXLp0CcnJyS7Pvfjii2LpgLi4OKSnpyM3NxdbtmyBIAg4fPiIOO+pU6cwf/58p2mLFy9BUFAQFi5ceFX7FBQUBJvNJtaDDQoKAgDcfvvtOH36NLKyspCYmIi0tDRxmdtvvx0eHh7iY4vFgk8//RSHDx9GbGwsnn76aYwdOxa7du0Sa8gmJyeJ81utVvz4xz922g+dTgcPDw80Nzfj+PHjLvu5fft2KBQK8fEvfvELtLS09PnaBEGAIAjo6OyAXbCLZRauhaenJ+yCHQKkkGDow9eOjo4hXycREREREREREdH1YljC14KCAhQUFCAwMBDvvfceQkJCAHQFl+vXr3fpxt+dVCrFn//8ZwBARkYGqqur8dxzz8Hf398pUBw5ciRWrFgBQRBgt9v73B+JRAKpVAoAsNvtGD16tMs87qa5o1QqMXlyHB588EFUVFTgzTffxCOPPIKf/exn+OEPf4iMjAynmq8KhQK7d+8WH586dQqvv/46/vGPf+CFF17AunXrMGvWLABAZWWl2/3oWb+2L4LQFcQOla5QF4AEw1J6gIiIiIiIiIiI6GY1LOHrZ599hkceeQQjRozAa6+9hr/85S+QyWT497//jdmzZw+ozmd7ezteeeUV/PKXv8Thw4dx5MgRvPHGG/Dr0Z1+06ZN+Otf/9rnujZu3IjnnnsOQFe4m5KSgvz8fHz44Yd9LnfnnXe6rR3rKKUwbdo0PPPMM9i0aRN27NiBV155BQsWLEB2drbLMna7Hbt378bbb7+N999/H/7+/rjvvvvw8ssv46OPPsLmzZuxfft2fPLJJy6vcaAEAAqFHB0dFrS1t8Hby3tQ63Foa2/rSnMxdGFud91bFBMREREREREREd1shjx8PX36NNLS0rB37154enoiKysLzzzzDBITE7Fnzx589NFH/a6joqICTz31FJKTk3Hrrbdi3rx5MJlM4kBZjpa0Dv/1X/+FBx54wO26du/ejeLiYpfpCoVCLDvQm7667r/88suw2WyYP38+XnjhhV5bm9rtdqSlHcHf//429Ho9UlJSEB4eDqArvA0LC8PGjRsRERGBrVu3wsfHp8996o+3twomkwl6g+Gaw1d9t8HAhkP3FsJEREREREREREQ3myENX2tra/Hkk0/iV7/6lRisPffcc7j77ruRmpqKP/7xj24HpXIsazAYYLVa8fOf/xyPPPIIVq9eLT7/k5/8BEqlEs8//zz+8Y9/OC0rk8l6bUUpk8ncTlcqlViyZEmfr6evcPCxxx7D6dOnceDAAfz+979HfHw8li9fjkWLFjnNV1xcjHfe2YSnnnoKJpMJGRkZTs//9re/xfe//308/vjjvQavBw4cQG1tLR588ME+91cCQK1WQ9egg7ZOi/CRYX3O3x9tnRaQSL5e89BTq9XDsl4iIiIiIiIiIqLrwZCFr+3t7fjVr36FZcuWYc2aNWhpacG2bdvw/vvvY968eUhMTMRf//pX7Ny5Ew899BDmzZsn1mE9efIk3njjDcTExOAPf/gDNm3a5LY0wYMPPoi1a9e6TC8vL3cJNR3ctXoFgD/+8Y8ICwvrtQRCe3s79uzZg8OHDztNN5vNMBqNAIBZs2Zh1qxZsFqtuHDhAlpaWmA0GmE2m8X5J06ciG3btkEikeDQoUMAgKKiIhw4cAB5eXn45z//iU2bNuHRRx/Fhg0bcM8997gEyWfOnEFZWVm/4SsAjAgORll5GXQNOjQ1NSEwMLDfZdxpamqCrkEHhUIBR5nXoaz3KpFIEBwcPGTrIyIiIiIiIiIiut4MWfhaXFyMqKgoPPvss8jMzMQvf/lLTJ06FW+88YY4oNSyZcuwY8cOvPjii/jLX/6CrVu3wmaz4fnnn8emTZswduxYHDx4EA8//DDsdjuCg4MhlUohl8tht9thtVrR0dGB//mf/0FcXJy47aKiIjHI7am8vByTJk1y+5zRaIShl671FovF7fQ///nPfbaI/fDDD2EymTBhwgRxmiO0TE9Px759+1BfX4+lS5di48aNALoG1Nq8eTNeffVVfPzxx9i+fTu8vf9TMuC///u/BzSoGNBVR3VUxChUVJQjv7AAc5KSrzo0FQQB+YUFkEokkEqkkAxDy9eIiAjI5cNScpiIiIiIiIiIiOi6IBF6K1Y6CDabDTKZ7P+3d+fBUZ13use/pxdJ3dqlFkISCAmBwGxGZjNesMEONo4BL0kcY9/cOJnJJHfiSSqu2TOZm5lM5WYmm5PMrfhWhsm9cSq2EzvBsWEwBBuIsMVmViMQAoEQ2qVGLan3c+4fQm0aLWCjxZKeT1VX0e855+33vKJUxcOvfwefz0d9fT2lpaUDnnf69GlmzZoFQG1tLVOnTu1zTltbG9FolGg0Gnds8uTJsXYCp06dwjCMuLDzSufOncPn8zFv3ry48c2bN1NaWjpg39dgMMiOHTvYsGFDbGzv3r1Mnz79mhWbLS0tnDlzhqVLl8aN15yrISsza9AHatXX15OX9+HaBViWhWmaRE2TQ4fepf2Sl6zMbBbfcst1B7CWZbH/4EHa2ltxOpw4HQ7stp69HqrK15SUFObPnz8kc4mIiIiIiIiIiHxUDWn4KqPLsqzYq8Pn49jxY3R2dZGcnMyc2TfhucYDxlpaW3mv8gRdXV04HQ6cDicOux3DMIYseE1MTGT27Nlxlb0iIiIiIiIiIiLjkcLXccayLMzLFbA+n4+Tp07ivfwgs0k5OeTl5ePJysLlcgHg9/tpaWujvv4iTc3NOBwOnHY7jsvBa287h6EIX1NSUigpKVHwKiIiIiIiIiIiE4LC13Got/2AafX0ya05d47a2loi0QjRaM9474/duNzX1W63YbfbsdvsOOyOy38emuDVMAwKCgr6tJYQEREREbAXx/IAACAASURBVBEREREZzxS+jkO9P9KeANYiGo0QCAZpamrC6/XS2dlJKBzGsqzL4evl1+Xw1W6z3VDFq2EYJCQkkJycTHp6Oh6PRw/XEhERERERERGRCUfh6zgVC2AtCyyLqGlimlFM08SywOJy5SsGhgE2mw3b5eCVy2EsDN1DtkRERERERERERCYaha/j3JUP4Yq9x6L3p24YvQHs+2HrUD5gS0REREREREREZKLSd8HHOeOqCtZYCNt7/Krzrv6ziIiIiIiIiIiIfDgKXyeA/sLUq0cUuIqIiIiIiIiIiAwtha8TjEJWERERERERERGRkWEb7QWIiIiIiIiIiIiIjEcKX0VERERERERERESGgcJXERERERERERERkWGg8FVERERERERERERkGCh8FRERERERERERERkGCl9FREREREREREREhoHC13EsGo1SV1fXZ7y6uppgMDjotYFAgEOHDmFZ1nV/Xnd3N36/H4BLly5Rc67mmtf4fL7YGisrK+PGq6urr/uz+1tLY2PjNc+rq6vrd4+u5cq9aW1t7fecSCTSZ6y5uRnTNGPvvV4vDQ0N/V7/UdrP69Xc3Exzc/Owf46IiIiIiIiIyFjgGO0FyPB65513WLR4EUXTigBoaWnhnXfe4bHHHhvwmmg0ytatWzFNE7fbHXfM4XAwffr0fq/bunUrCxYsoKSkhNbWVk6fPh373P5s3ryZ7u5uAoEA6enpNDU1UVVVRVFREX6/nzNnzsSCxISEBG699VYAzp49SygUis1TVFREYmJi3NyNjY1UVVWxevXqAT//8OHDnDp1CoCZM2eycOHCAc89evQoXV1d3Hrrrfh8Po4cOcLChQsJh8O89dZbzJo1i3nz5sVds3v3bhITE1m+fDmGYQA9oa3H46GsrAyAgwcPMmnSJCZPntznM0dqP8vLy7l48eKA814pPz+f22+/HYDOzk66u7vjjr/33nsAzJkzJ27c7XaTkpJyXZ8hIiIiIiIiIjJeKHwdpxobGzFNkzlz5lB5opLEhJ5wcv/+/RQXF9Pc3IzNZiM3NzfuOr/fz86dO+ns7KS0tJRLly4BYJomVVVV5OXl9Ru+njlzhsbGRjo6Ojh8+DCtra14vV4OHz4cd15JSUkshFuxYgVvv/02s2fPprCwkKNHjzJ//nxM0+S3v/0tixcvJicnh+3bt8eFqBUVFRQUFJCQkEBlZSU5OTl9wtfBmKZJeXk5HR0drF+/HoBt27bR0dHBHXfcgc3WtyC8urqaxYsXAz3Vnb375nQ6WbduHdu3bycUCnHLLbfErlmxYgXl5eVs376dVatWYbfbufPOO9myZQvz588nFApRV1fHihUrRnU/Ozo6WLJkCXl5eQCcOnWK9PT0Pn836uvrOXHiROx9XV0dZ8+ejTunvb0d6KmcvlJxcTGzZs3qc58iIiIiIiIiIuOZYX2Q75XLmPH8889z8803k5CQAEBNTQ3QUyUKEAqFOHz4ME8++WTsmqamJrZv3868efMIBAJcvHgxrkJzzpw5/QZox44d4/DhwyxfvhyHoyfPb2hooK6ujkWLFsWdO2nSJJKSkggGg2zfvp2EhATsdjsAU6ZM4cCBAxQWFuLxeDh+/Dgej4f09HRuvvnm2BwvvPACDz74ICkpKbzyyissWbKEqqqquM/p7Oyko6OD/Px8Zs+eTX5+fmwfKioqYhWcvUGraZr88Y9/pKGhgaXLlsZVmHZ1dfH8889z6623YrPZqKmpwW63M3Xq1Ng5pmnS0dFBVlYWc+fOjVtLY2Mjubm5nD17ltraWqCnVYFpmmRnZ2Oz2SgsLIz9bEZ6P7ds2cKCBQsoKCjg1KlT7N27l9LSUhwOBz6fj2AwyOrVq6mrq+PIkSOsWbMmdm19fX1c9Wtva4OSkpLYmNvtjgW7IiIiIiIiIiITiSpfxzGHwxEL73pDxt73V/Yd7ZWTk8MjjzxCUlJSrNfoli1bACgrK2PatGn9fk40GmX9+vVxXyuPRCJ4vV4KCwv7vcZut1NWVsa+ffu45557qKioICcnB4BFixZRU1NDOBymtraWUChIS0sLHo+n37mSk5NZtWpV3NjZs2epqqqKjbe1tbFz504CgQBFRUV0dnbyhz/8oc9ceXl57Cnfw6F3D3H33XeTkZGBYRjcd999sfuqr69n1apVsb3slZ6eHmsvYJom4XAYgOzsbKCn+rO4uBiAvXv3kpCQ0G+rg9Haz127dhEOh5k2bRqRSITCwkLKy8sHbd0QDAXjqlx7+9xeOWZ32Ae8XkRERERERERkPFP4Oo41NDTEAkKfzwcQ6+3Z38Og2traOH/+PDU1NTQ1NTFt2jTWrVuHzWbj+PHj/PKXvyQvL4/c3Fw8Hg95eXm0t7fT0NDQ56FRXV1ddHZ2snXr1j6fs3DhQnJzc8nPz6eoqIgjR47gcrl48803sSyLyspKLl26xJo1a0hNTeX06dPs2rWLdevWxe5nx44dOBwOvF4v0NPLNhKJ9Ns7FcAwDKZOnUpZWRmdnZ0DPhTK4/GwfPlyDh48GKsgdbvdsarUkydPkpOTw4wZMwbd++bmZjZv3oxpmhQWFvKxj32M06dPx443NjaSlpYWNzZjxgwaGxtHZT9750lLS4tVQB85coRbbrkFl8vV7z36fD6ys7LJzsqOjfX+PK4OiX0+H6mpqYPumYiIiIiIiIjIeKPwdRxbtmxZ7IFZBw4cAIh9bb27u5tXXnkldm57ezuvvvoq+fn5zJgxg3vuuScWDoZCIe655x4CgQD19fXU19dz8OBBVq9eTXJyciyYvF7JycmYpsmRI0cAYmucPn06dXV11NXVUVBQwJkzZ2LXTJ8+Pa4X66xZs3C5XLGetJ1dnezft59HH300Vn16pczMzFjP1vT0dNLT0wdd49KlS/sdP378OC0tLWzcuLHPsVWrVsX2Ijc3l6eeeor6+nqOHTuGZVlx/VHr6+ux2+1xYzNmzBi1/YxEIhw7doyamhqys7O57bbbyMzMpLKykhdffJGCggKmTJkSOz8ajfLaa6/FrcPv92Oz2QgGg5w/f77POj/1qU/FAm0RERERERERkYlA4es49uabb8YqG3sfhNTS0gL0rXzNzMxkw4YNtLa2Aj09Uzs7O7l48SLBYJCMjAwAEhMTKSoqYsmSJTidToBYH9jraR/cG4xaltVvAHqtULRXQUEBKSkp7N+/H4CiaUW8e/BdqqurB6xKPXnyJPX19dc1/+TJk5k9e3bcWHNzM21tbSQmJrJu3bpYW4BwOMzLL788YFsE6Lnvj33sYwCcO3cOn8/HnXfeicvliqs+TUlJGZX9dDgcTJo0ibKyMrxeLxUVFZSVlbFs2TIWL17M+fPnYz9v6Glz8Pjjj8fe19bWUlFRwcc//nF27drF3LlzY2Gt1+uN/f0REREREREREZlIFL6OU/fee29cwHrq1CkASktLY2NX9yz1+XxUVFTEjXV2dmKaJp2dnXHjK1eujAvU9u3bF6uuHcicOXNYsWIF0BMaFhcX09TUxJEjhwe9bubM0gH7zV5p6dKl7Ny5M9ZX9WopKSmx/qter5fq6uq4B1hZlhULM6/st9rr+PHjLFiwALfbzdtvv83999+PzWbj0KFD5Ofn93vN1SKRCO+88w7Lli2jurqas2fPsmbNGpKSkuLOG4397A2tXS4Xd9xxBwcPHqSyspL77ruP4uJi6urq+lzT29Zg//79rF+/HpfLxc0330x5eTkFBQW8++67VFZWxnoJi4iIiIiIiIhMJApfx5lQKERTU9N1nRuJRLhw4QKTJk0iISEBj8fDww8/TDQaxTRNnE4nhw4dwu/3s3z58mv27Vy0aBG33HJLv8dOnDhBW1tbn3G73Y7L5R50nVdWXF659mg0GlcdWlBQwM033zzgPAUFBRQUFGBZFps2beLOO++kpKQE6Ol3u2vXLtauXdvvV+Nra2upqalhw4YNOJ1O6uvr2bZtG/n5+VRVVfHII48Meg/QE/hu3bqVgoKCWGuBcDjMpk2bePDBB0lOTo47fyT3s9cf//hHLMti2rRp3HPPPQNW31qWRXV1NQcOHCAQCFBYWEhaWhrQUzWckpLCyy+/TGpqKo8++iiJiYmDrklEREREREREZDxS+DrOdHd3c/DgwT7jvQ/curqCFWDFihUkJCQAPQ922rp1KyUlJX2CzLfffhvLsli5cmXs/CvZbLYBe3pe2V/0Sna7nenTpw96T/191osvvohhGJimGTc+d+7cQeeCngrW5OTkWPAKkJWVRXp6OuXl5bFq0l4+n4/t27ezdOnS2FruuOMOXnrpJc6ePcvdd989YFWnz+fD7/cTjUbZvHkzZWVl3HTTTbHjS5YsweFwsGPHDtauXRt37UjuZ69ly5ZRW1vL6dOn2blzJ5MmTWLmzJl95mxpaeHdd9/l1ltvJRwOU1tbG3f8rrvu4te//jWLlyxW8CoiIiIiIiIiE5bC13EmIyODdevW9Rm/+oFb/bl48SLbtm2jrKyMBQsWAPF9R++991527tzJpk2beOCBB/pUanq9Xs6dO9fv3L29ZK+2e/duUlJSBvzKfiQSoaqqis985jNx40888QQpKSn8/ve/7zeIDIVC/c7n8/k4fPgwDz/8MMFgEL/fj9/vp7u7m8zMTCoqKsjLy2PmzJmxz9+6dSvTp09n7ty5BAIBjh49ytGjR5k6dSr5+fns3buXEydOsHDhQoqKimKtC2rO1bB3716ysrJ46623WLt2bb+Vw2VlZf2GxiO5n+FwmGAwCLxfIWyaJo2NjQSDQYLBIOFwOHZ+Tk4On/zkJwE4ffo00BPIVlVV0dzczLp161i7di2vv/463nYv8+fP18O2RERERERERGTCUfgqMfv372flypUUFhZy4cIFzp8/z8mTJ1m2bBnQU225cuVKDhw4wLFjx2Ljvdra2qiuru537kuXLsX6rV4tHA4TCAT6PRaNRvuMrVy5EpfLBRBXLdrR0cGePXuw2+1cuHCh3xYEb731FsFgkN/97nc4nU6SkpJITk4mLS2N1NRU7r33Xnbv3s2UKVNwuVy0tLSQnp7OihUrOH/+PNu2bSMnJ4fVq1fHHig1a9Ysjh07xp49e6ioqOATn/gEpmmya+cuHnzwQbKysqiqquLVV1/FsizcbncsoIWegDsSiXDXXXeRm5s74vsJUF5ePmhF7JEjRwiFQmRlZfU5dv78ec6cOUNXV1dcxXRGRgYPPfQQe/bs4Ve/+hWPPfbYoC0PRERERERERETGG8O6nkeqy5jX2NgIEBfuDaazs5OGhgZcLhd5eXkDfs29V0tLC4ZhDBgIer1eAoEAkydPjhs/efIkHo8Ht7v/PqXRaJTq6upBe7leeW7vffb2sO3vnGtVYHq93riHiZmmic1mIxgM4vP5+p0XekLUlpYWcnJy+p2ndy6/349pmliWFVdZnJqaGtvnkdzPCxcukJWVNeA1vbq7u2lra4uFzleuJSkpadAHal2rX7CIiIiIiIiIyHik8FVERERERERERERkGAxezigiIiIiIiIiIiIiH4rCVxEREREREREREZFhoPBVREREREREREREZBgofBUREREREREREREZBgpfRURERERERERERIaBwlcRERERERERERGRYaDwVURERERERERERGQYKHwVERERERERERERGQYKX0VERERERERERESGgcJXERERERERERERkWGg8FVERERERERERERkGCh8FRERERERERERERkGjtFegIiIiIiIiIwxNTWw8edw/DiEI6O9muHldMDcufC5z0JR0ZBMWdkM39oNu+ogbA7JlB9ZThusKICv3wmzc4ZmzkAgQFtbG93d3Zjm+N5Am82G2+0mKyuLpKSk0V6OiHwIhmVZ1mgvQkRERERERMaImhp45i/Hf+h6NacDvvdvNxzAVjbD6hfGf+h6NacN3vj0jQewgUCACxcu4PF4SEtLw2Yb31/oNU2Tjo4OWlpamDJligJYkTFofP+WEhERERERkaG18ecTL3iFnnve+PMbnuZbuyde8Ao99/yt3Tc+T1tbGx6Ph4yMjHEfvEJP5WtGRgYej4e2trbRXo6IfAjj/zeViIiIiIiIDJ3jx0Z7BaNnCO59V90QrGOMGop77+rqIi0t7cYnGmPS0tLo6uoa7WWIyIeg8FVERERERESuXzg62isYPUNw7xOx6rXXUNy7ZVkTouL1ajabDXWNFBmbJt5vLBEREREREREREZERoPBVREREREREREREZBgofBUREREREZERZV1+XUvUsojqq9b9M6NY4cDQzmmZWMHOoZ1TRGSCU/gqIiIiIiIiI8pvM2i1G5hXBKsdkTDecIi2UJCWUJDGYABvRhrdebkDztMdjeANh67r1R2NjMStjZjC5CgPFQVj76NdrUQ7Goj6GmOvyKUGrFD3dc+ZkWTjmcXgiFz/NWNRNHp9vXsjkQhHjx4d8HgoFCIYDA54fMeOHXi9Xs6fP/+B1ygi44djtBcgIiIiIiIiE4t71UoS19xP2999ncxAELthYPv850hOT8dITcGWlg6pKRAIwHsn4Gcb+5/ovtW459yEHWPQz4tiEXnvBGzfMQx3MzrmeAy+uNTNppd73r/0qVRKPE5C5vt7kZ5o8r92hvllVT8TmFGi3W1xQ+1d8MCcDOo7unj+eFefS+zuTLCN7RghEonw7W9/m8cff5wZM2bwk5/8hFAoFDteVFTEunXraGtrw+1288ILLzB//vx+5zpw4AC7du3i6aefxu129zn++uuvc9NNN7Fx40a+8pWvkJmZOWz3JSIfXWP7t6aIiIiIiIiMPdt3YE9MIvu7/wrf/GdoacX9wBrCP/wRZkM9Vt1F8PsBMACXvf9/ujrmzcPm92M/erSnjcHVLQoMAwOw5s/HMW/euAlfo91erJABuIh2t2NPSiPJafA3Wzr5w/n39+B/3+/Eae//C683Zdv5weOe9wdME2wG2ck2vnFfBv99mdmzn7b3r//aNoP32vqZbAxxOBx84Qtf4LnnnuOpp57i3Llz/P3f/z0Azc3NbN68mdbWVl566SWeeuqpQedavnw5pmny7LPP8tWvfhWXyxV33GazkZ6ezhNPPMHFixcVvopMUApfRUREREREZESZlgWvvQ6nT2Pr7MQCDMPAlpaKLS0VSksBCJsW0c5OePudgeeqPgN73sFrtxG2v18DawGOaJSsqInpToZ5c4f9vkbK/3kog/wUk6Is+M9HMvnWHgCTDQuTuHv6++fNzTPY19D/V+xPX4LPv9azW2agg88scLC7wcW5jp7jMzMMlk4K8IvDIWyudMCgyT+stzVisrOz+au/+isSExMxDIPU1FS+853v8PnPf/4Dz3X77bdTWlpKS0sL27dvjzsWCAT4xS9+QUJCAmlpacydO37+DorI9VP4KiIiIiIiIiOqNTGBqGFg1dQwORjCTHBimCZmZ89X3RMvV1tGZpXizs0dNHztlfx3f4uzuAjj8lfIrYQEIhcuwDe+OWz3MVq+9AbcPzXKV5bCn/zX5cpUw0ZH0KSl24ydFzIdA7YJCJtQ12lhBNr4wf3J5KYn8YMjELqc1bYFDb5wi4tSj4OnX2vFn5ANxuDtHcaCxsZGnnvuOZ555hmMK+7nevvA9tq+fRtVVacBWLt2LVOnTu1TKXvu3DkeffRRPB5Pf1OIyAShB26JiIiIiIjIiMp59odM/r//Sd5LL4ArCTM7G6u5BUdmBgGnk4433yS0cyeOGSXYNm267nkjz/4Yvvjn8MU/J/r9Hw7jHXx0WJ3NWGE/Lx4OcbHDJMFO7PXGqQjvXgiC2V+waJEcauGlx9LISknkMy80EQq/f54/GOFLLzcRwsnLGzJICHlH7qaGUW5uLitWrOBHP/pRXK/XD6qkZAZLliyhra2Nzs5OoCfY7X1dunSJpKSkQR/IJSITgypfRUREREREZGR96c8BiP58IzbAzM7GaG/DceQo6V//O7qnFuDbt59MhwOOvTe6a/2osSysoA8rGCU3NY3tn8/mP/ZHKMqwLh+2IBrGcCQAsGamneBpqLwUP02S3eD1p7KpbrPx9d2w64sePvm8lwtmFmAxN6WDXz85iVW/NPjBvQ5+/kgqT24G86q2umPR3XffTWZmJk6n80PPUVxcTHFxMXv37o2N/fu//zttbW24XC5uu+023G43gUBgKJYsImOYKl9FRERERERkVEU82dDWDudrsf7yb0hYsIDMb/5PAr/93Qeaxx+N4g2H8IZDdH3Ar5GPFS6nwT/flcC/PJBOotPghxU2HAkJOI0oCc4E8tMTeHJJMgkJibGXzWbvM08gCj89YONPt0J9F/zXaRvPPZSKLdSBM+zjJ+vT+OkBg4Zu+NMtcLTZ0ed5ZmPZ7NmzY20HIpHIDQWxvf7pn/6JhQsX8uSTT/Lwww+Tmpoaq4oVkYlLla8iIiIiIiIyakzLwrZ4EbbqM0Qti/ZLXtLa23FMm4ZxSxm+nbtIdVw7GHMYBsmf+gSsvrdnICMjrqfneBGMgic9iU0notw2xeT1GhtYFr9YY/C1nQb5SSbzJ5n84xutPRc4nNhdGf3O9cLJ9//8L2/Dq59w8I3bbBgGdEXs/Phgz7HOMHx7b79TjFk//elPWf/QegB8Ph9paWlD/hkZGRm0t7cP+bwiMrao8lVERERERERGnHm5jDKcmETS4sVYO3fRmpJM5ve/S4JpwRe+RFJpKcaTTxDut2dpPNtvfoP9jW3Y9+7reb2xDdsLLw33bYw404L/8Qbsu/j+g7WSbUHumpFEq88PQFG2gx1/4mHHn3j44ZrrCxUjZpQv/vYSjy9y89+WJPP0pktY17HvY5HX6+XixYtMK5xGSUkJDQ0NZGVlkZiYyMyZMz/UnE1NTX3G8vPzaW3tCcGrq6s/8EO9RGR8UPgqIiIiIiIiI8q0LFrcLmxJiQRvmoV19Bh20yLnR89iP3YM/vXfwOvF+Na/kPLAGpxz5ww4V8Qy8Ucj+I8ew79zV/zryBH80QgRyxzw+jHrih4Ad04K4rQbPDo9ghUN0tBh8g87Df5hp8F/HL7GP/vNKFbAR47Zwj+uchM2bbR2G3z346mUJrYS9XuxouFhvpmRtW/fPpYtW4ZhGPzZn/0Zhw4doqioiIsXL/LAAw+QmprKbbfd9oHm+81vfhN739XVxcGDB8nOzqayshKAV199td+AVkTGP7UdEBERERERkRHVkeLG88MfYBw9RtoTT+D91+8QbGog6cc/Jrx3LwY97QKs2gvYv/YMCQ2NpAzQesCYORPrGg81Mj5kNeNHVdTvxR4BjFSI+HnmrmT+4Q/w2aUp/KHKTyBsUn6qGYye4NWW4MZITImfxDKJdrVSkmby2OJUPrcklx1n4a5fQHcE/naZnS1/OonfHQvx0rsd7KkLY0/JgX76x4415eXlfO5znwPg+PHjVFZWsmbNGp599lk2bNjA7NmzWbRoER0dHdecq6Ojg/b2dv7iL/6CjRs3cvz4cS5cuMCMGTN45JFHCIVCVFVV4fV6ycvLG+5bE5GPIIWvIiIiIiIiMqLSn34ao3wP/Pz/YZRMJ/NrX4PsbKyWVnhiA1gAFhgG2O1Qvgde/m2feZw2G86pUzHsgweCVn4+XP7693jwg/tTWTndxr6LBo/MduGPWvzsGGw7Z/DtlW4mp8Hhr06mI2hhM+DVSvju/vg5sl02nv9UNqU5Nt48A194DXbWvX/8G+Xwq/fgM/MT+NmnswmELT75ikHNtfPIj7SGhgZM06SwsJBdu3axZcsWvvzlL5Odnc2Xv/xlvv/97/PMM8/w1ltvceHCBSZNmjTofKWlpTzwwAMkJSWxatUqPv3pT+N2u2PH169fz/e+9z0++9nPDvOdichHlWFZ4+l5hSIiIiIiIjKs1j1843NMnQL19RC5ogemzYDMTEhM7PmzccXX5b1e8PXz1PhJOeD393/sSqkp4HJBU/ONr/3VviHwB5H37I0vYVkuuJywp76n+0CeG85ftQUJNshKgkQ7tAehI9R3nvsK4e2G/o9dyWHAsslQXn/ja6//yo1df+rUKUpLS29oju7ubtxuN+3t7SQlJeFyuWLHmpub8Xg81NTUEAwGKSoqIikp6YY+z+/3x33GhzUU9y4iI0+VryIiIiIiIjKyai/0HTMtaG37YPNcb5jq67x2QDuGVDTGv786eAUImdDQPfg8W89f3+dFrKEJXj8qeitTMzMz+xzLyckBoLi4eMg+byiCVxEZu/TALREREREREREREZFhoPBVREREREREREREZBgofBUREREREREREREZBgpfRURERERERERERIaBwlcRERERERERERGRYaDwVURERERERK6fwz7aKxg9Q3Dvzgn8r/ChuHfDMDBN88YnGmNM08QwjNFehoh8CBP4176IiIiIiIh8UNE5N432EkbNUNz77XnRIVjJ2DQU9+52u+no6BiC1YwtHR0duN3u0V6GiHwICl9FRERERETkuoWffGJiVr867D33foP+ell4Qla/Om09936jMjMzaW5uxuv1TogKWNM08Xq9NDc3k5mZOdrLEZEPwbAsyxrtRYiIiIiIiMjYEAwGsc6exfn8L7G/dwIi47yS02EnOucmwk8+gVFcTGJi4g1NFwwGOdFk8Z0KJ+X1dsLjPD902noqXv96WZibJhk3vH/RaJRgMEh7ezvd3d2M90jDMAzcbjeZmZkkJiZit0/A//gQGeMUvoqIiIiIiMh1M02TQCAw2ssYFUlJSdhsN1a2qv27sf2zLGtCVLz2x2azqe+ryBik8FVEREREREQ+ENM0CYfDRKPjvOr1MrvdjtPpvOHgsJf278ZMxABWwavI2KXwVURERERERERERGQYTMA23yIiIiIiIiIiIiLDT+GriIiIiIiIiIiIyDBQ+CoiIiIiIiIiIiIyDBS+ioiIiIiIiIiIiAwDRCHkJQAAAGZJREFUha8iIiIiIiIiIiIiw0Dhq4iIiIiIiIiIiMgwUPgqIiIiIiIiIiIiMgwUvoqIiIiIiIiIiIgMA4WvIiIiIiIiIiIiIsNA4auIiIiIiIiIiIjIMFD4KiIiIiIiIiIiIjIM/j+MY7stXFHgHwAAAABJRU5ErkJggg==;" vertex="1" parent="1">
          <mxGeometry x="125" y="903.15" width="1355" height="366.59" as="geometry" />
        </mxCell>
        <mxCell id="PVqFNuO40D3JptiVjfTZ-7" value="" style="shape=image;verticalLabelPosition=bottom;labelBackgroundColor=default;verticalAlign=top;aspect=fixed;imageAspect=0;image=data:image/png,iVBORw0KGgoAAAANSUhEUgAABUMAAABCCAYAAAB9wceUAAAACXBIWXMAAAsTAAALEwEAmpwYAAAgAElEQVR4nO3deXBU1533/3erW1KrJYQWJLSwSCwS+44FxqzGLDZgJ7bxMo4dV5LKpGYySZzKk4qnMsGpSSrjWZLxuGZcjpN4iz0BDF4AB8widiMwllglhDa0Sy3RUqs3tbr794d+fR8aSRgwGD/m86rqgj59z72nb1/++fA955hCoVAIERERERERERERka+4qFs9ABEREREREREREZEvgsJQERERERERERERuS0oDBUREREREREREZHbgsJQERERERERERERuS0oDBUREREREREREZHbgsJQERERERERERERuS0oDBUREREREREREZHbgsJQERERERERERERuS1YbvUAvsq8Xi/t7e243W6CweCtHo6IiIiIiIiIiMgXIioqCpvNRkpKClar9VYPx2AKhUKhWz2IryKv10tdXR1DhgwhMTGRqCgV4YqIiIiIiIiIyO0hGAzS2dmJ3W5n2LBhX5pAVGHoTdLQ0IDNZiMpKelWD0VEREREREREROSWcDgcuN1usrKybvVQAK0ZetO43W4SExNv9TBERERERERERERumcTERNxu960ehkFh6E0SDAY1NV5ERERERERERG5rUVFRX6q9dJTWiYiIiIiIiIiIyG1BYaiIiIiIiIiIiIjcFhSGioiIiIiIiIiIyG1BYaiIiIiIiIiIiIjcFm5YGHr+/HlKS0v7/ay5uZmSkpLPPEcoFOKNN94gEAgY57xaRUVF1NfXX/EYr9dLMBikvr6e4uJiALq6ugBoamoy2kREREREREREROSr54aFob/85S/ZsGEDW7duZe/evRGflZaWsnnz5n77/eUvf+HFF18EekPTV199FbPZjNvt5p/+6Z/YuHFjxPFOp5PnnnsOl8sV0f7888/T0NBwxTG+/PLL7N69m/Lycj788EOqq6v56U9/CsCBAwf48MMPr+k730zd3d23eggiIiIiIiIiIiJfKZYbcZIPPviA6Ohoxo0bR2FhIdHR0SxcuJBAIEAoFKKnp4dgMEhPT0/vRS3/97I7duzgb//2bwE4e/Ys06dPB8Bms/HKK6/w7LPP4nQ6efrppwEYNGgQkydP5u///u/5r//6LxISErDb7ZSWltLa2srBgwcjv6DFQkFBAQDf+MY3+NOf/sSMGTMA2L17N8888wzQG9gGg0EOHz5s9J05cyYxMTE34hZdtcOHD7NlyxZaW1sZOnQojz32GBMmTPhCxyAiIiIiIiIiIvJVZF63bt26z3OCkpISvv/97/O1r32NmJgY3n33XRYsWEAoFGLjxo28+eabVFdXU1FRwYULF1i3bh1PPfUUAK2trfzmN79h/PjxnD17li1btmAymXA6nZw+fZpz586RmZlJY2Mjzc3NRig4fvx4EhLiefPNP7NkyRK2b9+O2+0mLy8Pj8djvM6cOcM777zDgw8+iM/n46WXXsLpdPL222/T0NDA0KFDKS0tZfz48bz66qsUFBTg9/t54YUXSElJYdKkSURHR1/XfWlrayM1NfWa+pw6dYrNmzfzne98h0ceeYTU1FReeuklZs6cSUJCwnWNQ0RERERERERE5Fa6npzsZvnc0+QnTZpEQUEBo0ePpqqqim9961ukp6fz0UcfAbBmzRoeeeQRZs2axY9+9KPIi0dF8eKLLzJ8+HCSk5M5fPgwq1evIjMz03gNHz6cO++8k8zMzIi+S5fewz//8z/T1dXFCy+8wA9/+EPWrFnDhg0bmD59OmvWrCEYDLJy5UoAYmNj+cEPfoDD4eCBBx7AZDLR1tbG2rVr8Xg8nDp1ilmzZvHAAw/gcrl4+OGHiYuLi7hmdXX1Va19er0sFgtPPfUUOTk5xMTEMGPGDJKTk6mqqrpp1xQREREREREREbldfO5p8mazGZvNxujRo6mpqWH48OGkpKRw9uzZz+ybmprK/PnzAdi6dSszZsxg6dJ7run6v//975kzZw6TJ08GoKGhAavVSk9PD++++y5/+ctfALh48SL/8A//wP3338+QIUNwOBysXr2a9evXk5iYSFZWFgcOHGDo0KG4XC4GDx7c51q/+93vOH/+PFu2bLmmMV6tcePGRbxvbW2lra2N3Nzcm3I9ERERERERERGR28kNWTMU4Omnn8bj8WCxWDCbzaxYseKa+r/99tucPn2auXPn9vnsX/7lX1iwYEGfdq/Xy+OPP05sbCzQuxv9xYsXcTqdDBo0iJ///OdkZGQAEBcXx1NPPcXSpUspLCxk/vz5TJo0iUmTJvHd736X3/72t/zqV79i2rRpjBw5st8x/vCHP6Szs/Oavtf1CgQCvPbaa9x1113GdxAREREREREREZHrd8PC0Jdeeom9e/cycuRIUlJS2LlzJ9C7uVJcXBwXLlzgd7/7Xb99S0tLKS0tJSUlhT/84Q+kp6cD4PP5ePTRR8nLy+vTp6WlhSeffJKtW7diNpsBqKmpobu7mzfeeINf/OIXLF261DjebDYTGxvLvn37ePbZZ1m3bh379+/HarXyb//2bwwaNAibzcaBAweMatXL5eTkfJ5bdE02btyIx+Nh7dq1X9g1RUREREREREREvspuSBgaCoWIjY3FYrEQHR1tbDq0ZMkShg8fTmlpKc3NzYwaNcrYvf1SGzZs4Fvf+hZpaWn8x3/8B7/97W8xm828+eab3HHHHf1WRr711lusWLHCCEKhdzOnxYsXs2/fPpqamiL6+f1+du3axZkzZ8jNzeXQoUM4nU7q6uqMqfT33nsvv/nNb3j55ZdvxG25bvv376eoqIh//Md//MJ3sxcREREREREREfmquiFhaGdnJ0888QQ+nw+z2YzJZGLNmjVMmTKFKVOmsHfvXvx+P6NHj8bv90f0PXLkCLt372bLli1YrVaOHj3KT3/6UwoKCvjggw944403+r3e22+/zfr16402n8/Ha6+9xrPPPkttbS1vvPEGP/nJT4zPbTYbP//5z3nkkUf493//dzIyMvjZz37G3/3d3xnHTJw4Ea/Xy9ixY2/EbbkuZWVlbNy4kWeeeYaUlJRbNg4REREREREREZGvms+9mzyA3W5n9+7dfO973+PXv/41//M//9PvcWazmffee89439jYyI9//GO+//3vEx8fj9ls5mc/+xmffvopzz33HN/+9rdJSkrqc56NGzdSUFAQsbbnf//3fzN+/HhmzZrFmjVrOHr0KNu3b4/od+HCBdxuN3/4wx94+eWXcblcEWuRvvjii4wfP37AytDt27fz6quvXsutuSYtLS3853/+J/fffz+DBw/G4XDgcDjweDw37ZoiIiIiIiIiIiK3i88dhra1tWE2m684ndvr9dLQ0MAnn3xCYWEhgUAAr9fLM888w8qVK/n6179OZ2cnv//977n33nuZNWsWv/zlL3nhhRf45je/yd69ewkGg8a5XnvtNb73ve8B4PF4eP7559m1a5cxBd9sNvP888/z/PPP89e//tUYR25uLr/+9a85ePAgb731Fi6Xi5KSEgBeeeUVRo8ezeuvv86hQ4fYtWtXn+9RVFTE3r17P+8tG9COHTvw+/28/fbb/OQnPzFemzdvvmnXFBERERERERERuV2YQqFQ6POcYNu2bZSXl/ODH/yAP/7xj8TFxXH48GEmTpxIQ0MDBw8eJDc3lwkTJjBu3Dh27NjBU089hdls5s9//jO/+tWvKCoq4kc/+hFTp07l29/+NrNnzwZ6g85Nmzbx5z//mZiYGP73f/+XyspK1q9fz7p163A4HDzxxBMUFBTw4x//GJvNFjG26ppqvvPt7/Cv//qvJCUn8X9+8n/IzMzkG9/4BjNnzuTIkSO89dZbTJ8+naqqKp577jlMJhP19fV897vf5Re/+IUxlrBgMEhU1GdnyOfOnet34ycREREREREREZHbyZcpJ/vcYWggEKCzs5Pk5GScTieBQICKigomTZqEz+dj0KBBmEwm4/iWlhYSEhKw2WwEAgHMZjNOp5PGxsYBb0ogEOD8+fPk5+f3+aysrKzf9rCmpibS0tIAqKuri5haH3bx4kUSExMjNmNqa2sjPj4eq9V61ffiUl+mH1lERERERERERORW+TLlZJ87DJX+fZl+ZBERERERERERkVvly5ST3ZANlERERERERERERES+7BSGioiIiIiIiIiIyG1BYaiIiIiIiIiIiIjcFhSGioiIiIiIiIiIyG1BYehNEhUVRTAYvNXDEBERERERERERuWWCwSBRUV+eCPLLM5KvGJvNRmdn560ehoiIiIiIiIiIyC3T2dmJzWa71cMwKAy9SVJSUrDb7TgcDlWIioiIiIiIiIjIbSUYDOJwOLDb7aSkpNzq4RhMoVAodKsH8VXl9Xppb2/H7XYrEBURERERERERkdtGVFQUNpuNlJQUrFbrrR6OQWGoiIiIiIiIiIiI3BY0TV5ERERERERERERuCwpDRURERERERERE5LagMFRERERERERERERuCwpDRURERERERERE5LagMFRERERERERERERuCwpDv2DFxcWEQiEA2tra+j2mp6enT1trayvBYNB473A4aGpq6re/2+3G4/EA0NHRQXVN9WeOy+l0Ul9fD0BpaWlEe0VFxVWP82pdvHiR5ubm6+5/qzQ1NQ143y/X2tpKZ2dnRNuVfjfofSZaW1v7/ayrq+uqr301z1lYWVlZxPtQKBTxDFyNuro6Ojo6rnhMT08PoVCIzs5OGhsbAeju7gZ6n7Nw243U1NSE1+sFev9dhL/r5b/LlVTXVONyuW742AZy7tw5/H7/F3Y9ERERERERkduJ5VYP4Kvu5MmTuFwu5syZg9Pp5MSJE0ybNg2/309hYSH5+flMmjQpos/+/fuJjY1l7ty5mEwmoDfcGjJkCNOnTwfg+PHjpKenk5GR0eea27dvZ8qUKYwePZq2tjbOnz9PzsicAce4bds23G43Xq+XwYMH09LSQnl5OTk5OXg8HiorK42gNCYmhjlz5hjjtFqtzJkzB5fLxZYtW/qcOxQK4fF4mD9/PmPHjjXaP/nkGOnpQxk6dOhV38va2lo+/vjjiLZw0GW1WiPaCwoKGDFiBA6Hg61bt171NQDuu+8+kpKS2LNnjxEohoWDxdTU1Ih2k8nE4sWLI9r279/PxIkTsdlsFBcXM2vWLJqbm2lqaur3dwPYt28fycnJZGZmEhsbS05OjvGZ3W6nsrKy377X85wBtLe3c+LECfLz84225uZmTp06xbhx4/oc7/P5OHToEPPmzSMmJsZoP3jwIPPmzWPw4MH9fi+Ao0ePkp6eTlRUFLW1tVitVg4ePMiqVauoqamhvb2dzMzMAfv3JxAIYDabB/zso48+YsmSJWRnZ+P1eikuLmbkyJFs27aNu+66i2HDhkX0uXjxYp8g8tjRY4wfP560tLSI9qSkpIh7cK1aWlqorKw0/j0BeDweCgsLGT169HWfV0REREREREQGpjD0JquoqGDWrFlAb6VgOPyLjo5mzZo17Ny5k+7ubmbMmGH0WbBgAQcPHmTnzp0sWbIEs9nM/Pnz+fDDD5k8eTLd3d3U19ezYMGCPterrKykubmZzs5OSkpKaGtrw+FwUFJSEnHc6NGjSUhIMK53+PBhxo0bx4gRIzh58iSTJ08mGAyyefNmZs2aRVpaGjt37mTZsmUR4zx06BC7du1k8eIlPProowSDQQoLC5kwYQIxMTEUFxeTk5PDqFGjjH4ej4eqqmrAxOHDh432KVOmsHHjRuN9KBQiIyODFStWABAbG8tdd90V8T3OnTsHQF5eXkR7OCBLSkri0UcfNdq7u7tZv349TzzxBABvvvkma9eujQi1wn0nTJjQ5/6GKyb7Cwov1dDQgNPpZPTo0TQ0NNDQ0HDF48PnNplMpKamUlNTQ1SUiZycHEKhEMFgkEAgQCgUIhAIRIwTru85CwQC1NXVMWzYMHp6ejCZTJjNZqqrq8nKyjKuc+l9iY2NJT09na1bt3LfffcRExOD2+3m4sWLuFyuPlXI5igzw4cPB2Dq1KkUFxcbgWdlZSV33nkn0Bv0hkIhLly4YPTNzs4eMOg8f/48J06cwG63k52dzcyZM/uExOXl5VitVrKzswGIiooiEAhgtVpZtWoVH374IQsXLiQ9PT3iN7i8wtXpdHLu3Dlqa2sj2mfOnNknIL0WQ4YM4eTJk+zfv5/58+cDUF9fj9Vqpbauts/x8bb4z3U9EREREREREQHzunXr1t3qQXxVuVwuDh8+TGpqKq2trZSXlwO91YwtLS3Y7XYSEhLo6uqiq6vLCGWioqIYOXIkCQkJDBo0iKqqKs6ePWtUGJaXl5ORkUFdXR2hUIikpCQATp06xbFjx1i0aBEJCQnExcXR3d2Ny+Vi1KhRxMXFGa9BgwZhsVjw+Xzs2bMHs9mMx+OhoaGBzMxM9u7dS3d3N/n5+ZSWluLxeBgxYkRExVp4nPHxveMsKyujvr6eqKgoioqKOHPmDMOHD6enpwePx0NycjIAhYWFpKenM2HCBI4cOcLEiRNJT08nMTGRTz/9lKeeeorp06cb3zEcdL733nskJSXR2dmJy+XC6/XidDoJBoOYTCacTicul4uenh4OHTrE5MmTAWhsbGTv3r20t7dTV1dHa2srPp+Puro6mpub8fl8NDQ0UFJSQmJiIomJiQAkJCRw9OhRGhsb6e7uprOzE7vdjs/nM6Z719TU0NbWFlF1GQwG2bVrFzNmzCAtLY0TJ05w8eJFWlpaqKuro729ndbWVqqqqmhpaWHYsGE0NTWxY8cO8vLyMJvNlJWVMWLECON3PXnyJA6Hw3jt3buXadOmfa7nbP369UYAeubMGerq6sjOzubAgQMkJCRQW1tLbW0tlZWVHDp0iKlTpwKQnp5OdHQ0JSUljBo1ivLycnw+H0OGDKGnp8d4tba2UlpayoQJEwgEAhw7dgyfz8fp06fp6uoiISEBu91OWloaJSUlZGdnEwwGKSoqwmq1kpGRQVRU35U8qqurKSws5M4772TevHkEAgH27t1LTk4OcXFxQG/ovXPnThYuXMigQYOMvsXFxeTn5+Pz+UhJScHj8dDT02P8x8Dw4cONQDr8amlpIScnh2HDhhlteXl5faqDr5XJZCI3N5f6+no6OjpIT0/n+PFPSElJxRprjbiX5eXluN1uI1gWERERERERkeujytCbyGQysXz5cqB3vcTGxkaWLFmCxRJ52wcPHmxMhw8Gg8Y03XDYkpubS25uLgBFRUXExMQYQdilAoEA999/vxHshK/rcDiMYO1yZrOZ6dOnc/ToUe6++26OHDliVJ/NnDmT6upq/H4/tbW1dHf7sNvtDBkypN9xlpSUsGDBAmw2Gz6fj8TEREaNGkVLSwvnzp0jNzcXt9uN2+1m8eLFWCwWAoEAmZmZRoj1WbKysqiurgYgLi6OlJQUoHeafHhdx8zMTD799FOjj9/vJyEhgXnz5uH3+6mqqmLevHlAb4Xh3LlziY6OZvfu3X2mSIdCIUwmk/GbhcO58HuTydRnKv2xY8dobm5m7ty5uFwuampqePTRR7FYLJSVldHU1MTChQsj+gwdOpSMjAxSUlKor69n+vTpxMbGUlFRgcViIS8vD5vNRlVVFXfeeSeVlZVG3+t5zsLuuOMOEhISqK6upqKigqNHj5Kfn8/s2bONY9xuN5s2bYroN2bMGMaMGYPP56OoqIgVK1aQkZHBpk2bWLJkCUlJSRw6dMgIz81mM3PmzGHHjh3k5+dTUVGBx+Nm1qzZ+P1+7HY7CxcuJC0tjaKiIiZNmtRn/GEnT55kxowZxhICkydPprm5mbNnzxqVpoWFhTidTqKjo9m3bx8dHR04HA58Ph8bNmxg8ODBxuvSsBQwwu6wYDBId3e3sSRD+D7fCCaTyRhzU1MTtbV1PPHEEwQCATZt2sTjjz8e8Z1FRERERERE5PNRGHoT2Ww2I7ApKysjLS2NMWPGXLFPa2sr27ZtIxgMMmLECO655x7Onz9vfN7c3ExiYmJE25gxY4y1KC/fYMflctHV1cX27dv7XGvatGkMHTqUrKwscnJyOHHiBHFxccZameEpwytXrmTQoEGcP3+effv2sWbNGtra2vqME6CqqorY2FguXryIx+MhGAxGbFYTGxtLQUEBdrvdCFQ7Ojro6OgwKlwHsnr1akwmk7F+aUpKirFWqN1up729HehdAmD16tURfdva2jh27BiBQICenh6OHTsG9IZax48fx2w209bWFjGdH3qnyjudTuN9eDp9fHy88eelYVp9fT3l5eVGQHzixIkrBnthJpOJ6OhoUlNTcTgcJCYmYrPZBtxM6VLX85wNxGKxMG3atIi1OC/duOtyn3zyCcOGZRtT1Lu6uoiOjiYQCHDu3DkefPBBoDdQ/etf/0peXh7x8fF4vV7y8vI4ffo0MTExxMfHU1NTQ0JCAj09PX3WgL2Uw+FgypQpEW2pqanGs19SUoLP5yMuLg6LxUJiYiIjRowgMTGRLVu28NBDD2Gz2fqcNxAI9Ft9WVZWxtChfde3dbvd2Gw2AoHAFe9Rf6Kjo/u0HThwgIKCAqKjo3G5XEZwbbfb6e7uvqb1dUVERERERESkfwpDvyCnT5/Gbrfzxz/+sc9nS5YsMcKsoUOH8vTTT9PY2MipU6cIhUJUVVUZxzY2NmI2myPaxowZQ3x8fMRmO1cjPj6eYDDIiRMnAIyAaNSoUdTX11NfX092dnZEFeKoUaOIiorqM84wq9VKbGwsZrOZ6OhorFYrXq8Xn88H9FbdHThwAOit2LRYLMb7cIVcfwKBgBEOXVpV2dXVBRBRDXtpH7PZTEpKCuPHj48Yo9PpJC0tjYKCAqN9/PjxRqUp9E4zD9+bsIsXL/Z7H8NhoMfjYdmyZcZaqOPGjet3bAN59913CQQCREVFYTKZ+oSzn+Vqn7Ow48ePEx0dTWdnJxaLhTlz5lBcXIzb7Y74PS6vKIXeIHnKlCkR63r6fD58Ph+xsbHMnz/fCIpjYmKYOnUqo0ePpqqqihEjR5CRkUFGRgbvv/8+y5cvZ//+/WRmZvap1LxUIBDA5XIZYXRYfHy8sdan3+/nnnvuYcOGDURFRUVUUScnJ9PZ2dlvGNra2sqePXsi2pxOJzExMRQWFva55pAhQ7jnnns4evQoxcXFA465P9/5zneM+xZeE3bRokUMGTIE6H32uru7CQaDWK1WFi1adE3nFxEREREREZH+KQz9ArS2ttLe3k5sbCxr1qwxwjG/388777xjBCD9MZlMRtVlTU0NTqeT+fPnG1VvYQkJCcaO4JdP2x7ovOFj+9sB/Eq7gl9JUlIScXFxNDY2Eh8fT0pKCsFg0KiutNlsPPTQQ0Dvpj/nzp1j5cqVn3lep9PJzp07+7R3dHQQFxfX767eS5cuxWq14vP5jKq6rq4uvF4v48eP73dzHp/Ph9frxWq1EhMTw8yZMyM+P3PmDPB/N1dyu90cOnTI+Pzyisyenp6IKt7GxkY6Ozs5e/as0ZaVlWXc71WrVlFVVWXcx3AQfe7cOaKjo+no6IjYdOpS1/Oc2Ww2YmNj6e7uNqZ+T5w4kfXr1zNy5EhjHc/L1+50uVxs3ryZv/mbvzGeJYfDQSAQoKSkhMWLF0esL3vp5kx79uxh/vz5VFdXY7FYWL58ObGxsVgsFmpqaq64LqbZbMZisfSZpu73+4mNjQUwNpLqT1JSEg6Ho89mSwAZGRk89thjxvvjx49jt9tZsmQJGzZs4Gtf+5pRsdrR0WH8ZrNnz77iNQf6HmGVlZVUVlYa/84B2tvb8Xg8lJeXk5+ff02BuoiIiIiIiIgMTGHoF+D06dNMmTIFm83G4cOHWbFiBVFRURQXF5OVlXVVQUdPTw8ff/wxBQUFVFRUUFVVxcqVK/tMJz569CiffPLJFc81YcIEYyf68CYuLS0tnDhRcsV+Y8fmMXLkyCsec+7cOSwWC3a7nc7OTrq6unC73f2GlRUVFTQ3N+N0Oq9YDQi9IdZDDz2Ex+Mx2np6enjnnXdYtWpVn2nHsbGxREVFceHChYj70dzcTGpqakSg2N7eTnx8vBGmzZ49G4vFEhFYhrW1tRnXDv/pcrnYs2cP48eP7xOyuVwuGhsbjfcdHR14vd6ItpSUFAYPHkwoFMJisRAVFWWEftBbjTt48GDsdjsul4vk5GTmzJnTZ2zX85yFK1fDa4ZC7xTuxYsXs3v3btauXdtvGBrePOnSitGmpiaGDx/OhQsX+vymwWCQyspK7HY7gwcP/v/XoO3G6XTy8MMPAzB27FgOHz7Mfffd12ecl0pMTDQqgsO6urqMja+uJDMzk+rqKsaNGzfgMX6/n48//pj29nZWrVqF2WwmPz+fTz/9lFmzZrFnzx6CwSArVqwAGHDH+6tVXFzcJ3RvbGxk7NixfPrpp+Tl5fVbmSsiIiIiIiIi105h6E1WW1tLdXU1jz/+ONHR0TQ2NvLRRx+RlZVFeXk5X//61z/zHA6Hg+3bt5OdnW1Mc/b7/bz33nusWrWqz/TdmTNnDrjZytmzZ421NS9lNpuJi+s7dfhS/a1zeLl58+aRkJDAxx9/THJyMvn5+dTV1XH69OmI4zo6OqitrWXBggXs2LGD+++//zPX1QwEArz++utG6BWuztu6dSudnZ1Gu9vtZuXKlWRlZTFixAhj86jKykqOHz/Ogw8+aIRLDQ0NHDhwgAcffDAi1HK73Ual7aXKysoAjM/cbjfNzc3k5+f3G8bl5ORETE0faAMl6K1K3bx5s7EkgMlkYsyYMcZ08urqagKBACkpKQQCgYi+N+I5u1RWVhbTp0+np6eHQCAQ8dt4vV7Onj1rrAcKGBWhd911Fx0dHcbfw6Kjo1m0aBEbNmxg2bJlDBo0iI8++ihio6b09HR6eno+c5f25ORk6uvrI6pw6+vrjU3GrmTkyJEcPHgwYk3UlpYW0tPT8fv9nD592pjyPnfuXOOYSZMm8c4771BbW7/hmDQAAAemSURBVMuoUaP6hJfXq66uDrfbHfGfDA6Hg/r6etauXcuBA/upqqq65uUSRERERERERKR/CkNvovDU7jvuuMOojLzrrrtYv349VVVVLFq0aMCNYpxOJx6Ph0AgwLZt25g+fXrEupfh6sXdu3f32SwoXFnYn8sr/MLMZvNnBi79VXeGxzmQw4cPU1lZSV5entEWCoUoKipiwoQJjB07FpfLxe7du1m2bBmAsWu31+ftc76YmBhjKvMrr7xi/P1Pf/oTa9euxWw2s23btn7H4vf7iYmJYdOmTWRlZZGRkcG+fftYvnx5n/tls9kwm819pqSHK0PPnTtnnDM6OpqsrKwB78HV8ng8PPnkkxQXF5OcnIzNZjOucymTyURpaSnDhg0DPt9z1traSldXFw6Ho89nEydONM5/aRh6+vRpMjMzIza8OnLkCKmpqWRnZ5OZmck777xDeXk5Y8eONY7p6OgwNqyy2Wz4/f6IoLioqIjU1FSOHj0asV5pU1MTPT09xvedMWMGmzdvJi8vj4yMDM6ePYvT6TSWLriS6OhoRowYwZkzZ5g8eTLBYJCtW7fy9NNPc/bsWZqamrj//vs5efJkRL+YmBgWL17Mzp07GTt27A2r1Dx+/DiTJ082zhcMBtm9ezezZ8/GarVSUDCHd999l6SkpIj1bEVERERERETk+igMvUl6enrYvn07o0aNYuLEiXi9Xk6ePMnJkycZPnw4WVlZFBUVcfbsWaZNm0ZOTo4RiFTXVFNUVERKSgqFhYWsXr2632nk06dPNwKrSzkcDmpqavodVzjMu9z+/ftJSEgYcMp+T08P5eXlPPnkk0ZbdU21EYLt2rWL2bNnExcXB/ROxbdYLGRnZzNhwoSINUj37duHw+EwpupPnTqVLVu2GJsTvffee8Y1k5OT+x3P9cjPzyc3N5eqqiqKioqMaeGlpaX09PSQnZ0dEXJZLJY+06lLS0sBIto/q6L1arjd7iuG2NAbvHZ1ddHY2EhtbS3BYJBgMHjdzxn07nZvsVjweDwD3uvwMgLQ+5ucPHmSe++913h/+PBhamtreeCBB4DewH3p0qV88MEHhEIhIwhPTk7m7rvvZteuXfj9fpKSkmhqaiIjI4Njx46RnJzM8uXL2bRpExUVFcaao8eOHSMjI8MIQ1NTU5kzZw7bt28nFAphtVpZvHixsczBZykoKGDz5s0MHz4cv99vrKU6ZcqUiF3qQ6EQtbW1lJeXExcXx9y5c5k3bx7vv/8+8+fPv+YNyy7X0tJCe3u7cS+dTid79uzBarUaz9egQYO48847+eCDD1i1atVnVs2KiIiIiIiIyJUpDL1JwmsjLliwgAsXLvDRRx+RlpbGsmXLjFAnPz+fU6dOcejQIY4cOcJDDz1EMBhk3959rFq1ipSUFMrLy3n//fcJhULYbLaIICsUCtHT08PChQuNDYKgN7wKB32X6+joGDBQ8fv9RlXm5S6flt3d3c3ewr2sXr3aGOehQ4c4ePDgFccZGxtLe3s7q1evNsIrk8nEvffei9lsJj09nVWrVmEymWhvbzempV8Nn89HWVkZDQ0NEVO0jx07ht1ux+FwEBUVRUZGBkuXLiUjI4NgMEh1dTUnTpxg9+7djBkzhoKCAsxmM2az2VgD9Pz587S2tlJdXc3cuXP73YDn86itrY2YKt3V1UVpaSlpaWns3r2buro6Bg8eTFpamrF7fXNzMyaT6bqeM4vFQkxMDHfffTcJCQlcvHixz/IJhYWFdHV10draamxy1d7ezogRI0hPT8fj8bB582aysrJ4+OGHI5ZRSE5OZs2aNXzwwQckJiZitVrZsWMHCQkJLFq0iOzsbGprazl+/DgZGRl0dHRw9913A7Bs2TK2bt1KbGwsw4YNw+Fw9NmgaNKkSUycOJHOzs5r3uzLZrOxePFi3nvvPcxmc7/rr9bU1FBRUcGIESMYNWqUsalTbm4uNpuNAwcOUFZWxvLly6/p2pey2+3MnDkTi8VCY2Mj27dvZ8aMGRGVogCjR4/GZDKxZcsWHnvssX4rtEVERERERETk6phCV7P1uFyX8MYzPp8Pp9M54K7xoVAIu91OWloa0FvZeekU5PC5PB4PwWCQUCgUsWP8oEGDjOnvdrsdk8k0YODpcDjwer19wryysjKGDBmCzdb/uqGBQICKigqmTp0aca7rGWcoFLquacahUIjS0lJjuYCGhgZjenpjYyNDhw6lvLycpKSkiHC4rq6OmJgYUlJSrljF6Xa7sdvtxhqjlwqHhTabjaFDhw643EBYdU016Wnpfe6n0+nE6/Uav3VYMBjE6/Vis9nw+XyEQiHa2trIyMjA7/f3mebucrmIiYkhOjr6up+zz9LZ2YnP5yMlJWXAilW73T7g9cLfN1xV2tnZ2ed5gd7lAcIbXoVduunW66+/zje/+c3PvOeXKysrIzc3d8Dw0Ofz4XK5+p1+3traesXvDb2B9Y3a5T0QCOB0Ovu9P2GX7mAvIiIiIiIiItdHYaiIfGl5vV5qamr63cxKRERERERERORaKQwVERERERERERGR28K1zTsVERERERERERER+X+UwlARERERERERERG5LSgMFRERERERERERkdvC/wcnBL3oXdBfowAAAABJRU5ErkJggg==;" vertex="1" parent="1">
          <mxGeometry x="130" y="837" width="1350" height="66.15" as="geometry" />
        </mxCell>
        <mxCell id="PVqFNuO40D3JptiVjfTZ-10" value="" style="group;movable=1;resizable=1;rotatable=1;deletable=1;editable=1;locked=0;connectable=1;" vertex="1" connectable="0" parent="1">
          <mxGeometry x="130" y="260" width="1352" height="287" as="geometry" />
        </mxCell>
        <mxCell id="PVqFNuO40D3JptiVjfTZ-5" value="" style="shape=image;verticalLabelPosition=bottom;labelBackgroundColor=default;verticalAlign=top;aspect=fixed;imageAspect=0;image=data:image/png,iVBORw0KGgoAAAANSUhEUgAABUgAAAEfCAYAAACTRiz+AAAACXBIWXMAAAsTAAALEwEAmpwYAAAgAElEQVR4nOzdeXhN1/rA8e/JdJIIIYnMc4rEPA+hqAhBqoZyr7qtVmn7K62WUqWqdHBVqVJzq5dO1Dy1NEoRtBGSCJEoMWUWiUScjCfn90ee7JuT8YRUbnk/z+N5nD2stfbea++zz5s1qHQ6nQ4hhBBCCCGEEEIIIYR4BBnVdwGEEEIIIYQQQgghhBCivkiAVAghhBBCCCGEEEII8ciSAKkQQgghhBBCCCGEEOKRJQFSIYQQQgghhBBCCCHEI0sCpEIIIYQQQgghhBBCiEeWBEiFEEIIIYQQQgghhBCPLAmQCiGEEEIIIYQQQgghHlkSIBVCCCGEEEIIIYQQQjyyJEAqhBBCCCGEEEIIIYR4ZEmAVAghhBBCCCGEEEII8ciSAKkQQgghhBBCCCGEEOKRJQFSIYQQQgghhBBCCCHEI0sCpEIIIYQQQgghhBBCiEeWBEiFEEIIIYQQQgghhBCPLAmQCiGEEEIIIYQQQgghHlkSIBVCCCGEEEIIIYQQQjyyJEAqhBBCCCGEEEIIIYR4ZJnUdwEE5OXlkZGRgUajobi4uL6LI4QQQgghhBBCCCHEA2FkZISlpSU2NjaYm5vXSxlUOp1OVy85C6AkOJqQkICdnR2NGjXCyEga9QohhBBCCCGEEEKIR0NxcTHZ2dmkp6fj6upaL0FSCZDWs6SkJCwtLWncuHF9F0UIIYQQQgghhBBCiHpx+/ZtNBoNzs7ODzxvaa5YzzQaDY0aNarvYgghhBBCCCGEEEIIUW8aNWqERqOpl7wlQFrPiouLpVu9EEIIIYQQQgghhHikGRkZ1dvcPBKZE0IIIYQQQgghhBBCPLIkQCqEEEIIIYQQQgghhHhkSYBUCCGEEEIIIYQQQgjxyJIAqRBCCCGEEEIIIYQQ4pElAVIhhBBCCCGEEEIIIcQjSwKkf1M5OTlER0eTnJz8wPO+efMmaWlpAKSkpJCUlPSX5fVXp/8gXb58mdu3b9/z/gkJCfd9LuLi4igqKrqvNIQQQgghhBBCCCEeJhIg/RvKzs5m3rx57Nu3j5SUlAead2FhIcuXL1c+Hz16lEOHDv1l+d1P+vn5+cTGxlJcXGzwPgcPhvD999+j0+mYPXs2CQkJ95R3Zb777jsuXrx4z/vv2LGDXbt2GbTt2rVrOXnyJFevXmXu3LnK8piYGEJCQu65DEIIIYQQQgghhBAPGwmQ/g1dvHgRMzMzZs6cSYcOHR5o3r/++iu+vr7Y29s/0HzvRUZGBosXL6awsNDgfQoKCsnLy0OlUpGRkYFKpfoLS1g7EydOZPz48QZtm5OTg1arBdBrtRoUFMTBgwfvqyWrEEIIIYQQQgghxMPEpL4LUBdycnIoKiqicePGQElAyNTUlAYNGlS6/d27dyksLFS2/zvZuXMnx44dIzc3l3fffZfBgwfj5+fH4sWLGTt2LFu2bMHOzo5XX30VjUbDtm3bOHfuHBYWFnTq1Ing4GAl6Ldo0SICAwM5evQoly5dokOHDjzzzDNs27aNP/74gyZNmjBmzBhatGih5B8aGspzzz1XoVwHDx7kwIEDWFhY0KtXLwYMGADAiRMnuHTpkt4+O3bswNLSkoEDBwKg0WjYvn070dHRmJqa0rVrV4KDgzEyqhi/P3bsGOHh4bzyyitYWFiQkJDA3r17iYuLw9vbm8GDB+Pj40NMTAwbN24EYN68eXTo0IFRo0Zx9+5d/vzzT9q3b1/p+TUzM8XU1BQAtVqNmZkZABEREYSFhdGjRw9+/PFHCgoK6Ny5MyNHjsTY2BgAnU7Hzz//THh4ODk5ObRu3ZqRI0dWWQ9DQ0MJCQkhMzMTDw8Pxo4di6Ojo3JtAgICOHLkCFevXuXzzz/nwIEDmJmZMWjQIAAOHTrE4cOHuXPnDr6+vowZMwZra2u9spuZmaFWq5U8LSws8PPzIzz8FP37B1ZaLiGEEEIIIYQQQohHyUPRgnTKlCl0795d+ezn58esWbOq3H7WrFn4+fk9iKLVud69e9OnTx8cHBx4+eWXad26NVqtltTUVPbs2UNwcDDDhg2juLiYtWvXcuvWLSZMmMDw4cM5efIku3fvVtJKT09n586dBAQEMGnSJC5cuMBHH32EtbU1b731Fo899hhr165Vtr958yapqam4urrqlSkqKor4+HheffVVhgwZwp49ezhx4gQAGs3dCq0V79y5Q05ODgDFxcWsW7eOtLQ0JkyYwIgRI/j999/Zu3dvhWM/c+YMe/fu5dlnn8XCwoKcnByWL1+Ovb09U96Ygo+PD1988QUZGRl4enoyevRoAF588UX69esHwMmTJ1ixYgWZmZmVnl9XVzeaN28OgL+/vxLczM3NJTY2lpCQEJ599ln+9a9/ERUVxfbt25V9f/rpJ44dO8bQoUOZOHEiWVlZrF69WmnJWVZcXBybNm3iySefZOq0qdjY2LBs2TK9a7NlyxY6derE66+/rpy3O3fuAHDu3Dn27t3LuHHjmDlzJkZGRnzzzTfK/q1atcLewR4rKyu9ewPA3d2d6OhzlR6/EEIIIYQQQgghxKPmoWhBWt6UKVP0AqBubm68/PLLvPvuuwD069cPJyen+irefbGxscHOzg61Wo2bmxtQEkwDGP2P0Xh6eAJw7do1Ll26xCeffIKlpSUA5ubmfP755zz55JNK68zevXvTqlUroCQgePbsWYYMGQJAcHAwR44c4fbt2zRu3Jg7d+6gVquV9EoZGRnxwgsvYGpqipeXFxqNhoMHD+Lv71/j8dy4cYO4uDg++eQTrKysAGjSpAlxcXF628XGxrJp0yamTp2KnZ0dAL///jsODg6MGDECAE8PT65cuUJYWBhBQUHKNXZ1dVVaUfr798TOrilNmjSptDy+vr7K/0sDrKXu3r3L+PHjlX0tLCxYvHgxI0aMwMjIiP379/Pqq68qdc/V1ZUZM2Zw/fp1vLy89NJyc3NjwYIFNGzYEIDhw4czffp05VwDBAT0o3fv3lWeNycnJx577DEAxo8frwRPAfr27av8v/T8lLKxsSErK6vSdIUQQgghhBBCCCEeNXUeINXpdADVjt2o0+lqHNuxpm2qy2fmzJl6n2/dukVubq7y+amnnuKpp56657LVZrsHycnxv0HfxMREnJ2d9YKZ3t7eFBUVkZaWpnTldnBwUNZbWlpia2ur9xlQZj3PycmptLu4l5eX0i0dwMfHh82bN1facrK8xMREXF1dleBoaXplA4rnz5/nyJEjTJgwQSk3wIULF7hw4QI7duxQlkVGRipd3itjaWlZZff6mtjZ2ekFVr28vCguLiYlJQUzMzPy8vLw9vZW1ltYWODq6sqNGzcqBEgtLS1JT0/n7NmzpKenKwHL/Px8ZRsnJ+cqy9KuXTt++uknFi5cSKdOHWnfvoMSOK6JhYWFXjBVCCGEEEIIIYQQ4lFWZ13sIyMjGTx4MA0bNsTa2pp//etfXL9+XVmfkpLCCy+8gJOTE1ZWVgQFBXH69Gll/eXLl+nYsSM///wzr732Gra2tjRt2pSZM2fqTbKTm5vL1KlTcXJyonHjxrz44oskJibqlSUoKIiFCxcC0LFjR/Ly8li1ahVPPPEEAAsXLiQoKEjZXqfTsWHDBjp37oy5uTl+fn589NFHFBQUKNtMnTqV8ePH88svvyjb9erVi8jIyLo6hXUqPz9fL2gJJS09jYyM9IJw1SkNQpcyNjauNOhZdoxLADMzM4qLi5XAanXpFhQUYGJSfZw+PT2d5s2bs2fPHvLy8pTl+fn5mJiYYGFhofwbMmQIHTt2rPHY7kXpeKSljIyMMDY2prCwkIKCAlQqVYXgrJmZmV49KnX27FnmzZunjLvq7Fy7Fs3Ozs58+OGHdOzYkaios8yaNYs9e/YYtG9xcXGN51wIIYQQQgghhBDiUVEnAdLIyEg6deqElZUVv/zyCxs2bCAmJobAwEAKCgrIysqiffv2REZGsmHDBkJCQrCxsaFr166cOnUKKAl2RUREMGLECLRaLZs3b+add95h4cKFemMrPvfcc/zwww98+eWX/Pzzz1hbW3PgwAG98kRFRZGUlATAu+++i4mJCX369OHNN98EICkpiaioKGX7Tz75hPHjxzN69GhOnDjBzJkz+fjjjxk3bpyyzdWrV/nuu++YNGkSr7/+Onv37iU7O5sRI0ZUGQisT66uriQlJekFNNPS0tDpdDg7V90ysTpWVlZoNJoKy69du6b3OTExURkGQK025+bNm3rrs7Ozlf+7ubmRmJiodw6zs7OJjY1VPvv7+/Pmm29iaWnJt99+qyz38/OjU6dOBAUFKf+GDRtG165d9fIrLi6+p+MtLyUlRS/YmZaWhlarxcnJCUdHR4yMjEhOTtbLNyEhocKYrQCHDx8mICCAV155hcGDB9OxY6dal8fa2prAwECmTZvGSy+9xL59+wyqixqNRunaL4QQQgghhBBCCPGoq5MA6ezZs/Hy8uL777/H39+f4cOHs27dOpo3b86VK1f44osvuHnzJrt372bAgAH4+/vzzTff0Lx5c95+++0Kaa1cuZLAwECmTp1KixYt+O233wAIDw9n69atrFmzhuDgYPz9/VmyZAljxoypsmwjRozAxMSEli1bMnTo0Arr09PTee+993jrrbeYMWMGnTp1Yty4caxZs4ZNmzbxxx9/KNva2tpy/PhxnnvuOQIDA5k5cyZXrlwhITGhLk5jnfLw8KBBgwbs2LGD/Px8srOz2bRpE506darQstRQjRs3prCwsMIER2lpafzyyy8UFRVx8+ZNtm3bpgQpnZ2dSUlJ4fz58+h0OmJjY7lw4YKyr5ubG9bW1mzZsoW8vDyys7P56quvCAsLU7YxNTXFxMSEV155hejoaI4cOQKUdDOPjIwkIiICrVZLZmYmCxYs4NdffwVKxto0NTVV8ga4fv06GzduNKj7f3kqlYoffviB3Nxc5Xy2adMGtVqNsbExXbt2ZfPmzWRlZZGfn8+uXbtQq9V4enpWSKtBgwYkJiZSUFCgbFsbO3bsYNmyZUprYI1GQ5MmTQxqGZqSkqI3lIIQQgghhBBCCCHEo+y++9nqdDp+++03Jk2apBec6dSpk9Ll948//qBbt27KpEJQ0l175MiRLFy4UC9Y1aFDB730XVxclBaIpa1N+/Tpo7eNhYXFPZf/woULFBQUEBwcrLe8tAv+mTNn6NatG1Ay5qS9vb2yjb19UwAyMzKVyZH+V5iZmTFlyhS+/vprpk6dipGREW3atOH555+/5zStra1xc3Pj2rVremNxdu/enbS0NF577TWMjY3p1KkTTz75JFAyHmlgYCArVqxAp9PRpk0bOnfuXKGc69evZ9q0aWi1Wtq2bcvTTz9dIX8bGxtefPFFVq9ejaenJx4eHkycOJHt27ezdu1aoGRyotIJitRqNYMGDeKHH34gMjKSCRMmkJSUxOnTpxkxYoTeuKeGcHNzw8nJienTp1NUVISvry/jx49X1j/77LNs2LCBd999F61Wi4eHB1OmTMHc3LxCWsHBwaxatUpZP2bMGE6cOGFwWQICAtiwYQNvvvkm5ubmNGzYkJdeesmgfa9du3bP47AKIYQQQgghhBBCPGzuO0Cam5uLRqOhadOmVW6TkJBQaSs6W1tbioqKKrRILKvsREgJCQmoVCoaNWp0X2UuKyUlRSlLWaUBwPLjm5YrXZ2Vozb8/f31Zoi3s7Nj3bp1FbZr2rQpM2bMoKCgAGNj4wrjY5aO01pqwIABDBgwQPmsVqsrpNu5c2ciIyOVAFvZmd5HjRqFsbFxhVaMo0ePZsSIERQWFlYazLa1tWX69Onk5+dX2L/8TPJt27Zl5cqVyud27drRrl07NBqN0pKzrCeffJLg4GClm3337t3p1q3bPU+wNWDAAAICAigqKqow9qqpqSkTJkxAq9VWuv69995T/u/o6Mi8efP0yl12aIDy1wbgX//6l/L/Ro0a8dprr1FUVFTlea2MRqPh4sWLPPfccwZtL4QQQgghhBBCCPGwu+8u9paWllhbWytjflbG29tbb8KmUqmpqajVamxsbAzKy9HREZ1Op8z4XRdKx4csDZSWKm21Wllg9+/GzMys2pnda6Nfv35cunSp0lnQ1Wp1lV28SydTqk51+9fE0tKyymMsP3nSvQZHSxkbG1cIftZmfVnVldsQhpzXsk6ePEnfvn1p3LjxPecphBBCCCGEEEII8TCpkzFIBw0axHfffac3gc9vv/1GmzZtiI2NpXfv3pw+fVpv4p3c3Fy++eYbBg0ahJGRYcUo7ZpdOsYkwK1bt2rsmmxqalppQA+gZcuWNGjQgE2bNukt37JlC1DS4lD8l7m5Oc8//zwZGRn1XZQHytPTk/79+9d3Me6bhYUFQ4YMqe9iCCGEEEIIIYQQQvzPuO8u9gAfffQRu3fvpn///rz22mukpqayZMkS3N3dadasGZ6enqxbt45+/foxf/58GjZsyIoVK8jMzOTf//63wfl0796dwYMHM27cODIyMlCpVCxdupTExMRqZ2Zv3rw5O3fupEOHDowcOVJvnbW1NV988QUvvPACxsbGDBgwgLNnzzJ//nymTp1K69at7/m8PKwee+yx+i7CA+fs7FxtHfu7KDs0gxBCCCGEEEIIIYSoowCpt7c3sbGxfPzxxyxevBgTExPGjRvHtGnTlLEvT548ySeffMK3337LnTt36Ny5Mxu/2ahMbtSwYUPGjBmDo6OjXtp9+/ZVuiCrVCq2bt3KggUL+Oqrr7C2tmb+/PmkpqZy6dIlZZ8RI0boTUKzatUqli1bxrfffsvgwYNp3749RUVFyvrnn38eNzc31qxZw5w5c/Dy8uLrr7/m2WefVbbx9/cnOztbr2xNmzZlzJgxWFtb18VpFEIIIYQQQgghhBBCPGAqnU6nq+9CPMouXrxI8+bN67sYQgghhBBCCCGEEELUq/qKk9XJGKRCCCGEEEIIIYQQQgjxdyQBUiGEEEIIIYQQQgghxCNLAqRCCCGEEEIIIYQQQohHlgRIhRBCCCGEEEIIIYQQjywJkIq/DZ1Ox4ULF/i7zCt27NgxLly4UOV6nU7H1WtXKS4ufoCl0nflyhW0Wm295V/Xrl+/zk8//VTtNqmpqeTk5DygEv1Xbm4uiYmJFZbHxcVRVFT0wMsjhBBCCCGEEEKIEhIgfchcu3aNzz77rL6L8Zc4efIkYWFhqFSqGrdNTEwkLS3tvvO8l3S0Wi2hoaFs3LiR1atXc+bMmUrTnTFjBlt+3GJQgPTPP/+sk6Be+ePZt28fM2bMIC4u7r7TriqPByU6OpoNGzawY8cODh8+TEFBgd76oqIiPvjgA1asWEFmZmaN6dX1cWg0GtavX8/s2bPRaDTK8piYGEJCQuosHyGEEEIIIYQQQtSOBEgfMkVFRaSnp9d3Mepcfn4+27ZtY+jQoQZtv2/fPkJDQ+8739qmo9PpWLJkCZcuXaJp06b4+PgQGhrK119/rbfdsWPH6NGjB9OnT8fExKTGdFeuXMnVq1drW/wKyh/P5MmTGTQoiN9+++2+064qjwdh165d/Pzzz7i6uqJWq0lNTeWjjz4iPz9f2SY6OhojIyPmz5+Pm5tbjWnW9XHY2toyZ84cnJ2dCQsLU5YHBQVx8OBBbt++XWd5CSGEEEIIIYQQwnA1R2bE31ZhYSGLFi1i8ODBtGvXzqCWlxEREYSFheHn58e+ffsIDAykf//+hIaGEhISQmZmJh4eHowdOxZHR0cAtm/fjpWVFTk5OZw4cQIPDw8CAwPx9fVV0j169ChHjhwhIyODvn370rBhQ9LT0xk9ejQACQkJ7N27l7i4OLy9vRk8eDA+Pj7K/lFRUTg7O9OkSRNlWVxcHNu2bSM5ORkXFxf++c9/4unpyfLly4mLi8PY2JgzZ87wxhtvYGdnR3x8PFu2bCEhIQEHBweGDBlChw4d9I4hLS2NsLAwpk2bxu7duytNJzY2lqZNm2Jra1vh/CUlJXH58mWmTp1KSEgIjo6O+Pr6EhISQkFBAWZmZgBkZGTQunVrvX0PHTrE4cOHuXPnDr6+vowZMwZTU1M+/vhj7t69y4YNG7C1tWXmzJkA1V6TRYsWERAQwJEjR7h69Sqff/55lefFzq4pp06F11yhaiirtbV1lXncuHGDffv2ERcXh4uLC3369KFLly4AZGZmsnjxYl566SU2bdpEYmIibdq0YcSIEdjY2ACQnJyMRqPRqxPly/Paa69hZGSEpaUl//jHPzh06BCZmZnKOcnIyMDe3l5vv9rWofs9DoCmTZvqtWC1sLDAz8+P8PBT9O8fWKvrIIQQQgghhBBCiPsnLUgfYiYmJvTu3ZutW7cyd+5cTp48WeN4k7m5ucTExBATE8O4cePo1KkTcXFxbNq0iSeffJKp06ZiY2PDsmXLlH2ysrI4cOAAlpaWTH5tMra2tqxZs0bpOn7mzBk2bdpEv379mPLGFHJzczlw4ABZWVkA5OTksHz5cuzt7ZnyxhR8fHz44osvyMjIUPI4f/487u7uymeNRsNnn33GE088wbx582jbti1Lly6lqKiIUaNG4ePjQ/v27Xn55Zdp3Lgxubm5LFmyhDZt2jB9+nS6du3KqlWruHXrlnIMP//8c8kxTJ6Mvb19penodDq++OIL9u3bV+n5s7e3x8zMjG3btnHnzh0AzM3NefLJJ5XgKFDhOpw7d469e/cybtw4Zs6ciZGREd988w1qtZqXX34Zc3NzBg0axLPPPgtQ4zVJT09ny5YtdOrUiddffx2g0uMpVZsxMKsqa1V5ZGVlsWzZMmxsbJjyxhS6d+/Of/7zH2JiYpRzkZqaysaNGwkICOD1118nNzeX1atXK+dp+/btfPXVV1WWycfHh927d5OSkqIs69evnxIcBSoMZVDbOlQXx1Gq/Gd3d3eio88ZfA2EEEIIIYQQQghRd6QF6UNMpVLRq1cvevbsSVRUFPv372fnzp0MGDCAXr16oVarK92vuLiYiRMnYmxsDIBarWbBggU0bNgQgOHDhzN9+nRu376tBNnc3d0JCgoCwMXZhdDQUK5cuYKPjw+HDx8mODiYnj17AuDh7sG1a9eU/H7//XccHBwYMWIEAJ4enly5coWwsDAlzezsbL1u0cnJyRgZGdGxY0fUajWDBw+me/fuqFQqHB0dadCgAdbW1so+Op2O+fPnKy353N3dOXr0KPHx8UpLUB8fH6UMUNKyr3w6gBJArYypqSlTp03lm43fcP36dX755RcmT55M27ZtlRa8ubm5XL58mf79+yv73bhxAycnJx577DEAxo8fz507dzA2NsbNzQ1jY2Ps7e1xcXEBwM3NrcZrEhDQj969eyt5VHZeoKRFY2Jiot6+1amqrFXlcerUKezs7Bg1ahQqlQpPD09u375NSEgILVu2VNIdOHAgnTp1AmDChAm8/fbbxMfH06xZM0aOHMndu3erLNP48ePZsGGDMpSBvb09PXv2VILSWq2W2NjY+6pDdXEcpWU7fvw4hYWFmJqaAmBjY6P8wUAIIYQQQgghhBAPlrQgfQSoVCrat2/PzJkzmTBhAqdOnWLy5MlVbu/k5KQERwEsLS3Jz8/n+PHj7Nq1i927dwPoje/o6uqq/N/U1BQnJydu3rwJlMwsXrZrtEqlonnz5srnCxcucOHCBXbs2KH8i4yM1Btz886dOzRo0ED57Obmhr29Pe+//z67du3iypUr2NjY6JW7LFNTU9RqNWfOnGHv3r38+OOPpKam6h1DafCxJr6+vnpdpsvz9PBkzpw5dOnSBTc3N77//nslcJecnMy0adPo37+/3jlo164d169fZ+HChRw8GMLt27f1hhMoz5Br4uTkbNDxuLi48PTTI5kzZ45BkzXVtqw3btygWbNmekM8PPbYY3pB8tJlpSwsLHBzc1NmfXd0dKyyez2AlZUVkyZN4uWXX0alUvH777/z3nvvKS01Z8yYgaWlJX379lX2qW0dqovjAOjatSteXl5MmTJFmUjKwsJCCTILIYQQQgghhBDiwZIA6SMkPT2dM2fOkJKSgr+/v8H7nT17lnnz5hEdHY2pqSnOzk4VtjEy0q9KZYNI5ubm5OXl6a0v+zk/Px8TExMsLCyUf0OGDKFjx47KNsbGxnrdks3MzJg1axZDhw4lNTWVTz75hM8//7zKruLp6em8//77/Prrr2i12krHD60LWq1WKYO7uztDhw5l9uzZhIeHk5WVhbm5OV5eXkRHR+sFM52dnfnwww/p2LEjUVFnmTVrFnv27KkyH0OuSW3KHB19DicnJ6VFanVqW9b8/HylpWQpExMTCgoK0Ol0yrLy25iZmVWYib4yOp2OwsJCoKQlZkBAgBIQPXv2LAB+fn5cuXJFb+zP2tahujqO7OxsLl68iJ+fn3LfFBcXGzRZlxBCCCGEEEIIIeqe/CJ/BJR29T537hx9+/Zl/vz5NGrUyOD9Dx8+TEBAAMOGDQNKJrvZvPlHg/f38vIiPDycdu3aASVjP0ZFRSktAv38/GjcuLHSnb4yjRo1QqPR6C0zMzOjR48e9OjRg4yMDGbPnk18fLzSMrPsmJOnT5/G1taW6dOnK8sOHjxoUPnLj11ZnaioKLZv384HH3ygLLO0tASgoKCApk2bMn36dGbNmkVMTAydO3dWtrO2tiYwMJDAwEDCw8P58ssvGTRokBI4K1uO+7km5Y8nPj6e+Ph4li5dWmXryfJqU1Z3d/cKrSyTkpJwd3fXC6QnJibSokULZf+EhAS9YQiqkp2dzYwZM/j3v/+tLDM2NsbKyorc3FygpKv7N998w8mTJ/Hy8lK2q00dqqvjOH36NE2bNmXSpEnKMo1GY1BwWgghhBBCCCGEEHVPWpA+xLRaLZ999hnLly/H09ODBQsWMGzYsFoFRwEaNGhAYmIiBQUF5Ofns2vXrlrtP3z4cKKioli+fDk7d+7k008/1RvDs127dvSIdysAACAASURBVERGRhIREYFWqyUzM5MFCxbw66+/Kts0adJEbwKe6OhoZs2aRXp6OlAyrqdOp8POzg4o6ZJ96dIlJahqaWnJrVu3yM7ORqvVcujQIb1JoKpSPh2AHTt2EB0dXen2rVq1QqvVsm7dOuWY1q5di4eHB02bNlW2c3V1rZDmsmXLlFalGo2GJk2aKAFHJycnYmNjldaN93pNKjueu3fvVhhW4fTp0yQlJVWaRk1lLZ9Hu3btOH/+POHh4Wi1WhITE9m1axfdunXTS3f79u1kZmZSUFCgHE9pMDMsLIz9+/dXWh5ra2s6derEF198QVhYGNHR0Wzfvp0bN27QqlUrZTtnZ2e9cUxrW4fq4jhKz7ezs/7wBykpKX9Zq2YhhBBCCCGEEEJUTwKkD7lu3bqxYMEC+vcPxMLC4p7SCA4OJi0tjSlTpjBz5ky9oJMhHBwcmDNnDn5+fuh0OsaNG6c3/qarqysTJ05k586dTJ48mVmzZuHt7a03XmSrVq30xiRt2bIl7du3Z+7cuUybNo0lS5bw3HPPKWODdu3aFZVKxRtvvEFKSgpdunTB09OT6dOnM2XKFLKzs/H29q6x7OXT0el0hIeHc/ny5Uq3V6vVzJkzBzs7Oy5fvsyJEydwdXXlzTffrDafgIAAVCoVb775JlOnTuXXX3/lpZdeUtYPGDCA6Oho3n77beDer0n54ylVtgVkcXExX375ZZVjYtZU1vJ5uLi48NJLL7Fnzx4mTZrEZ599Rt++fenTp49euoMGDeLDDz/k9ddfJzo6mldffVVpfRsbG0tUVFSVxzVhwgT8/f0JDQ0lNTWV3Nxc3nvvPaytravcp7Z1qC6OoyrXrl2r9X0lhBBCCCGEEEKIuqHSlR08TzxwFy9e1AsW3q/Lly+zfv16PvroozpLs5RGo0GtVhvcDbvUn3/+SUFBgV4AaMGCBbRt25YhQ4YYlEd+fj5vvfUWc+fOVVr4QUkwT6PRYGVlVWneWq1WL638/HxUKpUyu7mhyqaj0+n0AopVOXDgAA4ODrRv377Cuq1btwLw9NNP6y0vKiqisLCwymB2+eO512tSNp2QkBCuXbvGhAkTgP+O17p06dJqx8WsbVmhpJVm+e3T09N55513+OKLLzAzMyM3N7fSgKIh5z0+Pp7w8HBGjx5dYV1UVBR79uzh3Xff1Vte2zp0v8exfPly2rdvz+OPPw6UXMMZM2bw4Ycf0rhx42qPTwghhBBCCCGEeJjVdZzMUNKCVBjM0tKy1oG4UqtWreLrr79m9+7dLFy4kOzsbLp3725wHmq1mqeeGsqxY8f0lhsZGVUZ2AIqpKVWq2sdHC2fjiHBUYCBAwdWGhwF6NixI8eOHeO7777Tm3yqdLIqQ8oB935NSvfZtm0bP/30E126dFHWpaWl4evrW+OkQbUtK1BjK2aVSlVla0tDzru3t3elwVEoaTGanp7OmjVrSEtLU5bXtg7BvR1HVlYW69ev5+LFi8p4vAAnT56kb9++EhwVQgghhBBCCCHqifH777//fn0X4lF269atOh170MjIiCZNmuDm5lZnad4vW1tbOnfuTF5eHnl5ebRq1YpRo0ZV2/25Mh4enty8eRMPDw+Dg5T/q5o0aUKvXr0oLCzExcVFmc38QcvKyuLpp5/G09NTWZabm4uHh8cDGxNTpVLRqFEjfHx8/tLzYGxsTL9+/TA3N8fa2rrGbu+1VdNxFBQUYGpqytixY2nQoIGyPCUlhd69e2Nqalqn5RFCCCGEEEIIIf5u6jpOZijpYl/P6qvpsBBCCCGEEEIIIYQQ/0uki70QQgghhBBCCCGEEEI8YBIgFUIIIYQQQgghhBBCPLIkQCqEEEIIIYQQQgghhHhkSYBUCCGEEEIIIYQQQgjxyJIAqRBCCCGEEEIIIYQQ4pElAVIhhBBCCCGEEEIIIcQjSwKkolLXrl3jzJkz6HQ6EhISSEpKAkCr1XL+/HmKior+knxv3rxJWlqa8jknJ4fo6GiSk5PrNJ+r166i0WiqXB8XF/eXHaMQosTVq1fJyMj4S/NIT08nMjKSnJwcsrOziY2NNWg/Q551D6L8hoqJiSEnJ6dO0kpJSVGe+Q/K3bt3iYuLq/V+NV1TnU7H+fPnyc/Pr3Kb+jheQ6WlpXHjxo36LoZBanN/1aeioiIiIyPRarX1XZQaHTt2jAsXLlS5vqCggOvXrz/AEv1XXT5z/kpl32Erc+XKlVrVBXk/FEIIIR5eEiB9yFy7do3PPvvsvtL46aefWLJkCWfOnKG4uJgdO3awa9cuAPLz81m6dKnyUpyZmcnVa1fvt9gAFBYWsnz5cuVzdnY28+bNY9++faSkpNRJHlDyY/g/X/8HtVpd5TYxMTGEhITUWZ7i76ku63dtrF27lpMnT3L16lXmzp1bZ+nm5+cTGxtLcXGxsuzPP//kgw8+AGD9+vWEhobWWX412bJlC+fOnfvL0o+Li2Pu3LkcP36c7Oxsfv/9d1atWoVOp6tx3/LPusr81eUvr6ioiNmzZ5OSksKhQ4fYuHEjUBLMXblyJWFhYXWSz9GjRzl06FCdpGWohIQEVq9eXev9arqmxcXFLF26VAlkV3YP1HS89XmP/PHHH+zfv/+B5Xc/anN/1aeEhARWrFihBM3q6zl/8GAI33//PTqdjtmzZ5OQkKCs02q1hIaGsnHjRlavXs2ZM2cq7H/y5EnefvttTp48+SCLrZSvLp85f6Wy77BQcj+Xfa7v27ePGTNmVPgDTVXfw/J+KIQQQjy8JED6kCkqKiI9Pf2+0jhx4gRjx45lwoQJGBsbM3HiRMaPH1/ptmfPnuX7776/r/xK/frrr/j6+mJvbw/AxYsXMTMzY+bMmXTo0KFO8gDYvHkzwcHBGBsbV7lNUFAQBw8e5Pbt23WWr/j7qcv6XRs5OTlKi5a6rIMZGRksXryYwsJCveVZWVlASSu+h6llTHh4OD169GDSpEk4OzvTv39/PvzwQ1QqVX0X7Z4YGxtz8+ZNVCoVRUVF5ObmKssXLFhA375967eA9aC217Sqe6AmD+s9Upf+LveXp6cnn376KW5ubkD9PecLCgrJy8tDpVKRkZGhnDedTseSJUu4dOkSTZs2xcfHh9DQUL7++mu9/Q8cOMD48eP5xz/+8cDL/nd65pR/h125ciVXr15VPk+ePJlBg4L47bff9Par6ntY3g+FEEKIh5dJfRdA/HUKCwtZtGgRgwcPpl27djX+aLl9+zaffvopN2/eZMuWLfz888/MnTuXAwcOYGZmxqBBg/S237dvH7/++it5eXm8++67DBs2jM6dO6PT6di/fz9//PEHhYWFdO7cmaFDh2JsbExmZiaLFy9m7NixbNmyBTs7O1599VUAQkNDee655wDYuXMnx44dIzc3l3fffZfBgwfj7+/PokWLGDBgAMePH+fSpUu0b9+eAQMG4OjoCEBycjIajQYfH59KjzEzM5PY2FgmTZqkLFu0aBEBAQEcOXKEq1ev8vnnn2NhYYGfnx/h4afo3z/wns5/bGwsR48eZeDAgXh4eBi0z/bt27GysiItLY2wsDCmTZtm8L6Acn7HjRvH5s2buXXrFkOGDKZz5y5s3LiRP//8E09PT1588UUaN24MgEajYfv27URFRWFjY0OfPn3w9/dX0gwNDSUkJITMzEw8PDwYO3ascr4zMjL47rvvuHTpEtbW1gQFBSn7fvvtt3h6etKrVy8lrcWLFxMcHEyLFi2qPNaIiAh+/fVXkpOTad26NcOHD1fKumjRIgIDAzl69CiXLl2iQ4cOPPPMM2zbto0//viDJk2aMGbMGFq0aKHkWVN6VdWnqur3g6BWqzEzM8PMzEyvpXNERARhYWF06NCB3bt3Y2ZmRt++fendu7eyTUJCAnv37iUuLg5vb28GDx6Mj48PMTExSovDefPm0aFDB0aNGqXkUzbfqlRXF2q6N7VaLTt27ODUqVMYGxvz9NNPV3sO7vdeWLJkCVeuXMHIyIjY2Fj+7//+j1u3bnHs2DHl/q/uWVVebcv/V1CpVJiamirXrOy1+vLLLxk0aBC+vr7KucvJyeHEiRN4eHgQGBiIr69vrfI7ePAgBw4cwMLCgl69ejFgwABlXXx8PFu2bCEhIQEHBweGDBmi/CHLkHr6559/sm/fPuLj42ndujVdunRR1v3444/Y29srwZfffvuNqKgopkyZApQ8dz7//HPmzJlDTEyM3jW9ffs227ZtIzo6GkdHR5555hkl3arugVL79u3jt99+w8LCgiFDhtCtWzeAWt0j1Z0XQ65LaGgohw8fJjMzk969e2NkVPXfsUvPs5+fH/v27SMwMJD+/fvrbRMXF8e2bdtITk7GxcWFf/7zn3h6egLV1//Kvqv9/f05cuSIch2gpHvyd999xzvvvMP58+f1rkXpd0t0dDSmpqZ07dqV4OBg5ZiqelbVJCkpiTVr1jBv3jxlWWRkJCdPnuT//u//lLKPHz+eH3/8kczMTHr27En//v2xtLQkOzubRYsWMXv2bA4dOlRvz3kzM1NMTU0B/XqVlJTE5cuXmTp1KiEhITg6OuLr60tISAgFBQXKdrdu3cLOzk5Jr7CwkC1bthAREYGRkRFdu3Zl2LBhyvOsuvNd2fN269atDBgwgDZt2ih5fPXVV7Ro0YJevXrpPXOgpD4eOnSI69ev4+npyahRo3B1dQVq96wtz9B3iaruq9J32D59+vDxxx9z9+5dNmzYgK2tLTNnzgTAzq4pp06F6+Vb1fdwXbwfCiGEEOJ/kwRIH2ImJib07t2brVu3sn37dgYNGkTXrl2rfCFt2LAhL7/8Mp999hlDhgxRXpzv3LlT6Q9Cf39/CgoKiIyMZMKECTRp0gSAkJAQQkNDGTNmDCYmJvz444/odDpGjBiBVqslNTWVPXv2EBwcrARPbt68SWpqqvIyXfrDMCIigvHjx2NtbQ2UjCe4ZcsWRowYQUBAAPv27WPnzp288sorQMlLfmJiIh9//HGlx3jhwgWcnJwwMflv1S9Nc9CgQQwdOlRZ7u7uTnT0uSpfgNeuXUtmZmal68aPH4+7uzuOjo4sWbIELy8vBg0apBe4q0xWVhbHjh3j8ccfZ/LkyUprWkOVnt+DBw8yduxYkpOT2bhxI7///gdBQUEMfWoom37YxNatW5kwYQI6nY7169ej0+l45ZVXyMjIYOPGjTRs2JA2bdoQFxfHpk2beP7557FrasfhQ4dZtmyZcn5Xr16Nt7c3Y8eO5fr166xduxZnF2c8PTzJysqqMM5reno6BQUFVR7r5cuX+eqrr3jmmWdwcnLi4MGDrFmzhrfeegtjY2PS09PZuXMno0aNYuDAgXz11Vd89NFHdOvWjbfeeosjR46wdu1aFi9eDGBQelXVp6rqd1kxMTHs2bOn0mvRokULhg0bxoEDB4iMjKx0m8DAQDp27FhheatWrbB3sMfKyoru3bsry3Nzc4mJiUGtVjNh4gTiL8fz/fff4+Pjg4uLCzk5OSxfvpxu3boRNCiImPMxfPHFF8yZMwdPT09Gjx7NqlWr9ALk1tbWdO3aFQBfX1/lniyvprpQ0725e/duTp8+zTPPPIO5uTn79u2rdmzh+70XxowZw9atW2nUqBH9+vWjadOmJCYmcuvWLWWb6p5V5dW2/DU9H8zNzVm5cmWl683NzfWCUGX17NkTS0tLXFxc9J7L6enp5OXlASXn7vjx4wQGBjL5tcmcOH6CNWvWsHjx4moDbmVFRUWh0Wh49dVXSUtL49tvv8XKygp/f39yc3NZsmQJgwcPZsyYMcTGxrJq1SoWLFiAra1tjfU0MzOTlStX0r17d4YNH0b85Xg2bdqk5O3g4MC5c+eUAGlERAQXLlzgzp07NGzYkEuXLmFlZYWJiQl5eXnKNdVqtaxZswa1Ws2kSZPIycnh22+/VdKt6h4ozePxxx9n0uRJnDl9hvXr1+Pl5YW9vb3B90hN56Wm63Lu3Dm+/fZbnnnmGdw93Ak9FkpUVBTNmzevMr+YmBh0Oh3jxo3DyclJb71Go+Gzzz5j3LhxtGjRgt9//52lS5fy6aefYmJiUuvvamtra1avXk16eroSmIuIiMDFxQVjY2O9a1FcXMy6devQarVMmDCBO3fusHXrVgCGDh1a7bPKxsam2rpZWFhIamqq3rL8/Hy9elBa9uHDh5OTk8PWrVtp2LAhTzzxBMXFxaSmpqLT6er1Oe/q6kbDho2AkvepBg0aAGBvb4+ZmRnbtm1DpVLh6OiIubk5Tz75pLKvTqerMG7mnj17uHHjBtOmTSMvL4/169djbd2I/v0DazzflT1vPTw8CA8PVwKkGo2GU6dOKeUo+8yJi4tj3bp1jB49mpFPjyTsjzAWLlzIwoULsbS0rNWztjxD3iWqu69K32HVajUvv/wyixYtqvR9rHzL8Kq+h6Hm90MhhBBC/D1JgPQhplKp6NWrFz179iQqKor9+/ezc+dOBgwYQK9evSqMwWlsbIybmxvGxsbY29sr3c+q0qRJE2xsbFCr1cq2Op2OPXv28Prrr9OsWTMAxo0bx8KFC3nqqaeUfUf/YzSeHp7K5zt37qBWq7G0tATAxsYGOzs7vbRLPf7448qPDZVKxbJlyygqKsLExISRI0dy9+7dKsucnZ2t1+KiVEBAP73WTaVlKO1WWZmOHTsqPw7Ka9CgAZaWlgwdOpSBAwdy/Phxvv76axo1alRji14fHx+DfjRUJzg4GDc3N7y8vDh27Bje3t5Kq5h+/fqxe/duAG7cuEFcXByffvoparUaHx8fsrKyOHToEG3atMHNzY0FCxbQsGFDAIYPH8706dO5ffs2jRo14vr164wcORIbGxtsbGz497//XW3rqpqO9cCBA0prYYAXXniB6dOnc+3aNby9vYGS4HmrVq2Akh+VZ8+eZciQIcpxHzlyhNu3b9O4cWOD0quqPlVWv8uzs7OjZ8+ela6ztbUFwNvbW/nhW15VgZay3RbL1wWtVsuzzz6LsbExnh6eREREcPbsWVxcXPj9999xcHBQ9vH08OTKlSuEhYURFBSkBFBcXV2V+79x48YMGzZMObdVqa4ulAaaqjqXRkZGhISEMHnyZFq2bAmAk5MTM2bMqDI/uL97wcnJCSsrKxo1alTp9TP0WQUlwZ7alr+m54OxsXGVdae6VlWlLSKbNWumlLsy7u7uBAUFAeDi7EJoaChXrlwxqIUegJGRES+88AKmpqZ4eXmh0Wg4ePAg/v7+mJiYMH/+fCWQ5e7uztGjR4mPj1fqfXX19NSpUzg6OjJ69GhUKhWeHp6kp6crYymWtgorDQIlJibSo0cPLl68SKdOnbh8+bJyHcq6fv06169fZ9GiRcp3iUqlYsWKFQBYWlpWeg9Ayf1aeh94uHtw9OhRrl69ir29vcH3iCHnpbrrcujQIYKCgpQ8PNw9uHLlSrXXqbi4mIkTJ1ZaZ5KTkzEyMqJjx46o1WoGDx5M9+7dUalU9/xd3bp1a6KioggICADgzJkz/POf/6yQd+l3yyeffIKVlRVQ8s5QOs5jTc+qujB06FC8vLyUcxEZGckTTzyht019PufLthwePXq08n9TU1OmTpvKNxu/4fr16/zyyy9MnjyZtm3bKu8Nly9fpri4WC+ge+3aNfz8/JT83nnnHSXoZ8j5Lv+87dylM0s/W4pWq8XY2Jjz58/j7u5e6R+rDh48SGBgoPLd5eHugaWlJenp6bi5uVVb1wxpRVoTQ5535d9xXVxclHWlf0Ar+31W3fdwTe+HQgghhPh7kgDpI0ClUtG+fXvat2/Pn3/+ybZt29i0aRPr1q2r87xu3bpFXl4eERERyuQlxcXFFBYWcvPmTaXlppOjfkuXnJycKn9clOfs7Kz839XVlfz8fLKzs7Gxsanyh0jZfEp/OJfl5ORcYZmFhQV37typMi1Du+Gp1Wr69etHnz59OH36NKtWrcLR0VGve2BZZV/a71XZHzCWlpY0afLfllINGjRQxt9LSEggLy+Pn376SVkfFxfH5cuXlX3T09M5e/Ys6enpyg+C/Px8jIyM6NGjBytWrKB79+60atWK1q1b1+rHTvljjYiI4NatW3ozTufk5JCQkKAENB0cHPSOrfQHauln+G9LEEPSq64+1cTe3r7Glo01BbJqy9HRUe8ce3h4kJaWBpS0kL5w4QI7duxQ1kdGRtbJD9Dq6kKpqs5lUVERhYWFyjkHaNSoUY33a13cC1Wp6VnVqFEjZdv09PRal9+Q50PZLqN1rbQ1PpQEXJycnLh586bBAVIvLy+l+y+UBE82b96MVqvF1NQUtVrNmTNnSEpKQqPRkJqaqlcXqqunCQkJNGvWTO+PRM2aNVMCpI6OjpiZmZGamkp2djbNmjWjTZs2xMbG0qlTJ/7880/Gjh1bocxJSUm4uLjoPeMfe+wxg463bF1TqVR4eHjUeoZuQ85Lddflxo0b9OvXT68czZo1q/Z7yMnJqcr7283NDXt7e95//326d+9O27ZtlYBhaeu/2n5Xd+3alWPHjhEQEEBKSgo5OTn4+flVyDsxMRFXV1clOAoldao0/7/yWVWq7P3p5ubG8ePH7ymd+njOe3p4MmfOHNauXUtKSgrff/89p0+fZvz48YSGhrJr1y6lJXqp7t2785///Ifk5GTatGlD+/btlT9oGXK+yz9vPT08adCgAfHx8TRr1oyoqCilJXV5V69epU+fPspnlUpFcHAwUHNdq+l7wBD3+7xzcXHh6adHMmfOHCZPnlxjb5+a3g+FEEII8fckAdJHSHp6OmfOnCElJUVvjMm6VNpiysrKSq8r55AhQzAzM9ObObgsY2PjCt3FqlI23dpOBmFsbFxlGcorLi7W64p/v65evUp4eDhWVlZ6PyT+atXNKFx6vSwsLJRlvr6+tG/fHp1OR3R0NOvWraNVq1a4u7vj7Kz/Y/m5556jS5cunDlzhg0bNqBWq5k+fbpBwcWqNG7cWK88Q4YM0Qu8VaeyY60pvfupT/WhfBfpsmXOz8/HxMTkns9fdc6ePVttXShftrLlKigoQKVSVbifatPauK7V9Kwq63+x/DWprp4YonwPg9Lnd1FREZmZmSxcuBB7e3uaN2+u90cKQ/IvKCjQC74CFT63atWK+Ph4bt26RcuWLWnRogU7d+4kNzeXmzdvKuNolpWfn19julUpH5i7l2dBenr6fZ2Xysp/P3XMzMyMWbNmcfr0aaKjo/nkk0/w9fVl0qRJ9/xd3bZtWzZu3IhGo+Hs2bN07ty50qBmQUFBtd+fdf2squzZX/a4DB1a4n+BVqtFp9NhYmKCu7s7Xbt2xdvbm5kzZzJy5EhsbW2xtLQkNjZWL2DZo0cP3N3dCQsLY//+/Xz77bdMmjSJVq1a3fP57tatG1FRUXh5eXH27Nkqx14uLCys8nrX5ll7r+73eafVaomOPoeTk5MSVK5OXb8fCiGEEOJ/g3y7PwJKu2iVjuk2f/58vdZR96vsD6nSVkMdO3astFVAenp6pWlYWVlVGGPqr9CwoRUJCQkGbavRaKp9UV65cmWVYwxOnDgRe3t7dDodZ8+eZf/+/WRlZTFo0CAmTpxo8I/2v5qbmxvW1tYMHDiw0h8Uhw8fJiAgQOlempGRwebNPyrrVSoVLVu2pGXLlowePZpPPvmEEydOEBwcjFqt1rvexcXFZGdnV1ue0uDs448/XifHVxfpVRdQP3/+PDt37qx0nZ+fHyNGjOCnn34iIiKi0m0GDhxYpxOC+Pn50bhx4xq7qBr6R4KyaqoL1XF0dESlUpGcnKx0Yy0qKiIpKanW5agrNT2ryj6P7qX8NT0fzM3NWb58eaXrzc3NmTZtWm0Op85du3ZN73NiYqIy7Mlvv/2Gra0t06dPV9YfPHjQ4LRdXFy4ceOG3rLyz2U/Pz/i4uJITk5m/PjxNGzYEHNzc86cOUPz5s0rDcq5uLiwe/dupUtwZemWupd7oCanT5++r/Pi5uZGQkKCXuu169evG9y7ojJmZmb06NGDHj16kJGRwezZs4mPj8fb2/uevqvNzc1p164d0dHRREREKM+Dyo5lx44dyvA3UDLETVJSEr6+vgY/qyqjVqvRarVkZWUp45PX9N1Sk/+l53xUVBTbt2/ngw8+UJaVtoouKCjAz8+PN954gxkzZvDUU08p5wBK7oHhw4czbNgwfvjhB/bv30+rVq3u+Xx36dKF5cuX07JlS9zd3fXG7S3Lw8ODhIQbesMGXLp0CVtb2xqftTW5l3eJmpS/3vHx8cTHx7N06VKDWjHX9H4ohBBCiL8nCZA+xLRaLcuWLSMpKYmBAwcwduxYvdYDdcHBwYGkpCTS09OxtbXFxMSELl26sGnTJsaPH4+VlRWhoaHs3buXjz76qMp0GjduTGFhIZmZmZVOkmCosLAwMjIyqvwR0KSJTbUTq5SVkpJSaQugUj169KhyjEErKytSUlJYsWIFarWaQYMG0aFDh1q3YtFoNMoEUrWdpMYQ7u7umJubs3PnTgYPHgzA5s2b0Wg0vPLKKzRo0IDExEQKCgrQ6XTs2rVL2ffOnTvMnTuXF154gTZt2lBUVERBQYEyxqurqytHjhwhOTkZBwcHDhw4UGEShPK6devGrl278Pb2xtnZmatXr7J8+XKmTJlSqxnM6yq98vW7fBDZwcFBr0tsWaWtaFu0aFFlnS7bLbAutGvXjp9//pmIiAjatm1LdnY2q1evpmvXrgQEBGBjY4OpqSnnz5+nU6dOtWplU11dqImJiQkdOnRg06ZNvPTSS5iZmbFjx45aB6l27NjBY489pjer8r2qzbPqXspf0/PBxMSkyrpTl92M71VaWhq//PIL/fr1IzMzk23btimt1SwtLbl16xbZ2dk0aNCAI0eOkJGRYXDabdu25aeffiI8PJwOHTpwI+EGISEhetu0aNGCrVu3olaradq0KVDSqnTPnj0VkL4jbAAAIABJREFUZmov5eHhgYWFBTt27ODJJ58kNzeX7du3621zP/dATe73vHTu3Jndu3fTokULnJyc+OOPP7h48SIdOnQwOI2y90h0dDQ//PADU6dOxc7OjtzcXHQ6HXZ2dvf8XQ0lQbMDBw5w69atKieQKv3j25YtWxg+fDgFBQV89dVX2Nra4uvrW+OzqjpNmzbF1NSUo0ePEhQURFZWFkePHtXrbl4b/2vP+VatWrFlyxbWrVtHRkYGDg4OyuzspfdCkyZNMDc3R6PRKAHS0hbCQ4YMQaVSkZeXp3wf3+v5dnJyQq1Ws3fvXnr06FHldt27d2fTpk00a9YcV1dXoqOjWbVqFR9//HGNda2mPxjfy7tEdZycnIiNjaVly5ZK8P7u3bvVDldRXk3vh0IIIYT4e5IA6UOuW7dudO3a9S/rCtSsWTNat27N+++/zz/+8Q8ef/xxnn32WTZs2MDs2bMpLCzEwcGBV155pdqXYGtra9zc3Lh27dp9BUhjY2NJTk6uMkDaokUL0tPT0Wg0lY5FWta1a9do3759letr+tGanZ3NM888U+n4bIbKzs4mPDyczp07/yUBUrVazeuvv87XX39NSEgIWq2Wli1b8sILLwAlkx6tWrWKKVOmYG5uzpgxYzhx4gQADRs2ZNSoUaxfvx4oaZHRs2dPpaVM3759iYmJYe7cuZiZmTFkyJAau9736tWL27dvs3TpUnJycjA3N+fpp5++p+BoXaRXWf0uy87OrtJJv8ry8fExeBy0++Xq6srEiRPZvn07a9euBUquQ+lkE6XB+h9++EGZtdlQ1dUFQ4wbN44vv/ySmTNnYmRkRHBwsDIeoSF0Oh3h4eGoVKo6CZAC1T6rSsfpvdfyGxLUqi7gUN+6d+9OWlra/7d35/FRVQf/x78zw2SGSQghCZBgIIEgWwtCEQlSZRdQAVEqtVXkoX2wrRtKcaMWF9RqC1r3WvcNfyoogghG5QEUEJBVQJBASBCyEcIkTBYyM78/rgwM2SEwCffzfr14kZl77r1nJnPuvfnOuefo1ltvlc1mU+/evQOzV/fp00ebN2/WtGnTZLfbNXTo0KDxWWuSmJioG2+8UR988IFefvllxcfHa+zYsZo7d26gTFRUlJxOZ9Dxs1u3blq0aFFQL7UTOZ1O/fnPf9Ybb7yhL774Qi6XSxMnTtTOnTsDZU6nDdTkdN+XQYMGKS8vT0888YTKysrUs2dPDRs2rMrenCc7uY1069ZNPXv21IwZMwLh4YQJEwLH4VM5V0vGRE2vvPKKBgwYUGXAHBYWpttvv12vvvqqpk6dKq/Xqx49egRu0a7pWFUdm82miRMn6p133tGiRYvUsmVLpaSkVDmLfE0a2nHe4XDo/vvv1+LFi7V27VqlpaVp1KhRNfb+vHb8tXrtVeNcbrValZycrAkTJkg6vfc7JSVF8+bN01/+8pcqy/Tr10+HDx/Wc889J7fbrYiICE2ePDkQIp7qZ+1YPet6LVGdyy67THPnztW3336rWbNmBZ6vy5clNV0fAgCAxsnir26AQpxxO3furLIHxqlIS0vTq6++WmMPkPrm9XpltVqDLjC9Xq9KS0trDCKPWbRokXJycjRx4sTTqovf76/2Qnf27NmBWw6r4vF4dNddd2nmzJlV3lJ2thx7PdnZ2crKyqqyXFRU1CkHiZIxJpzFYql0TDCPxyOHw1Fl74pjk2xV9r6XlJTIZrPVeViB6rZ5Kk5ne5V9vhu66n5nfr9fPp/vlHoq1vRZqElpaalsNtspfWlzrC0cOXJEu3btqrKc3W6vdJbzqtTlWHU69W8Idu/eXe3kIgkJCUE9o6p7vdUdM2qrNl9Wnep2mzZtWmWbPZ02UJPTfV+8Xq/KyspO6Y6Pys5/Pp9PHo8naMKkk/dXl3N1XdXUZk4+pmzatKna7XXp0kUOh0N+v19Hjhyp8nXVVUM8zi9ZskStW7euNIx7+OGHNWbMGPXo0SPo+eLiYtnt9lq/3/WtujZ98metLtc1p3otUZUTh+JITU3V3r17a/WFSUO6PgQA4FxV3zlZbTXOv/DQ4FR2oW2z2er0B9fgwYM1c+ZMFRYWntbYTjX9cXP1NVfrvTnvKSUlpcqyq1at0sCBAxvExe+xOqalpWn58uVVluvatetpBaQnT8pyopp+j9X9gXqqtz3W1x+99bG9hnDLc11V9zuzWCyn/JpON0Sp7nNWk2NtIT8/X5999lmV5VwuV50C0rocq06n/g3BmjVrlJ6eXuXyESNGBAWk1b3e+ngvzlQoV9N2T6cN1OR03xebzXbKw+FUdk6zWq3VHv/qeq6uq5rej5P3XV3blowQ3+FwyGKx1Ot5oiEe54cPH17lsr59+2rOnDnKzc0Nuk2+ps/Omfxd17T9kz9rdbmuOdVrierqIklz587V119/Xesv5xvS9SEAAKhf9CANsfpOxgsKCrRt27YzNkv9mbZr1y7Z7fbTCvpqY82aNerSpUuVk1WtXLlSvXr1qvcxWwEAAOpDVlaWDhw4UKdxahFs1apVgUmsaoPrQwAAzrxQ9SAlIA2xUP3iAQAAAAAAgIYkVDlZ3abUBgAAAAAAAIBzCAEpAAAAAAAAANMiIAUAAAAAAABgWgSkAAAAAAAAAEyLgBQAAAAAAACAaRGQAgAAAAAAADAtAlIAAAAAAAAApkVACgAAAAAAAMC0CEgBAAAAAAAAmBYBKQAAAAAAAADTIiAFAAAAAAAAYFoEpAAAAAAAAABMi4AUAAAAAAAAgGkRkAIAAAAAAAAwLQJSAAAAAAAAAKZFQAoAAAAAAADAtAhIAQAAAAAAAJgWASkAAAAAAAAA0yIgBQAAAAAAAGBaBKQAAAAAAAAATIuAFAAAAAAAAIBpEZACAAAAAAAAMC0CUgAAAAAAAACmRUAKAAAAAAAAwLQISAEAAAAAAACYFgEpAAAAAAAAANMiIAUAAAAAAABgWgSkAAAAAAAAAEyLgBQAAAAAAACAaRGQAgAAAAAAADAtAlIAAAAAAAAApkVACgAAAAAAAMC0CEgBAAAAAAAAmBYBKQAAAAAAAADTIiAFAAAAAAAAYFoEpAAAAAAAAABMi4AUAAAAAAAAgGkRkAIAAAAAAAAwLQJSAAAAAAAAAKZFQAoAAAAAAADAtAhIAQAAAAAAAJgWASkAAAAAAAAA0yIgBQAAAAAAAGBaBKQAAAAAAAAATIuAFAAAAAAAAIBpEZACAAAAAAAAMC0CUgAAAAAAAACmRUAKAAAAAAAAwLQISAEAAAAAAACYFgEpAAAAAAAAANMiIAUAAAAAAABgWgSkAAAAAAAAAEyLgBQAAAAAAACAaRGQAgAAAAAAADAtAlIAAAAAAAAApkVACgAAAAAAAMC0CEgBAAAAAAAAmBYBKQAAAAAAAADTIiAFAAAAAAAAYFoEpAAAAAAAAABMi4AUAAAAAAAAgGkRkAIAAAAAAAAwLQJSAAAAAAAAAKZFQAoAAAAAAADAtAhIAQAAAAAAAJgWASkAAAAAAAAA0yIgBQAAAAAAAGBaBKQAAAAAAAAATIuAFAAAAAAAAIBpEZACAAAAAAAAMC0CUgAAAAAAAACmRUAKAAAAAAAAwLQISAEAAAAAAACYFgEpAAAAAAAAANMiIAUAAAAAAABgWgSkAAAAAAAAAEyLgBQAAAAAAACAaRGQAgAAAAAAADAtAlIAAAAAAAAApkVACgAAAAAAAMC0CEgBAAAAAAAAmBYBKQAAAAAAAADTIiAFAAAAAAAAYFoEpAAAAAAAAABMi4AUAAAAAAAAgGkRkAIAAAAAAAAwLQJSAAAAAAAAAKZFQAoAAAAAAADAtAhIAQAAAAAAAJgWASkAAAAAAAAA0yIgBQAAAAAAAGBaBKQAAAAAAAAATIuAFAAAAAAAAIBpEZACAAAAAAAAMC0CUgAAAAAAAACmRUAKAAAAAAAAwLQISAEAAAAAAACYFgEpAAAAAAAAANMiIAUAAAAAAABgWgSkAAAAAAAAAEyLgBQAAAAAAACAaRGQAgAAAAAAADAtAlIAAAAAAAAAIXPnnXeGdP8EpAAAAAAAAABC4s4779Ts2bNDWgcCUgAAAAAAAABnXUMIRyUCUgAAAAAAAABnWUMJRyUCUgAAAAAAAABn0cnhKGOQmpzVapXP5wt1NQAAAAAAAIAzrrJwdPbs2fL5fLJaQxNVEpCGmMvlktvtDnU1AAAAAAAAgDOqqnBUktxut1wuV0jqZfH7/f6Q7BmSpJKSEu3bt0+xsbGKjIwMWVIOAAAAAAAAnG0+n09ut1t5eXlKSEiQ0+k863UgIG0ASkpKlJ+fL4/Hw+32AAAAAAAAMA2r1SqXy6Xo6OiQhKMSASkAAAAAAAAAE+N+bgAAAAAAAACmRUAKAAAAAAAAwLQISAEAAAAAAACYFgEpAAAAAAAAANMiIAUAAAAAAABgWgSkAAAAAAAAAEyLgBQAAAAAAACAaRGQAgAAAAAAADAtAlIAAAAAAAAApkVACgAAAAAAAMC0CEgBAAAAAAAAmBYBKQAAAAAAAADTIiAFAAAAAAAAYFoEpAAAAAAAAABMi4AUAAAAAAAAgGkRkAIAAAAAAAAwLQJSAAAAAAAAAKZFQAoAAAAAAADAtAhIAQAAAAAAAJgWASkAAAAAAAAA0yIgBQAAAAAAAGBaBKQAAAAAAAAATIuAFAAAAAAAAIBpEZACAAAAAAAAMC0CUgAAAAAAAACmRUAKAAAAAAAAwLQISAEAAAAAAACYFgEpAAAAAAAAANMiIAUAAAAAAABgWgSkAAAAAAAAAEyLgBQAAAAAAACAaTUJdQUglZSUKD8/Xx6PRz6fL9TVAU6Z1WqVy+VSdHS0nE5nqKsTMrRpAI0Nx28Dx2+cK2jTdUf7B4DQaQjnLYvf7/eHZM+QZJyI9+3bp9jYWEVGRspqpVMvGi+fzye32628vDwlJCSY8oKcNg2gMeL4zfEb5xbadN3Q/gEgtBrCeYuANMT2798vl8ulqKioUFcFqDcFBQXyeDxq06ZNqKty1tGmATRmHL85fuPcYuY2XRe0fwBoGEJ53uKrsRDzeDyKjIwMdTWAehUZGSmPxxPqaoQEbRpAY8bxm+M3zi1mbtN1QfsHgIYhlOctAtIQ8/l83MKBc47VajXt2E20aQCNGcdvjt84t5i5TdcF7R8AGoZQnrc4CwAAAAAAAAAwLQJSAAAAAAAAAKZFQAoAAAAAAADAtAhIAQAAAAAAAJhWk1BXAHWzc+dOTZ8+XR988EGFZTNmzNAFF1ygq6++usIyr9er3NzcWu/H6XQqKirqtOoKAAAAAAAANHSmDEh37NihDh06yG63Bz2/bt06denSRREREXXaXklJiZxOZ31WsYL58+dLknbv3q0lS5YEHqekpGjDhg3yer1aunSpcnNz5XA4JEm9e/dWXFycJCk9PV0dO3as9f5uuOEGvfnmm/X8KgBUJisrSz6fT23atAl1VQAAAFAHfr9f5eXlFf62PJHX65XVapXFYqmyTHl5uZo0qf7Pc6/XK5vNdlr7AQBUrlEGpCtXrtSkSZNqXX7YsGF65plnAo/79OmjzVs2KykxKajc+PHj9eGHH6pXr151qs+ZDkcl6Z133pEkbdq0SSUlJYHHSUlJevvtt5Wenq5vvvlGK1asUGZmppo2baqWLVsGAlJJslqt8nq9Qdu12WzasGGDevToEXjuySef1IYNG874awJgWL58ucrKynT99def1nZKS0u1Z88ederUSVYrI6gAAACcKT6fT/PmzdPKlSvl8XiUnJysSZMmKSYmJlDmyJEjmjt3rr777js5nU6lpKRo9OjRQSFnRkaGFixYoC1btighIUFDhgxRv379Asv9fr8+/fRTrVy5UoWFhfrVr36lsWPHBt3tV5v9AACq1ygDUo/Ho4iIiFr1cExNTdWyZcvOQq3OrPfff1+7du3SsGHD5PP5FBcXp0ceeUTNmjXTG2+8oWuuuUaXXHKJ4uPjFRcXp3//+9+hrjKAsyw/P1+zZs3Ss88+G+hJDuDctW/fPkVHR8vlclW63OPxKD8/XwkJCWe5ZgBOBW26cfn444+VnZ2t++67Ty6XS0uWLNGsWbP08MMPy2azqby8XM8++6yio6M1Y8YMeTwevfXWWyosLNSECRMkSXl5eXrqqad02WWXaeLEidq7d69eeuklWa1W9e3bV5I0b948bdmyRZNvmqyo5lH65JNP9PTTT+vuu++Ww+Go1X4AADVrtF2MIiIi1KVLF8XHx1f5LykpSW3btj2t/WRlZdVYZuXKlUGP09PTtWnTptPa78k2btyosWPH6rHHHlPLli116aWXql+/fiouLtaUKVM0YMAAJSQkaODAgSouLtb9999fobeoJH399ddB/yRp/fr1Qc+lpaXVa90B1M3u3bv1+OOP69Zbb9XMmTODenQfPXpU7777rqZNm6a7775bc+fOldfr1bZt2wJfjDz44IOVjlMM4Nxis9mUkZFR5fKMjAx6D51hL730kr766iuVlpaGuio4B9CmG5e4uDiNHz9esbGxcrlcGjRokHJzc1VQUCDJ+Jtw//79uvHGGxUdHa2EhARNmjRJK1asUHFxsSRpzZo1at++vUaMGKHw8HB169ZN48aNU2pqqiTjlvnU1FRNnDhRSYlJioqK0u9//3sdOXJEO3bsqPV+AAA1a5Q9SI/Jzs7WL3/5yyqX//Wvf1Xnzp3rvN2jR4/q888/16OPPqry8nKtXLmy2ouR1q1bBz1+6qmntGvXLi1cuLDO+65MXl6eBg8erA8//FAtWrSQJI0bN059+vTRc889p8zMTD311FO64YYbJElPP/20Ro0apVdeeUWTJ08ObMfn8+nuu+8O2rbP59OTTz4ZNO5qRkaGBg0aVC91B1A3xcXFmj17ti6//HJdd911+uGHH/TCCy/oscceU0xMjBYsWKDMzExNnTpVJSUlevXVV9W8eaQuvri/rr32Wr3wwgv6wx/+wCRrgAnEx8ersLBQGRkZateuXdCyjIwMWa1WxcfHh6h25jBgwAAtXLhQCxYs0NChQzVw4ECFh4cHlhcWFur555+vdF2n06nbb7/9bFUVjQBtunG5+OKLgx7/8MMPio6ODvy9lpOTo9atWyssLCxQplWrVrLZbMrJyVFiYqKys7N13nnnBW2nTZs2ysrKkt/v16FDh+T1eoN+7zabTW3atFFOTk6t9wMAqFmjDkjj4+N18ODBasvMmzev0ufbJ7UPeuz3+yUZPa9WrFihiy66SPfdd59GjBhR4ze1ycnJQY+nTJkit9tdU/VrLTY2Vtu2bVNcXJyysrI0ffp0SVJiYqImTJigP/3pT7LZbLrmmmvUtm1bOZ1OzZs3r8LYqFarVd98803QczabTW+99RZjkAINRJMmTfTQQw8pOjpaktSuXTstX75cu3fvVkxMjPbu3auuXbsGxhe+9957VV5eLpfLFbh4TkhI4BZ7wCSSkpK0ZcsWRUZGBr4YKSgoUG5urrp37x7i2p37OnfurM6dOyt9b7o+X/K57rnnHg0YMEBDhgxRixYtFBYWpv79+1e6Lj0BURnadONUUFCgDz74QOPHjw+MA5+TkxMIS4+xWCxq0aKF8vLylJiYWGmAGRUVpdLSUhUWFio3N1dOp7PCdV2LFi2CAtKa9gMAqFmjDkglY6yeBQsWVHg+MTFRl19+eZXrbd++vcI3s5LUt29fvfTSS2rVqtUp1ykpKemU161KXFycbrvtNn366aeSjBCzOjt37uTCG2iE7Ha7HA6H1q9fr/3798vj8Sg7Oztw+2ZKSopef/11HThwQN27d1fPnj3VrFmzENcaQKiEhYUpOTlZe/bsCUwyuWfPHiUnJwf1JsKZlZSYpMmTJys3N1efffaZ7rrrLv3zn/9UVFSUfv3rX4e6emhEaNONz9GjR/XCCy+oV69euuiiiwLPu1wulZSUVChfUlKipk2bBsqcPETHscdOp1NNmzbV0aNH5ff7g2amLy0tDVz/1WY/AICaNfqAdNeuXXriiSeCbiXfvn27UlNTqw1InU2dlQ6APmLEiNMKR8+kv/3tb7pz6p21KntyOFpeXi5Jeu211yqU/eijj/Tdd98FHq9evZreZ0CI5OXl6fHHH1erVq3UqVOnoJlQJalfv35q166d1qxZo8WLF+vtt9/WzTffrF/84hchqjGAUIuKilJsbKx+/PFHScadJwyzcfYVFxdr48aN2rJli5KSkriWwimjTTcefr9fb775pux2u377298GLWvVqpWWL18e9FxZWZmKiooUGxsbKJOfnx9U5tChQ4qKilJYWJhiY2Pl9Xp1+PDhoM/AwYMHA9d+tdkPAKBmjT4glYxb3O+9997A408//VSvvPJKCGtUv3w+nx588ME6r/eb3/wmMEZrZmamHA6H1q1bF1TG7/dr27ZtgVs0JGOMo/PPP//0Kg3glHz33XeKiYnRtGnTAs998cUXQWXOO+88jR07VldddZXmzJmjxYsXBwWkPp/vrNUXQMPQtm1bbd++PfAzzp6CggItXbpUy5Yt0wUXXKApU6YExhR0u9165plnKl3P6XRq6tSpZ7OqaERo043DZ599pr179+qee+5RkybBf1q3bt1aubm5OnjwYOAL7x07dshutwcex8XFKTU1VT6fL3Br/g8//BA4hkRERCgiIkI7d+4M9E4tLCxUZmZmYB6M2uwHAFCzcyIgPZO8Xm+db1VfsmSJDhw4oIkTJ9ZLHSwWS5XfGr/++utKTEysdFIlu90e+HnPnj0aPHiwnnvuuaAyL774oqZPn84YpEAD4XK5dPDgQbndboWHh2vZsmVBPQueeOIJdenSRVdccYUsFotKSkoCvQOio6Nlt9u1detW9e7dO+hWLADnvvbt29dcCPXq448/1ldffaX+/fvr73//e2D86GOcTqcGDx5c6boMhYSa0KYbtg0bNuijjz7SPffco7KyMpWVlUmSwsPDZbfbFR8frwsvvFBz587VDTfcoNLSUs2fP1+jR48OtP9+/fpp8eLF+vLLLzV48GDt27dPX331le64447AfsaOHatPPvlEHTt2VEREhObNm6dOnToF5sGozX4AADU7JwLSbdu2BX0Dn5aWFvgG7nSNHTtWM2bMUO/evWu9zpo1a7R79+56DUiPnSRXrVqlrKwsjR07VpK0du1a9enTR3fccYd27dql1atX6/rrr6+wjY0bNyolJaVe6gPgzOnTp482b96sadOmyW63a+jQoerQoUNg+bXjr9Vrr76m1NRUWa1WJScna8KECZIkh8OhkSNHas6cOdq4caP++Mc/huplAAiBkydnxJnXpk0bPfroo4qIiKh0eVhYmPr163eWa4VzBW26Yfvwww8lSf/4xz+Cnr/pppt04YUXSpLGjx+v//73v7rrrrvk9/vVs2dPDRs2LFA2LCxMkyZN0ltvvaWFCxfKarVq9OjRQZMAX3LJJUpPT9ff//53WSwWJSQk6H//93+D9lnTfgAANWv0AWm3bt307LPPBj3Xv3//wAzPtbF9+/YqJ1basWNHnSdAuf/++8/ILa5Lly7VlVdeGTgZn8zn82nWrFl6//339cYbbwRmM8zJydHLL7+sL7/8slb7cbvd9RYwA6jZtddeG/jZ6XTq5ptvVmlpqSwWS4UJGZISk/Tggw+quLhYdru9wu1co0aN0pVXXslt9gBwFpw4IQsAc3nkkUdqLBMZGampU6fq8OHDCgsLq3TSpPPPP18PPfSQ8vLy1KJFiwq9Pi0WiyZMmKDx48eruLi40jsLa7MfAED1Gn1A2qpVK1199dVVLi8tLQ0K+4qKilRaWqoli5doy5Ytmj9/viRj/JjY2FitXbtWkZGRkoyeqfv27VNiYmKd61WfAaPf79eMGTP0r3/9S++9955GjhyprKwsFRUVKTs7O/DtcqdOnbRq1Srdcsstuvjii/X555+rbdu2evHFFzVw4MBqZ1EtKyvTrbfeKkmaM2eOpk+fXm/1B1B3NU3uUd2Fr8Vi4ZYqAACABqJ58+Y1lqlpQiWHw1Hj9WFt9gMAqFyjD0ircsstt2jDhg1KS0vT3XffHXg+JydHDodDy5Yt07BhwzRlyhR17NhRknTffffpgQce0MyZMyVJzZo109NPPx3yWUgtFovatm2rTZs2BSZP+uabb/TEE08oMTFRo0aNCpR1Op166aWXgm73uu6663TVVVdVuu2lS5eqQ4cOCgsL06WXXiq3263hw4cHbRMAAAAAAAA4V1n8fr8/1JWoq4MHD2rPnj2BsV0qs3v3bmVnZysqKkpdu3YNWnYqEy+dKTt37lSnTp1CXQ2g3pn1s23W1w3g3GHW45hZXzfOfXy2a8Z7BAANR6iOyY2yB2lMTIxiYmKqLdOhQ4egiU1O1FDCUQAAAAAAAAChxUw8AAAAAAAAAEyLgBQAAAAAAACAaRGQhpjVapXP5wt1NYB65fP5ZLWa8/BCmwbQmHH85viNc4uZ23Rd0P4BoGEI5XmLs2WIuVwuud3uUFcDqFdut1sulyvU1QgJ2jSAxozjN8dvnFvM3KbrgvYPAA1DKM9bBKQhFh0drby8PBUUFPCtJRo9n8+ngoIC5eXlKTo6OtTVCQnaNIDGiOM3x2+cW2jTdUP7B4DQagjnLYvf7/eHZM8IKCkpUX5+vjweDydkNGpWq1Uul0vR0dFyOp2hrk7I0KYBNDYcvw0cv3GuoE3XHe0fAEKnIZy3CEgBAAAAAAAAmBa32AMAAAAAAAAwLQJSAAAAAAAAAKZFQAoAAAAAAADAtAhIAQAAAAAAAJgWASkAAAAAAAAA0yIgbSDKysqCHh8+fFhFRUVBz+3atUs+n69e9rcjT9qaXfmyrEJpw/6at+GX9Mp3ktd/fJv1qaRc8vmlzMPSup+M5wpLjf/3u48/BwAAAAAAAJyqJqGuAIwwdOHChRo5cqSio6MlSQcPHtRXarPtAAAJoUlEQVTWrVs1atQoSdLevXu1ZcsWdezYMWjdgoICLV68uNrtjxs3Tk2aBP+q7/1S6hwjXZQvNQuThiYfX/Z9jpS6W+rVpuK23two5RyR/tpfOuCWXtgg/aG3dKRM+muqdF036XcXVFxvS5b0Pwurfx/+1l+6quvxx0+vlnq0kmxWaUWG1KKp9PAy6fWx0tI90o6D0oXnVb9NAAAAAAAAoDoEpA1A8+bNddlllyk1NVVDhgxRbGysOnTooLS0NP30008677zztGHDBqWkpFRYt7y8XFarVSNHjqx023PmzKnw3LxtUhOr9ItY6Yvdkt1mBKRev+T3SV6f8XO51yjfxHZ83YU/Snf8XI2tOVKfOOPn8DDp/42Tbv9McpdJf+oTvM9ftJZWTKxYv80HpNc2Sr3ipCEdgpf94VfSi+uki34Oaj/fJd136c/7zjV6sH6993j5ixKkMJsAAAAAAACAWrM98MADD4S6EpDCw8PVoUMHRUREKCMzQxs3bpTVatWBAwe0bt06hYeH6/Dhw0pPT1dCQoKsVmN0BI/Ho4yMDPXs2VMOh0MrVixX06ZN1bp1azkcDq1fv169evUKlN+wX5r4qfTbLlKYXZrzgzS0nRE2vrtZenmDlJYv7ciX0g9J076SbvqVUcecI9L9y6XuLaXvs6W5OySbpMMl0uYsaXuulBAp7XNLBwql7q2N9T7aLskvlZZL0S4jxDzglqYskZo7pDv6GYFtSbn0TYbUpaVU6pWeWi0VlkmvbTG2GRdhhLLdW0kvfif9uq1U5pX+sVKKbSpdEGeEvQAAAAAAAEBt0YM0xDIzM7Vt2zZJUvv27dWpUyclJSYpKTFJkpSVlaXVq1dX2UP0ZH5/9ct7xEu/biN1jpW+yZRu+5UU5ZQW/Si57NJvukkxTaXP04zemp+kHV/XYpHeuNL4ufiotHyf9J/hkuOkT1G75sZt8ces+UmKsEv7i6Tv10qPD5Nyj0hRYdKNPaV/rJBcTaSuLaVvfzJus3fYpHt+Lf3lU2l8F2n+j1KexwhTPUel9bnS40OMnqmPrZZ+38OoPwAAAAAAAFAXBKQhFhkZqeTkZGVkZOjQoUOSJK/Xq6ysLElSfn6+ysrK9NNPxoxELpdLLVq0qHJ75eXlFcYbPZHNIoXbpfNjpN2HpMTmUmy4tCWn5rq2dEmDf74N/qPt0kWtpZGdavlCZYShDyyVnlkt9W5zfDt7CqQXrpS+PCGMPeiR/rhAGtdFahUuHSqRru4mvbVJah4mtWtmjEMa38y4pT+qae3rAQAAAAAAABxDQBpizZs3V/PmzVVcXCyPxyPJCDnXrVsnyZjdvqioKPA4ISFBvXv3rnJ7brdbzZo1q3G/18yVPOWS3SpZLdJVHWtcJcgbm6QNuVKXFyoue254xfFEj7l/gLR8r/SXJcYM9Vd3lWYPN+pwIleYdFMvaUQnKXWXNKi91DPO+Pe7edJ/L5emLzUmaerYvG51BwAAAAAAAI4hIG2AHA6HxowZI+n4LfbHHlfH7/erqKhIubm5stvtcrlcVZZ9d4yUmia1jzZuqV+8y3h+7japqV3ac1h6bEXl627NljYfNMb9fP9qY2xQyRhD9Ir3pG4tq67jvG3Sv76VbustLU6TnvxWmlgsXfOL4HJNLFJYE+nL3dJtX0j/HCR9tVtyNpFevFyKdBoTQ/1fujQkqca3BgAAAAAAAKgUAWkj53A4lJCQIMkYz7RFixbaunWrIiIi5HK5lJycLIvlpO6ZfmPcULtNcliN0FGShnc0brnfmitlHZHOj5b+1r/iPt/eIt3ay7j1/dHl0n9GG5MsvfKd1P8847b3kx31Sg8vk5ZnSh/9xpjEaWOW9NhQ6X/mS2mHpB6tjpcv80pL0qRNOdL5zaUVGcZkUBmF0qLfGWWu6iRNXyF9cFU9vJEAAAAAAAAwJQLSBqawsFBLly7VwYMHJUk+n0/l5eV67bXXAmX69++vTp2MwT+bNWumvn37SpK+//579ejRQ1u3bg2UHTx4cIV9HCqVRn8gFZcbwaZF0rWdpV7xxr8v0qSjPqlTjFTmC1535V5p8R5pxY1GT9PVP0m3LpL6Jxiz2s8fX/nr+vYnae9had5vpGYOaXm6MZFTM4f0+lXSpPnGRE7HhIdJjw6RRrwrvXiF1CZSuv0zaWrK8TI946TScqlzNT1WAQAAAAAAgOoQkDYgOTk5ys7O1rBhw+TzGclkbm6u1q9fr+HDhwfKORyOCuuuWbNGhYWF6tChQ1BAKhmTPn300UcaN26csU2PtP6PRo/P5BbGJE0f/1CxPjar9MH3Ur+2xuOf3NLkxdLf+kkRYcZzDw2Uhr4rfZwmPTO06smS+p4n3T/QCGQvf1f64ZA0a5CxLCJMmnONcQt9ZuHxdfYcMmasf36t1MolFZUGj236z5VSj1jp6dXSPZdU9a4CAAAAAAAAVSMgbSA8Ho8OHz6s0aNHq2nT4yljYWGhrFarwsPDK12voKBAa9euVVFRkcaMGSOr1SqbzabCwkLFxcUFyhyT6zGCzzBb1XUpLpcy3dK3+6TP0yWvz+hRetNCYzKn3/Ywbnd/c6P0/EZpaDujB+k/Vklztkp/7m3Mdn/ixEs/5ktR+4yfp6YYyxw2aWXG8TLbcoPr0TFGema4dMsS6Ui51DlK2rBf6tVGena1dH6M9PyV0pj3pF4/SsPPr9VbDQAAAAAAAAQQkDYQLpdLY8aMqdUM9JIx0/2SJUuUn5+v7t27a9CgQWrSxPh1JiYmavny5dq0aZMkI2Tt1auXJCOQHH5CL8z9RdL726TuraRpn0v/lyl1jJK6tzTGEr04Xtp4wAhVO0RJDw6Wvt4r/WGR1Lu19OoVx3uYju4qvbdFmrFcevQb6dPfSU1//oSt3i/9VFT9a8p0S0k/z0i/55D050VS2whp9lCpb1vj9v7n1kq946V0t/TPy4zhAf5zhXT9x8bETcfqAgAAAAAAANSGxe/3+0NdCVStuLhYubm5ateuXYVlWVlZatWqlaxWa4VlJSUlOnr0qCQpLCwscFt+uc/o/Rnjktwlks8v7ciTeraRSo4aIeOJUzplFxnjhLrsRk9Sm9VYb3+h1KWKsT+9fmlHrtTt50mX1u4zwtaE5tW/1owCY/Kmvm2NfWUelpJaVCyX7zHq2eSEl53rkZqFHZ9wCgAAAAAAAKgNAlIAAAAAAAAAplWx6yEAAAAAAAAAmAQBKQAAAAAAAADTIiAFAAAAAAAAYFoEpAAAAAAAAABMi4AUAAAAAAAAgGkRkAIAAAAAAAAwrf8PJg67flmxDjwAAAAASUVORK5CYII=;" vertex="1" parent="PVqFNuO40D3JptiVjfTZ-10">
          <mxGeometry width="1352" height="287" as="geometry" />
        </mxCell>
        <mxCell id="PVqFNuO40D3JptiVjfTZ-9" value="" style="shape=image;verticalLabelPosition=bottom;labelBackgroundColor=default;verticalAlign=top;aspect=fixed;imageAspect=0;image=data:image/png,iVBORw0KGgoAAAANSUhEUgAABT8AAAAqCAYAAAB1Ey+1AAAACXBIWXMAAAsTAAALEwEAmpwYAAAFN0lEQVR4nO3dT4iN7R8G8GuOV82cxcQwk7AgJYoikoUFw8IsSESRkcXrTyxYEGGtJqWpWdogsZhkY8HCYrJQFqRkxKQhWWiaplGnEc75Ld6a7e8d75jHOT6fOpun7nNf3+3V/dxPU61WqwUAAAAAoMGUig4AAAAAAPArKD8BAAAAgIak/AQAAAAAGpLyEwAAAABoSMpPAAAAAKAhKT8BAAAAgIb0V9EBGs3ExERGR0dTqVRSrVaLjgMAAAAAM6JUKqVcLqetrS3Nzc1Fx0mSNNVqtVrRIRrFxMREPn78mPnz56e1tTWlkoO1AAAAAPwZqtVqxsfHMzIyksWLF/8WBajycxp9+vQp5XI5c+bMKToKAAAAABRibGwslUolCxcuLDqKOz+nU6VSSWtra9ExAAAAAKAwra2tqVQqRcdIovycVtVq1avuAAAAAPzRSqXSb/MtHE0dAAAAANCQlJ8AAAAAQENSfgIAAAAADUn5CQAAAAA0JOUnAAAAANCQ6qL87O/vz9DQUNExAAAAAIA6Uhfl5/nz5/Ps2bOiYwAAAAAAdaQuyk8AAAAAgKmqu/LzyZMn6erqyuDgYJJkeHg4Bw8ezLJly9LZ2Zn79+8nSZ4+fZqurq5MTExMrr127VrOnj07pf2Gh4fz4sWL6RsAAAAAAJgRdVV+Pn/+PNu3b8+JEyeycuXKjI+PZ8OGDVm1alWePHmSCxcuZN++fXn06FFWr16dx48fZ2BgIElSq9XS09OTFStWTGnP3t7eXLx48VeMAwAAAAD8QnVTfr548SKbN2/O7du3s2PHjiTJ3bt3097ennPnzqWjoyPbtm3LmTNn0tfXl5aWlhw5ciT9/f2T69+/f5/du3dPad/Tp0/n8uXL0z4PAAAAAPBr/VV0gH+rp6cnra2t+fz58+Szt2/fZnBwMM3NzZPPvn//nqVLlyZJuru7s2nTpvT19eXevXvZv39/5s6dO6V9lyxZMi35AQAAAICZVTcnP3t7e3Pr1q2cPHkyHz58SJLMmzcvnZ2d+fr16+Tvx48fGRoaSpKsXbs2y5Yty6NHj3Lz5s0cOnSoyBEAAAAAgBlUN+VnR0dHurq6smvXrhw/fjzVajVbt27NwMBAXr58meSfez1PnTqVS5cuJUmamppy9OjRnDt3Ll+/fs2WLVuKHAEAAAAAmEF1U34m/5SZV69ezcDAQG7cuJE1a9akt7c3GzduzIEDB7Ju3brcv38/fx/5e3LN3r178/r16xw7diyzZs2a8p4PHz7M9evXp3EKAAAAAGAm1MWdnw8ePEh7e3uSZMGCBXn9+nW+ffuWJDl58mT27NmTV69epaWlJevXr8/s2bMn17a0tKSlpSXd3d0/tffTp0/z7t27HD58+D/PAQAAAADMnKZarVYrOsSvMjg4mCtXruTLly+TX33/GdVqNaXS/z8k++bNmyxfvvyn9wEAAACARvC79GR1cfLzZ+3cuTOLFi3KnTt3/tP//JviEwAAAAD4vTR0+fn27duiIwAAAAAABXGkEQAAAABoSMpPAAAAAKAhKT8BAAAAgIak/AQAAAAAGpLycxqVSqVUq9WiYwAAAABAYarVakql36N2/D1SNIhyuZzx8fGiYwAAAABAYcbHx1Mul4uOkUT5Oa3a2toyMjKSsbExJ0ABAAAA+KNUq9WMjY1lZGQkbW1tRcdJkjTVarVa0SEaycTEREZHR1OpVBSgAAAAAPwxSqVSyuVy2tra0tzcXHScJMpPAAAAAKBBee0dAAAAAGhIyk8AAAAAoCH9D/CzWPqvRd8UAAAAAElFTkSuQmCC;" vertex="1" parent="PVqFNuO40D3JptiVjfTZ-10">
          <mxGeometry x="7" y="185" width="1343" height="42" as="geometry" />
        </mxCell>
        <mxCell id="PVqFNuO40D3JptiVjfTZ-11" value="" style="shape=image;verticalLabelPosition=bottom;labelBackgroundColor=default;verticalAlign=top;aspect=fixed;imageAspect=0;image=data:image/png,iVBORw0KGgoAAAANSUhEUgAABUEAAAAsCAYAAABLynmDAAAACXBIWXMAAAsTAAALEwEAmpwYAAAMSUlEQVR4nO3dbUzV5ePH8c+Xw40CHu7/omgjqSSZmfZ3KlvLJ1mW1VxlqWsrU574oFaz2pg9YIG0bmTmyrW5bmaNMSrNpjSUrQfhMmbegBB4h6BiwJGDB7k5N9f/wYHzD0Hkp+dInd/7tZ2N63uu6/pe3+/h0WfXjWWMMQIAAAAAAACAMBUx0QMAAAAAAAAAgFAiBAUAAAAAAAAQ1ghBAQAAAAAAAIQ1QlAAAAAAAAAAYY0QFAAAAAAAAEBYIwQFAAAAAAAAENYIQQEAAAAAAACEtciJHgAkj8ejjo4OOZ1OuVwuDbgHZHxGkmRZVlDvZVmWoqOjFRcXp4SEBKWmpioykn8DAAAAAAAAhC/LGGMmehD/zc63tOhCa6vG8zMEOxAd6jMjI0MzZ84Met8AAAAAAADAPwEh6AS5du2aTp06JZfLJUlKTk5Wckqy7FPsiomJkST19/er+2q3HJ0OORyOQNtQhKHx8fHKyspSbGxs0PsGAAAAAAAAJhIh6AS4du2a6uvr1d/fr9jYWN19991KSEgYs43T6dTZs2d17do1SaEJQmNiYpSdnU0QCgAAAAAAgLBCCHqHGWN04sQJuVwuJSUlKTs7e9yBpjFGDQ0NunLliqTQzQidO3du0PsFAAAAAAAAJgqnw99hLS0tcrlcio2N/Y8CUMkfev59pmYo8muXy6WWlpag9wsAAAAAAABMlDtyLPi6detUVFSk9PR0NTU1qbm5edj3sbGxys3NvWH7bdu2qaSkRHv27BlzlmJnZ6c2btyo0tJSSdKJEyfU1NQ0rE58fLyWLVsWqH/w4MER/cybN0+zZ88OlGtqavT1119r27ZtN3/YMbjdbrW2tsrn8ykzM/OWZnJalqXMzEzV1tYqIiJCxpigzwi9cOGCpk2bxqnxAAAAAAAACAshT7lqamrU3t6u9PR0SdKXX36p6upq3XfffZL8weAvv/yi06dPj9q+qKhIhw8fVnl5uZ577jl9++23euihh0at63a7dfTo0UC5tLRUjY2NmjNnjiT/QUO7d+9WQ0ODJOnMmTPKz8/XqlWrAm1+++03PfPMM5o9e7ZWrVqlsrIy9fX1qa2t7bbegzFG7R3tMsYoKSlJiYmJt9xXYmKikpKS1NXVFZIl8cYYdXR0BH4zAAAAAAAA4N8s5CHo+++/r+LiYl25ckUXL16UJG3YsEFr1qyRJHV3d2v+/Pkj2nk8Hm3evFn19fUqLS3VpEmT9P333+upp57SF198oUceeSRQ1+v1KikpST6fT729vbLb7Vq/fr0mT56s1atX6+GHH9alS5eUmZmp3bt3D7vP/PnzVVhYqJKSEuXl5Wnnzp2B7yoqKkaM69ChQ1qyZEmgfO7cOTmdTs2bN++m78LZ5ZTP+JSSmnrTujeTkpoqxxWHbJYtJLNBnU4nISgAAAAAAADCQkj3BD1w4IBSUlKUk5Oj4uJiVVdXj6vdsWPHtGjRIrW1tQUCUEnKycnR3r17tW7dOr322mvq7u6WJNlsNnV3d+vUqVO699571d3drY8//jjQX11dnb766qsx77ljxw719/ffdGyzZs0aVi4pKVF+fv64nsvlcsnnM0qw28dVfywJdrt8PhOSfUElqaenJyT9AgAAAAAAAHdayGaCer1evfLKK1q4cKGefPJJORwOFRUV6d1331VeXp7efPNNSf6l13FxcYF2W7Zs0datW1VQUKDq6mrl5eWN6Pvpp5+WMUb333+/vvvuOy1evDhUjzHC1KlTh5Vff/31QBh7I8b4w8oB94B8xhcIdW/HpEmT5DM+GUXIUvCXxA8MDAS9TwAAAAAAAGAihCwEtdls2rlzp1JSUrR+/Xp99tlnstlskqTPP//8hsvhs7OzVVtbqylTptxwiXlcXJweeOABrVy5Uunp6WpsbNSzzz4rt9ut06dPa+7cucrJyVFWVpYk/wxMexBmX44mMzNz3HWNCe6J7v5wVZKlkCyJBwAAAAAAAMJBSPcEXbZsmQoKCrR8+XItXrx4XAHgypUrJUm9vb1j7rPpdrsD+4J6vV5VVVXp+PHjKigoUHl5uaKiovTBBx9Iki5evKgZM2aMed9Qh4hGUlRUpAYG+tXb16vYybG31V9vX68/VVVolsNHR0eHpF8AAAAAAADgTgtpCFpZWalPP/1U+fn5WrFiRSC0/PHHH3XhwgVJUl9f36htZ82aJbvdPmow2dXVpVdffVWFhYWS/LNO09LS1N3drZMnT+rq1avD9u48efKknnjiiTHH2tHRoYSEhFt6zvGKjY1TT0+PupzO2w5Bu5zOII1qdH/fogAAAAAAAAD4NwtpCLpnzx49//zzysjI0M6dOzV16lTl5+fLbrcrdfCE9N7e3hu2P378uGJiYkZcLysr07Fjx0Zcr66u1jvvvKO1a9eqvLxchYWF8ng82rRpk3p6epSWlqaGhoYR7dra2pSeni7LsjRlypQxn8ntdisqKipQ/vnnn3Xp0iW9/PLLY7azJCUkJKi9o12X2y5revq0MevfzOW2y5JlDfYcfKEOhAEAAAAAAIA7JaQh6Pbt2yX5l5ofOnRITU1NkqSlS5cO2xP0o48+uu17eTwe7d27V4cPH1Zubq5eeuklVVVVafv27Vq+fLncbrc8Ho8k6ciRI1qwYIEWLlyosrIybd26VS+88II++eQTrV69OhDQbty4ccR9amtrh+1hevjwYZ05c+amIagkpaWm6szZM2rvaJfD4VBycvItPavD4VB7R7uioqI0NFE2mEv5LcsKvAMAAAAAAADg3y6kIegPP/yggwcPqrKyUosWLdIbb7whr9crj8ej/v5+Sf5TyI0x6u/vHzHrc2hvz+v9+uuvio+PH3Zt165dys3Nld1u15IlS/TNN99ox44d2rVrl6qqqrRp0yZJ/qX0eXl5qqmpkSTt379fH374oX7//XdVVFTo0UcfVWVlpVJTU7VlyxZJ/oB1KGS8fp/SzZs3y+fzjfkehtpGR0drRsYMnTt3VvV/Nih38ZL/OLw0xqj+zwZFWJYirNCcDJ+RkaHIyJD+awAAAAAAAAB3TEiTrrq6Oj322GN67733lJiYqA0bNuinn36SJL399tvD6mZmZqq1tTVwgrwk1dfXDysPaW1tVXZ2dqB8rvmciouLVV1dLckfdK5YsUJz5szRvn37ZLfblZWVpbfeekuWZWnp0qXy+Xxas2aN/vjjD1VUVGj69Olat26d+vr69OKLL+rAgQMqKyvT/v37dfToUa1du1aSFBERMWI8o127kbvuuksOR6euOLtUc+SI/nfBgnEHocYY1Rw5IlePS1GRUYqIsIJ+mFN8fLxmzpwZ1D4BAAAAAACAiWSZ8RzZPgH27dunxx9/fNSA8fz583I6nZo7d64kfzjY3NyszMzMQJ26ujrl5OQEysYYNTY2ymaz6Z577pEk1dTU6MEHHxwx67Gzs1MpKSm6fPmyzp8/L7vdrtmzZ9/W8xhjAp/uq1dVW1crV0+P4uLiNCf7fqWmpIzZvqOzUycb6tXT06OoyEhFRUYp0maTZQUvCI2JiVF2drZiY2/v0CYAAAAAAADgn+QfG4KGI2OMfMbI5/Pp6tWr+rPxT3U5nfJ4PPqftDRNmzZdqcnJmjx5siT/oVEdDocuXbqov9rbFRkZqSibTZGDAehQQByMEDQ+Pl5ZWVkEoAAAAAAAAAg7hKB3mBkMQX3GJ4/Ho3PNzWppaZHH65HX678+9JNYg/t+2mwRstlsskXYFGmLHPw7OAGoZVnKyMhgCTwAAAAAAADCFiHoHTb0uv1BqJHX61Fff7/++usvdXV1yeVyacDtljFmMAQd/AyGoLaIiNuaAWpZlqKjoxUXF6eEhASlpqZyCBIAAAAAAADCGiHoBAgEocZIxsjr88nn88rn88kYyWhwJqgsWZb/4KWIwQBUg6GoFJxl8AAAAAAAAEC4IwSdQH8/LClQltHQL2JZQ0Ho/4eewTwICQAAAAAAAPhvwDroCWRdN6MzEIYOfX9dvev/BgAAAAAAAHBzhKATbLRQ8/orBJ8AAAAAAADArSME/Qch7AQAAAAAAACCL2KiBwAAAAAAAAAAoUQICgAAAAAAACCsEYICAAAAAAAACGuEoAAAAAAAAADCGiEoAAAAAAAAgLBGCAoAAAAAAAAgrBGCAgAAAAAAAAhrhKAAAAAAAAAAwhohKAAAAAAAAICw9n8TBUl6qHn9JQAAAABJRU5ErkJggg==;" vertex="1" parent="1">
          <mxGeometry x="127.5" y="221" width="1352.5" height="44.25" as="geometry" />
        </mxCell>
        <mxCell id="PVqFNuO40D3JptiVjfTZ-12" value="" style="group;movable=1;resizable=1;rotatable=1;deletable=1;editable=1;locked=0;connectable=1;" vertex="1" connectable="0" parent="1">
          <mxGeometry x="130" y="550" width="1352" height="287" as="geometry" />
        </mxCell>
        <mxCell id="PVqFNuO40D3JptiVjfTZ-13" value="" style="shape=image;verticalLabelPosition=bottom;labelBackgroundColor=default;verticalAlign=top;aspect=fixed;imageAspect=0;image=data:image/png,iVBORw0KGgoAAAANSUhEUgAABUgAAAEfCAYAAACTRiz+AAAACXBIWXMAAAsTAAALEwEAmpwYAAAgAElEQVR4nOzdeXhN1/rA8e/JdJIIIYnMc4rEPA+hqAhBqoZyr7qtVmn7K62WUqWqdHBVqVJzq5dO1Dy1NEoRtBGSCJEoMWUWiUScjCfn90ee7JuT8YRUbnk/z+N5nD2stfbea++zz5s1qHQ6nQ4hhBBCCCGEEEIIIYR4BBnVdwGEEEIIIYQQQgghhBCivkiAVAghhBBCCCGEEEII8ciSAKkQQgghhBBCCCGEEOKRJQFSIYQQQgghhBBCCCHEI0sCpEIIIYQQQgghhBBCiEeWBEiFEEIIIYQQQgghhBCPLAmQCiGEEEIIIYQQQgghHlkSIBVCCCGEEEIIIYQQQjyyJEAqhBBCCCGEEEIIIYR4ZEmAVAghhBBCCCGEEEII8ciSAKkQQgghhBBCCCGEEOKRJQFSIYQQQgghhBBCCCHEI0sCpEIIIYQQQgghhBBCiEeWBEiFEEIIIYQQQgghhBCPLAmQCiGEEEIIIYQQQgghHlkSIBVCCCGEEEIIIYQQQjyyJEAqhBBCCCGEEEIIIYR4ZJnUdwEE5OXlkZGRgUajobi4uL6LI4QQQgghhBBCCCHEA2FkZISlpSU2NjaYm5vXSxlUOp1OVy85C6AkOJqQkICdnR2NGjXCyEga9QohhBBCCCGEEEKIR0NxcTHZ2dmkp6fj6upaL0FSCZDWs6SkJCwtLWncuHF9F0UIIYQQQgghhBBCiHpx+/ZtNBoNzs7ODzxvaa5YzzQaDY0aNarvYgghhBBCCCGEEEIIUW8aNWqERqOpl7wlQFrPiouLpVu9EEIIIYQQQgghhHikGRkZ1dvcPBKZE0IIIYQQQgghhBBCPLIkQCqEEEIIIYQQQgghhHhkSYBUCCGEEEIIIYQQQgjxyJIAqRBCCCGEEEIIIYQQ4pElAVIhhBBCCCGEEEIIIcQjSwKkf1M5OTlER0eTnJz8wPO+efMmaWlpAKSkpJCUlPSX5fVXp/8gXb58mdu3b9/z/gkJCfd9LuLi4igqKrqvNIQQQgghhBBCCCEeJhIg/RvKzs5m3rx57Nu3j5SUlAead2FhIcuXL1c+Hz16lEOHDv1l+d1P+vn5+cTGxlJcXGzwPgcPhvD999+j0+mYPXs2CQkJ95R3Zb777jsuXrx4z/vv2LGDXbt2GbTt2rVrOXnyJFevXmXu3LnK8piYGEJCQu65DEIIIYQQQgghhBAPGwmQ/g1dvHgRMzMzZs6cSYcOHR5o3r/++iu+vr7Y29s/0HzvRUZGBosXL6awsNDgfQoKCsnLy0OlUpGRkYFKpfoLS1g7EydOZPz48QZtm5OTg1arBdBrtRoUFMTBgwfvqyWrEEIIIYQQQgghxMPEpL4LUBdycnIoKiqicePGQElAyNTUlAYNGlS6/d27dyksLFS2/zvZuXMnx44dIzc3l3fffZfBgwfj5+fH4sWLGTt2LFu2bMHOzo5XX30VjUbDtm3bOHfuHBYWFnTq1Ing4GAl6Ldo0SICAwM5evQoly5dokOHDjzzzDNs27aNP/74gyZNmjBmzBhatGih5B8aGspzzz1XoVwHDx7kwIEDWFhY0KtXLwYMGADAiRMnuHTpkt4+O3bswNLSkoEDBwKg0WjYvn070dHRmJqa0rVrV4KDgzEyqhi/P3bsGOHh4bzyyitYWFiQkJDA3r17iYuLw9vbm8GDB+Pj40NMTAwbN24EYN68eXTo0IFRo0Zx9+5d/vzzT9q3b1/p+TUzM8XU1BQAtVqNmZkZABEREYSFhdGjRw9+/PFHCgoK6Ny5MyNHjsTY2BgAnU7Hzz//THh4ODk5ObRu3ZqRI0dWWQ9DQ0MJCQkhMzMTDw8Pxo4di6Ojo3JtAgICOHLkCFevXuXzzz/nwIEDmJmZMWjQIAAOHTrE4cOHuXPnDr6+vowZMwZra2u9spuZmaFWq5U8LSws8PPzIzz8FP37B1ZaLiGEEEIIIYQQQohHyUPRgnTKlCl0795d+ezn58esWbOq3H7WrFn4+fk9iKLVud69e9OnTx8cHBx4+eWXad26NVqtltTUVPbs2UNwcDDDhg2juLiYtWvXcuvWLSZMmMDw4cM5efIku3fvVtJKT09n586dBAQEMGnSJC5cuMBHH32EtbU1b731Fo899hhr165Vtr958yapqam4urrqlSkqKor4+HheffVVhgwZwp49ezhx4gQAGs3dCq0V79y5Q05ODgDFxcWsW7eOtLQ0JkyYwIgRI/j999/Zu3dvhWM/c+YMe/fu5dlnn8XCwoKcnByWL1+Ovb09U96Ygo+PD1988QUZGRl4enoyevRoAF588UX69esHwMmTJ1ixYgWZmZmVnl9XVzeaN28OgL+/vxLczM3NJTY2lpCQEJ599ln+9a9/ERUVxfbt25V9f/rpJ44dO8bQoUOZOHEiWVlZrF69WmnJWVZcXBybNm3iySefZOq0qdjY2LBs2TK9a7NlyxY6derE66+/rpy3O3fuAHDu3Dn27t3LuHHjmDlzJkZGRnzzzTfK/q1atcLewR4rKyu9ewPA3d2d6OhzlR6/EEIIIYQQQgghxKPmoWhBWt6UKVP0AqBubm68/PLLvPvuuwD069cPJyen+irefbGxscHOzg61Wo2bmxtQEkwDGP2P0Xh6eAJw7do1Ll26xCeffIKlpSUA5ubmfP755zz55JNK68zevXvTqlUroCQgePbsWYYMGQJAcHAwR44c4fbt2zRu3Jg7d+6gVquV9EoZGRnxwgsvYGpqipeXFxqNhoMHD+Lv71/j8dy4cYO4uDg++eQTrKysAGjSpAlxcXF628XGxrJp0yamTp2KnZ0dAL///jsODg6MGDECAE8PT65cuUJYWBhBQUHKNXZ1dVVaUfr798TOrilNmjSptDy+vr7K/0sDrKXu3r3L+PHjlX0tLCxYvHgxI0aMwMjIiP379/Pqq68qdc/V1ZUZM2Zw/fp1vLy89NJyc3NjwYIFNGzYEIDhw4czffp05VwDBAT0o3fv3lWeNycnJx577DEAxo8frwRPAfr27av8v/T8lLKxsSErK6vSdIUQQgghhBBCCCEeNXUeINXpdADVjt2o0+lqHNuxpm2qy2fmzJl6n2/dukVubq7y+amnnuKpp56657LVZrsHycnxv0HfxMREnJ2d9YKZ3t7eFBUVkZaWpnTldnBwUNZbWlpia2ur9xlQZj3PycmptLu4l5eX0i0dwMfHh82bN1facrK8xMREXF1dleBoaXplA4rnz5/nyJEjTJgwQSk3wIULF7hw4QI7duxQlkVGRipd3itjaWlZZff6mtjZ2ekFVr28vCguLiYlJQUzMzPy8vLw9vZW1ltYWODq6sqNGzcqBEgtLS1JT0/n7NmzpKenKwHL/Px8ZRsnJ+cqy9KuXTt++uknFi5cSKdOHWnfvoMSOK6JhYWFXjBVCCGEEEIIIYQQ4lFWZ13sIyMjGTx4MA0bNsTa2pp//etfXL9+XVmfkpLCCy+8gJOTE1ZWVgQFBXH69Gll/eXLl+nYsSM///wzr732Gra2tjRt2pSZM2fqTbKTm5vL1KlTcXJyonHjxrz44oskJibqlSUoKIiFCxcC0LFjR/Ly8li1ahVPPPEEAAsXLiQoKEjZXqfTsWHDBjp37oy5uTl+fn589NFHFBQUKNtMnTqV8ePH88svvyjb9erVi8jIyLo6hXUqPz9fL2gJJS09jYyM9IJw1SkNQpcyNjauNOhZdoxLADMzM4qLi5XAanXpFhQUYGJSfZw+PT2d5s2bs2fPHvLy8pTl+fn5mJiYYGFhofwbMmQIHTt2rPHY7kXpeKSljIyMMDY2prCwkIKCAlQqVYXgrJmZmV49KnX27FnmzZunjLvq7Fy7Fs3Ozs58+OGHdOzYkaios8yaNYs9e/YYtG9xcXGN51wIIYQQQgghhBDiUVEnAdLIyEg6deqElZUVv/zyCxs2bCAmJobAwEAKCgrIysqiffv2REZGsmHDBkJCQrCxsaFr166cOnUKKAl2RUREMGLECLRaLZs3b+add95h4cKFemMrPvfcc/zwww98+eWX/Pzzz1hbW3PgwAG98kRFRZGUlATAu+++i4mJCX369OHNN98EICkpiaioKGX7Tz75hPHjxzN69GhOnDjBzJkz+fjjjxk3bpyyzdWrV/nuu++YNGkSr7/+Onv37iU7O5sRI0ZUGQisT66uriQlJekFNNPS0tDpdDg7V90ysTpWVlZoNJoKy69du6b3OTExURkGQK025+bNm3rrs7Ozlf+7ubmRmJiodw6zs7OJjY1VPvv7+/Pmm29iaWnJt99+qyz38/OjU6dOBAUFKf+GDRtG165d9fIrLi6+p+MtLyUlRS/YmZaWhlarxcnJCUdHR4yMjEhOTtbLNyEhocKYrQCHDx8mICCAV155hcGDB9OxY6dal8fa2prAwECmTZvGSy+9xL59+wyqixqNRunaL4QQQgghhBBCCPGoq5MA6ezZs/Hy8uL777/H39+f4cOHs27dOpo3b86VK1f44osvuHnzJrt372bAgAH4+/vzzTff0Lx5c95+++0Kaa1cuZLAwECmTp1KixYt+O233wAIDw9n69atrFmzhuDgYPz9/VmyZAljxoypsmwjRozAxMSEli1bMnTo0Arr09PTee+993jrrbeYMWMGnTp1Yty4caxZs4ZNmzbxxx9/KNva2tpy/PhxnnvuOQIDA5k5cyZXrlwhITGhLk5jnfLw8KBBgwbs2LGD/Px8srOz2bRpE506darQstRQjRs3prCwsMIER2lpafzyyy8UFRVx8+ZNtm3bpgQpnZ2dSUlJ4fz58+h0OmJjY7lw4YKyr5ubG9bW1mzZsoW8vDyys7P56quvCAsLU7YxNTXFxMSEV155hejoaI4cOQKUdDOPjIwkIiICrVZLZmYmCxYs4NdffwVKxto0NTVV8ga4fv06GzduNKj7f3kqlYoffviB3Nxc5Xy2adMGtVqNsbExXbt2ZfPmzWRlZZGfn8+uXbtQq9V4enpWSKtBgwYkJiZSUFCgbFsbO3bsYNmyZUprYI1GQ5MmTQxqGZqSkqI3lIIQQgghhBBCCCHEo+y++9nqdDp+++03Jk2apBec6dSpk9Ll948//qBbt27KpEJQ0l175MiRLFy4UC9Y1aFDB730XVxclBaIpa1N+/Tpo7eNhYXFPZf/woULFBQUEBwcrLe8tAv+mTNn6NatG1Ay5qS9vb2yjb19UwAyMzKVyZH+V5iZmTFlyhS+/vprpk6dipGREW3atOH555+/5zStra1xc3Pj2rVremNxdu/enbS0NF577TWMjY3p1KkTTz75JFAyHmlgYCArVqxAp9PRpk0bOnfuXKGc69evZ9q0aWi1Wtq2bcvTTz9dIX8bGxtefPFFVq9ejaenJx4eHkycOJHt27ezdu1aoGRyotIJitRqNYMGDeKHH34gMjKSCRMmkJSUxOnTpxkxYoTeuKeGcHNzw8nJienTp1NUVISvry/jx49X1j/77LNs2LCBd999F61Wi4eHB1OmTMHc3LxCWsHBwaxatUpZP2bMGE6cOGFwWQICAtiwYQNvvvkm5ubmNGzYkJdeesmgfa9du3bP47AKIYQQQgghhBBCPGzuO0Cam5uLRqOhadOmVW6TkJBQaSs6W1tbioqKKrRILKvsREgJCQmoVCoaNWp0X2UuKyUlRSlLWaUBwPLjm5YrXZ2Vozb8/f31Zoi3s7Nj3bp1FbZr2rQpM2bMoKCgAGNj4wrjY5aO01pqwIABDBgwQPmsVqsrpNu5c2ciIyOVAFvZmd5HjRqFsbFxhVaMo0ePZsSIERQWFlYazLa1tWX69Onk5+dX2L/8TPJt27Zl5cqVyud27drRrl07NBqN0pKzrCeffJLg4GClm3337t3p1q3bPU+wNWDAAAICAigqKqow9qqpqSkTJkxAq9VWuv69995T/u/o6Mi8efP0yl12aIDy1wbgX//6l/L/Ro0a8dprr1FUVFTlea2MRqPh4sWLPPfccwZtL4QQQgghhBBCCPGwu+8u9paWllhbWytjflbG29tbb8KmUqmpqajVamxsbAzKy9HREZ1Op8z4XRdKx4csDZSWKm21Wllg9+/GzMys2pnda6Nfv35cunSp0lnQ1Wp1lV28SydTqk51+9fE0tKyymMsP3nSvQZHSxkbG1cIftZmfVnVldsQhpzXsk6ePEnfvn1p3LjxPecphBBCCCGEEEII8TCpkzFIBw0axHfffac3gc9vv/1GmzZtiI2NpXfv3pw+fVpv4p3c3Fy++eYbBg0ahJGRYcUo7ZpdOsYkwK1bt2rsmmxqalppQA+gZcuWNGjQgE2bNukt37JlC1DS4lD8l7m5Oc8//zwZGRn1XZQHytPTk/79+9d3Me6bhYUFQ4YMqe9iCCGEEEIIIYQQQvzPuO8u9gAfffQRu3fvpn///rz22mukpqayZMkS3N3dadasGZ6enqxbt45+/foxf/58GjZsyIoVK8jMzOTf//63wfl0796dwYMHM27cODIyMlCpVCxdupTExMRqZ2Zv3rw5O3fupEOHDowcOVJvnbW1NV988QUvvPACxsbGDBgwgLNnzzJ//nymTp1K69at7/m8PKwee+yx+i7CA+fs7FxtHfu7KDs0gxBCCCGEEEIIIYSoowCpt7c3sbGxfPzxxyxevBgTExPGjRvHtGnTlLEvT548ySeffMK3337LnTt36Ny5Mxu/2ahMbtSwYUPGjBmDo6OjXtp9+/ZVuiCrVCq2bt3KggUL+Oqrr7C2tmb+/PmkpqZy6dIlZZ8RI0boTUKzatUqli1bxrfffsvgwYNp3749RUVFyvrnn38eNzc31qxZw5w5c/Dy8uLrr7/m2WefVbbx9/cnOztbr2xNmzZlzJgxWFtb18VpFEIIIYQQQgghhBBCPGAqnU6nq+9CPMouXrxI8+bN67sYQgghhBBCCCGEEELUq/qKk9XJGKRCCCGEEEIIIYQQQgjxdyQBUiGEEEIIIYQQQgghxCNLAqRCCCGEEEIIIYQQQohHlgRIhRBCCCGEEEIIIYQQjywJkIq/DZ1Ox4ULF/i7zCt27NgxLly4UOV6nU7H1WtXKS4ufoCl0nflyhW0Wm295V/Xrl+/zk8//VTtNqmpqeTk5DygEv1Xbm4uiYmJFZbHxcVRVFT0wMsjhBBCCCGEEEKIEhIgfchcu3aNzz77rL6L8Zc4efIkYWFhqFSqGrdNTEwkLS3tvvO8l3S0Wi2hoaFs3LiR1atXc+bMmUrTnTFjBlt+3GJQgPTPP/+sk6Be+ePZt28fM2bMIC4u7r7TriqPByU6OpoNGzawY8cODh8+TEFBgd76oqIiPvjgA1asWEFmZmaN6dX1cWg0GtavX8/s2bPRaDTK8piYGEJCQuosHyGEEEIIIYQQQtSOBEgfMkVFRaSnp9d3Mepcfn4+27ZtY+jQoQZtv2/fPkJDQ+8739qmo9PpWLJkCZcuXaJp06b4+PgQGhrK119/rbfdsWPH6NGjB9OnT8fExKTGdFeuXMnVq1drW/wKyh/P5MmTGTQoiN9+++2+064qjwdh165d/Pzzz7i6uqJWq0lNTeWjjz4iPz9f2SY6OhojIyPmz5+Pm5tbjWnW9XHY2toyZ84cnJ2dCQsLU5YHBQVx8OBBbt++XWd5CSGEEEIIIYQQwnA1R2bE31ZhYSGLFi1i8ODBtGvXzqCWlxEREYSFheHn58e+ffsIDAykf//+hIaGEhISQmZmJh4eHowdOxZHR0cAtm/fjpWVFTk5OZw4cQIPDw8CAwPx9fVV0j169ChHjhwhIyODvn370rBhQ9LT0xk9ejQACQkJ7N27l7i4OLy9vRk8eDA+Pj7K/lFRUTg7O9OkSRNlWVxcHNu2bSM5ORkXFxf++c9/4unpyfLly4mLi8PY2JgzZ87wxhtvYGdnR3x8PFu2bCEhIQEHBweGDBlChw4d9I4hLS2NsLAwpk2bxu7duytNJzY2lqZNm2Jra1vh/CUlJXH58mWmTp1KSEgIjo6O+Pr6EhISQkFBAWZmZgBkZGTQunVrvX0PHTrE4cOHuXPnDr6+vowZMwZTU1M+/vhj7t69y4YNG7C1tWXmzJkA1V6TRYsWERAQwJEjR7h69Sqff/55lefFzq4pp06F11yhaiirtbV1lXncuHGDffv2ERcXh4uLC3369KFLly4AZGZmsnjxYl566SU2bdpEYmIibdq0YcSIEdjY2ACQnJyMRqPRqxPly/Paa69hZGSEpaUl//jHPzh06BCZmZnKOcnIyMDe3l5vv9rWofs9DoCmTZvqtWC1sLDAz8+P8PBT9O8fWKvrIIQQQgghhBBCiPsnLUgfYiYmJvTu3ZutW7cyd+5cTp48WeN4k7m5ucTExBATE8O4cePo1KkTcXFxbNq0iSeffJKp06ZiY2PDsmXLlH2ysrI4cOAAlpaWTH5tMra2tqxZs0bpOn7mzBk2bdpEv379mPLGFHJzczlw4ABZWVkA5OTksHz5cuzt7ZnyxhR8fHz44osvyMjIUPI4f/487u7uymeNRsNnn33GE088wbx582jbti1Lly6lqKiIUaNG4ePjQ/v27Xn55Zdp3Lgxubm5LFmyhDZt2jB9+nS6du3KqlWruHXrlnIMP//8c8kxTJ6Mvb19penodDq++OIL9u3bV+n5s7e3x8zMjG3btnHnzh0AzM3NefLJJ5XgKFDhOpw7d469e/cybtw4Zs6ciZGREd988w1qtZqXX34Zc3NzBg0axLPPPgtQ4zVJT09ny5YtdOrUiddffx2g0uMpVZsxMKsqa1V5ZGVlsWzZMmxsbJjyxhS6d+/Of/7zH2JiYpRzkZqaysaNGwkICOD1118nNzeX1atXK+dp+/btfPXVV1WWycfHh927d5OSkqIs69evnxIcBSoMZVDbOlQXx1Gq/Gd3d3eio88ZfA2EEEIIIYQQQghRd6QF6UNMpVLRq1cvevbsSVRUFPv372fnzp0MGDCAXr16oVarK92vuLiYiRMnYmxsDIBarWbBggU0bNgQgOHDhzN9+nRu376tBNnc3d0JCgoCwMXZhdDQUK5cuYKPjw+HDx8mODiYnj17AuDh7sG1a9eU/H7//XccHBwYMWIEAJ4enly5coWwsDAlzezsbL1u0cnJyRgZGdGxY0fUajWDBw+me/fuqFQqHB0dadCgAdbW1so+Op2O+fPnKy353N3dOXr0KPHx8UpLUB8fH6UMUNKyr3w6gBJArYypqSlTp03lm43fcP36dX755RcmT55M27ZtlRa8ubm5XL58mf79+yv73bhxAycnJx577DEAxo8fz507dzA2NsbNzQ1jY2Ps7e1xcXEBwM3NrcZrEhDQj969eyt5VHZeoKRFY2Jiot6+1amqrFXlcerUKezs7Bg1ahQqlQpPD09u375NSEgILVu2VNIdOHAgnTp1AmDChAm8/fbbxMfH06xZM0aOHMndu3erLNP48ePZsGGDMpSBvb09PXv2VILSWq2W2NjY+6pDdXEcpWU7fvw4hYWFmJqaAmBjY6P8wUAIIYQQQgghhBAPlrQgfQSoVCrat2/PzJkzmTBhAqdOnWLy5MlVbu/k5KQERwEsLS3Jz8/n+PHj7Nq1i927dwPoje/o6uqq/N/U1BQnJydu3rwJlMwsXrZrtEqlonnz5srnCxcucOHCBXbs2KH8i4yM1Btz886dOzRo0ED57Obmhr29Pe+//z67du3iypUr2NjY6JW7LFNTU9RqNWfOnGHv3r38+OOPpKam6h1DafCxJr6+vnpdpsvz9PBkzpw5dOnSBTc3N77//nslcJecnMy0adPo37+/3jlo164d169fZ+HChRw8GMLt27f1hhMoz5Br4uTkbNDxuLi48PTTI5kzZ45BkzXVtqw3btygWbNmekM8PPbYY3pB8tJlpSwsLHBzc1NmfXd0dKyyez2AlZUVkyZN4uWXX0alUvH777/z3nvvKS01Z8yYgaWlJX379lX2qW0dqovjAOjatSteXl5MmTJFmUjKwsJCCTILIYQQQgghhBDiwZIA6SMkPT2dM2fOkJKSgr+/v8H7nT17lnnz5hEdHY2pqSnOzk4VtjEy0q9KZYNI5ubm5OXl6a0v+zk/Px8TExMsLCyUf0OGDKFjx47KNsbGxnrdks3MzJg1axZDhw4lNTWVTz75hM8//7zKruLp6em8//77/Prrr2i12krHD60LWq1WKYO7uztDhw5l9uzZhIeHk5WVhbm5OV5eXkRHR+sFM52dnfnwww/p2LEjUVFnmTVrFnv27KkyH0OuSW3KHB19DicnJ6VFanVqW9b8/HylpWQpExMTCgoK0Ol0yrLy25iZmVWYib4yOp2OwsJCoKQlZkBAgBIQPXv2LAB+fn5cuXJFb+zP2tahujqO7OxsLl68iJ+fn3LfFBcXGzRZlxBCCCGEEEIIIeqe/CJ/BJR29T537hx9+/Zl/vz5NGrUyOD9Dx8+TEBAAMOGDQNKJrvZvPlHg/f38vIiPDycdu3aASVjP0ZFRSktAv38/GjcuLHSnb4yjRo1QqPR6C0zMzOjR48e9OjRg4yMDGbPnk18fLzSMrPsmJOnT5/G1taW6dOnK8sOHjxoUPnLj11ZnaioKLZv384HH3ygLLO0tASgoKCApk2bMn36dGbNmkVMTAydO3dWtrO2tiYwMJDAwEDCw8P58ssvGTRokBI4K1uO+7km5Y8nPj6e+Ph4li5dWmXryfJqU1Z3d/cKrSyTkpJwd3fXC6QnJibSokULZf+EhAS9YQiqkp2dzYwZM/j3v/+tLDM2NsbKyorc3FygpKv7N998w8mTJ/Hy8lK2q00dqqvjOH36NE2bNmXSpEnKMo1GY1BwWgghhBBCCCGEEHVPWpA+xLRaLZ999hnLly/H09ODBQsWMGzYsFoFRwEaNGhAYmIiBQUF5Ofns2vXrlrtP3z4cKKioli+fDk7d+7k008/1RvDs127dvSIdysAACAASURBVERGRhIREYFWqyUzM5MFCxbw66+/Kts0adJEbwKe6OhoZs2aRXp6OlAyrqdOp8POzg4o6ZJ96dIlJahqaWnJrVu3yM7ORqvVcujQIb1JoKpSPh2AHTt2EB0dXen2rVq1QqvVsm7dOuWY1q5di4eHB02bNlW2c3V1rZDmsmXLlFalGo2GJk2aKAFHJycnYmNjldaN93pNKjueu3fvVhhW4fTp0yQlJVWaRk1lLZ9Hu3btOH/+POHh4Wi1WhITE9m1axfdunXTS3f79u1kZmZSUFCgHE9pMDMsLIz9+/dXWh5ra2s6derEF198QVhYGNHR0Wzfvp0bN27QqlUrZTtnZ2e9cUxrW4fq4jhKz7ezs/7wBykpKX9Zq2YhhBBCCCGEEEJUTwKkD7lu3bqxYMEC+vcPxMLC4p7SCA4OJi0tjSlTpjBz5ky9oJMhHBwcmDNnDn5+fuh0OsaNG6c3/qarqysTJ05k586dTJ48mVmzZuHt7a03XmSrVq30xiRt2bIl7du3Z+7cuUybNo0lS5bw3HPPKWODdu3aFZVKxRtvvEFKSgpdunTB09OT6dOnM2XKFLKzs/H29q6x7OXT0el0hIeHc/ny5Uq3V6vVzJkzBzs7Oy5fvsyJEydwdXXlzTffrDafgIAAVCoVb775JlOnTuXXX3/lpZdeUtYPGDCA6Oho3n77beDer0n54ylVtgVkcXExX375ZZVjYtZU1vJ5uLi48NJLL7Fnzx4mTZrEZ599Rt++fenTp49euoMGDeLDDz/k9ddfJzo6mldffVVpfRsbG0tUVFSVxzVhwgT8/f0JDQ0lNTWV3Nxc3nvvPaytravcp7Z1qC6OoyrXrl2r9X0lhBBCCCGEEEKIuqHSlR08TzxwFy9e1AsW3q/Lly+zfv16PvroozpLs5RGo0GtVhvcDbvUn3/+SUFBgV4AaMGCBbRt25YhQ4YYlEd+fj5vvfUWc+fOVVr4QUkwT6PRYGVlVWneWq1WL638/HxUKpUyu7mhyqaj0+n0AopVOXDgAA4ODrRv377Cuq1btwLw9NNP6y0vKiqisLCwymB2+eO512tSNp2QkBCuXbvGhAkTgP+O17p06dJqx8WsbVmhpJVm+e3T09N55513+OKLLzAzMyM3N7fSgKIh5z0+Pp7w8HBGjx5dYV1UVBR79uzh3Xff1Vte2zp0v8exfPly2rdvz+OPPw6UXMMZM2bw4Ycf0rhx42qPTwghhBBCCCGEeJjVdZzMUNKCVBjM0tKy1oG4UqtWreLrr79m9+7dLFy4kOzsbLp3725wHmq1mqeeGsqxY8f0lhsZGVUZ2AIqpKVWq2sdHC2fjiHBUYCBAwdWGhwF6NixI8eOHeO7777Tm3yqdLIqQ8oB935NSvfZtm0bP/30E126dFHWpaWl4evrW+OkQbUtK1BjK2aVSlVla0tDzru3t3elwVEoaTGanp7OmjVrSEtLU5bXtg7BvR1HVlYW69ev5+LFi8p4vAAnT56kb9++EhwVQgghhBBCCCHqifH777//fn0X4lF269atOh170MjIiCZNmuDm5lZnad4vW1tbOnfuTF5eHnl5ebRq1YpRo0ZV2/25Mh4enty8eRMPDw+Dg5T/q5o0aUKvXr0oLCzExcVFmc38QcvKyuLpp5/G09NTWZabm4uHh8cDGxNTpVLRqFEjfHx8/tLzYGxsTL9+/TA3N8fa2rrGbu+1VdNxFBQUYGpqytixY2nQoIGyPCUlhd69e2Nqalqn5RFCCCGEEEIIIf5u6jpOZijpYl/P6qvpsBBCCCGEEEIIIYQQ/0uki70QQgghhBBCCCGEEEI8YBIgFUIIIYQQQgghhBBCPLIkQCqEEEIIIYQQQgghhHhkSYBUCCGEEEIIIYQQQgjxyJIAqRBCCCGEEEIIIYQQ4pElAVIhhBBCCCGEEEIIIcQjSwKkolLXrl3jzJkz6HQ6EhISSEpKAkCr1XL+/HmKior+knxv3rxJWlqa8jknJ4fo6GiSk5PrNJ+r166i0WiqXB8XF/eXHaMQosTVq1fJyMj4S/NIT08nMjKSnJwcsrOziY2NNWg/Q551D6L8hoqJiSEnJ6dO0kpJSVGe+Q/K3bt3iYuLq/V+NV1TnU7H+fPnyc/Pr3Kb+jheQ6WlpXHjxo36LoZBanN/1aeioiIiIyPRarX1XZQaHTt2jAsXLlS5vqCggOvXrz/AEv1XXT5z/kpl32Erc+XKlVrVBXk/FEIIIR5eEiB9yFy7do3PPvvsvtL46aefWLJkCWfOnKG4uJgdO3awa9cuAPLz81m6dKnyUpyZmcnVa1fvt9gAFBYWsnz5cuVzdnY28+bNY9++faSkpNRJHlDyY/g/X/8HtVpd5TYxMTGEhITUWZ7i76ku63dtrF27lpMnT3L16lXmzp1bZ+nm5+cTGxtLcXGxsuzPP//kgw8+AGD9+vWEhobWWX412bJlC+fOnfvL0o+Li2Pu3LkcP36c7Oxsfv/9d1atWoVOp6tx3/LPusr81eUvr6ioiNmzZ5OSksKhQ4fYuHEjUBLMXblyJWFhYXWSz9GjRzl06FCdpGWohIQEVq9eXev9arqmxcXFLF26VAlkV3YP1HS89XmP/PHHH+zfv/+B5Xc/anN/1aeEhARWrFihBM3q6zl/8GAI33//PTqdjtmzZ5OQkKCs02q1hIaGsnHjRlavXs2ZM2cq7H/y5EnefvttTp48+SCLrZSvLp85f6Wy77BQcj+Xfa7v27ePGTNmVPgDTVXfw/J+KIQQQjy8JED6kCkqKiI9Pf2+0jhx4gRjx45lwoQJGBsbM3HiRMaPH1/ptmfPnuX7776/r/xK/frrr/j6+mJvbw/AxYsXMTMzY+bMmXTo0KFO8gDYvHkzwcHBGBsbV7lNUFAQBw8e5Pbt23WWr/j7qcv6XRs5OTlKi5a6rIMZGRksXryYwsJCveVZWVlASSu+h6llTHh4OD169GDSpEk4OzvTv39/PvzwQ1QqVX0X7Z4YGxtz8+ZNVCoVRUVF5ObmKssXLFhA375967eA9aC217Sqe6AmD+s9Upf+LveXp6cnn376KW5ubkD9PecLCgrJy8tDpVKRkZGhnDedTseSJUu4dOkSTZs2xcfHh9DQUL7++mu9/Q8cOMD48eP5xz/+8cDL/nd65pR/h125ciVXr15VPk+ePJlBg4L47bff9Par6ntY3g+FEEKIh5dJfRdA/HUKCwtZtGgRgwcPpl27djX+aLl9+zaffvopN2/eZMuWLfz888/MnTuXAwcOYGZmxqBBg/S237dvH7/++it5eXm8++67DBs2jM6dO6PT6di/fz9//PEHhYWFdO7cmaFDh2JsbExmZiaLFy9m7NixbNmyBTs7O1599VUAQkNDee655wDYuXMnx44dIzc3l3fffZfBgwfj7+/PokWLGDBgAMePH+fSpUu0b9+eAQMG4OjoCEBycjIajQYfH59KjzEzM5PY2FgmTZqkLFu0aBEBAQEcOXKEq1ev8vnnn2NhYYGfnx/h4afo3z/wns5/bGwsR48eZeDAgXh4eBi0z/bt27GysiItLY2wsDCmTZtm8L6Acn7HjRvH5s2buXXrFkOGDKZz5y5s3LiRP//8E09PT1588UUaN24MgEajYfv27URFRWFjY0OfPn3w9/dX0gwNDSUkJITMzEw8PDwYO3ascr4zMjL47rvvuHTpEtbW1gQFBSn7fvvtt3h6etKrVy8lrcWLFxMcHEyLFi2qPNaIiAh+/fVXkpOTad26NcOHD1fKumjRIgIDAzl69CiXLl2iQ4cOPPPMM2zbto0//viDJk2aMGbMGFq0aKHkWVN6VdWnqur3g6BWqzEzM8PMzEyvpXNERARhYWF06NCB3bt3Y2ZmRt++fendu7eyTUJCAnv37iUuLg5vb28GDx6Mj48PMTExSovDefPm0aFDB0aNGqXkUzbfqlRXF2q6N7VaLTt27ODUqVMYGxvz9NNPV3sO7vdeWLJkCVeuXMHIyIjY2Fj+7//+j1u3bnHs2DHl/q/uWVVebcv/V1CpVJiamirXrOy1+vLLLxk0aBC+vr7KucvJyeHEiRN4eHgQGBiIr69vrfI7ePAgBw4cwMLCgl69ejFgwABlXXx8PFu2bCEhIQEHBweGDBmi/CHLkHr6559/sm/fPuLj42ndujVdunRR1v3444/Y29srwZfffvuNqKgopkyZApQ8dz7//HPmzJlDTEyM3jW9ffs227ZtIzo6GkdHR5555hkl3arugVL79u3jt99+w8LCgiFDhtCtWzeAWt0j1Z0XQ65LaGgohw8fJjMzk969e2NkVPXfsUvPs5+fH/v27SMwMJD+/fvrbRMXF8e2bdtITk7GxcWFf/7zn3h6egLV1//Kvqv9/f05cuSIch2gpHvyd999xzvvvMP58+f1rkXpd0t0dDSmpqZ07dqV4OBg5ZiqelbVJCkpiTVr1jBv3jxlWWRkJCdPnuT//u//lLKPHz+eH3/8kczMTHr27En//v2xtLQkOzubRYsWMXv2bA4dOlRvz3kzM1NMTU0B/XqVlJTE5cuXmTp1KiEhITg6OuLr60tISAgFBQXKdrdu3cLOzk5Jr7CwkC1bthAREYGRkRFdu3Zl2LBhyvOsuvNd2fN269atDBgwgDZt2ih5fPXVV7Ro0YJevXrpPXOgpD4eOnSI69ev4+npyahRo3B1dQVq96wtz9B3iaruq9J32D59+vDxxx9z9+5dNmzYgK2tLTNnzgTAzq4pp06F6+Vb1fdwXbwfCiGEEOJ/kwRIH2ImJib07t2brVu3sn37dgYNGkTXrl2rfCFt2LAhL7/8Mp999hlDhgxRXpzv3LlT6Q9Cf39/CgoKiIyMZMKECTRp0gSAkJAQQkNDGTNmDCYmJvz444/odDpGjBiBVqslNTWVPXv2EBwcrARPbt68SWpqqvIyXfrDMCIigvHjx2NtbQ2UjCe4ZcsWRowYQUBAAPv27WPnzp288sorQMlLfmJiIh9//HGlx3jhwgWcnJwwMflv1S9Nc9CgQQwdOlRZ7u7uTnT0uSpfgNeuXUtmZmal68aPH4+7uzuOjo4sWbIELy8vBg0apBe4q0xWVhbHjh3j8ccfZ/LkyUprWkOVnt+DBw8yduxYkpOT2bhxI7///gdBQUEMfWoom37YxNatW5kwYQI6nY7169ej0+l45ZVXyMjIYOPGjTRs2JA2bdoQFxfHpk2beP7557FrasfhQ4dZtmyZcn5Xr16Nt7c3Y8eO5fr166xduxZnF2c8PTzJysqqMM5reno6BQUFVR7r5cuX+eqrr3jmmWdwcnLi4MGDrFmzhrfeegtjY2PS09PZuXMno0aNYuDAgXz11Vd89NFHdOvWjbfeeosjR46wdu1aFi9eDGBQelXVp6rqd1kxMTHs2bOn0mvRokULhg0bxoEDB4iMjKx0m8DAQDp27FhheatWrbB3sMfKyoru3bsry3Nzc4mJiUGtVjNh4gTiL8fz/fff4+Pjg4uLCzk5OSxfvpxu3boRNCiImPMxfPHFF8yZMwdPT09Gjx7NqlWr9ALk1tbWdO3aFQBfX1/lniyvprpQ0725e/duTp8+zTPPPIO5uTn79u2rdmzh+70XxowZw9atW2nUqBH9+vWjadOmJCYmcuvWLWWb6p5V5dW2/DU9H8zNzVm5cmWl683NzfWCUGX17NkTS0tLXFxc9J7L6enp5OXlASXn7vjx4wQGBjL5tcmcOH6CNWvWsHjx4moDbmVFRUWh0Wh49dVXSUtL49tvv8XKygp/f39yc3NZsmQJgwcPZsyYMcTGxrJq1SoWLFiAra1tjfU0MzOTlStX0r17d4YNH0b85Xg2bdqk5O3g4MC5c+eUAGlERAQXLlzgzp07NGzYkEuXLmFlZYWJiQl5eXnKNdVqtaxZswa1Ws2kSZPIycnh22+/VdKt6h4ozePxxx9n0uRJnDl9hvXr1+Pl5YW9vb3B90hN56Wm63Lu3Dm+/fZbnnnmGdw93Ak9FkpUVBTNmzevMr+YmBh0Oh3jxo3DyclJb71Go+Gzzz5j3LhxtGjRgt9//52lS5fy6aefYmJiUuvvamtra1avXk16eroSmIuIiMDFxQVjY2O9a1FcXMy6devQarVMmDCBO3fusHXrVgCGDh1a7bPKxsam2rpZWFhIamqq3rL8/Hy9elBa9uHDh5OTk8PWrVtp2LAhTzzxBMXFxaSmpqLT6er1Oe/q6kbDho2AkvepBg0aAGBvb4+ZmRnbtm1DpVLh6OiIubk5Tz75pLKvTqerMG7mnj17uHHjBtOmTSMvL4/169djbd2I/v0DazzflT1vPTw8CA8PVwKkGo2GU6dOKeUo+8yJi4tj3bp1jB49mpFPjyTsjzAWLlzIwoULsbS0rNWztjxD3iWqu69K32HVajUvv/wyixYtqvR9rHzL8Kq+h6Hm90MhhBBC/D1JgPQhplKp6NWrFz179iQqKor9+/ezc+dOBgwYQK9evSqMwWlsbIybmxvGxsbY29sr3c+q0qRJE2xsbFCr1cq2Op2OPXv28Prrr9OsWTMAxo0bx8KFC3nqqaeUfUf/YzSeHp7K5zt37qBWq7G0tATAxsYGOzs7vbRLPf7448qPDZVKxbJlyygqKsLExISRI0dy9+7dKsucnZ2t1+KiVEBAP73WTaVlKO1WWZmOHTsqPw7Ka9CgAZaWlgwdOpSBAwdy/Phxvv76axo1alRji14fHx+DfjRUJzg4GDc3N7y8vDh27Bje3t5Kq5h+/fqxe/duAG7cuEFcXByffvoparUaHx8fsrKyOHToEG3atMHNzY0FCxbQsGFDAIYPH8706dO5ffs2jRo14vr164wcORIbGxtsbGz497//XW3rqpqO9cCBA0prYYAXXniB6dOnc+3aNby9vYGS4HmrVq2Akh+VZ8+eZciQIcpxHzlyhNu3b9O4cWOD0quqPlVWv8uzs7OjZ8+ela6ztbUFwNvbW/nhW15VgZay3RbL1wWtVsuzzz6LsbExnh6eREREcPbsWVxcXPj9999xcHBQ9vH08OTKlSuEhYURFBSkBFBcXV2V+79x48YMGzZMObdVqa4ulAaaqjqXRkZGhISEMHnyZFq2bAmAk5MTM2bMqDI/uL97wcnJCSsrKxo1alTp9TP0WQUlwZ7alr+m54OxsXGVdae6VlWlLSKbNWumlLsy7u7uBAUFAeDi7EJoaChXrlwxqIUegJGRES+88AKmpqZ4eXmh0Wg4ePAg/v7+mJiYMH/+fCWQ5e7uztGjR4mPj1fqfXX19NSpUzg6OjJ69GhUKhWeHp6kp6crYymWtgorDQIlJibSo0cPLl68SKdOnbh8+bJyHcq6fv06169fZ9GiRcp3iUqlYsWKFQBYWlpWeg9Ayf1aeh94uHtw9OhRrl69ir29vcH3iCHnpbrrcujQIYKCgpQ8PNw9uHLlSrXXqbi4mIkTJ1ZaZ5KTkzEyMqJjx46o1WoGDx5M9+7dUalU9/xd3bp1a6KioggICADgzJkz/POf/6yQd+l3yyeffIKVlRVQ8s5QOs5jTc+qujB06FC8vLyUcxEZGckTTzyht019PufLthwePXq08n9TU1OmTpvKNxu/4fr16/zyyy9MnjyZtm3bKu8Nly9fpri4WC+ge+3aNfz8/JT83nnnHSXoZ8j5Lv+87dylM0s/W4pWq8XY2Jjz58/j7u5e6R+rDh48SGBgoPLd5eHugaWlJenp6bi5uVVb1wxpRVoTQ5535d9xXVxclHWlf0Ar+31W3fdwTe+HQgghhPh7kgDpI0ClUtG+fXvat2/Pn3/+ybZt29i0aRPr1q2r87xu3bpFXl4eERERyuQlxcXFFBYWcvPmTaXlppOjfkuXnJycKn9clOfs7Kz839XVlfz8fLKzs7Gxsanyh0jZfEp/OJfl5ORcYZmFhQV37typMi1Du+Gp1Wr69etHnz59OH36NKtWrcLR0VGve2BZZV/a71XZHzCWlpY0afLfllINGjRQxt9LSEggLy+Pn376SVkfFxfH5cuXlX3T09M5e/Ys6enpyg+C/Px8jIyM6NGjBytWrKB79+60atWK1q1b1+rHTvljjYiI4NatW3ozTufk5JCQkKAENB0cHPSOrfQHauln+G9LEEPSq64+1cTe3r7Glo01BbJqy9HRUe8ce3h4kJaWBpS0kL5w4QI7duxQ1kdGRtbJD9Dq6kKpqs5lUVERhYWFyjkHaNSoUY33a13cC1Wp6VnVqFEjZdv09PRal9+Q50PZLqN1rbQ1PpQEXJycnLh586bBAVIvLy+l+y+UBE82b96MVqvF1NQUtVrNmTNnSEpKQqPRkJqaqlcXqqunCQkJNGvWTO+PRM2aNVMCpI6OjpiZmZGamkp2djbNmjWjTZs2xMbG0qlTJ/7880/Gjh1bocxJSUm4uLjoPeMfe+wxg463bF1TqVR4eHjUeoZuQ85Lddflxo0b9OvXT68czZo1q/Z7yMnJqcr7283NDXt7e95//326d+9O27ZtlYBhaeu/2n5Xd+3alWPHjhEQEEBKSgo5OTn4+flVyDsxMRFXV1clOAoldao0/7/yWVWq7P3p5ubG8ePH7ymd+njOe3p4MmfOHNauXUtKSgrff/89p0+fZvz48YSGhrJr1y6lJXqp7t2785///Ifk5GTatGlD+/btlT9oGXK+yz9vPT08adCgAfHx8TRr1oyoqCilJXV5V69epU+fPspnlUpFcHAwUHNdq+l7wBD3+7xzcXHh6adHMmfOHCZPnlxjb5+a3g+FEEII8fckAdJHSHp6OmfOnCElJUVvjMm6VNpiysrKSq8r55AhQzAzM9ObObgsY2PjCt3FqlI23dpOBmFsbFxlGcorLi7W64p/v65evUp4eDhWVlZ6PyT+atXNKFx6vSwsLJRlvr6+tG/fHp1OR3R0NOvWraNVq1a4u7vj7Kz/Y/m5556jS5cunDlzhg0bNqBWq5k+fbpBwcWqNG7cWK88Q4YM0Qu8VaeyY60pvfupT/WhfBfpsmXOz8/HxMTkns9fdc6ePVttXShftrLlKigoQKVSVbifatPauK7V9Kwq63+x/DWprp4YonwPg9Lnd1FREZmZmSxcuBB7e3uaN2+u90cKQ/IvKCjQC74CFT63atWK+Ph4bt26RcuWLWnRogU7d+4kNzeXmzdvKuNolpWfn19julUpH5i7l2dBenr6fZ2Xysp/P3XMzMyMWbNmcfr0aaKjo/nkk0/w9fVl0qRJ9/xd3bZtWzZu3IhGo+Hs2bN07ty50qBmQUFBtd+fdf2squzZX/a4DB1a4n+BVqtFp9NhYmKCu7s7Xbt2xdvbm5kzZzJy5EhsbW2xtLQkNjZWL2DZo0cP3N3dCQsLY//+/Xz77bdMmjSJVq1a3fP57tatG1FRUXh5eXH27Nkqx14uLCys8nrX5ll7r+73eafVaomOPoeTk5MSVK5OXb8fCiGEEOJ/g3y7PwJKu2iVjuk2f/58vdZR96vsD6nSVkMdO3astFVAenp6pWlYWVlVGGPqr9CwoRUJCQkGbavRaKp9UV65cmWVYwxOnDgRe3t7dDodZ8+eZf/+/WRlZTFo0CAmTpxo8I/2v5qbmxvW1tYMHDiw0h8Uhw8fJiAgQOlempGRwebNPyrrVSoVLVu2pGXLlowePZpPPvmEEydOEBwcjFqt1rvexcXFZGdnV1ue0uDs448/XifHVxfpVRdQP3/+PDt37qx0nZ+fHyNGjOCnn34iIiKi0m0GDhxYpxOC+Pn50bhx4xq7qBr6R4KyaqoL1XF0dESlUpGcnKx0Yy0qKiIpKanW5agrNT2ryj6P7qX8NT0fzM3NWb58eaXrzc3NmTZtWm0Op85du3ZN73NiYqIy7Mlvv/2Gra0t06dPV9YfPHjQ4LRdXFy4ceOG3rLyz2U/Pz/i4uJITk5m/PjxNGzYEHNzc86cOUPz5s0rDcq5uLiwe/dupUtwZemWupd7oCanT5++r/Pi5uZGQkKCXuu169evG9y7ojJmZmb06NGDHj16kJGRwezZs4mPj8fb2/uevqvNzc1p164d0dHRREREKM+Dyo5lx44dyvA3UDLETVJSEr6+vgY/qyqjVqvRarVkZWUp45PX9N1Sk/+l53xUVBTbt2/ngw8+UJaVtoouKCjAz8+PN954gxkzZvDUU08p5wBK7oHhw4czbNgwfvjhB/bv30+rVq3u+Xx36dKF5cuX07JlS9zd3fXG7S3Lw8ODhIQbesMGXLp0CVtb2xqftTW5l3eJmpS/3vHx8cTHx7N06VKDWjHX9H4ohBBCiL8nCZA+xLRaLcuWLSMpKYmBAwcwduxYvdYDdcHBwYGkpCTS09OxtbXFxMSELl26sGnTJsaPH4+VlRWhoaHs3buXjz76qMp0GjduTGFhIZmZmZVOkmCosLAwMjIyqvwR0KSJTbUTq5SVkpJSaQugUj169KhyjEErKytSUlJYsWIFarWaQYMG0aFDh1q3YtFoNMoEUrWdpMYQ7u7umJubs3PnTgYPHgzA5s2b0Wg0vPLKKzRo0IDExEQKCgrQ6XTs2rVL2ffOnTvMnTuXF154gTZt2lBUVERBQYEyxqurqytHjhwhOTkZBwcHDhw4UGEShPK6devGrl278Pb2xtnZmatXr7J8+XKmTJlSqxnM6yq98vW7fBDZwcFBr0tsWaWtaFu0aFFlnS7bLbAutGvXjp9//pmIiAjatm1LdnY2q1evpmvXrgQEBGBjY4OpqSnnz5+nU6dOtWplU11dqImJiQkdOnRg06ZNvPTSS5iZmbFjx45aB6l27NjBY489pjer8r2qzbPqXspf0/PBxMSkyrpTl92M71VaWhq//PIL/fr1IzMzk23btimt1SwtLbl16xbZ2dk0aNCAI0eOkJGRYXDabdu25aeffiI8PJwOHTpwI+EGISEhetu0aNGCrVu3olaradq0KVDSqnTPnj0VkL4jbAAAIABJREFUZmov5eHhgYWFBTt27ODJJ58kNzeX7du3621zP/dATe73vHTu3Jndu3fTokULnJyc+OOPP7h48SIdOnQwOI2y90h0dDQ//PADU6dOxc7OjtzcXHQ6HXZ2dvf8XQ0lQbMDBw5w69atKieQKv3j25YtWxg+fDgFBQV89dVX2Nra4uvrW+OzqjpNmzbF1NSUo0ePEhQURFZWFkePHtXrbl4b/2vP+VatWrFlyxbWrVtHRkYGDg4OyuzspfdCkyZNMDc3R6PRKAHS0hbCQ4YMQaVSkZeXp3wf3+v5dnJyQq1Ws3fvXnr06FHldt27d2fTpk00a9YcV1dXoqOjWbVqFR9//HGNda2mPxjfy7tEdZycnIiNjaVly5ZK8P7u3bvVDldRXk3vh0IIIYT4e5IA6UOuW7dudO3a9S/rCtSsWTNat27N+++/zz/+8Q8ef/xxnn32WTZs2MDs2bMpLCzEwcGBV155pdqXYGtra9zc3Lh27dp9BUhjY2NJTk6uMkDaokUL0tPT0Wg0lY5FWta1a9do3759letr+tGanZ3NM888U+n4bIbKzs4mPDyczp07/yUBUrVazeuvv87XX39NSEgIWq2Wli1b8sILLwAlkx6tWrWKKVOmYG5uzpgxYzhx4gQADRs2ZNSoUaxfvx4oaZHRs2dPpaVM3759iYmJYe7cuZiZmTFkyJAau9736tWL27dvs3TpUnJycjA3N+fpp5++p+BoXaRXWf0uy87OrtJJv8ry8fExeBy0++Xq6srEiRPZvn07a9euBUquQ+lkE6XB+h9++EGZtdlQ1dUFQ4wbN44vv/ySmTNnYmRkRHBwsDIeoSF0Oh3h4eGoVKo6CZAC1T6rSsfpvdfyGxLUqi7gUN+6d+9OWlra/7d35/FRVQf/x78zw2SGSQghCZBgIIEgWwtCEQlSZRdQAVEqtVXkoX2wrRtKcaMWF9RqC1r3WvcNfyoogghG5QEUEJBVQJBASBCyEcIkTBYyM78/rgwM2SEwCffzfr14kZl77r1nJnPuvfnOuefo1ltvlc1mU+/evQOzV/fp00ebN2/WtGnTZLfbNXTo0KDxWWuSmJioG2+8UR988IFefvllxcfHa+zYsZo7d26gTFRUlJxOZ9Dxs1u3blq0aFFQL7UTOZ1O/fnPf9Ybb7yhL774Qi6XSxMnTtTOnTsDZU6nDdTkdN+XQYMGKS8vT0888YTKysrUs2dPDRs2rMrenCc7uY1069ZNPXv21IwZMwLh4YQJEwLH4VM5V0vGRE2vvPKKBgwYUGXAHBYWpttvv12vvvqqpk6dKq/Xqx49egRu0a7pWFUdm82miRMn6p133tGiRYvUsmVLpaSkVDmLfE0a2nHe4XDo/vvv1+LFi7V27VqlpaVp1KhRNfb+vHb8tXrtVeNcbrValZycrAkTJkg6vfc7JSVF8+bN01/+8pcqy/Tr10+HDx/Wc889J7fbrYiICE2ePDkQIp7qZ+1YPet6LVGdyy67THPnztW3336rWbNmBZ6vy5clNV0fAgCAxsnir26AQpxxO3furLIHxqlIS0vTq6++WmMPkPrm9XpltVqDLjC9Xq9KS0trDCKPWbRokXJycjRx4sTTqovf76/2Qnf27NmBWw6r4vF4dNddd2nmzJlV3lJ2thx7PdnZ2crKyqqyXFRU1CkHiZIxJpzFYql0TDCPxyOHw1Fl74pjk2xV9r6XlJTIZrPVeViB6rZ5Kk5ne5V9vhu66n5nfr9fPp/vlHoq1vRZqElpaalsNtspfWlzrC0cOXJEu3btqrKc3W6vdJbzqtTlWHU69W8Idu/eXe3kIgkJCUE9o6p7vdUdM2qrNl9Wnep2mzZtWmWbPZ02UJPTfV+8Xq/KyspO6Y6Pys5/Pp9PHo8naMKkk/dXl3N1XdXUZk4+pmzatKna7XXp0kUOh0N+v19Hjhyp8nXVVUM8zi9ZskStW7euNIx7+OGHNWbMGPXo0SPo+eLiYtnt9lq/3/WtujZ98metLtc1p3otUZUTh+JITU3V3r17a/WFSUO6PgQA4FxV3zlZbTXOv/DQ4FR2oW2z2er0B9fgwYM1c+ZMFRYWntbYTjX9cXP1NVfrvTnvKSUlpcqyq1at0sCBAxvExe+xOqalpWn58uVVluvatetpBaQnT8pyopp+j9X9gXqqtz3W1x+99bG9hnDLc11V9zuzWCyn/JpON0Sp7nNWk2NtIT8/X5999lmV5VwuV50C0rocq06n/g3BmjVrlJ6eXuXyESNGBAWk1b3e+ngvzlQoV9N2T6cN1OR03xebzXbKw+FUdk6zWq3VHv/qeq6uq5rej5P3XV3blowQ3+FwyGKx1Ot5oiEe54cPH17lsr59+2rOnDnKzc0Nuk2+ps/Omfxd17T9kz9rdbmuOdVrierqIklz587V119/Xesv5xvS9SEAAKhf9CANsfpOxgsKCrRt27YzNkv9mbZr1y7Z7fbTCvpqY82aNerSpUuVk1WtXLlSvXr1qvcxWwEAAOpDVlaWDhw4UKdxahFs1apVgUmsaoPrQwAAzrxQ9SAlIA2xUP3iAQAAAAAAgIYkVDlZ3abUBgAAAAAAAIBzCAEpAAAAAAAAANMiIAUAAAAAAABgWgSkAAAAAAAAAEyLgBQAAAAAAACAaRGQAgAAAAAAADAtAlIAAAAAAAAApkVACgAAAAAAAMC0CEgBAAAAAAAAmBYBKQAAAAAAAADTIiAFAAAAAAAAYFoEpAAAAAAAAABMi4AUAAAAAAAAgGkRkAIAAAAAAAAwLQJSAAAAAAAAAKZFQAoAAAAAAADAtAhIAQAAAAAAAJgWASkAAAAAAAAA0yIgBQAAAAAAAGBaBKQAAAAAAAAATIuAFAAAAAAAAIBpEZACAAAAAAAAMC0CUgAAAAAAAACmRUAKAAAAAAAAwLQISAEAAAAAAACYFgEpAAAAAAAAANMiIAUAAAAAAABgWgSkAAAAAAAAAEyLgBQAAAAAAACAaRGQAgAAAAAAADAtAlIAAAAAAAAApkVACgAAAAAAAMC0CEgBAAAAAAAAmBYBKQAAAAAAAADTIiAFAAAAAAAAYFoEpAAAAAAAAABMi4AUAAAAAAAAgGkRkAIAAAAAAAAwLQJSAAAAAAAAAKZFQAoAAAAAAADAtAhIAQAAAAAAAJgWASkAAAAAAAAA0yIgBQAAAAAAAGBaBKQAAAAAAAAATIuAFAAAAAAAAIBpEZACAAAAAAAAMC0CUgAAAAAAAACmRUAKAAAAAAAAwLQISAEAAAAAAACYFgEpAAAAAAAAANMiIAUAAAAAAABgWgSkAAAAAAAAAEyLgBQAAAAAAACAaRGQAgAAAAAAADAtAlIAAAAAAAAApkVACgAAAAAAAMC0CEgBAAAAAAAAmBYBKQAAAAAAAADTIiAFAAAAAAAAYFoEpAAAAAAAAABMi4AUAAAAAAAAgGkRkAIAAAAAAAAwLQJSAAAAAAAAAKZFQAoAAAAAAADAtAhIAQAAAAAAAJgWASkAAAAAAAAA0yIgBQAAAAAAAGBaBKQAAAAAAAAATIuAFAAAAAAAAIBpEZACAAAAAAAAMC0CUgAAAAAAAACmRUAKAAAAAAAAwLQISAEAAAAAAACYFgEpAAAAAAAAANMiIAUAAAAAAABgWgSkAAAAAAAAAEyLgBQAAAAAAACAaRGQAgAAAAAAADAtAlIAAAAAAAAApkVACgAAAAAAAMC0CEgBAAAAAAAAmBYBKQAAAAAAAADTIiAFAAAAAAAAYFoEpAAAAAAAAABMi4AUAAAAAAAAgGkRkAIAAAAAAAAwLQJSAAAAAAAAAKZFQAoAAAAAAADAtAhIAQAAAAAAAJgWASkAAAAAAAAA0yIgBQAAAAAAAGBaBKQAAAAAAAAATIuAFAAAAAAAAIBpEZACAAAAAAAAMC0CUgAAAAAAAACmRUAKAAAAAAAAwLQISAEAAAAAAACYFgEpAAAAAAAAANMiIAUAAAAAAABgWgSkAAAAAAAAAEyLgBQAAAAAAACAaRGQAgAAAAAAADAtAlIAAAAAAAAAIXPnnXeGdP8EpAAAAAAAAABC4s4779Ts2bNDWgcCUgAAAAAAAABnXUMIRyUCUgAAAAAAAABnWUMJRyUCUgAAAAAAAABn0cnhKGOQmpzVapXP5wt1NQAAAAAAAIAzrrJwdPbs2fL5fLJaQxNVEpCGmMvlktvtDnU1AAAAAAAAgDOqqnBUktxut1wuV0jqZfH7/f6Q7BmSpJKSEu3bt0+xsbGKjIwMWVIOAAAAAAAAnG0+n09ut1t5eXlKSEiQ0+k863UgIG0ASkpKlJ+fL4/Hw+32AAAAAAAAMA2r1SqXy6Xo6OiQhKMSASkAAAAAAAAAE+N+bgAAAAAAAACmRUAKAAAAAAAAwLQISAEAAAAAAACYFgEpAAAAAAAAANMiIAUAAAAAAABgWgSkAAAAAAAAAEyLgBQAAAAAAACAaRGQAgAAAAAAADAtAlIAAAAAAAAApkVACgAAAAAAAMC0CEgBAAAAAAAAmBYBKQAAAAAAAADTIiAFAAAAAAAAYFoEpAAAAAAAAABMi4AUAAAAAAAAgGkRkAIAAAAAAAAwLQJSAAAAAAAAAKZFQAoAAAAAAADAtAhIAQAAAAAAAJgWASkAAAAAAAAA0yIgBQAAAAAAAGBaBKQAAAAAAAAATIuAFAAAAAAAAIBpEZACAAAAAAAAMC0CUgAAAAAAAACmRUAKAAAAAAAAwLQISAEAAAAAAACYFgEpAAAAAAAAANMiIAUAAAAAAABgWgSkAAAAAAAAAEyLgBQAAAAAAACAaTUJdQUglZSUKD8/Xx6PRz6fL9TVAU6Z1WqVy+VSdHS0nE5nqKsTMrRpAI0Nx28Dx2+cK2jTdUf7B4DQaQjnLYvf7/eHZM+QZJyI9+3bp9jYWEVGRspqpVMvGi+fzye32628vDwlJCSY8oKcNg2gMeL4zfEb5xbadN3Q/gEgtBrCeYuANMT2798vl8ulqKioUFcFqDcFBQXyeDxq06ZNqKty1tGmATRmHL85fuPcYuY2XRe0fwBoGEJ53uKrsRDzeDyKjIwMdTWAehUZGSmPxxPqaoQEbRpAY8bxm+M3zi1mbtN1QfsHgIYhlOctAtIQ8/l83MKBc47VajXt2E20aQCNGcdvjt84t5i5TdcF7R8AGoZQnrc4CwAAAAAAAAAwLQJSAAAAAAAAAKZFQAoAAAAAAADAtAhIAQAAAAAAAJhWk1BXAHWzc+dOTZ8+XR988EGFZTNmzNAFF1ygq6++usIyr9er3NzcWu/H6XQqKirqtOoKAAAAAAAANHSmDEh37NihDh06yG63Bz2/bt06denSRREREXXaXklJiZxOZ31WsYL58+dLknbv3q0lS5YEHqekpGjDhg3yer1aunSpcnNz5XA4JEm9e/dWXFycJCk9PV0dO3as9f5uuOEGvfnmm/X8KgBUJisrSz6fT23atAl1VQAAAFAHfr9f5eXlFf62PJHX65XVapXFYqmyTHl5uZo0qf7Pc6/XK5vNdlr7AQBUrlEGpCtXrtSkSZNqXX7YsGF65plnAo/79OmjzVs2KykxKajc+PHj9eGHH6pXr151qs+ZDkcl6Z133pEkbdq0SSUlJYHHSUlJevvtt5Wenq5vvvlGK1asUGZmppo2baqWLVsGAlJJslqt8nq9Qdu12WzasGGDevToEXjuySef1IYNG874awJgWL58ucrKynT99def1nZKS0u1Z88ederUSVYrI6gAAACcKT6fT/PmzdPKlSvl8XiUnJysSZMmKSYmJlDmyJEjmjt3rr777js5nU6lpKRo9OjRQSFnRkaGFixYoC1btighIUFDhgxRv379Asv9fr8+/fRTrVy5UoWFhfrVr36lsWPHBt3tV5v9AACq1ygDUo/Ho4iIiFr1cExNTdWyZcvOQq3OrPfff1+7du3SsGHD5PP5FBcXp0ceeUTNmjXTG2+8oWuuuUaXXHKJ4uPjFRcXp3//+9+hrjKAsyw/P1+zZs3Ss88+G+hJDuDctW/fPkVHR8vlclW63OPxKD8/XwkJCWe5ZgBOBW26cfn444+VnZ2t++67Ty6XS0uWLNGsWbP08MMPy2azqby8XM8++6yio6M1Y8YMeTwevfXWWyosLNSECRMkSXl5eXrqqad02WWXaeLEidq7d69eeuklWa1W9e3bV5I0b948bdmyRZNvmqyo5lH65JNP9PTTT+vuu++Ww+Go1X4AADVrtF2MIiIi1KVLF8XHx1f5LykpSW3btj2t/WRlZdVYZuXKlUGP09PTtWnTptPa78k2btyosWPH6rHHHlPLli116aWXql+/fiouLtaUKVM0YMAAJSQkaODAgSouLtb9999fobeoJH399ddB/yRp/fr1Qc+lpaXVa90B1M3u3bv1+OOP69Zbb9XMmTODenQfPXpU7777rqZNm6a7775bc+fOldfr1bZt2wJfjDz44IOVjlMM4Nxis9mUkZFR5fKMjAx6D51hL730kr766iuVlpaGuio4B9CmG5e4uDiNHz9esbGxcrlcGjRokHJzc1VQUCDJ+Jtw//79uvHGGxUdHa2EhARNmjRJK1asUHFxsSRpzZo1at++vUaMGKHw8HB169ZN48aNU2pqqiTjlvnU1FRNnDhRSYlJioqK0u9//3sdOXJEO3bsqPV+AAA1a5Q9SI/Jzs7WL3/5yyqX//Wvf1Xnzp3rvN2jR4/q888/16OPPqry8nKtXLmy2ouR1q1bBz1+6qmntGvXLi1cuLDO+65MXl6eBg8erA8//FAtWrSQJI0bN059+vTRc889p8zMTD311FO64YYbJElPP/20Ro0apVdeeUWTJ08ObMfn8+nuu+8O2rbP59OTTz4ZNO5qRkaGBg0aVC91B1A3xcXFmj17ti6//HJdd911+uGHH/TCCy/oscceU0xMjBYsWKDMzExNnTpVJSUlevXVV9W8eaQuvri/rr32Wr3wwgv6wx/+wCRrgAnEx8ersLBQGRkZateuXdCyjIwMWa1WxcfHh6h25jBgwAAtXLhQCxYs0NChQzVw4ECFh4cHlhcWFur555+vdF2n06nbb7/9bFUVjQBtunG5+OKLgx7/8MMPio6ODvy9lpOTo9atWyssLCxQplWrVrLZbMrJyVFiYqKys7N13nnnBW2nTZs2ysrKkt/v16FDh+T1eoN+7zabTW3atFFOTk6t9wMAqFmjDkjj4+N18ODBasvMmzev0ufbJ7UPeuz3+yUZPa9WrFihiy66SPfdd59GjBhR4ze1ycnJQY+nTJkit9tdU/VrLTY2Vtu2bVNcXJyysrI0ffp0SVJiYqImTJigP/3pT7LZbLrmmmvUtm1bOZ1OzZs3r8LYqFarVd98803QczabTW+99RZjkAINRJMmTfTQQw8pOjpaktSuXTstX75cu3fvVkxMjPbu3auuXbsGxhe+9957VV5eLpfLFbh4TkhI4BZ7wCSSkpK0ZcsWRUZGBr4YKSgoUG5urrp37x7i2p37OnfurM6dOyt9b7o+X/K57rnnHg0YMEBDhgxRixYtFBYWpv79+1e6Lj0BURnadONUUFCgDz74QOPHjw+MA5+TkxMIS4+xWCxq0aKF8vLylJiYWGmAGRUVpdLSUhUWFio3N1dOp7PCdV2LFi2CAtKa9gMAqFmjDkglY6yeBQsWVHg+MTFRl19+eZXrbd++vcI3s5LUt29fvfTSS2rVqtUp1ykpKemU161KXFycbrvtNn366aeSjBCzOjt37uTCG2iE7Ha7HA6H1q9fr/3798vj8Sg7Oztw+2ZKSopef/11HThwQN27d1fPnj3VrFmzENcaQKiEhYUpOTlZe/bsCUwyuWfPHiUnJwf1JsKZlZSYpMmTJys3N1efffaZ7rrrLv3zn/9UVFSUfv3rX4e6emhEaNONz9GjR/XCCy+oV69euuiiiwLPu1wulZSUVChfUlKipk2bBsqcPETHscdOp1NNmzbV0aNH5ff7g2amLy0tDVz/1WY/AICaNfqAdNeuXXriiSeCbiXfvn27UlNTqw1InU2dlQ6APmLEiNMKR8+kv/3tb7pz6p21KntyOFpeXi5Jeu211yqU/eijj/Tdd98FHq9evZreZ0CI5OXl6fHHH1erVq3UqVOnoJlQJalfv35q166d1qxZo8WLF+vtt9/WzTffrF/84hchqjGAUIuKilJsbKx+/PFHScadJwyzcfYVFxdr48aN2rJli5KSkriWwimjTTcefr9fb775pux2u377298GLWvVqpWWL18e9FxZWZmKiooUGxsbKJOfnx9U5tChQ4qKilJYWJhiY2Pl9Xp1+PDhoM/AwYMHA9d+tdkPAKBmjT4glYxb3O+9997A408//VSvvPJKCGtUv3w+nx588ME6r/eb3/wmMEZrZmamHA6H1q1bF1TG7/dr27ZtgVs0JGOMo/PPP//0Kg3glHz33XeKiYnRtGnTAs998cUXQWXOO+88jR07VldddZXmzJmjxYsXBwWkPp/vrNUXQMPQtm1bbd++PfAzzp6CggItXbpUy5Yt0wUXXKApU6YExhR0u9165plnKl3P6XRq6tSpZ7OqaERo043DZ599pr179+qee+5RkybBf1q3bt1aubm5OnjwYOAL7x07dshutwcex8XFKTU1VT6fL3Br/g8//BA4hkRERCgiIkI7d+4M9E4tLCxUZmZmYB6M2uwHAFCzcyIgPZO8Xm+db1VfsmSJDhw4oIkTJ9ZLHSwWS5XfGr/++utKTEysdFIlu90e+HnPnj0aPHiwnnvuuaAyL774oqZPn84YpEAD4XK5dPDgQbndboWHh2vZsmVBPQueeOIJdenSRVdccYUsFotKSkoCvQOio6Nlt9u1detW9e7dO+hWLADnvvbt29dcCPXq448/1ldffaX+/fvr73//e2D86GOcTqcGDx5c6boMhYSa0KYbtg0bNuijjz7SPffco7KyMpWVlUmSwsPDZbfbFR8frwsvvFBz587VDTfcoNLSUs2fP1+jR48OtP9+/fpp8eLF+vLLLzV48GDt27dPX331le64447AfsaOHatPPvlEHTt2VEREhObNm6dOnToF5sGozX4AADU7JwLSbdu2BX0Dn5aWFvgG7nSNHTtWM2bMUO/evWu9zpo1a7R79+56DUiPnSRXrVqlrKwsjR07VpK0du1a9enTR3fccYd27dql1atX6/rrr6+wjY0bNyolJaVe6gPgzOnTp482b96sadOmyW63a+jQoerQoUNg+bXjr9Vrr76m1NRUWa1WJScna8KECZIkh8OhkSNHas6cOdq4caP++Mc/huplAAiBkydnxJnXpk0bPfroo4qIiKh0eVhYmPr163eWa4VzBW26Yfvwww8lSf/4xz+Cnr/pppt04YUXSpLGjx+v//73v7rrrrvk9/vVs2dPDRs2LFA2LCxMkyZN0ltvvaWFCxfKarVq9OjRQZMAX3LJJUpPT9ff//53WSwWJSQk6H//93+D9lnTfgAANWv0AWm3bt307LPPBj3Xv3//wAzPtbF9+/YqJ1basWNHnSdAuf/++8/ILa5Lly7VlVdeGTgZn8zn82nWrFl6//339cYbbwRmM8zJydHLL7+sL7/8slb7cbvd9RYwA6jZtddeG/jZ6XTq5ptvVmlpqSwWS4UJGZISk/Tggw+quLhYdru9wu1co0aN0pVXXslt9gBwFpw4IQsAc3nkkUdqLBMZGampU6fq8OHDCgsLq3TSpPPPP18PPfSQ8vLy1KJFiwq9Pi0WiyZMmKDx48eruLi40jsLa7MfAED1Gn1A2qpVK1199dVVLi8tLQ0K+4qKilRaWqoli5doy5Ytmj9/viRj/JjY2FitXbtWkZGRkoyeqfv27VNiYmKd61WfAaPf79eMGTP0r3/9S++9955GjhyprKwsFRUVKTs7O/DtcqdOnbRq1Srdcsstuvjii/X555+rbdu2evHFFzVw4MBqZ1EtKyvTrbfeKkmaM2eOpk+fXm/1B1B3NU3uUd2Fr8Vi4ZYqAACABqJ58+Y1lqlpQiWHw1Hj9WFt9gMAqFyjD0ircsstt2jDhg1KS0vT3XffHXg+JydHDodDy5Yt07BhwzRlyhR17NhRknTffffpgQce0MyZMyVJzZo109NPPx3yWUgtFovatm2rTZs2BSZP+uabb/TEE08oMTFRo0aNCpR1Op166aWXgm73uu6663TVVVdVuu2lS5eqQ4cOCgsL06WXXiq3263hw4cHbRMAAAAAAAA4V1n8fr8/1JWoq4MHD2rPnj2BsV0qs3v3bmVnZysqKkpdu3YNWnYqEy+dKTt37lSnTp1CXQ2g3pn1s23W1w3g3GHW45hZXzfOfXy2a8Z7BAANR6iOyY2yB2lMTIxiYmKqLdOhQ4egiU1O1FDCUQAAAAAAAAChxUw8AAAAAAAAAEyLgBQAAAAAAACAaRGQhpjVapXP5wt1NYB65fP5ZLWa8/BCmwbQmHH85viNc4uZ23Rd0P4BoGEI5XmLs2WIuVwuud3uUFcDqFdut1sulyvU1QgJ2jSAxozjN8dvnFvM3KbrgvYPAA1DKM9bBKQhFh0drby8PBUUFPCtJRo9n8+ngoIC5eXlKTo6OtTVCQnaNIDGiOM3x2+cW2jTdUP7B4DQagjnLYvf7/eHZM8IKCkpUX5+vjweDydkNGpWq1Uul0vR0dFyOp2hrk7I0KYBNDYcvw0cv3GuoE3XHe0fAEKnIZy3CEgBAAAAAAAAmBa32AMAAAAAAAAwLQJSAAAAAAAAAKZFQAoAAAAAAADAtAhIAQAAAAAAAJgWASkAAAAAAAAA0yIgbSDKysqCHh8+fFhFRUVBz+3atUs+n69e9rcjT9qaXfmyrEJpw/6at+GX9Mp3ktd/fJv1qaRc8vmlzMPSup+M5wpLjf/3u48/BwAAAAAAAJyqJqGuAIwwdOHChRo5cqSio6MlSQcPHtRXarPtAAAJoUlEQVTWrVs1atQoSdLevXu1ZcsWdezYMWjdgoICLV68uNrtjxs3Tk2aBP+q7/1S6hwjXZQvNQuThiYfX/Z9jpS6W+rVpuK23two5RyR/tpfOuCWXtgg/aG3dKRM+muqdF036XcXVFxvS5b0Pwurfx/+1l+6quvxx0+vlnq0kmxWaUWG1KKp9PAy6fWx0tI90o6D0oXnVb9NAAAAAAAAoDoEpA1A8+bNddlllyk1NVVDhgxRbGysOnTooLS0NP30008677zztGHDBqWkpFRYt7y8XFarVSNHjqx023PmzKnw3LxtUhOr9ItY6Yvdkt1mBKRev+T3SV6f8XO51yjfxHZ83YU/Snf8XI2tOVKfOOPn8DDp/42Tbv9McpdJf+oTvM9ftJZWTKxYv80HpNc2Sr3ipCEdgpf94VfSi+uki34Oaj/fJd136c/7zjV6sH6993j5ixKkMJsAAAAAAACAWrM98MADD4S6EpDCw8PVoUMHRUREKCMzQxs3bpTVatWBAwe0bt06hYeH6/Dhw0pPT1dCQoKsVmN0BI/Ho4yMDPXs2VMOh0MrVixX06ZN1bp1azkcDq1fv169evUKlN+wX5r4qfTbLlKYXZrzgzS0nRE2vrtZenmDlJYv7ciX0g9J076SbvqVUcecI9L9y6XuLaXvs6W5OySbpMMl0uYsaXuulBAp7XNLBwql7q2N9T7aLskvlZZL0S4jxDzglqYskZo7pDv6GYFtSbn0TYbUpaVU6pWeWi0VlkmvbTG2GRdhhLLdW0kvfif9uq1U5pX+sVKKbSpdEGeEvQAAAAAAAEBt0YM0xDIzM7Vt2zZJUvv27dWpUyclJSYpKTFJkpSVlaXVq1dX2UP0ZH5/9ct7xEu/biN1jpW+yZRu+5UU5ZQW/Si57NJvukkxTaXP04zemp+kHV/XYpHeuNL4ufiotHyf9J/hkuOkT1G75sZt8ces+UmKsEv7i6Tv10qPD5Nyj0hRYdKNPaV/rJBcTaSuLaVvfzJus3fYpHt+Lf3lU2l8F2n+j1KexwhTPUel9bnS40OMnqmPrZZ+38OoPwAAAAAAAFAXBKQhFhkZqeTkZGVkZOjQoUOSJK/Xq6ysLElSfn6+ysrK9NNPxoxELpdLLVq0qHJ75eXlFcYbPZHNIoXbpfNjpN2HpMTmUmy4tCWn5rq2dEmDf74N/qPt0kWtpZGdavlCZYShDyyVnlkt9W5zfDt7CqQXrpS+PCGMPeiR/rhAGtdFahUuHSqRru4mvbVJah4mtWtmjEMa38y4pT+qae3rAQAAAAAAABxDQBpizZs3V/PmzVVcXCyPxyPJCDnXrVsnyZjdvqioKPA4ISFBvXv3rnJ7brdbzZo1q3G/18yVPOWS3SpZLdJVHWtcJcgbm6QNuVKXFyoue254xfFEj7l/gLR8r/SXJcYM9Vd3lWYPN+pwIleYdFMvaUQnKXWXNKi91DPO+Pe7edJ/L5emLzUmaerYvG51BwAAAAAAAI4hIG2AHA6HxowZI+n4LfbHHlfH7/erqKhIubm5stvtcrlcVZZ9d4yUmia1jzZuqV+8y3h+7japqV3ac1h6bEXl627NljYfNMb9fP9qY2xQyRhD9Ir3pG4tq67jvG3Sv76VbustLU6TnvxWmlgsXfOL4HJNLFJYE+nL3dJtX0j/HCR9tVtyNpFevFyKdBoTQ/1fujQkqca3BgAAAAAAAKgUAWkj53A4lJCQIMkYz7RFixbaunWrIiIi5HK5lJycLIvlpO6ZfmPcULtNcliN0FGShnc0brnfmitlHZHOj5b+1r/iPt/eIt3ay7j1/dHl0n9GG5MsvfKd1P8847b3kx31Sg8vk5ZnSh/9xpjEaWOW9NhQ6X/mS2mHpB6tjpcv80pL0qRNOdL5zaUVGcZkUBmF0qLfGWWu6iRNXyF9cFU9vJEAAAAAAAAwJQLSBqawsFBLly7VwYMHJUk+n0/l5eV67bXXAmX69++vTp2MwT+bNWumvn37SpK+//579ejRQ1u3bg2UHTx4cIV9HCqVRn8gFZcbwaZF0rWdpV7xxr8v0qSjPqlTjFTmC1535V5p8R5pxY1GT9PVP0m3LpL6Jxiz2s8fX/nr+vYnae9had5vpGYOaXm6MZFTM4f0+lXSpPnGRE7HhIdJjw6RRrwrvXiF1CZSuv0zaWrK8TI946TScqlzNT1WAQAAAAAAgOoQkDYgOTk5ys7O1rBhw+TzGclkbm6u1q9fr+HDhwfKORyOCuuuWbNGhYWF6tChQ1BAKhmTPn300UcaN26csU2PtP6PRo/P5BbGJE0f/1CxPjar9MH3Ur+2xuOf3NLkxdLf+kkRYcZzDw2Uhr4rfZwmPTO06smS+p4n3T/QCGQvf1f64ZA0a5CxLCJMmnONcQt9ZuHxdfYcMmasf36t1MolFZUGj236z5VSj1jp6dXSPZdU9a4CAAAAAAAAVSMgbSA8Ho8OHz6s0aNHq2nT4yljYWGhrFarwsPDK12voKBAa9euVVFRkcaMGSOr1SqbzabCwkLFxcUFyhyT6zGCzzBb1XUpLpcy3dK3+6TP0yWvz+hRetNCYzKn3/Ywbnd/c6P0/EZpaDujB+k/Vklztkp/7m3Mdn/ixEs/5ktR+4yfp6YYyxw2aWXG8TLbcoPr0TFGema4dMsS6Ui51DlK2rBf6tVGena1dH6M9PyV0pj3pF4/SsPPr9VbDQAAAAAAAAQQkDYQLpdLY8aMqdUM9JIx0/2SJUuUn5+v7t27a9CgQWrSxPh1JiYmavny5dq0aZMkI2Tt1auXJCOQHH5CL8z9RdL726TuraRpn0v/lyl1jJK6tzTGEr04Xtp4wAhVO0RJDw6Wvt4r/WGR1Lu19OoVx3uYju4qvbdFmrFcevQb6dPfSU1//oSt3i/9VFT9a8p0S0k/z0i/55D050VS2whp9lCpb1vj9v7n1kq946V0t/TPy4zhAf5zhXT9x8bETcfqAgAAAAAAANSGxe/3+0NdCVStuLhYubm5ateuXYVlWVlZatWqlaxWa4VlJSUlOnr0qCQpLCwscFt+uc/o/Rnjktwlks8v7ciTeraRSo4aIeOJUzplFxnjhLrsRk9Sm9VYb3+h1KWKsT+9fmlHrtTt50mX1u4zwtaE5tW/1owCY/Kmvm2NfWUelpJaVCyX7zHq2eSEl53rkZqFHZ9wCgAAAAAAAKgNAlIAAAAAAAAAplWx6yEAAAAAAAAAmAQBKQAAAAAAAADTIiAFAAAAAAAAYFoEpAAAAAAAAABMi4AUAAAAAAAAgGkRkAIAAAAAAAAwrf8PJg67flmxDjwAAAAASUVORK5CYII=;" vertex="1" parent="PVqFNuO40D3JptiVjfTZ-12">
          <mxGeometry width="1352" height="287" as="geometry" />
        </mxCell>
        <mxCell id="PVqFNuO40D3JptiVjfTZ-14" value="" style="shape=image;verticalLabelPosition=bottom;labelBackgroundColor=default;verticalAlign=top;aspect=fixed;imageAspect=0;image=data:image/png,iVBORw0KGgoAAAANSUhEUgAABT8AAAAqCAYAAAB1Ey+1AAAACXBIWXMAAAsTAAALEwEAmpwYAAAFN0lEQVR4nO3dT4iN7R8G8GuOV82cxcQwk7AgJYoikoUFw8IsSESRkcXrTyxYEGGtJqWpWdogsZhkY8HCYrJQFqRkxKQhWWiaplGnEc75Ld6a7e8d75jHOT6fOpun7nNf3+3V/dxPU61WqwUAAAAAoMGUig4AAAAAAPArKD8BAAAAgIak/AQAAAAAGpLyEwAAAABoSMpPAAAAAKAhKT8BAAAAgIb0V9EBGs3ExERGR0dTqVRSrVaLjgMAAAAAM6JUKqVcLqetrS3Nzc1Fx0mSNNVqtVrRIRrFxMREPn78mPnz56e1tTWlkoO1AAAAAPwZqtVqxsfHMzIyksWLF/8WBajycxp9+vQp5XI5c+bMKToKAAAAABRibGwslUolCxcuLDqKOz+nU6VSSWtra9ExAAAAAKAwra2tqVQqRcdIovycVtVq1avuAAAAAPzRSqXSb/MtHE0dAAAAANCQlJ8AAAAAQENSfgIAAAAADUn5CQAAAAA0JOUnAAAAANCQ6qL87O/vz9DQUNExAAAAAIA6Uhfl5/nz5/Ps2bOiYwAAAAAAdaQuyk8AAAAAgKmqu/LzyZMn6erqyuDgYJJkeHg4Bw8ezLJly9LZ2Zn79+8nSZ4+fZqurq5MTExMrr127VrOnj07pf2Gh4fz4sWL6RsAAAAAAJgRdVV+Pn/+PNu3b8+JEyeycuXKjI+PZ8OGDVm1alWePHmSCxcuZN++fXn06FFWr16dx48fZ2BgIElSq9XS09OTFStWTGnP3t7eXLx48VeMAwAAAAD8QnVTfr548SKbN2/O7du3s2PHjiTJ3bt3097ennPnzqWjoyPbtm3LmTNn0tfXl5aWlhw5ciT9/f2T69+/f5/du3dPad/Tp0/n8uXL0z4PAAAAAPBr/VV0gH+rp6cnra2t+fz58+Szt2/fZnBwMM3NzZPPvn//nqVLlyZJuru7s2nTpvT19eXevXvZv39/5s6dO6V9lyxZMi35AQAAAICZVTcnP3t7e3Pr1q2cPHkyHz58SJLMmzcvnZ2d+fr16+Tvx48fGRoaSpKsXbs2y5Yty6NHj3Lz5s0cOnSoyBEAAAAAgBlUN+VnR0dHurq6smvXrhw/fjzVajVbt27NwMBAXr58meSfez1PnTqVS5cuJUmamppy9OjRnDt3Ll+/fs2WLVuKHAEAAAAAmEF1U34m/5SZV69ezcDAQG7cuJE1a9akt7c3GzduzIEDB7Ju3brcv38/fx/5e3LN3r178/r16xw7diyzZs2a8p4PHz7M9evXp3EKAAAAAGAm1MWdnw8ePEh7e3uSZMGCBXn9+nW+ffuWJDl58mT27NmTV69epaWlJevXr8/s2bMn17a0tKSlpSXd3d0/tffTp0/z7t27HD58+D/PAQAAAADMnKZarVYrOsSvMjg4mCtXruTLly+TX33/GdVqNaXS/z8k++bNmyxfvvyn9wEAAACARvC79GR1cfLzZ+3cuTOLFi3KnTt3/tP//JviEwAAAAD4vTR0+fn27duiIwAAAAAABXGkEQAAAABoSMpPAAAAAKAhKT8BAAAAgIak/AQAAAAAGpLycxqVSqVUq9WiYwAAAABAYarVakql36N2/D1SNIhyuZzx8fGiYwAAAABAYcbHx1Mul4uOkUT5Oa3a2toyMjKSsbExJ0ABAAAA+KNUq9WMjY1lZGQkbW1tRcdJkjTVarVa0SEaycTEREZHR1OpVBSgAAAAAPwxSqVSyuVy2tra0tzcXHScJMpPAAAAAKBBee0dAAAAAGhIyk8AAAAAoCH9D/CzWPqvRd8UAAAAAElFTkSuQmCC;" vertex="1" parent="PVqFNuO40D3JptiVjfTZ-12">
          <mxGeometry x="7" y="185" width="1343" height="42" as="geometry" />
        </mxCell>
        <mxCell id="PVqFNuO40D3JptiVjfTZ-16" value="" style="shape=image;verticalLabelPosition=bottom;labelBackgroundColor=default;verticalAlign=top;aspect=fixed;imageAspect=0;image=data:image/png,iVBORw0KGgoAAAANSUhEUgAAAT8AAAAtCAYAAADYz2yPAAAACXBIWXMAAAsTAAALEwEAmpwYAAAPoklEQVR4nO3deUwU5//A8Tcs4LIcwoIiAoEqoIgWVFqFkhZvwSOisR5Va+zlQQ2t0Rq1WJoe9jBB60XVVDRNWxUFD6xN0W8U0YjU2+KKuOoWWS5ZWFcWWPj9wY+JK4Lihe0+r792npln5tkJ+2Ge5/nMjFVDQ0MDgiAIFsa6vRsgCILQHkTwEwTBIongJwiCRRLBTxAEiySCnyAIFkkEP0EQLJJNezfg3666upry8nIMBgP19fXt3RxBeGzW1tYoFAqUSiVyuby9m/PMWYk8v8dXXV2NRqPB3d0dZ2dnrK3FhbTw71VfX09lZSWlpaV4e3v/5wOgCH5PoLCwEIVCgYuLS3s3RRCemoqKCgwGA127dm3vpjxT4lLlCRgMBpydndu7GYLwVDk7O2MwGNq7Gc+cCH5PoL6+XnR1hf8ca2trixi/Fr9cQRAskgh+giBYJBH8BEGwSCL4CYJgkdoU/NRqNdnZ2Y91IJVKxe3bt83Krl69yrlz51qtp9frWz2mTqcjKyvrgevU19VcvHjxgetqamq4cOHCQ1r9bFRUVFBaWtqs3GAwcPbs2RbrGQwGbt68+cDy48ePP9U2Pqq7d+9SWVkpLVdUVHD+/Pl2aYsgtEWb7vCQy+UkJiaS/GMyfr5+JCYmcv369Wbbvf7668ycOdOsbPny5Xz44Yd0795dKjt06BAlJSV4eHhIZU2fN2/ezMiRI6mpqWHdunVERESQkpKCv78/4eHhlJWV0alTJ7RaLcnJyURGRgIQHx/PJ598Qm1tLRfOX0Cj0aDX63FwcKCkpITTp0/zzz//UFZWRmBgIP7+/s89mTM3N5fKykpiY2PNysvLy9m/fz8hISEPrJednY1Wq+Wtt94CYM+ePZhMJu7cucNff/1FUVERAE5OTgwdOrRZ/draWmxtbVtsl8lkwtraGisrqxa3qaurIysrC7VaTUFBASUlJURHRzN27FgAioqK+OOPP+jTp0/rJ0EQ2tkjB7/KykpcXV357LPP+PKLL9m4cSNz5syhqKgIhUKB0WjExcWFrKwsVCqVWd0zZ85QU1ODr68vCxYskMpv3ryJg4MDly5dAsDKyopt27YB4OLiwq5duxg9ejTQmFayZ88e1q1bh8FgYNKkSRw6dKhZO1UqFVqtln379hEaGgpAeno6sbGxpKenM3jwYN5//30cHR3beKqencTERO7evUtdXR16vZ7FixcDEBISwpQpUwBoaGjg6NGjzJ07V6rXtWvX/8/K12Fra4uXlxcA9vb2Zvs/d+4cmZmZ5OXl4ejoyPDhwxk+fLgU5O7cuUNqaiq5ubnI5XIGDhzI2LFjkclkzdpqbW1NcXExLi4u1NfXk5SURIcOHTAYDGZX9urrarRFWgYMGPB0T5YgPCWPHPy+/vprRo8eTceOHZk3b57UZdyyZQthYWEcP36cCRMm4OamNKvX0NBAcnIy0dHReHl5sXLlSqmru2XLFsLDw+nRowcAgwYNkuqNHDmSpKQkafn69euMGDECDw8P9Hp9q20NCQlh586dNN284uDgQGhoKD///DNBQUHtFvgqKipIS0ujsLCQmpoaKisrefvtt1m+fDkAGo2GrVu3smTJkmZ1jx07RkBAAO7u7qSkpNCnTx/y8vKAxtvsjEaj2T+dXr16IZPJOHfuHJs3b2b69Ol88MEHlJSU8Ntvv2FlZcXw4cOpq6tjzZo1KJVKli9fjsFgYNu2bVRVVTFjxoxm7TCZTAwcOJDbt29z6tQptFotzs7OXLhwgYKCAl599VUAPLt4sjVlK25ubvj7+z+L0ykIT6RN3d6GhgbS0tLMym7evInBYMDb25vTp0/Tp09vs/Xbt2/nxIkT0hVAXl4ev/zyC7GxsUyePBlo/PGuWLGC8PBwKTBt2LABo9HIqlWrUKvV/PTTT0BjEGipW9jk/Pnz+Pn5cfjwYXQ6HeHh4ajVagB++OEHs9vRRo4cSUREhLSsVqvR6XQPPcbjcHFxYebMmWRmZkrd3iNHjrB9+3ag8fzW1tYSFxcn1Vm8eDEODg6kpqYSGRnJ6tWrkcvl9OvXDx8fH2pqavDy8iIvLw9vb2/0ej0bNmyQrtoOHDjAxIkTCQsLA8DX15dFixaZfd/CwkI++ugj7OzsUCqVzJo1i2XLljFx4sRmV5FVVVWkpaVx584ddDodaWlp9OvXj9zcXAYPHixt16FDB6ZNm8bWrVtJSEgQyeDCC6dNwc/Kyop58+ah0+mAxttg0tLS6NSpE8OGDcPGxob//e+wtL1arSYlJYXp06c328/9Y0/3jzP17duX6upqCgsLKSgoYODAgQB4eno+tJ12dnYoFAp0usbuoEKhkI7Xp08fPDw8SExMZNmyZWbjjQBJSUnk5+ezb9++Rzwrj6+hoYHw8HD69+9vVn7nzh2g8YpVLpdjMBgYMGAADg4OXL16lcTERKBxDG/jxo1ERUVx+vRpxo0bx+XLl80Cd1FREZ6enuzYsYOLFy/SpUsX3njjDYKCggAoLi7Gw8MDOzs7qU7nzp2RyWQUFxfj6+tr1jalUsn8+fP5/fffMRqNzJ8/n9LSUnbv3k1QUBD5+fnStt26dUOpVHLlyhXp6l4QXhRtfqRVamoqOTk52Nra8tJLL9GtWzd0Oh379u2jtraWTp3cpW2NRiMJCQn8/fffZvvQ6/VoNBqzsrq6OrPlpquInJwcLl68SExMjFn91vTs2RMvLy9+/PFHZDIZCQkJ0vjYoEGD8Pf358svv2TMmDHY2Jifgvj4eLPZy2dFrVbzxRdfsHTpUhwcHMzWHT58GJlMRnR0NNA4gTF58mR27txJTEwMbm5uZGVlUVJSwsKFC7lx44ZUt3v37jg5OQGNs8B6vZ709HQ6d+7MuHHjyM/PZ/Xq1Xz88ccEBARQXFyMq6ur2fGtrKxwdXWltLS0WfCDxqCdnZ1NcXExR44cobq6mtdee63Zubx27RqjRo0ym+QShBfFYz3Pb8aMGTg4OJCZmYlSqUSj0ZCTk8OqVavIzT0lbdf03/7+4Ofh4cErr7xiVtY00QGNwa1pXDA3N5e7d+9K6S5yuZzAwMBW22cymfjmm28YP348er2ehIQEkpKSKC8vp2PHjq3W9fPza/3LPwGdTkdmZiYnTpzA3t6eSZMmkZKSwsmTJ822a7qvcs+ePSxevBhfX1+uXbuGSqUiLi6OS5cuMXDgQNLS0tiyZQvz5s0jIyMDKysrAgICmh23urqaadOmARAaGorRaCQzM5OAgAAUCgXV1dUPrHN/l7dJTk4OPXv2xMbGhry8PPr37y/Ntt9rx44dDBkypM3nSRCeh8cKfitWrMDGxobIyEh8fHz4/vvvCQkJaXYF0ZKCggJ2795tVnbvUyRKS0ulYJiXl4ebm5u03LlzZxYuXNjq/jdt2kSvXr1wdnZGo9HQt29fzp49i1arRalUtlr3Waqrq8NoNNK7d2+cnJzo1asXgYGBxMbGolAopO0yMjKQyWSMGDECW1tbDAYDa9euRSaT8e233xIWFkZVVRW2tra4urqSnp5OYWEhWVlZUp5gSEgIfn5+WFlZNZtwCAoK4tdffwUaz+eRI0fM1tfU1KDX63F3d+d+er2eAwcO8N5775Gfn8/UqVPZvHmz1HX39vZm3LhxnD9/Hr1eT79+/Z7qORSEp6XNwe/dd9/lnXfeob6+ntLSUtzd3SkqKuKrr74iPT39kfbx8ssvEx8fb1Z29OhR6bOfnx/r16+ntraW6Oho1q5dazY297Bub0REBMHBwWRkZAAQHR2NyWTCZDI9MH3jeXFzc2PKlCnShAeAjY0NycnJjB49muDgYKlMJpNJ43D29vZMmDCBwMBA3NzcADh9+jT29vbY29tTWVlJTU0NnTt3lo7V9D0DAgKa5TGWl5dJ23p4eFBSUkJZWZm078uXL2Nrayst3+vcuXNERUVJbXN0dDSboHF0dKSyspI1a9Ywe/bsVnMGBaE9tTn4JSUlcfHiRW7cuEG/fv2wt7fHZDJRX19Penq6lJfWmqysLLNxKmhM8L1fZmYmwcHBzSYl7OzszH5w92tKsLW3t5eet3fjxo1HejjjwYMHuXXrVrMk7Wdp8uTJrFu3joSEhGbjf9A4BhceHg6AVqvlwoULREVFSQFu165dyGQyunbtSu/e5rPtMTExJCcn83LIy/j5+nHr1i0OHPhdGk/09PQkLCyM1NRUpk+fjtFoJD09vcU8v9DQUOzs7KioqJDK7t1OpVKxadMmJk6cKCY5hBdam4NfaGgosbGxeHt7s3z5cqqqqkhNTWXOnDlMnToVk8n00H0MGTJEym1rMmzYMLNljUbDypUr+e6775rVt7OzY/z48UBj6sW9DAYD69evNyvLzMxEpVI1O8aDnDx5koKCgmca/O4/R76+vowZM0a6E6Wurs4soBgMBvbv38+ZM2ewtramb9++QGM3ev/+/eTk5DB79mz27NlDdnY2b775ppTOExwczNixY/hmxTfI5XJqamoYMmSI2R0gkyZNYuPGjSxatIiGhgZCQ0NbPFf3ds/vVVJSwp9//smpU6eYPn26lGAuCC+qNge/qKgo6XNERAQjRoxAJpOxd+9eNm3axJo1a5g0adID68bHx3Py5ElMJlOzuzOqqqqIiYlh6dKlDB06lLi4OOLi4lr8ER04cIATJ05w7Ngx6SoGGvPi7p85dnNz4+DBg2zYsOGh3+/TTz99Zg9yNJlMbN26lTNnzkg5jk0iIyPJyMhAq9WSm5vLrFmzpHUNDQ24ubkRHx9Pp06dADh+/Dg7d+7E39+fJUuW4OTkRI8ePcjMzOTzzz9n7ty50ljf0KHDeP31NygrK5PSWO7l7OzMggUL0Ol02NnZtTjR8SB1dXUkJSVx69YtwsPDSUxMfKHunhGEljzyOzxycnLw8fGhS5cuLW6TnZ2Nra0tffv2NUt7UKlULc5EtqSoqKjVY2m1Wm7cuIGjoyM9evR4aBJtRUWFWXLz3r17GTVq1BMl36pUqofOPN/vypUryOVyfHx8mq3TaDRUVFTg5OT0wBSTexUXFwOYjfM1KSoqwtXVlQ4dOrSpbW1hNBopKCggKCgIjUaDp6dnu46nCk/X4/xt/9uIFxg9AUv4AxEskyX8bYt7jgRBsEgi+AmCYJFE8BMEwSKJ4CcIgkUSwe8JWMr7TQXLYinvo/7vf8NnSKFQPJcnwAjC81RZWdliMvt/iQh+T0CpVFJaWkpFRYW4AhT+9err66WXa7XnA0CeF5Hn94Sqq6spLy/HYDCIACj8q1lbW6NQKFAqlc/9pV7tQQQ/QRAskuj2CoJgkUTwEwTBIongJwiCRRLBTxAEiySCnyAIFun/AIA3ExZ7+xTRAAAAAElFTkSuQmCC;" vertex="1" parent="1">
          <mxGeometry x="840" y="847.57" width="319" height="45" as="geometry" />
        </mxCell>
      </root>
    </mxGraphModel>
  </diagram>
</mxfile>
